<svg id="s2m-shape-comment" width="100%" xmlns="http://www.w3.org/2000/svg" class="flowchart" style="max-width: 76px;" viewBox="-21.30 -16.05 102.60 62.10" role="graphics-document document" aria-roledescription="flowchart-v2"><g><marker id="s2m-shape-comment_flowchart-v2-pointEnd" class="marker flowchart-v2" viewBox="0 0 10 10" refX="5" refY="5" markerUnits="userSpaceOnUse" markerWidth="8" markerHeight="8" orient="auto"><path d="M 0 0 L 10 5 L 0 10 z" class="arrowMarkerPath" style="stroke-width: 1; stroke-dasharray: 1,0;"/></marker><marker id="s2m-shape-comment_flowchart-v2-pointStart" class="marker flowchart-v2" viewBox="0 0 10 10" refX="4.5" refY="5" markerUnits="userSpaceOnUse" markerWidth="8" markerHeight="8" orient="auto"><path d="M 0 5 L 10 10 L 10 0 z" class="arrowMarkerPath" style="stroke-width: 1; stroke-dasharray: 1,0;"/></marker><marker id="s2m-shape-comment_flowchart-v2-pointEnd-margin" class="marker flowchart-v2" viewBox="0 0 11.5 14" refX="11.5" refY="7" markerUnits="userSpaceOnUse" markerWidth="10.5" markerHeight="14" orient="auto"><path d="M 0 0 L 11.5 7 L 0 14 z" class="arrowMarkerPath" style="stroke-width: 0; stroke-dasharray: 1,0;"/></marker><marker id="s2m-shape-comment_flowchart-v2-pointStart-margin" class="marker flowchart-v2" viewBox="0 0 11.5 14" refX="1" refY="7" markerUnits="userSpaceOnUse" markerWidth="11.5" markerHeight="14" orient="auto"><polygon points="0,7 11.5,14 11.5,0" class="arrowMarkerPath" style="stroke-width: 0; stroke-dasharray: 1,0;"/></marker><marker id="s2m-shape-comment_flowchart-v2-circleEnd" class="marker flowchart-v2" viewBox="0 0 10 10" refX="11" refY="5" markerUnits="userSpaceOnUse" markerWidth="11" markerHeight="11" orient="auto"><circle cx="5" cy="5" r="5" class="arrowMarkerPath" style="stroke-width: 1; stroke-dasharray: 1,0;"/></marker><marker id="s2m-shape-comment_flowchart-v2-circleStart" class="marker flowchart-v2" viewBox="0 0 10 10" refX="-1" refY="5" markerUnits="userSpaceOnUse" markerWidth="11" markerHeight="11" orient="auto"><circle cx="5" cy="5" r="5" class="arrowMarkerPath" style="stroke-width: 1; stroke-dasharray: 1,0;"/></marker><marker id="s2m-shape-comment_flowchart-v2-circleEnd-margin" class="marker flowchart-v2" viewBox="0 0 10 10" refY="5" refX="12.25" markerUnits="userSpaceOnUse" markerWidth="14" markerHeight="14" orient="auto"><circle cx="5" cy="5" r="5" class="arrowMarkerPath" style="stroke-width: 0; stroke-dasharray: 1,0;"/></marker><marker id="s2m-shape-comment_flowchart-v2-circleStart-margin" class="marker flowchart-v2" viewBox="0 0 10 10" refX="-2" refY="5" markerUnits="userSpaceOnUse" markerWidth="14" markerHeight="14" orient="auto"><circle cx="5" cy="5" r="5" class="arrowMarkerPath" style="stroke-width: 0; stroke-dasharray: 1,0;"/></marker><marker id="s2m-shape-comment_flowchart-v2-crossEnd" class="marker cross flowchart-v2" viewBox="0 0 11 11" refX="12" refY="5.2" markerUnits="userSpaceOnUse" markerWidth="11" markerHeight="11" orient="auto"><path d="M 1,1 l 9,9 M 10,1 l -9,9" class="arrowMarkerPath" style="stroke-width: 2; stroke-dasharray: 1,0;"/></marker><marker id="s2m-shape-comment_flowchart-v2-crossStart" class="marker cross flowchart-v2" viewBox="0 0 11 11" refX="-1" refY="5.2" markerUnits="userSpaceOnUse" markerWidth="11" markerHeight="11" orient="auto"><path d="M 1,1 l 9,9 M 10,1 l -9,9" class="arrowMarkerPath" style="stroke-width: 2; stroke-dasharray: 1,0;"/></marker><marker id="s2m-shape-comment_flowchart-v2-crossEnd-margin" class="marker cross flowchart-v2" viewBox="0 0 15 15" refX="17.7" refY="7.5" markerUnits="userSpaceOnUse" markerWidth="12" markerHeight="12" orient="auto"><path d="M 1,1 L 14,14 M 1,14 L 14,1" class="arrowMarkerPath" style="stroke-width: 2.5;"/></marker><marker id="s2m-shape-comment_flowchart-v2-crossStart-margin" class="marker cross flowchart-v2" viewBox="0 0 15 15" refX="-3.5" refY="7.5" markerUnits="userSpaceOnUse" markerWidth="12" markerHeight="12" orient="auto"><path d="M 1,1 L 14,14 M 1,14 L 14,1" class="arrowMarkerPath" style="stroke-width: 2.5; stroke-dasharray: 1,0;"/></marker><g class="root"><g class="clusters"/><g class="edgePaths"/><g class="edgeLabels"/><g class="nodes"><g class="node default" data-look="classic" transform="translate(38, 23)"><g class="text" transform="translate(5, 0)"><g><path d="M-7.5 12.5 C-7.57400653827721 12.49799521329854, -7.64801307655442 12.495990426597078, -7.770694542927088 12.492667069255619 M-7.5 12.5 C-7.56165686080304 12.498329757647511, -7.623313721606079 12.49665951529502, -7.770694542927088 12.492667069255619 M-7.770694542927088 12.492667069255619 C-7.840555554584432 12.486978472984687, -7.910416566241775 12.481289876713753, -8.040595092119709 12.470689785771798 M-7.770694542927088 12.492667069255619 C-7.864374614255061 12.48503895034101, -7.958054685583033 12.477410831426402, -8.040595092119709 12.470689785771798 M-8.040595092119709 12.470689785771798 C-8.097218264062349 12.462975032814256, -8.153841436004988 12.455260279856715, -8.308909982763824 12.43413261270763 M-8.040595092119709 12.470689785771798 C-8.101192888383945 12.462433501075779, -8.161790684648183 12.454177216379762, -8.308909982763824 12.43413261270763 M-8.308909982763824 12.43413261270763 C-8.363721305318478 12.423615242739555, -8.41853262787313 12.413097872771477, -8.574852201055121 12.383102778550434 M-8.308909982763824 12.43413261270763 C-8.384904913313042 12.419550465022953, -8.460899843862261 12.404968317338277, -8.574852201055121 12.383102778550434 M-8.574852201055121 12.383102778550434 C-8.629216713163762 12.369582930657078, -8.683581225272404 12.356063082763722, -8.837641692646104 12.317749962596114 M-8.574852201055121 12.383102778550434 C-8.659133332797138 12.36214300098166, -8.743414464539153 12.341183223412889, -8.837641692646104 12.317749962596114 M-8.837641692646104 12.317749962596114 C-8.923289032953846 12.291452173633186, -9.00893637326159 12.265154384670257, -9.0965076506799 12.238265855914012 M-8.837641692646104 12.317749962596114 C-8.895318161758441 12.300040555539303, -8.952994630870776 12.282331148482491, -9.0965076506799 12.238265855914012 M-9.0965076506799 12.238265855914012 C-9.163727448945355 12.213570524780177, -9.23094724721081 12.188875193646341, -9.350690776699572 12.144883599083958 M-9.0965076506799 12.238265855914012 C-9.157466144076858 12.215870814293792, -9.218424637473817 12.193475772673574, -9.350690776699572 12.144883599083958 M-9.350690776699572 12.144883599083958 C-9.432762354309666 12.109578974763922, -9.51483393191976 12.074274350443885, -9.599445507801324 12.037877098354784 M-9.350690776699572 12.144883599083958 C-9.437220187215596 12.107661354552294, -9.523749597731621 12.070439110020628, -9.599445507801324 12.037877098354784 M-9.599445507801324 12.037877098354784 C-9.650137863797193 12.012736006060498, -9.700830219793062 11.987594913766214, -9.84204220349895 11.917560222230115 M-9.599445507801324 12.037877098354784 C-9.685757021562962 11.995070531350528, -9.7720685353246 11.95226396434627, -9.84204220349895 11.917560222230115 M-9.84204220349895 11.917560222230115 C-9.895667844350449 11.887241593187277, -9.949293485201947 11.856922964144438, -10.077769285885108 11.784285880837945 M-9.84204220349895 11.917560222230115 C-9.922127962605858 11.87228168786816, -10.002213721712765 11.827003153506205, -10.077769285885108 11.784285880837945 M-10.077769285885108 11.784285880837945 C-10.12410941892406 11.754665845270225, -10.170449551963014 11.725045809702502, -10.305935326811912 11.638444990784453 M-10.077769285885108 11.784285880837945 C-10.146794155575783 11.74016604428986, -10.215819025266459 11.696046207741773, -10.305935326811912 11.638444990784453 M-10.305935326811912 11.638444990784453 C-10.3552667731396 11.603010254688416, -10.404598219467287 11.567575518592378, -10.525871075968826 11.480465328528219 M-10.305935326811912 11.638444990784453 C-10.36722664912578 11.594419485901778, -10.428517971439646 11.5503939810191, -10.525871075968826 11.480465328528219 M-10.525871075968826 11.480465328528219 C-10.5812104085618 11.43598232880998, -10.636549741154775 11.39149932909174, -10.736931423909137 11.310810275638183 M-10.525871075968826 11.480465328528219 C-10.569934491899065 11.445046164137025, -10.613997907829303 11.409626999745832, -10.736931423909137 11.310810275638183 M-10.736931423909137 11.310810275638183 C-10.811289517125058 11.244100651799485, -10.885647610340976 11.177391027960788, -10.938497294267115 11.129977459615654 M-10.736931423909137 11.310810275638183 C-10.792889638953055 11.260607919515023, -10.848847853996972 11.210405563391864, -10.938497294267115 11.129977459615654 M-10.938497294267115 11.129977459615654 C-10.994961654133315 11.073513099749455, -11.051426013999514 11.017048739883256, -11.129977459615654 10.938497294267115 M-10.938497294267115 11.129977459615654 C-10.982151636392407 11.086323117490362, -11.025805978517697 11.042668775365073, -11.129977459615654 10.938497294267115 M-11.129977459615654 10.938497294267115 C-11.17366480233839 10.88980105951712, -11.217352145061128 10.841104824767125, -11.310810275638183 10.736931423909137 M-11.129977459615654 10.938497294267115 C-11.166532756278402 10.897750817216716, -11.203088052941151 10.857004340166318, -11.310810275638183 10.736931423909137 M-11.310810275638183 10.736931423909137 C-11.376755535861221 10.654891842236847, -11.44270079608426 10.572852260564556, -11.480465328528219 10.525871075968826 M-11.310810275638183 10.736931423909137 C-11.346466726399294 10.692572810500584, -11.382123177160405 10.648214197092031, -11.480465328528219 10.525871075968826 M-11.480465328528219 10.525871075968826 C-11.520723662329127 10.469824324900637, -11.560981996130034 10.41377757383245, -11.638444990784453 10.305935326811912 M-11.480465328528219 10.525871075968826 C-11.5393339461653 10.443915504365922, -11.598202563802381 10.361959932763018, -11.638444990784453 10.305935326811912 M-11.638444990784453 10.305935326811912 C-11.695838921707164 10.216143321380114, -11.753232852629875 10.126351315948318, -11.784285880837945 10.077769285885108 M-11.638444990784453 10.305935326811912 C-11.66857658656662 10.25879486494349, -11.698708182348783 10.211654403075068, -11.784285880837945 10.077769285885108 M-11.784285880837945 10.077769285885108 C-11.828137271293963 10.000207767120171, -11.871988661749981 9.922646248355235, -11.917560222230115 9.84204220349895 M-11.784285880837945 10.077769285885108 C-11.834256324613337 9.989384779207615, -11.88422676838873 9.901000272530121, -11.917560222230115 9.84204220349895 M-11.917560222230115 9.84204220349895 C-11.954775998967898 9.767003482787386, -11.991991775705683 9.691964762075822, -12.037877098354786 9.599445507801322 M-11.917560222230115 9.84204220349895 C-11.944896901449855 9.786922853132978, -11.972233580669595 9.731803502767004, -12.037877098354786 9.599445507801322 M-12.037877098354786 9.599445507801322 C-12.05942060789812 9.549363971755172, -12.080964117441457 9.499282435709022, -12.144883599083958 9.350690776699572 M-12.037877098354786 9.599445507801322 C-12.074072571591888 9.515303001029851, -12.11026804482899 9.431160494258378, -12.144883599083958 9.350690776699572 M-12.144883599083958 9.350690776699572 C-12.166855341588992 9.290884488185975, -12.188827084094028 9.231078199672378, -12.238265855914012 9.0965076506799 M-12.144883599083958 9.350690776699572 C-12.16957336359074 9.283486130591644, -12.194263128097521 9.216281484483716, -12.238265855914012 9.0965076506799 M-12.238265855914012 9.0965076506799 C-12.260532457034287 9.023989190427084, -12.282799058154565 8.951470730174266, -12.317749962596114 8.837641692646104 M-12.238265855914012 9.0965076506799 C-12.256350160519005 9.037610205236248, -12.274434465123997 8.978712759792598, -12.317749962596114 8.837641692646104 M-12.317749962596114 8.837641692646104 C-12.33536185174388 8.766822718321677, -12.352973740891644 8.696003743997249, -12.383102778550434 8.57485220105512 M-12.317749962596114 8.837641692646104 C-12.337521391617686 8.758139016216097, -12.357292820639257 8.67863633978609, -12.383102778550434 8.57485220105512 M-12.383102778550434 8.57485220105512 C-12.395380860906295 8.510864917694132, -12.407658943262154 8.446877634333143, -12.43413261270763 8.308909982763822 M-12.383102778550434 8.57485220105512 C-12.401448551467137 8.479243120086776, -12.41979432438384 8.383634039118434, -12.43413261270763 8.308909982763822 M-12.43413261270763 8.308909982763822 C-12.44156889729094 8.254330656258816, -12.449005181874249 8.199751329753811, -12.470689785771798 8.040595092119709 M-12.43413261270763 8.308909982763822 C-12.443776431117858 8.238128249242193, -12.453420249528087 8.167346515720565, -12.470689785771798 8.040595092119709 M-12.470689785771798 8.040595092119709 C-12.476916155886238 7.964129740312195, -12.483142526000677 7.887664388504682, -12.492667069255619 7.770694542927088 M-12.470689785771798 8.040595092119709 C-12.476917365127157 7.964114889760331, -12.483144944482516 7.887634687400952, -12.492667069255619 7.770694542927088 M-12.492667069255619 7.770694542927088 C-12.494567533171967 7.700539071790309, -12.496467997088317 7.630383600653531, -12.5 7.5 M-12.492667069255619 7.770694542927088 C-12.494435751208245 7.705403792279204, -12.496204433160871 7.64011304163132, -12.5 7.5 M-12.5 7.5 C-12.5 6.539651390867974, -12.5 5.579302781735947, -12.5 5 M-12.5 7.5 C-12.5 6.735381761757097, -12.5 5.970763523514194, -12.5 5 M-12.5 5 C-12.5 5, -12.5 5.000000000000001, -12.5 5.000000000000001 M-12.5 5 C-12.5 5, -12.5 5, -12.5 5.000000000000001 M-12.5 5.000000000000001 C-12.505629177500726 4.863899036229379, -12.511258355001452 4.727798072458756, -12.517077534966651 4.58710327263834 M-12.5 5.000000000000001 C-12.505394035446933 4.869584246926706, -12.510788070893865 4.739168493853413, -12.517077534966651 4.58710327263834 M-12.517077534966651 4.58710327263834 C-12.527927144558783 4.500062591476499, -12.538776754150913 4.413021910314657, -12.568193482986388 4.177027048596331 M-12.517077534966651 4.58710327263834 C-12.52816646177479 4.498142675988465, -12.539255388582928 4.409182079338589, -12.568193482986388 4.177027048596331 M-12.568193482986388 4.177027048596331 C-12.587474697666446 4.0850707191920925, -12.606755912346502 3.9931143897878534, -12.652998670303347 3.7725725642960057 M-12.568193482986388 4.177027048596331 C-12.58794342818095 4.082835240862077, -12.607693373375513 3.9886434331278235, -12.652998670303347 3.7725725642960057 M-12.652998670303347 3.7725725642960057 C-12.690428966441127 3.6468464158218485, -12.727859262578907 3.5211202673476913, -12.770913791496827 3.376502653976583 M-12.652998670303347 3.7725725642960057 C-12.6835708048578 3.669882574507613, -12.714142939412254 3.56719258471922, -12.770913791496827 3.376502653976583 M-12.770913791496827 3.376502653976583 C-12.815830336957475 3.2613914133831874, -12.860746882418123 3.146280172789792, -12.921133366724712 2.991522876735154 M-12.770913791496827 3.376502653976583 C-12.803748140478278 3.2923554292385937, -12.836582489459728 3.2082082045006044, -12.921133366724712 2.991522876735154 M-12.921133366724712 2.991522876735154 C-12.991828802036286 2.84691305243864, -13.062524237347862 2.7023032281421253, -13.102631243967554 2.6202630348146325 M-12.921133366724712 2.991522876735154 C-12.986482098804224 2.8578499087087312, -13.051830830883736 2.7241769406823084, -13.102631243967554 2.6202630348146325 M-13.102631243967554 2.6202630348146325 C-13.162024075532532 2.5205890027094515, -13.221416907097511 2.4209149706042705, -13.314167608687356 2.265259209387867 M-13.102631243967554 2.6202630348146325 C-13.164250412674454 2.516852726901184, -13.225869581381351 2.4134424189877355, -13.314167608687356 2.265259209387867 M-13.314167608687356 2.265259209387867 C-13.365167230788183 2.1938297943297003, -13.41616685288901 2.122400379271534, -13.554297453018032 1.9289364365516608 M-13.314167608687356 2.265259209387867 C-13.388240080561816 2.1615142575636166, -13.462312552436279 2.0577693057393667, -13.554297453018032 1.9289364365516608 M-13.554297453018032 1.9289364365516608 C-13.627373760230487 1.8426554036646983, -13.700450067442942 1.756374370777736, -13.821380446634342 1.6135921418712957 M-13.554297453018032 1.9289364365516608 C-13.637701915097072 1.8304609742566176, -13.721106377176113 1.7319855119615741, -13.821380446634342 1.6135921418712957 M-13.821380446634342 1.6135921418712957 C-13.92716776723754 1.5078048212680972, -14.032955087840737 1.4020175006648987, -14.113592141871294 1.321380446634342 M-13.821380446634342 1.6135921418712957 C-13.894222139603697 1.5407504489019395, -13.967063832573054 1.467908755932583, -14.113592141871294 1.321380446634342 M-14.113592141871294 1.321380446634342 C-14.204353899270544 1.2445091593429716, -14.295115656669793 1.1676378720516012, -14.428936436551659 1.054297453018033 M-14.113592141871294 1.321380446634342 C-14.198487004400954 1.2494781658271077, -14.283381866930615 1.1775758850198734, -14.428936436551659 1.054297453018033 M-14.428936436551659 1.054297453018033 C-14.545642204009686 0.9709711366468352, -14.662347971467714 0.8876448202756375, -14.765259209387866 0.8141676086873577 M-14.428936436551659 1.054297453018033 C-14.509348735233345 0.9968841752852489, -14.589761033915032 0.9394708975524647, -14.765259209387866 0.8141676086873577 M-14.765259209387866 0.8141676086873577 C-14.903630382579626 0.7317162860183368, -15.042001555771385 0.649264963349316, -15.120263034814634 0.6026312439675543 M-14.765259209387866 0.8141676086873577 C-14.858925888330623 0.7583543826323754, -14.95259256727338 0.702541156577393, -15.120263034814634 0.6026312439675543 M-15.120263034814634 0.6026312439675543 C-15.243609426711723 0.542330867338945, -15.366955818608812 0.48203049071033555, -15.49152287673515 0.4211333667247139 M-15.120263034814634 0.6026312439675543 C-15.24689110148942 0.5407265542980507, -15.373519168164206 0.47882186462854726, -15.49152287673515 0.4211333667247139 M-15.49152287673515 0.4211333667247139 C-15.581938861591555 0.3858529399546024, -15.67235484644796 0.3505725131844909, -15.876502653976582 0.2709137914968265 M-15.49152287673515 0.4211333667247139 C-15.572596028240167 0.38949852484097525, -15.653669179745181 0.35786368295723653, -15.876502653976582 0.2709137914968265 M-15.876502653976582 0.2709137914968265 C-15.96181580817666 0.24551496504018608, -16.04712896237674 0.22011613858354567, -16.272572564296006 0.15299867030334813 M-15.876502653976582 0.2709137914968265 C-15.999936616728219 0.23416590861546233, -16.123370579479857 0.1974180257340982, -16.272572564296006 0.15299867030334813 M-16.272572564296006 0.15299867030334813 C-16.425962128603977 0.12083626083938173, -16.579351692911946 0.08867385137541535, -16.677027048596326 0.06819348298638861 M-16.272572564296006 0.15299867030334813 C-16.358053590701154 0.13507518388465972, -16.443534617106298 0.11715169746597134, -16.677027048596326 0.06819348298638861 M-16.677027048596326 0.06819348298638861 C-16.80427574617805 0.0523319493742855, -16.931524443759773 0.03647041576218239, -17.087103272638338 0.017077534966650987 M-16.677027048596326 0.06819348298638861 C-16.770398775305544 0.05655470938976922, -16.863770502014763 0.04491593579314983, -17.087103272638338 0.017077534966650987 M-17.087103272638338 0.017077534966650987 C-17.237775013581402 0.010845705664241579, -17.388446754524466 0.0046138763618321695, -17.5 0 M-17.087103272638338 0.017077534966650987 C-17.183843926731733 0.013076311916196626, -17.280584580825128 0.009075088865742265, -17.5 0 M-17.5 0 C-17.5 0, -17.5 0, -17.5 0 M-17.5 0 C-17.5 0, -17.5 0, -17.5 0 M-17.5 0 C-17.349256822455473 -0.0062347839421015225, -17.198513644910943 -0.012469567884203045, -17.087103272638338 -0.017077534966650987 M-17.5 0 C-17.3493373022855 -0.0062314552717092075, -17.198674604571003 -0.012462910543418415, -17.087103272638338 -0.017077534966650987 M-17.087103272638338 -0.017077534966650987 C-16.95936395301035 -0.033000224553043175, -16.831624633382365 -0.04892291413943537, -16.67702704859633 -0.06819348298638772 M-17.087103272638338 -0.017077534966650987 C-16.984085653572688 -0.029918667791599463, -16.881068034507038 -0.04275980061654794, -16.67702704859633 -0.06819348298638772 M-16.67702704859633 -0.06819348298638772 C-16.55862011700699 -0.09302080572069192, -16.440213185417644 -0.11784812845499612, -16.272572564296006 -0.15299867030334813 M-16.67702704859633 -0.06819348298638772 C-16.530399995119915 -0.09893794303932174, -16.3837729416435 -0.12968240309225576, -16.272572564296006 -0.15299867030334813 M-16.272572564296006 -0.15299867030334813 C-16.11951808519664 -0.19856496297539636, -15.96646360609727 -0.2441312556474446, -15.876502653976583 -0.2709137914968265 M-16.272572564296006 -0.15299867030334813 C-16.16484893888691 -0.18506938311076762, -16.057125313477812 -0.21714009591818711, -15.876502653976583 -0.2709137914968265 M-15.876502653976583 -0.2709137914968265 C-15.744650959316886 -0.3223624824041296, -15.61279926465719 -0.3738111733114327, -15.491522876735154 -0.421133366724713 M-15.876502653976583 -0.2709137914968265 C-15.774564283095023 -0.3106902672457008, -15.672625912213462 -0.35046674299457514, -15.491522876735154 -0.421133366724713 M-15.491522876735154 -0.421133366724713 C-15.351083732263398 -0.48978988091048664, -15.210644587791643 -0.5584463950962603, -15.120263034814633 -0.6026312439675543 M-15.491522876735154 -0.421133366724713 C-15.34636421899286 -0.49209711035871023, -15.20120556125057 -0.5630608539927074, -15.120263034814633 -0.6026312439675543 M-15.120263034814633 -0.6026312439675543 C-14.987108527027482 -0.681974108764821, -14.853954019240334 -0.7613169735620877, -14.765259209387867 -0.8141676086873568 M-15.120263034814633 -0.6026312439675543 C-14.983440814808718 -0.6841595908752273, -14.846618594802802 -0.7656879377829002, -14.765259209387867 -0.8141676086873568 M-14.765259209387867 -0.8141676086873568 C-14.687457357277292 -0.8697170633924335, -14.609655505166717 -0.9252665180975103, -14.42893643655166 -1.054297453018032 M-14.765259209387867 -0.8141676086873568 C-14.64891060668969 -0.8972389143215184, -14.53256200399151 -0.9803102199556799, -14.42893643655166 -1.054297453018032 M-14.42893643655166 -1.054297453018032 C-14.306039380783306 -1.1583859496705973, -14.183142325014952 -1.2624744463231625, -14.113592141871296 -1.3213804466343415 M-14.42893643655166 -1.054297453018032 C-14.334442202210353 -1.134329987023249, -14.239947967869046 -1.214362521028466, -14.113592141871296 -1.3213804466343415 M-14.113592141871296 -1.3213804466343415 C-14.018147402601313 -1.416825185904323, -13.922702663331332 -1.5122699251743046, -13.821380446634342 -1.6135921418712948 M-14.113592141871296 -1.3213804466343415 C-14.016499436685967 -1.41847315181967, -13.919406731500638 -1.5155658570049988, -13.821380446634342 -1.6135921418712948 M-13.821380446634342 -1.6135921418712948 C-13.720338096462722 -1.7328926192857825, -13.619295746291101 -1.8521930967002702, -13.554297453018034 -1.9289364365516604 M-13.821380446634342 -1.6135921418712948 C-13.734255585205608 -1.7164602713780301, -13.647130723776872 -1.8193284008847654, -13.554297453018034 -1.9289364365516604 M-13.554297453018034 -1.9289364365516604 C-13.478879002015567 -2.034566549438551, -13.403460551013103 -2.140196662325441, -13.314167608687358 -2.265259209387866 M-13.554297453018034 -1.9289364365516604 C-13.487668286762446 -2.022256390217999, -13.421039120506858 -2.1155763438843374, -13.314167608687358 -2.265259209387866 M-13.314167608687358 -2.265259209387866 C-13.238597169604363 -2.392082769957127, -13.16302673052137 -2.5189063305263883, -13.102631243967554 -2.6202630348146316 M-13.314167608687358 -2.265259209387866 C-13.237234808814117 -2.394369106364533, -13.160302008940874 -2.5234790033412, -13.102631243967554 -2.6202630348146316 M-13.102631243967554 -2.6202630348146316 C-13.060759530294696 -2.70591299411596, -13.018887816621836 -2.7915629534172886, -12.921133366724714 -2.991522876735151 M-13.102631243967554 -2.6202630348146316 C-13.06116203112888 -2.705089665499989, -13.019692818290205 -2.789916296185346, -12.921133366724714 -2.991522876735151 M-12.921133366724714 -2.991522876735151 C-12.87206048964634 -3.117285882372522, -12.822987612567967 -3.2430488880098927, -12.770913791496827 -3.3765026539765817 M-12.921133366724714 -2.991522876735151 C-12.882656770730328 -3.090129941310162, -12.844180174735943 -3.1887370058851734, -12.770913791496827 -3.3765026539765817 M-12.770913791496827 -3.3765026539765817 C-12.741086868731788 -3.476689521488419, -12.711259945966749 -3.5768763890002564, -12.652998670303347 -3.772572564296005 M-12.770913791496827 -3.3765026539765817 C-12.7305957826229 -3.511928458549616, -12.690277773748974 -3.647354263122651, -12.652998670303347 -3.772572564296005 M-12.652998670303347 -3.772572564296005 C-12.619838095519704 -3.930722597301579, -12.586677520736059 -4.088872630307153, -12.568193482986388 -4.1770270485963295 M-12.652998670303347 -3.772572564296005 C-12.622643726891852 -3.9173419277262855, -12.592288783480356 -4.062111291156566, -12.568193482986388 -4.1770270485963295 M-12.568193482986388 -4.1770270485963295 C-12.55039659130322 -4.319802100685741, -12.532599699620055 -4.462577152775151, -12.517077534966651 -4.587103272638337 M-12.568193482986388 -4.1770270485963295 C-12.551940169988132 -4.307418785044693, -12.535686856989875 -4.4378105214930565, -12.517077534966651 -4.587103272638337 M-12.517077534966651 -4.587103272638337 C-12.5123689861055 -4.7009454881096175, -12.507660437244349 -4.814787703580898, -12.5 -4.999999999999999 M-12.517077534966651 -4.587103272638337 C-12.512756390228157 -4.6915789199999, -12.508435245489661 -4.796054567361463, -12.5 -4.999999999999999 M-12.5 -4.999999999999999 C-12.5 -5.8844057133367125, -12.5 -6.768811426673426, -12.5 -7.5 M-12.5 -4.999999999999999 C-12.5 -5.8424936832752214, -12.5 -6.684987366550444, -12.5 -7.5 M-12.5 -7.5 C-12.5 -7.5, -12.5 -7.5, -12.5 -7.5 M-12.5 -7.5 C-12.5 -7.5, -12.5 -7.5, -12.5 -7.5 M-12.5 -7.5 C-12.494650892789565 -7.629329488465906, -12.489301785579128 -7.758658976931812, -12.482922465033349 -7.9128967273616615 M-12.5 -7.5 C-12.496560417968023 -7.583161426240297, -12.493120835936047 -7.666322852480593, -12.482922465033349 -7.9128967273616615 M-12.482922465033349 -7.9128967273616615 C-12.468272064311384 -8.030429146137232, -12.453621663589418 -8.147961564912803, -12.431806517013612 -8.322972951403669 M-12.482922465033349 -7.9128967273616615 C-12.469835787021804 -8.01788422563041, -12.45674910901026 -8.122871723899161, -12.431806517013612 -8.322972951403669 M-12.431806517013612 -8.322972951403669 C-12.411307316608406 -8.420738121091567, -12.3908081162032 -8.518503290779467, -12.347001329696653 -8.727427435703996 M-12.431806517013612 -8.322972951403669 C-12.412537937948114 -8.414869018798802, -12.393269358882616 -8.506765086193933, -12.347001329696653 -8.727427435703996 M-12.347001329696653 -8.727427435703996 C-12.303650337778695 -8.873040850738615, -12.260299345860737 -9.018654265773232, -12.229086208503173 -9.123497346023417 M-12.347001329696653 -8.727427435703996 C-12.314984336236506 -8.83497062100633, -12.282967342776361 -8.942513806308662, -12.229086208503173 -9.123497346023417 M-12.229086208503173 -9.123497346023417 C-12.189641584722741 -9.224585253197471, -12.15019696094231 -9.325673160371526, -12.078866633275286 -9.508477123264846 M-12.229086208503173 -9.123497346023417 C-12.188555791632716 -9.227367902404767, -12.148025374762259 -9.331238458786117, -12.078866633275286 -9.508477123264846 M-12.078866633275286 -9.508477123264846 C-12.011396484871607 -9.646489517741445, -11.943926336467928 -9.784501912218042, -11.897368756032446 -9.879736965185367 M-12.078866633275286 -9.508477123264846 C-12.034220204386413 -9.599802853259039, -11.98957377549754 -9.691128583253233, -11.897368756032446 -9.879736965185367 M-11.897368756032446 -9.879736965185367 C-11.848077817929664 -9.962457832628372, -11.79878687982688 -10.045178700071375, -11.685832391312642 -10.234740790612134 M-11.897368756032446 -9.879736965185367 C-11.84707926068821 -9.964133627904012, -11.796789765343975 -10.048530290622654, -11.685832391312642 -10.234740790612134 M-11.685832391312642 -10.234740790612134 C-11.590198461773225 -10.368684442845662, -11.494564532233806 -10.502628095079192, -11.445702546981968 -10.57106356344834 M-11.685832391312642 -10.234740790612134 C-11.598365099980615 -10.357246354363513, -11.510897808648586 -10.47975191811489, -11.445702546981968 -10.57106356344834 M-11.445702546981968 -10.57106356344834 C-11.377871183397694 -10.651151903095377, -11.310039819813419 -10.731240242742414, -11.178619553365658 -10.886407858128706 M-11.445702546981968 -10.57106356344834 C-11.353727106534416 -10.679658760780583, -11.261751666086864 -10.788253958112826, -11.178619553365658 -10.886407858128706 M-11.178619553365658 -10.886407858128706 C-11.095403703173664 -10.9696237083207, -11.01218785298167 -11.052839558512694, -10.886407858128706 -11.178619553365658 M-11.178619553365658 -10.886407858128706 C-11.088743413188157 -10.976283998306208, -10.998867273010655 -11.06616013848371, -10.886407858128706 -11.178619553365658 M-10.886407858128706 -11.178619553365658 C-10.782967043911496 -11.266229454002179, -10.679526229694288 -11.353839354638701, -10.57106356344834 -11.445702546981968 M-10.886407858128706 -11.178619553365658 C-10.785573976693815 -11.264021494564183, -10.684740095258922 -11.349423435762708, -10.57106356344834 -11.445702546981968 M-10.57106356344834 -11.445702546981968 C-10.45425017285562 -11.529105704794386, -10.3374367822629 -11.612508862606804, -10.234740790612134 -11.685832391312642 M-10.57106356344834 -11.445702546981968 C-10.448770161009104 -11.53301835804869, -10.326476758569868 -11.620334169115411, -10.234740790612134 -11.685832391312642 M-10.234740790612134 -11.685832391312642 C-10.098361169537641 -11.767097006501736, -9.961981548463148 -11.84836162169083, -9.879736965185367 -11.897368756032446 M-10.234740790612134 -11.685832391312642 C-10.155037713004244 -11.733325116986473, -10.075334635396352 -11.780817842660301, -9.879736965185367 -11.897368756032446 M-9.879736965185367 -11.897368756032446 C-9.782818055239595 -11.944749523984218, -9.685899145293822 -11.99213029193599, -9.508477123264848 -12.078866633275286 M-9.879736965185367 -11.897368756032446 C-9.737985256642167 -11.966666943692733, -9.596233548098965 -12.03596513135302, -9.508477123264848 -12.078866633275286 M-9.508477123264848 -12.078866633275286 C-9.408458333650783 -12.117894086089281, -9.30843954403672 -12.156921538903276, -9.123497346023418 -12.229086208503173 M-9.508477123264848 -12.078866633275286 C-9.387841091748765 -12.125938958843596, -9.267205060232682 -12.173011284411904, -9.123497346023418 -12.229086208503173 M-9.123497346023418 -12.229086208503173 C-9.001480701341283 -12.265412137513312, -8.879464056659149 -12.301738066523452, -8.727427435703996 -12.347001329696653 M-9.123497346023418 -12.229086208503173 C-8.965204787946396 -12.27621194485266, -8.806912229869374 -12.323337681202148, -8.727427435703996 -12.347001329696653 M-8.727427435703996 -12.347001329696653 C-8.625116052564982 -12.368453770820581, -8.522804669425966 -12.389906211944508, -8.32297295140367 -12.431806517013612 M-8.727427435703996 -12.347001329696653 C-8.587123511742579 -12.376419968912474, -8.446819587781162 -12.405838608128295, -8.32297295140367 -12.431806517013612 M-8.32297295140367 -12.431806517013612 C-8.193079669575862 -12.447997697708212, -8.063186387748056 -12.464188878402812, -7.912896727361662 -12.482922465033349 M-8.32297295140367 -12.431806517013612 C-8.236644024929696 -12.442567406476424, -8.15031509845572 -12.453328295939237, -7.912896727361662 -12.482922465033349 M-7.912896727361662 -12.482922465033349 C-7.780164195816858 -12.488412323146665, -7.647431664272053 -12.493902181259983, -7.5 -12.5 M-7.912896727361662 -12.482922465033349 C-7.812084962982997 -12.48709207045073, -7.711273198604331 -12.491261675868113, -7.5 -12.5" stroke="currentColor" stroke-width="2" fill="none" vector-effect="non-scaling-stroke"/></g><g stroke-opacity="0"><path d="M7.5 -12.5 C1.6623780123926313 -12.5, -4.1752439752147374 -12.5, -7.5 -12.5 M7.5 -12.5 C3.834752987571828 -12.5, 0.16950597514365562 -12.5, -7.5 -12.5 M-7.5 -12.5 C-7.5 -2.502263419538078, -7.5 7.495473160923844, -7.5 12.5 M-7.5 -12.5 C-7.5 -5.428526711705736, -7.5 1.6429465765885283, -7.5 12.5 M-7.5 12.5 C-7.625471728840903 12.49481045090791, -7.750943457681807 12.48962090181582, -7.912896727361662 12.482922465033349 M-7.5 12.5 C-7.621655304611697 12.49496829938164, -7.7433106092233945 12.489936598763279, -7.912896727361662 12.482922465033349 M-7.912896727361662 12.482922465033349 C-8.043869406880955 12.46659673755682, -8.174842086400245 12.450271010080291, -8.32297295140367 12.431806517013612 M-7.912896727361662 12.482922465033349 C-8.009566741989332 12.47087256027645, -8.106236756617001 12.458822655519551, -8.32297295140367 12.431806517013612 M-8.32297295140367 12.431806517013612 C-8.475011730236654 12.399927337479534, -8.627050509069637 12.368048157945458, -8.727427435703996 12.347001329696653 M-8.32297295140367 12.431806517013612 C-8.424577409360685 12.410502302512965, -8.5261818673177 12.389198088012318, -8.727427435703996 12.347001329696653 M-8.727427435703996 12.347001329696653 C-8.830672843702187 12.316263839976823, -8.93391825170038 12.285526350256994, -9.123497346023418 12.229086208503173 M-8.727427435703996 12.347001329696653 C-8.847053305097885 12.311387165328348, -8.966679174491775 12.275773000960042, -9.123497346023418 12.229086208503173 M-9.123497346023418 12.229086208503173 C-9.23684525122449 12.184857718647724, -9.350193156425563 12.140629228792273, -9.508477123264848 12.078866633275286 M-9.123497346023418 12.229086208503173 C-9.26727200673332 12.172985161806295, -9.411046667443223 12.116884115109418, -9.508477123264848 12.078866633275286 M-9.508477123264848 12.078866633275286 C-9.620730175621228 12.02398945988826, -9.732983227977607 11.969112286501232, -9.879736965185367 11.897368756032446 M-9.508477123264848 12.078866633275286 C-9.628982192640633 12.01995529458709, -9.749487262016416 11.961043955898893, -9.879736965185367 11.897368756032446 M-9.879736965185367 11.897368756032446 C-9.958332458027979 11.850536007626705, -10.03692795087059 11.803703259220963, -10.234740790612134 11.685832391312642 M-9.879736965185367 11.897368756032446 C-10.00801657118416 11.820930702194428, -10.136296177182954 11.74449264835641, -10.234740790612134 11.685832391312642 M-10.234740790612134 11.685832391312642 C-10.319404716162104 11.625383510342457, -10.404068641712074 11.564934629372274, -10.57106356344834 11.445702546981968 M-10.234740790612134 11.685832391312642 C-10.307531862110462 11.633860565200026, -10.380322933608788 11.58188873908741, -10.57106356344834 11.445702546981968 M-10.57106356344834 11.445702546981968 C-10.69463522221263 11.341042690737059, -10.81820688097692 11.236382834492147, -10.886407858128706 11.178619553365658 M-10.57106356344834 11.445702546981968 C-10.669919322677579 11.361975989829824, -10.768775081906817 11.27824943267768, -10.886407858128706 11.178619553365658 M-10.886407858128706 11.178619553365658 C-10.954847102579905 11.11018030891446, -11.023286347031103 11.041741064463261, -11.178619553365658 10.886407858128706 M-10.886407858128706 11.178619553365658 C-10.997295884448056 11.067731527046309, -11.108183910767403 10.956843500726961, -11.178619553365658 10.886407858128706 M-11.178619553365658 10.886407858128706 C-11.268676115942055 10.780078275617774, -11.358732678518454 10.673748693106841, -11.445702546981968 10.57106356344834 M-11.178619553365658 10.886407858128706 C-11.268422371366826 10.780377871271623, -11.358225189367994 10.67434788441454, -11.445702546981968 10.57106356344834 M-11.445702546981968 10.57106356344834 C-11.53555724031851 10.445214235142117, -11.625411933655053 10.319364906835897, -11.685832391312642 10.234740790612134 M-11.445702546981968 10.57106356344834 C-11.503702573589441 10.489829471836066, -11.561702600196915 10.40859538022379, -11.685832391312642 10.234740790612134 M-11.685832391312642 10.234740790612134 C-11.734922005885887 10.152357787645668, -11.784011620459129 10.069974784679202, -11.897368756032446 9.879736965185367 M-11.685832391312642 10.234740790612134 C-11.755862523791802 10.117215064204881, -11.82589265627096 9.999689337797626, -11.897368756032446 9.879736965185367 M-11.897368756032446 9.879736965185367 C-11.951069960093308 9.76988939653363, -12.004771164154173 9.66004182788189, -12.078866633275286 9.508477123264846 M-11.897368756032446 9.879736965185367 C-11.94780012794895 9.776577945091125, -11.998231499865454 9.673418924996882, -12.078866633275286 9.508477123264846 M-12.078866633275286 9.508477123264846 C-12.130508177693226 9.376131187415526, -12.182149722111166 9.243785251566207, -12.229086208503173 9.123497346023417 M-12.078866633275286 9.508477123264846 C-12.120027324155453 9.40299131302932, -12.161188015035622 9.297505502793793, -12.229086208503173 9.123497346023417 M-12.229086208503173 9.123497346023417 C-12.275439842316658 8.967798234648534, -12.321793476130145 8.81209912327365, -12.347001329696653 8.727427435703996 M-12.229086208503173 9.123497346023417 C-12.261182290836421 9.01568850587919, -12.293278373169672 8.907879665734965, -12.347001329696653 8.727427435703996 M-12.347001329696653 8.727427435703996 C-12.364468490233183 8.644122727224445, -12.381935650769712 8.560818018744895, -12.431806517013612 8.32297295140367 M-12.347001329696653 8.727427435703996 C-12.369679106014816 8.619272161055992, -12.392356882332981 8.51111688640799, -12.431806517013612 8.32297295140367 M-12.431806517013612 8.32297295140367 C-12.44829687169184 8.190679554889726, -12.464787226370069 8.058386158375784, -12.482922465033349 7.9128967273616615 M-12.431806517013612 8.32297295140367 C-12.448404739705868 8.189814186847043, -12.465002962398126 8.056655422290413, -12.482922465033349 7.9128967273616615 M-12.482922465033349 7.9128967273616615 C-12.4888114110275 7.770515140479067, -12.494700357021653 7.628133553596472, -12.5 7.5 M-12.482922465033349 7.9128967273616615 C-12.48772077520513 7.796884283489437, -12.49251908537691 7.680871839617212, -12.5 7.5 M-12.5 7.5 C-12.5 3.7769474135050642, -12.5 0.05389482701012849, -12.5 -5 M-12.5 7.5 C-12.5 3.43933175168112, -12.5 -0.6213364966377597, -12.5 -5 M-12.5 -5 C-9.349036767893228 -1.2929844328155622, -6.198073535786455 2.4140311343688756, -4 5.000000000000001 M-12.5 -5 C-9.379110873942434 -1.328365734049922, -6.258221747884868 2.343268531900156, -4 5.000000000000001 M-4 5.000000000000001 C-4.004065932543395 4.901694814613496, -4.00813186508679 4.8033896292269915, -4.017077534966651 4.58710327263834 M-4 5.000000000000001 C-4.003617660187751 4.912533040913349, -4.007235320375502 4.825066081826698, -4.017077534966651 4.58710327263834 M-4.017077534966651 4.58710327263834 C-4.033300255791673 4.456956961020606, -4.049522976616695 4.326810649402872, -4.068193482986388 4.177027048596331 M-4.017077534966651 4.58710327263834 C-4.035519282632672 4.439154881958052, -4.053961030298693 4.291206491277762, -4.068193482986388 4.177027048596331 M-4.068193482986388 4.177027048596331 C-4.09147924026823 4.065972179773627, -4.114764997550071 3.9549173109509215, -4.152998670303347 3.7725725642960057 M-4.068193482986388 4.177027048596331 C-4.101570138899893 4.017846477427821, -4.1349467948133976 3.858665906259312, -4.152998670303347 3.7725725642960057 M-4.152998670303347 3.7725725642960057 C-4.199020763725511 3.6179870774650205, -4.245042857147675 3.4634015906340356, -4.2709137914968265 3.376502653976583 M-4.152998670303347 3.7725725642960057 C-4.194962566806501 3.6316183206296166, -4.236926463309654 3.4906640769632276, -4.2709137914968265 3.376502653976583 M-4.2709137914968265 3.376502653976583 C-4.319902649044384 3.2509549719427318, -4.368891506591941 3.1254072899088805, -4.421133366724712 2.991522876735154 M-4.2709137914968265 3.376502653976583 C-4.304049578647263 3.2915829094190414, -4.3371853657976995 3.2066631648615, -4.421133366724712 2.991522876735154 M-4.421133366724712 2.991522876735154 C-4.48945452588764 2.851769711926965, -4.557775685050568 2.7120165471187754, -4.602631243967554 2.6202630348146325 M-4.421133366724712 2.991522876735154 C-4.480887459278073 2.869293926774584, -4.540641551831434 2.7470649768140145, -4.602631243967554 2.6202630348146325 M-4.602631243967554 2.6202630348146325 C-4.655013722436431 2.5323538932047804, -4.707396200905308 2.4444447515949284, -4.814167608687356 2.265259209387867 M-4.602631243967554 2.6202630348146325 C-4.654390946732496 2.533399045689898, -4.706150649497438 2.4465350565651636, -4.814167608687356 2.265259209387867 M-4.814167608687356 2.265259209387867 C-4.899552500363211 2.1456702278233872, -4.984937392039066 2.0260812462589075, -5.054297453018032 1.9289364365516608 M-4.814167608687356 2.265259209387867 C-4.872101345792971 2.184117961999672, -4.930035082898585 2.1029767146114775, -5.054297453018032 1.9289364365516608 M-5.054297453018032 1.9289364365516608 C-5.108715836235874 1.8646847728978937, -5.163134219453717 1.8004331092441266, -5.3213804466343415 1.6135921418712957 M-5.054297453018032 1.9289364365516608 C-5.137932832898039 1.8301883301242114, -5.221568212778045 1.731440223696762, -5.3213804466343415 1.6135921418712957 M-5.3213804466343415 1.6135921418712957 C-5.396504123432583 1.5384684650730547, -5.471627800230823 1.4633447882748136, -5.613592141871294 1.321380446634342 M-5.3213804466343415 1.6135921418712957 C-5.3955242478556285 1.5394483406500086, -5.469668049076915 1.4653045394287216, -5.613592141871294 1.321380446634342 M-5.613592141871294 1.321380446634342 C-5.691555166791117 1.2553491328029787, -5.769518191710939 1.1893178189716154, -5.92893643655166 1.054297453018033 M-5.613592141871294 1.321380446634342 C-5.736151010733514 1.2175783796804147, -5.858709879595734 1.1137763127264872, -5.92893643655166 1.054297453018033 M-5.92893643655166 1.054297453018033 C-6.0115513663746505 0.9953115268778312, -6.09416629619764 0.9363256007376294, -6.265259209387866 0.8141676086873577 M-5.92893643655166 1.054297453018033 C-6.03679391045194 0.977288696818857, -6.144651384352221 0.9002799406196811, -6.265259209387866 0.8141676086873577 M-6.265259209387866 0.8141676086873577 C-6.385433030672177 0.7425595541589016, -6.505606851956488 0.6709514996304454, -6.620263034814633 0.6026312439675543 M-6.265259209387866 0.8141676086873577 C-6.3697531580738165 0.7519027302352141, -6.4742471067597664 0.6896378517830707, -6.620263034814633 0.6026312439675543 M-6.620263034814633 0.6026312439675543 C-6.755585431278734 0.536476155459742, -6.890907827742833 0.47032106695192977, -6.99152287673515 0.4211333667247139 M-6.620263034814633 0.6026312439675543 C-6.710961049574133 0.5582916863578916, -6.8016590643336325 0.5139521287482289, -6.99152287673515 0.4211333667247139 M-6.99152287673515 0.4211333667247139 C-7.087997464651228 0.3834888657047287, -7.1844720525673065 0.34584436468474344, -7.376502653976582 0.2709137914968265 M-6.99152287673515 0.4211333667247139 C-7.1206505859955165 0.3707475782185357, -7.249778295255883 0.3203617897123575, -7.376502653976582 0.2709137914968265 M-7.376502653976582 0.2709137914968265 C-7.515419896897377 0.2295563363908352, -7.654337139818173 0.1881988812848439, -7.772572564296004 0.15299867030334813 M-7.376502653976582 0.2709137914968265 C-7.476208834940677 0.24122997531740872, -7.575915015904773 0.21154615913799096, -7.772572564296004 0.15299867030334813 M-7.772572564296004 0.15299867030334813 C-7.871301222919056 0.1322974475129413, -7.970029881542108 0.11159622472253453, -8.177027048596328 0.06819348298638861 M-7.772572564296004 0.15299867030334813 C-7.877223601864875 0.13105565523381502, -7.981874639433745 0.10911264016428188, -8.177027048596328 0.06819348298638861 M-8.177027048596328 0.06819348298638861 C-8.302293797056391 0.05257899907466052, -8.427560545516455 0.036964515162932435, -8.587103272638336 0.017077534966650987 M-8.177027048596328 0.06819348298638861 C-8.299211489345694 0.05296320833012008, -8.42139593009506 0.03773293367385155, -8.587103272638336 0.017077534966650987 M-8.587103272638336 0.017077534966650987 C-8.72283753621313 0.011463524298213866, -8.85857179978792 0.005849513629776747, -8.999999999999998 0 M-8.587103272638336 0.017077534966650987 C-8.721481366961127 0.011519615873387491, -8.855859461283918 0.005961696780123996, -8.999999999999998 0 M-8.999999999999998 0 C-8.999999999999998 0, -9 0, -9 0 M-8.999999999999998 0 C-8.999999999999998 0, -9 0, -9 0 M-9 0 C-8.89736135293556 -0.004245165844187965, -8.794722705871122 -0.00849033168837593, -8.58710327263834 -0.017077534966650987 M-9 0 C-8.884355079997274 -0.004783109272097141, -8.768710159994546 -0.009566218544194281, -8.58710327263834 -0.017077534966650987 M-8.58710327263834 -0.017077534966650987 C-8.501080669410557 -0.027800241276644946, -8.415058066182775 -0.038522947586638906, -8.177027048596331 -0.06819348298638772 M-8.58710327263834 -0.017077534966650987 C-8.481054434514913 -0.0302965088531136, -8.375005596391489 -0.043515482739576214, -8.177027048596331 -0.06819348298638772 M-8.177027048596331 -0.06819348298638772 C-8.076838452051248 -0.08920082256806511, -7.976649855506164 -0.1102081621497425, -7.772572564296004 -0.15299867030334813 M-8.177027048596331 -0.06819348298638772 C-8.018957171691428 -0.10133725080312724, -7.860887294786526 -0.13448101861986675, -7.772572564296004 -0.15299867030334813 M-7.772572564296004 -0.15299867030334813 C-7.65622160059903 -0.1876378530027918, -7.539870636902056 -0.22227703570223545, -7.376502653976583 -0.2709137914968265 M-7.772572564296004 -0.15299867030334813 C-7.662272834853351 -0.18583632251062968, -7.551973105410697 -0.21867397471791122, -7.376502653976583 -0.2709137914968265 M-7.376502653976583 -0.2709137914968265 C-7.250891137174195 -0.3199275574483607, -7.125279620371807 -0.36894132339989494, -6.991522876735153 -0.421133366724713 M-7.376502653976583 -0.2709137914968265 C-7.2312161839917 -0.3276047480033583, -7.0859297140068165 -0.38429570450989015, -6.991522876735153 -0.421133366724713 M-6.991522876735153 -0.421133366724713 C-6.890452750649268 -0.47054354058666675, -6.789382624563384 -0.5199537144486205, -6.6202630348146325 -0.6026312439675543 M-6.991522876735153 -0.421133366724713 C-6.903310158599071 -0.4642579368497725, -6.8150974404629885 -0.507382506974832, -6.6202630348146325 -0.6026312439675543 M-6.6202630348146325 -0.6026312439675543 C-6.540876121888732 -0.6499355763828026, -6.461489208962831 -0.697239908798051, -6.2652592093878665 -0.8141676086873568 M-6.6202630348146325 -0.6026312439675543 C-6.5325962884955615 -0.654869286193877, -6.44492954217649 -0.7071073284201997, -6.2652592093878665 -0.8141676086873568 M-6.2652592093878665 -0.8141676086873568 C-6.186665198181463 -0.8702826541157805, -6.108071186975058 -0.9263976995442043, -5.928936436551661 -1.054297453018032 M-6.2652592093878665 -0.8141676086873568 C-6.194878792089041 -0.8644182607837756, -6.124498374790215 -0.9146689128801944, -5.928936436551661 -1.054297453018032 M-5.928936436551661 -1.054297453018032 C-5.832569975068117 -1.1359156825259529, -5.736203513584575 -1.217533912033874, -5.613592141871296 -1.3213804466343415 M-5.928936436551661 -1.054297453018032 C-5.848114114521382 -1.122750467970302, -5.767291792491105 -1.191203482922572, -5.613592141871296 -1.3213804466343415 M-5.613592141871296 -1.3213804466343415 C-5.505500476130585 -1.4294721123750516, -5.397408810389875 -1.5375637781157616, -5.3213804466343415 -1.6135921418712948 M-5.613592141871296 -1.3213804466343415 C-5.547056223749818 -1.3879163647558188, -5.480520305628341 -1.4544522828772963, -5.3213804466343415 -1.6135921418712948 M-5.3213804466343415 -1.6135921418712948 C-5.23607117115248 -1.7143166131012668, -5.150761895670619 -1.8150410843312386, -5.054297453018033 -1.9289364365516604 M-5.3213804466343415 -1.6135921418712948 C-5.264693281537998 -1.6805225512271846, -5.208006116441654 -1.7474529605830744, -5.054297453018033 -1.9289364365516604 M-5.054297453018033 -1.9289364365516604 C-4.977546428164589 -2.036432935242528, -4.900795403311146 -2.1439294339333954, -4.814167608687358 -2.265259209387866 M-5.054297453018033 -1.9289364365516604 C-4.995520275989939 -2.0112589950519317, -4.936743098961846 -2.0935815535522027, -4.814167608687358 -2.265259209387866 M-4.814167608687358 -2.265259209387866 C-4.761832547429031 -2.353088774650839, -4.709497486170705 -2.440918339913812, -4.602631243967555 -2.6202630348146316 M-4.814167608687358 -2.265259209387866 C-4.743123637580806 -2.3844863765453512, -4.672079666474253 -2.503713543702837, -4.602631243967555 -2.6202630348146316 M-4.602631243967555 -2.6202630348146316 C-4.564652718428335 -2.6979493505019474, -4.526674192889116 -2.7756356661892636, -4.421133366724714 -2.991522876735151 M-4.602631243967555 -2.6202630348146316 C-4.558314428178173 -2.71091453043721, -4.513997612388791 -2.8015660260597888, -4.421133366724714 -2.991522876735151 M-4.421133366724714 -2.991522876735151 C-4.3748957102201915 -3.1100198347665713, -4.328658053715669 -3.2285167927979916, -4.2709137914968265 -3.3765026539765817 M-4.421133366724714 -2.991522876735151 C-4.390968625955135 -3.06882848197602, -4.360803885185556 -3.1461340872168884, -4.2709137914968265 -3.3765026539765817 M-4.2709137914968265 -3.3765026539765817 C-4.245058974452226 -3.4633474535623576, -4.219204157407624 -3.5501922531481336, -4.152998670303347 -3.772572564296005 M-4.2709137914968265 -3.3765026539765817 C-4.237243495984878 -3.4895991829786923, -4.20357320047293 -3.602695711980803, -4.152998670303347 -3.772572564296005 M-4.152998670303347 -3.772572564296005 C-4.121333810532639 -3.9235892053080446, -4.08966895076193 -4.074605846320084, -4.068193482986389 -4.1770270485963295 M-4.152998670303347 -3.772572564296005 C-4.133658803863033 -3.864808616771423, -4.114318937422718 -3.9570446692468413, -4.068193482986389 -4.1770270485963295 M-4.068193482986389 -4.1770270485963295 C-4.055517877187348 -4.27871673185347, -4.042842271388308 -4.38040641511061, -4.017077534966651 -4.587103272638337 M-4.068193482986389 -4.1770270485963295 C-4.055324318988914 -4.280269546938022, -4.042455154991439 -4.383512045279715, -4.017077534966651 -4.587103272638337 M-4.017077534966651 -4.587103272638337 C-4.011225384986441 -4.728595213927107, -4.005373235006231 -4.870087155215876, -4 -4.999999999999999 M-4.017077534966651 -4.587103272638337 C-4.012090273741257 -4.707684131789515, -4.007103012515862 -4.828264990940693, -4 -4.999999999999999 M-4 -4.999999999999999 C-6.4053458694610494 -1.4627266625572792, -8.810691738922099 2.0745466748854406, -12.5 7.5 M-4 -4.999999999999999 C-5.726490651794177 -2.461043159126209, -7.452981303588354 0.07791368174758073, -12.5 7.5 M-12.5 7.5 C-12.5 1.7818350466520636, -12.5 -3.936329906695873, -12.5 -7.5 M-12.5 7.5 C-12.5 2.2944666987474696, -12.5 -2.911066602505061, -12.5 -7.5 M-12.5 -7.5 C-12.495648630706329 -7.605206409731085, -12.49129726141266 -7.710412819462171, -12.482922465033349 -7.9128967273616615 M-12.5 -7.5 C-12.495030786746083 -7.620144499432199, -12.490061573492168 -7.740288998864399, -12.482922465033349 -7.9128967273616615 M-12.482922465033349 -7.9128967273616615 C-12.472092106993273 -7.999782963500377, -12.461261748953198 -8.086669199639092, -12.431806517013612 -8.322972951403669 M-12.482922465033349 -7.9128967273616615 C-12.471568942473448 -8.003980035826212, -12.460215419913549 -8.095063344290761, -12.431806517013612 -8.322972951403669 M-12.431806517013612 -8.322972951403669 C-12.398295139780195 -8.482796038008944, -12.36478376254678 -8.64261912461422, -12.347001329696653 -8.727427435703996 M-12.431806517013612 -8.322972951403669 C-12.398606920105951 -8.481309089452399, -12.36540732319829 -8.63964522750113, -12.347001329696653 -8.727427435703996 M-12.347001329696653 -8.727427435703996 C-12.31147182087404 -8.846768952132367, -12.275942312051429 -8.966110468560737, -12.229086208503173 -9.123497346023417 M-12.347001329696653 -8.727427435703996 C-12.31370592100743 -8.839264742065666, -12.280410512318209 -8.951102048427336, -12.229086208503173 -9.123497346023417 M-12.229086208503173 -9.123497346023417 C-12.17233623496448 -9.268935063699292, -12.115586261425786 -9.414372781375167, -12.078866633275286 -9.508477123264846 M-12.229086208503173 -9.123497346023417 C-12.19595677090039 -9.20840081808493, -12.162827333297606 -9.293304290146443, -12.078866633275286 -9.508477123264846 M-12.078866633275286 -9.508477123264846 C-12.010108726696819 -9.649123669190853, -11.94135082011835 -9.78977021511686, -11.897368756032446 -9.879736965185367 M-12.078866633275286 -9.508477123264846 C-12.036235092993255 -9.595681332737545, -11.993603552711225 -9.682885542210245, -11.897368756032446 -9.879736965185367 M-11.897368756032446 -9.879736965185367 C-11.832813849086447 -9.98807407755966, -11.768258942140449 -10.096411189933951, -11.685832391312642 -10.234740790612134 M-11.897368756032446 -9.879736965185367 C-11.817810451702977 -10.013253027158159, -11.738252147373508 -10.146769089130952, -11.685832391312642 -10.234740790612134 M-11.685832391312642 -10.234740790612134 C-11.610593042008142 -10.340120055963405, -11.535353692703643 -10.445499321314674, -11.445702546981968 -10.57106356344834 M-11.685832391312642 -10.234740790612134 C-11.60536616680936 -10.347440750169588, -11.524899942306078 -10.46014070972704, -11.445702546981968 -10.57106356344834 M-11.445702546981968 -10.57106356344834 C-11.375914937554494 -10.65346163819791, -11.306127328127019 -10.73585971294748, -11.178619553365658 -10.886407858128706 M-11.445702546981968 -10.57106356344834 C-11.380187281502618 -10.648417291230283, -11.314672016023268 -10.725771019012228, -11.178619553365658 -10.886407858128706 M-11.178619553365658 -10.886407858128706 C-11.114549616296149 -10.950477795198216, -11.05047967922664 -11.014547732267724, -10.886407858128706 -11.178619553365658 M-11.178619553365658 -10.886407858128706 C-11.10160297937573 -10.963424432118634, -11.024586405385802 -11.040441006108562, -10.886407858128706 -11.178619553365658 M-10.886407858128706 -11.178619553365658 C-10.765641936820751 -11.280903071202736, -10.644876015512796 -11.383186589039816, -10.57106356344834 -11.445702546981968 M-10.886407858128706 -11.178619553365658 C-10.772877201473515 -11.27477511463062, -10.659346544818321 -11.37093067589558, -10.57106356344834 -11.445702546981968 M-10.57106356344834 -11.445702546981968 C-10.48845387716726 -11.504684729305204, -10.40584419088618 -11.563666911628442, -10.234740790612134 -11.685832391312642 M-10.57106356344834 -11.445702546981968 C-10.479208747097637 -11.51128562530078, -10.387353930746936 -11.57686870361959, -10.234740790612134 -11.685832391312642 M-10.234740790612134 -11.685832391312642 C-10.136537889148412 -11.744348619287369, -10.03833498768469 -11.802864847262097, -9.879736965185367 -11.897368756032446 M-10.234740790612134 -11.685832391312642 C-10.150617034708144 -11.735959269492374, -10.066493278804154 -11.786086147672105, -9.879736965185367 -11.897368756032446 M-9.879736965185367 -11.897368756032446 C-9.775112623868747 -11.948516479844066, -9.670488282552128 -11.999664203655689, -9.508477123264848 -12.078866633275286 M-9.879736965185367 -11.897368756032446 C-9.74264036202034 -11.964391201344437, -9.605543758855315 -12.031413646656427, -9.508477123264848 -12.078866633275286 M-9.508477123264848 -12.078866633275286 C-9.399401860945673 -12.121427932704739, -9.2903265986265 -12.163989232134192, -9.123497346023418 -12.229086208503173 M-9.508477123264848 -12.078866633275286 C-9.411451953082235 -12.116725972162339, -9.31442678289962 -12.154585311049393, -9.123497346023418 -12.229086208503173 M-9.123497346023418 -12.229086208503173 C-8.97479798781467 -12.273355925509538, -8.826098629605921 -12.317625642515903, -8.727427435703996 -12.347001329696653 M-9.123497346023418 -12.229086208503173 C-9.027416826029006 -12.257690618644647, -8.931336306034593 -12.286295028786121, -8.727427435703996 -12.347001329696653 M-8.727427435703996 -12.347001329696653 C-8.629663620904815 -12.36750024601157, -8.531899806105631 -12.387999162326485, -8.32297295140367 -12.431806517013612 M-8.727427435703996 -12.347001329696653 C-8.631721086014807 -12.36706884094419, -8.536014736325615 -12.38713635219173, -8.32297295140367 -12.431806517013612 M-8.32297295140367 -12.431806517013612 C-8.168039822584053 -12.451118911380732, -8.013106693764437 -12.470431305747852, -7.912896727361662 -12.482922465033349 M-8.32297295140367 -12.431806517013612 C-8.180290636399828 -12.449591849031117, -8.037608321395988 -12.467377181048624, -7.912896727361662 -12.482922465033349 M-7.912896727361662 -12.482922465033349 C-7.800523916480739 -12.487570238871088, -7.6881511055998155 -12.492218012708829, -7.5 -12.5 M-7.912896727361662 -12.482922465033349 C-7.811728195708412 -12.487106826454358, -7.710559664055162 -12.491291187875367, -7.5 -12.5 M-7.5 -12.5 C-7.5 -6.447801640206883, -7.5 -0.39560328041376636, -7.5 12.5 M-7.5 -12.5 C-7.5 -6.107423571467296, -7.5 0.28515285706540716, -7.5 12.5 M-7.5 12.5 C-3.742158821237359 12.5, 0.015682357525282242 12.5, 7.5 12.5 M-7.5 12.5 C-2.9295930245445927 12.5, 1.6408139509108146 12.5, 7.5 12.5 M7.5 12.5 C7.5 4.540159246968867, 7.5 -3.4196815060622665, 7.5 -12.5 M7.5 12.5 C7.5 7.0573354425341455, 7.5 1.614670885068291, 7.5 -12.5" stroke="currentColor" stroke-width="2" fill="none" vector-effect="non-scaling-stroke"/></g></g></g></g></g></g><linearGradient id="s2m-shape-comment-gradient" gradientUnits="objectBoundingBox" x1="0%" y1="0%" x2="100%" y2="0%"><stop offset="0%" stop-color="hsl(40.5882352941, 60%, 83.3333333333%)" stop-opacity="1"/><stop offset="100%" stop-color="hsl(-79.4117647059, 60%, 83.3333333333%)" stop-opacity="1"/></linearGradient></svg>