<svg id="s2m-shape-commentRight" width="100%" xmlns="http://www.w3.org/2000/svg" class="flowchart" style="max-width: 76px;" viewBox="-8 -8 76 46" role="graphics-document document" aria-roledescription="flowchart-v2"><g><marker id="s2m-shape-commentRight_flowchart-v2-pointEnd" class="marker flowchart-v2" viewBox="0 0 10 10" refX="5" refY="5" markerUnits="userSpaceOnUse" markerWidth="8" markerHeight="8" orient="auto"><path d="M 0 0 L 10 5 L 0 10 z" class="arrowMarkerPath" style="stroke-width: 1; stroke-dasharray: 1,0;"/></marker><marker id="s2m-shape-commentRight_flowchart-v2-pointStart" class="marker flowchart-v2" viewBox="0 0 10 10" refX="4.5" refY="5" markerUnits="userSpaceOnUse" markerWidth="8" markerHeight="8" orient="auto"><path d="M 0 5 L 10 10 L 10 0 z" class="arrowMarkerPath" style="stroke-width: 1; stroke-dasharray: 1,0;"/></marker><marker id="s2m-shape-commentRight_flowchart-v2-pointEnd-margin" class="marker flowchart-v2" viewBox="0 0 11.5 14" refX="11.5" refY="7" markerUnits="userSpaceOnUse" markerWidth="10.5" markerHeight="14" orient="auto"><path d="M 0 0 L 11.5 7 L 0 14 z" class="arrowMarkerPath" style="stroke-width: 0; stroke-dasharray: 1,0;"/></marker><marker id="s2m-shape-commentRight_flowchart-v2-pointStart-margin" class="marker flowchart-v2" viewBox="0 0 11.5 14" refX="1" refY="7" markerUnits="userSpaceOnUse" markerWidth="11.5" markerHeight="14" orient="auto"><polygon points="0,7 11.5,14 11.5,0" class="arrowMarkerPath" style="stroke-width: 0; stroke-dasharray: 1,0;"/></marker><marker id="s2m-shape-commentRight_flowchart-v2-circleEnd" class="marker flowchart-v2" viewBox="0 0 10 10" refX="11" refY="5" markerUnits="userSpaceOnUse" markerWidth="11" markerHeight="11" orient="auto"><circle cx="5" cy="5" r="5" class="arrowMarkerPath" style="stroke-width: 1; stroke-dasharray: 1,0;"/></marker><marker id="s2m-shape-commentRight_flowchart-v2-circleStart" class="marker flowchart-v2" viewBox="0 0 10 10" refX="-1" refY="5" markerUnits="userSpaceOnUse" markerWidth="11" markerHeight="11" orient="auto"><circle cx="5" cy="5" r="5" class="arrowMarkerPath" style="stroke-width: 1; stroke-dasharray: 1,0;"/></marker><marker id="s2m-shape-commentRight_flowchart-v2-circleEnd-margin" class="marker flowchart-v2" viewBox="0 0 10 10" refY="5" refX="12.25" markerUnits="userSpaceOnUse" markerWidth="14" markerHeight="14" orient="auto"><circle cx="5" cy="5" r="5" class="arrowMarkerPath" style="stroke-width: 0; stroke-dasharray: 1,0;"/></marker><marker id="s2m-shape-commentRight_flowchart-v2-circleStart-margin" class="marker flowchart-v2" viewBox="0 0 10 10" refX="-2" refY="5" markerUnits="userSpaceOnUse" markerWidth="14" markerHeight="14" orient="auto"><circle cx="5" cy="5" r="5" class="arrowMarkerPath" style="stroke-width: 0; stroke-dasharray: 1,0;"/></marker><marker id="s2m-shape-commentRight_flowchart-v2-crossEnd" class="marker cross flowchart-v2" viewBox="0 0 11 11" refX="12" refY="5.2" markerUnits="userSpaceOnUse" markerWidth="11" markerHeight="11" orient="auto"><path d="M 1,1 l 9,9 M 10,1 l -9,9" class="arrowMarkerPath" style="stroke-width: 2; stroke-dasharray: 1,0;"/></marker><marker id="s2m-shape-commentRight_flowchart-v2-crossStart" class="marker cross flowchart-v2" viewBox="0 0 11 11" refX="-1" refY="5.2" markerUnits="userSpaceOnUse" markerWidth="11" markerHeight="11" orient="auto"><path d="M 1,1 l 9,9 M 10,1 l -9,9" class="arrowMarkerPath" style="stroke-width: 2; stroke-dasharray: 1,0;"/></marker><marker id="s2m-shape-commentRight_flowchart-v2-crossEnd-margin" class="marker cross flowchart-v2" viewBox="0 0 15 15" refX="17.7" refY="7.5" markerUnits="userSpaceOnUse" markerWidth="12" markerHeight="12" orient="auto"><path d="M 1,1 L 14,14 M 1,14 L 14,1" class="arrowMarkerPath" style="stroke-width: 2.5;"/></marker><marker id="s2m-shape-commentRight_flowchart-v2-crossStart-margin" class="marker cross flowchart-v2" viewBox="0 0 15 15" refX="-3.5" refY="7.5" markerUnits="userSpaceOnUse" markerWidth="12" markerHeight="12" orient="auto"><path d="M 1,1 L 14,14 M 1,14 L 14,1" class="arrowMarkerPath" style="stroke-width: 2.5; stroke-dasharray: 1,0;"/></marker><g class="root"><g class="clusters"/><g class="edgePaths"/><g class="edgeLabels"/><g class="nodes"><g class="node default" data-look="classic" transform="translate(38, 23)"><g class="text" transform="translate(-5, 0)"><g><path d="M7.5 -12.5 C7.636643844196033 -12.494348368798788, 7.773287688392068 -12.488696737597577, 7.912896727361662 -12.482922465033349 M7.5 -12.5 C7.58805747361283 -12.496357915950782, 7.67611494722566 -12.492715831901565, 7.912896727361662 -12.482922465033349 M7.912896727361662 -12.482922465033349 C7.999150019990929 -12.472171003319447, 8.085403312620196 -12.461419541605547, 8.32297295140367 -12.431806517013612 M7.912896727361662 -12.482922465033349 C8.021027279268234 -12.469444005794426, 8.129157831174805 -12.455965546555502, 8.32297295140367 -12.431806517013612 M8.32297295140367 -12.431806517013612 C8.480215051113968 -12.398836315822464, 8.637457150824263 -12.365866114631316, 8.727427435703996 -12.347001329696653 M8.32297295140367 -12.431806517013612 C8.450458969905503 -12.405075509943572, 8.577944988407335 -12.378344502873533, 8.727427435703996 -12.347001329696653 M8.727427435703996 -12.347001329696653 C8.850087756649573 -12.310483769960129, 8.972748077595151 -12.273966210223605, 9.123497346023418 -12.229086208503173 M8.727427435703996 -12.347001329696653 C8.80994773998654 -12.322433970685331, 8.892468044269085 -12.29786661167401, 9.123497346023418 -12.229086208503173 M9.123497346023418 -12.229086208503173 C9.20968363304665 -12.195456214949045, 9.295869920069881 -12.161826221394918, 9.508477123264848 -12.078866633275286 M9.123497346023418 -12.229086208503173 C9.202109570527785 -12.198411623314872, 9.28072179503215 -12.167737038126571, 9.508477123264848 -12.078866633275286 M9.508477123264848 -12.078866633275286 C9.61876471196762 -12.024950316519245, 9.729052300670391 -11.971033999763204, 9.879736965185367 -11.897368756032446 M9.508477123264848 -12.078866633275286 C9.641728464338351 -12.013724022053196, 9.774979805411855 -11.948581410831109, 9.879736965185367 -11.897368756032446 M9.879736965185367 -11.897368756032446 C9.967296246721327 -11.845194748917654, 10.054855528257285 -11.793020741802861, 10.234740790612134 -11.685832391312642 M9.879736965185367 -11.897368756032446 C9.985941486210868 -11.83408459770673, 10.09214600723637 -11.770800439381015, 10.234740790612134 -11.685832391312642 M10.234740790612134 -11.685832391312642 C10.361329634553291 -11.595449693961386, 10.487918478494448 -11.505066996610129, 10.57106356344834 -11.445702546981968 M10.234740790612134 -11.685832391312642 C10.305198226631287 -11.635526748906864, 10.375655662650441 -11.585221106501088, 10.57106356344834 -11.445702546981968 M10.57106356344834 -11.445702546981968 C10.650689953803148 -11.378262434490384, 10.730316344157956 -11.3108223219988, 10.886407858128706 -11.178619553365658 M10.57106356344834 -11.445702546981968 C10.64081306088252 -11.38662773607779, 10.710562558316703 -11.32755292517361, 10.886407858128706 -11.178619553365658 M10.886407858128706 -11.178619553365658 C10.955131164669618 -11.109896246824746, 11.023854471210528 -11.041172940283836, 11.178619553365658 -10.886407858128706 M10.886407858128706 -11.178619553365658 C10.975123775295131 -11.089903636199233, 11.063839692461555 -11.00118771903281, 11.178619553365658 -10.886407858128706 M11.178619553365658 -10.886407858128706 C11.236940492663733 -10.817548455217908, 11.295261431961805 -10.74868905230711, 11.445702546981968 -10.57106356344834 M11.178619553365658 -10.886407858128706 C11.257985651108159 -10.792700483595917, 11.33735174885066 -10.69899310906313, 11.445702546981968 -10.57106356344834 M11.445702546981968 -10.57106356344834 C11.529193427715448 -10.454127309260155, 11.612684308448928 -10.337191055071969, 11.685832391312642 -10.234740790612134 M11.445702546981968 -10.57106356344834 C11.531518043615133 -10.45087148211655, 11.617333540248298 -10.330679400784764, 11.685832391312642 -10.234740790612134 M11.685832391312642 -10.234740790612134 C11.745354382685615 -10.134850000381274, 11.804876374058589 -10.034959210150415, 11.897368756032446 -9.879736965185367 M11.685832391312642 -10.234740790612134 C11.733006347240924 -10.155572677662683, 11.780180303169207 -10.076404564713231, 11.897368756032446 -9.879736965185367 M11.897368756032446 -9.879736965185367 C11.934283900885232 -9.804225829459073, 11.971199045738018 -9.728714693732778, 12.078866633275286 -9.508477123264846 M11.897368756032446 -9.879736965185367 C11.951493344967412 -9.769023348931206, 12.005617933902379 -9.658309732677045, 12.078866633275286 -9.508477123264846 M12.078866633275286 -9.508477123264846 C12.117378918237943 -9.409778595702843, 12.155891203200598 -9.311080068140841, 12.229086208503173 -9.123497346023417 M12.078866633275286 -9.508477123264846 C12.114443484836725 -9.417301466774695, 12.150020336398164 -9.326125810284546, 12.229086208503173 -9.123497346023417 M12.229086208503173 -9.123497346023417 C12.254908388228682 -9.03676217326001, 12.280730567954192 -8.950027000496604, 12.347001329696653 -8.727427435703996 M12.229086208503173 -9.123497346023417 C12.266798873026048 -8.996822738862791, 12.304511537548924 -8.870148131702164, 12.347001329696653 -8.727427435703996 M12.347001329696653 -8.727427435703996 C12.366584387040021 -8.634031552628668, 12.386167444383391 -8.54063566955334, 12.431806517013612 -8.32297295140367 M12.347001329696653 -8.727427435703996 C12.364789003674924 -8.642594128527929, 12.382576677653192 -8.55776082135186, 12.431806517013612 -8.32297295140367 M12.431806517013612 -8.32297295140367 C12.44604032285584 -8.208782653078883, 12.46027412869807 -8.094592354754095, 12.482922465033349 -7.9128967273616615 M12.431806517013612 -8.32297295140367 C12.447313316305646 -8.198570099710512, 12.46282011559768 -8.074167248017353, 12.482922465033349 -7.9128967273616615 M12.482922465033349 -7.9128967273616615 C12.488633547933004 -7.774815473623127, 12.494344630832659 -7.636734219884593, 12.5 -7.5 M12.482922465033349 -7.9128967273616615 C12.489018807398965 -7.765500758531562, 12.495115149764583 -7.618104789701464, 12.5 -7.5 M12.5 -7.5 C12.5 -6.895936282930889, 12.5 -6.2918725658617785, 12.5 -5 M12.5 -7.5 C12.5 -6.904903945677982, 12.5 -6.309807891355964, 12.5 -5 M12.5 -5 C12.5 -5, 12.5 -5.000000000000001, 12.5 -5.000000000000001 M12.5 -5 C12.5 -5, 12.5 -5.000000000000001, 12.5 -5.000000000000001 M12.5 -5.000000000000001 C12.504755525200755 -4.88502200135369, 12.509511050401512 -4.770044002707378, 12.517077534966651 -4.58710327263834 M12.5 -5.000000000000001 C12.503419241315964 -4.917330366930711, 12.506838482631926 -4.834660733861421, 12.517077534966651 -4.58710327263834 M12.517077534966651 -4.58710327263834 C12.536083216206679 -4.434630741066641, 12.555088897446707 -4.282158209494943, 12.568193482986388 -4.177027048596331 M12.517077534966651 -4.58710327263834 C12.52731754598986 -4.504953078477326, 12.537557557013066 -4.4228028843163125, 12.568193482986388 -4.177027048596331 M12.568193482986388 -4.177027048596331 C12.586532463353098 -4.089564440688993, 12.604871443719809 -4.002101832781654, 12.652998670303347 -3.7725725642960057 M12.568193482986388 -4.177027048596331 C12.593277112722207 -4.057397732865164, 12.618360742458027 -3.9377684171339973, 12.652998670303347 -3.7725725642960057 M12.652998670303347 -3.7725725642960057 C12.693385033798272 -3.636917160598326, 12.733771397293197 -3.5012617569006466, 12.770913791496827 -3.376502653976583 M12.652998670303347 -3.7725725642960057 C12.683156265403394 -3.6712749879900315, 12.71331386050344 -3.569977411684057, 12.770913791496827 -3.376502653976583 M12.770913791496827 -3.376502653976583 C12.808570910566166 -3.2799957287714263, 12.846228029635505 -3.183488803566269, 12.921133366724712 -2.991522876735154 M12.770913791496827 -3.376502653976583 C12.816900171138185 -3.258649663355269, 12.862886550779542 -3.1407966727339547, 12.921133366724712 -2.991522876735154 M12.921133366724712 -2.991522876735154 C12.958587597944092 -2.914909022220719, 12.996041829163474 -2.838295167706283, 13.102631243967554 -2.6202630348146325 M12.921133366724712 -2.991522876735154 C12.98407196372641 -2.8627799188090637, 13.04701056072811 -2.734036960882973, 13.102631243967554 -2.6202630348146325 M13.102631243967554 -2.6202630348146325 C13.162449543424312 -2.51987497545755, 13.22226784288107 -2.4194869161004675, 13.314167608687356 -2.265259209387867 M13.102631243967554 -2.6202630348146325 C13.17384511042761 -2.500750746465357, 13.245058976887664 -2.3812384581160813, 13.314167608687356 -2.265259209387867 M13.314167608687356 -2.265259209387867 C13.384941371389035 -2.1661343872224816, 13.455715134090712 -2.067009565057096, 13.554297453018032 -1.9289364365516608 M13.314167608687356 -2.265259209387867 C13.395514471082025 -2.151325839721306, 13.476861333476695 -2.0373924700547454, 13.554297453018032 -1.9289364365516608 M13.554297453018032 -1.9289364365516608 C13.649169697963574 -1.8169209886116313, 13.744041942909117 -1.7049055406716018, 13.821380446634342 -1.6135921418712957 M13.554297453018032 -1.9289364365516608 C13.637677887133421 -1.8304893440196919, 13.72105832124881 -1.732042251487723, 13.821380446634342 -1.6135921418712957 M13.821380446634342 -1.6135921418712957 C13.890283551475717 -1.5446890370299202, 13.959186656317092 -1.4757859321885447, 14.113592141871294 -1.321380446634342 M13.821380446634342 -1.6135921418712957 C13.910984446939283 -1.5239881415663539, 14.000588447244224 -1.434384141261412, 14.113592141871294 -1.321380446634342 M14.113592141871294 -1.321380446634342 C14.224483867455648 -1.2274599459753153, 14.335375593040002 -1.1335394453162886, 14.428936436551659 -1.054297453018033 M14.113592141871294 -1.321380446634342 C14.190714834189189 -1.2560608582114996, 14.267837526507085 -1.1907412697886572, 14.428936436551659 -1.054297453018033 M14.428936436551659 -1.054297453018033 C14.5033189754612 -1.0011893410140709, 14.577701514370741 -0.9480812290101087, 14.765259209387866 -0.8141676086873577 M14.428936436551659 -1.054297453018033 C14.510017514414374 -0.9964066761278847, 14.591098592277087 -0.9385158992377364, 14.765259209387866 -0.8141676086873577 M14.765259209387866 -0.8141676086873577 C14.870902174212658 -0.751218065227104, 14.976545139037452 -0.6882685217668503, 15.120263034814634 -0.6026312439675543 M14.765259209387866 -0.8141676086873577 C14.851952750366673 -0.7625094709720864, 14.93864629134548 -0.710851333256815, 15.120263034814634 -0.6026312439675543 M15.120263034814634 -0.6026312439675543 C15.194525217293027 -0.5663266751525562, 15.26878739977142 -0.5300221063375581, 15.49152287673515 -0.4211333667247139 M15.120263034814634 -0.6026312439675543 C15.220227576739603 -0.5537615572675875, 15.320192118664572 -0.5048918705676206, 15.49152287673515 -0.4211333667247139 M15.49152287673515 -0.4211333667247139 C15.60673413863572 -0.37617779282889713, 15.721945400536287 -0.33122221893308035, 15.876502653976582 -0.2709137914968265 M15.49152287673515 -0.4211333667247139 C15.629685570617351 -0.36722211627919, 15.767848264499552 -0.313310865833666, 15.876502653976582 -0.2709137914968265 M15.876502653976582 -0.2709137914968265 C16.001320252399555 -0.23375398242863946, 16.126137850822527 -0.19659417336045243, 16.272572564296006 -0.15299867030334813 M15.876502653976582 -0.2709137914968265 C15.97714080625993 -0.24095251543420312, 16.077778958543277 -0.21099123937157976, 16.272572564296006 -0.15299867030334813 M16.272572564296006 -0.15299867030334813 C16.424274998152658 -0.12119001489454995, 16.57597743200931 -0.08938135948575177, 16.677027048596326 -0.06819348298638861 M16.272572564296006 -0.15299867030334813 C16.412674643429185 -0.1236223534974194, 16.552776722562363 -0.09424603669149068, 16.677027048596326 -0.06819348298638861 M16.677027048596326 -0.06819348298638861 C16.839674803686986 -0.047919461457431284, 17.00232255877765 -0.02764543992847395, 17.087103272638338 -0.017077534966650987 M16.677027048596326 -0.06819348298638861 C16.76487894653709 -0.057242755328216925, 16.852730844477858 -0.04629202767004524, 17.087103272638338 -0.017077534966650987 M17.087103272638338 -0.017077534966650987 C17.20082696578333 -0.012373888225176061, 17.31455065892833 -0.007670241483701136, 17.5 0 M17.087103272638338 -0.017077534966650987 C17.180184704756375 -0.013227658456611845, 17.27326613687441 -0.009377781946572706, 17.5 0 M17.5 0 C17.5 0, 17.5 0, 17.5 0 M17.5 0 C17.5 0, 17.5 0, 17.5 0 M17.5 0 C17.410474047591144 0.003702820781492363, 17.320948095182292 0.007405641562984726, 17.087103272638338 0.017077534966650987 M17.5 0 C17.399788157351157 0.00414479247109446, 17.29957631470231 0.00828958494218892, 17.087103272638338 0.017077534966650987 M17.087103272638338 0.017077534966650987 C16.959698853913743 0.03295847919897012, 16.832294435189148 0.04883942343128925, 16.67702704859633 0.06819348298638772 M17.087103272638338 0.017077534966650987 C16.992388882854 0.028883671341046555, 16.89767449306967 0.040689807715442124, 16.67702704859633 0.06819348298638772 M16.67702704859633 0.06819348298638772 C16.579245842326344 0.0886960459092578, 16.481464636056362 0.10919860883212787, 16.272572564296006 0.15299867030334813 M16.67702704859633 0.06819348298638772 C16.588434114862572 0.08676946775571821, 16.49984118112882 0.1053454525250487, 16.272572564296006 0.15299867030334813 M16.272572564296006 0.15299867030334813 C16.18569004126414 0.17886471810444293, 16.098807518232277 0.20473076590553774, 15.876502653976583 0.2709137914968265 M16.272572564296006 0.15299867030334813 C16.17413485743296 0.1823048453808817, 16.075697150569916 0.2116110204584153, 15.876502653976583 0.2709137914968265 M15.876502653976583 0.2709137914968265 C15.74736340889687 0.32130408129368165, 15.618224163817159 0.3716943710905368, 15.491522876735154 0.421133366724713 M15.876502653976583 0.2709137914968265 C15.770438329132421 0.31230021947777115, 15.664374004288259 0.3536866474587158, 15.491522876735154 0.421133366724713 M15.491522876735154 0.421133366724713 C15.400094981913561 0.46582974095431, 15.30866708709197 0.510526115183907, 15.120263034814633 0.6026312439675543 M15.491522876735154 0.421133366724713 C15.394740554325429 0.46844736109892254, 15.297958231915702 0.5157613554731321, 15.120263034814633 0.6026312439675543 M15.120263034814633 0.6026312439675543 C15.000909435785232 0.6737505521174122, 14.88155583675583 0.7448698602672701, 14.765259209387867 0.8141676086873568 M15.120263034814633 0.6026312439675543 C14.993136482958798 0.6783822266692724, 14.866009931102964 0.7541332093709905, 14.765259209387867 0.8141676086873568 M14.765259209387867 0.8141676086873568 C14.642251298669361 0.901993568860032, 14.519243387950857 0.9898195290327072, 14.42893643655166 1.054297453018032 M14.765259209387867 0.8141676086873568 C14.647688220594894 0.8981116812179721, 14.53011723180192 0.9820557537485874, 14.42893643655166 1.054297453018032 M14.42893643655166 1.054297453018032 C14.328144363119167 1.139663984644779, 14.22735228968667 1.225030516271526, 14.113592141871296 1.3213804466343415 M14.42893643655166 1.054297453018032 C14.344687205246716 1.125652912071462, 14.260437973941771 1.1970083711248922, 14.113592141871296 1.3213804466343415 M14.113592141871296 1.3213804466343415 C14.007876988346512 1.4270956001591257, 13.902161834821726 1.53281075368391, 13.821380446634342 1.6135921418712948 M14.113592141871296 1.3213804466343415 C14.033521836164155 1.4014507523414812, 13.953451530457016 1.4815210580486207, 13.821380446634342 1.6135921418712948 M13.821380446634342 1.6135921418712948 C13.735117950031137 1.7154420791525276, 13.648855453427933 1.8172920164337603, 13.554297453018034 1.9289364365516604 M13.821380446634342 1.6135921418712948 C13.719570404728081 1.7337990312040938, 13.617760362821821 1.8540059205368926, 13.554297453018034 1.9289364365516604 M13.554297453018034 1.9289364365516604 C13.49537495490003 2.011462529902199, 13.436452456782023 2.093988623252737, 13.314167608687358 2.265259209387866 M13.554297453018034 1.9289364365516604 C13.50178234548943 2.0024884210167397, 13.449267237960825 2.076040405481819, 13.314167608687358 2.265259209387866 M13.314167608687358 2.265259209387866 C13.243023469597473 2.3846544801114473, 13.171879330507588 2.504049750835028, 13.102631243967554 2.6202630348146316 M13.314167608687358 2.265259209387866 C13.255473495132883 2.363760641373197, 13.196779381578406 2.4622620733585276, 13.102631243967554 2.6202630348146316 M13.102631243967554 2.6202630348146316 C13.037514372246413 2.7534617248974014, 12.972397500525272 2.8866604149801716, 12.921133366724714 2.991522876735151 M13.102631243967554 2.6202630348146316 C13.058574408467388 2.7103827322556393, 13.014517572967222 2.800502429696647, 12.921133366724714 2.991522876735151 M12.921133366724714 2.991522876735151 C12.883329517050822 3.088405840252025, 12.84552566737693 3.185288803768899, 12.770913791496827 3.3765026539765817 M12.921133366724714 2.991522876735151 C12.883417718482848 3.0881797993542115, 12.84570207024098 3.1848367219732716, 12.770913791496827 3.3765026539765817 M12.770913791496827 3.3765026539765817 C12.742679268618334 3.4713407445557176, 12.714444745739838 3.566178835134853, 12.652998670303347 3.772572564296005 M12.770913791496827 3.3765026539765817 C12.738419207694186 3.48565003696117, 12.705924623891546 3.5947974199457575, 12.652998670303347 3.772572564296005 M12.652998670303347 3.772572564296005 C12.625595611315754 3.903263745363202, 12.598192552328161 4.0339549264303995, 12.568193482986388 4.1770270485963295 M12.652998670303347 3.772572564296005 C12.62237391490497 3.918628720096716, 12.591749159506593 4.064684875897427, 12.568193482986388 4.1770270485963295 M12.568193482986388 4.1770270485963295 C12.548330544285447 4.3363769035127335, 12.528467605584506 4.495726758429137, 12.517077534966651 4.587103272638337 M12.568193482986388 4.1770270485963295 C12.548397428559282 4.335840326347979, 12.528601374132178 4.494653604099629, 12.517077534966651 4.587103272638337 M12.517077534966651 4.587103272638337 C12.511631006449177 4.718788191143193, 12.506184477931702 4.850473109648049, 12.5 4.999999999999999 M12.517077534966651 4.587103272638337 C12.513523818226984 4.673024221688916, 12.509970101487315 4.758945170739495, 12.5 4.999999999999999 M12.5 4.999999999999999 C12.5 5.991574485139671, 12.5 6.983148970279341, 12.5 7.5 M12.5 4.999999999999999 C12.5 5.72804232820104, 12.5 6.45608465640208, 12.5 7.5 M12.5 7.5 C12.5 7.5, 12.5 7.5, 12.5 7.5 M12.5 7.5 C12.5 7.5, 12.5 7.5, 12.5 7.5 M12.5 7.5 C12.493612001929922 7.654447553624018, 12.487224003859843 7.808895107248036, 12.482922465033349 7.9128967273616615 M12.5 7.5 C12.496147808982547 7.593137391747949, 12.492295617965095 7.686274783495898, 12.482922465033349 7.9128967273616615 M12.482922465033349 7.9128967273616615 C12.465202353318393 8.055055814362564, 12.447482241603439 8.197214901363468, 12.431806517013612 8.322972951403669 M12.482922465033349 7.9128967273616615 C12.468874911514918 8.02559282177122, 12.454827357996487 8.138288916180777, 12.431806517013612 8.322972951403669 M12.431806517013612 8.322972951403669 C12.40584592157592 8.446784708350062, 12.379885326138231 8.570596465296454, 12.347001329696653 8.727427435703996 M12.431806517013612 8.322972951403669 C12.408207236253682 8.435523082257605, 12.38460795549375 8.548073213111541, 12.347001329696653 8.727427435703996 M12.347001329696653 8.727427435703996 C12.310316142978884 8.85065080575436, 12.273630956261115 8.973874175804724, 12.229086208503173 9.123497346023417 M12.347001329696653 8.727427435703996 C12.301444878375909 8.880448858287037, 12.255888427055165 9.033470280870079, 12.229086208503173 9.123497346023417 M12.229086208503173 9.123497346023417 C12.178565599679983 9.252970570144493, 12.128044990856793 9.382443794265567, 12.078866633275286 9.508477123264846 M12.229086208503173 9.123497346023417 C12.182210598497564 9.243629238758695, 12.135334988491953 9.363761131493975, 12.078866633275286 9.508477123264846 M12.078866633275286 9.508477123264846 C12.02935412052672 9.609756586889237, 11.979841607778154 9.711036050513629, 11.897368756032446 9.879736965185367 M12.078866633275286 9.508477123264846 C12.021755006013516 9.625300824076836, 11.964643378751743 9.742124524888826, 11.897368756032446 9.879736965185367 M11.897368756032446 9.879736965185367 C11.81834841763763 10.01235020383034, 11.739328079242814 10.144963442475314, 11.685832391312642 10.234740790612134 M11.897368756032446 9.879736965185367 C11.81493484908266 10.018078911029106, 11.732500942132873 10.156420856872845, 11.685832391312642 10.234740790612134 M11.685832391312642 10.234740790612134 C11.62361295795732 10.32188452907033, 11.561393524601996 10.409028267528527, 11.445702546981968 10.57106356344834 M11.685832391312642 10.234740790612134 C11.62520889477102 10.319649280486583, 11.564585398229399 10.404557770361034, 11.445702546981968 10.57106356344834 M11.445702546981968 10.57106356344834 C11.343112610650971 10.69219127238842, 11.240522674319974 10.813318981328502, 11.178619553365658 10.886407858128706 M11.445702546981968 10.57106356344834 C11.374344623813698 10.655315704128178, 11.302986700645429 10.739567844808017, 11.178619553365658 10.886407858128706 M11.178619553365658 10.886407858128706 C11.11002787713422 10.954999534360145, 11.041436200902782 11.023591210591583, 10.886407858128706 11.178619553365658 M11.178619553365658 10.886407858128706 C11.07711733212353 10.987910079370835, 10.975615110881401 11.089412300612963, 10.886407858128706 11.178619553365658 M10.886407858128706 11.178619553365658 C10.801988251570172 11.25011931289807, 10.717568645011639 11.321619072430481, 10.57106356344834 11.445702546981968 M10.886407858128706 11.178619553365658 C10.783706319753733 11.26560331930311, 10.681004781378762 11.352587085240561, 10.57106356344834 11.445702546981968 M10.57106356344834 11.445702546981968 C10.465069964746347 11.521380521868174, 10.359076366044354 11.59705849675438, 10.234740790612134 11.685832391312642 M10.57106356344834 11.445702546981968 C10.447297395605469 11.534069892335614, 10.323531227762597 11.62243723768926, 10.234740790612134 11.685832391312642 M10.234740790612134 11.685832391312642 C10.129638648688736 11.748459674272237, 10.02453650676534 11.81108695723183, 9.879736965185367 11.897368756032446 M10.234740790612134 11.685832391312642 C10.11458355714405 11.75743056164805, 9.994426323675967 11.829028731983458, 9.879736965185367 11.897368756032446 M9.879736965185367 11.897368756032446 C9.750001752981692 11.96079243659216, 9.620266540778015 12.024216117151871, 9.508477123264848 12.078866633275286 M9.879736965185367 11.897368756032446 C9.752677781352304 11.959484206038068, 9.625618597519239 12.021599656043689, 9.508477123264848 12.078866633275286 M9.508477123264848 12.078866633275286 C9.36195952384003 12.13603797797998, 9.215441924415211 12.193209322684673, 9.123497346023418 12.229086208503173 M9.508477123264848 12.078866633275286 C9.392805661783589 12.124001777604716, 9.27713420030233 12.169136921934145, 9.123497346023418 12.229086208503173 M9.123497346023418 12.229086208503173 C9.037778573155942 12.254605792869159, 8.952059800288463 12.280125377235144, 8.727427435703996 12.347001329696653 M9.123497346023418 12.229086208503173 C9.041199145671627 12.253587444309398, 8.958900945319836 12.278088680115623, 8.727427435703996 12.347001329696653 M8.727427435703996 12.347001329696653 C8.621112463629167 12.369293235143072, 8.51479749155434 12.391585140589491, 8.32297295140367 12.431806517013612 M8.727427435703996 12.347001329696653 C8.604988346829938 12.372674106906294, 8.48254925795588 12.398346884115934, 8.32297295140367 12.431806517013612 M8.32297295140367 12.431806517013612 C8.17028230792785 12.450839385874136, 8.017591664452029 12.469872254734659, 7.912896727361662 12.482922465033349 M8.32297295140367 12.431806517013612 C8.204895015223315 12.446524916409171, 8.08681707904296 12.46124331580473, 7.912896727361662 12.482922465033349 M7.912896727361662 12.482922465033349 C7.756813795445714 12.489378102849914, 7.600730863529765 12.49583374066648, 7.5 12.5 M7.912896727361662 12.482922465033349 C7.769477292816165 12.48885433672436, 7.626057858270668 12.494786208415373, 7.5 12.5" stroke="currentColor" stroke-width="2" fill="none" vector-effect="non-scaling-stroke"/></g><g stroke-opacity="0"><path d="M-7.5 -12.5 C-3.6904628036950937 -12.5, 0.11907439260981256 -12.5, 7.5 -12.5 M-7.5 -12.5 C-3.927717383530682 -12.5, -0.35543476706136357 -12.5, 7.5 -12.5 M7.5 -12.5 C7.5 -12.5, 7.5 -12.5, 7.5 -12.5 M7.5 -12.5 C7.5 -12.5, 7.5 -12.5, 7.5 -12.5 M7.5 -12.5 C7.63468516195932 -12.494429380495344, 7.76937032391864 -12.48885876099069, 7.912896727361662 -12.482922465033349 M7.5 -12.5 C7.653843027909068 -12.493637005298442, 7.807686055818135 -12.487274010596886, 7.912896727361662 -12.482922465033349 M7.912896727361662 -12.482922465033349 C8.017547163336648 -12.469877801792906, 8.122197599311633 -12.456833138552465, 8.32297295140367 -12.431806517013612 M7.912896727361662 -12.482922465033349 C8.030322680621394 -12.468285335224094, 8.147748633881127 -12.453648205414837, 8.32297295140367 -12.431806517013612 M8.32297295140367 -12.431806517013612 C8.420057291514242 -12.411450071558784, 8.517141631624813 -12.391093626103956, 8.727427435703996 -12.347001329696653 M8.32297295140367 -12.431806517013612 C8.417678713663063 -12.411948806887596, 8.512384475922458 -12.392091096761579, 8.727427435703996 -12.347001329696653 M8.727427435703996 -12.347001329696653 C8.873964442037936 -12.303375372735516, 9.020501448371876 -12.25974941577438, 9.123497346023418 -12.229086208503173 M8.727427435703996 -12.347001329696653 C8.883987216545792 -12.300391463481123, 9.040546997387588 -12.253781597265593, 9.123497346023418 -12.229086208503173 M9.123497346023418 -12.229086208503173 C9.25385446547034 -12.178220702653583, 9.384211584917262 -12.127355196803995, 9.508477123264848 -12.078866633275286 M9.123497346023418 -12.229086208503173 C9.245960500673224 -12.181300937275735, 9.36842365532303 -12.133515666048295, 9.508477123264848 -12.078866633275286 M9.508477123264848 -12.078866633275286 C9.605941269163049 -12.031219315708425, 9.70340541506125 -11.983571998141562, 9.879736965185367 -11.897368756032446 M9.508477123264848 -12.078866633275286 C9.592795891083458 -12.03764569946342, 9.677114658902068 -11.996424765651554, 9.879736965185367 -11.897368756032446 M9.879736965185367 -11.897368756032446 C9.981665646887885 -11.836632444917734, 10.083594328590404 -11.775896133803023, 10.234740790612134 -11.685832391312642 M9.879736965185367 -11.897368756032446 C9.96710222325989 -11.8453103618062, 10.054467481334411 -11.793251967579955, 10.234740790612134 -11.685832391312642 M10.234740790612134 -11.685832391312642 C10.311150100568916 -11.631277192595034, 10.3875594105257 -11.576721993877424, 10.57106356344834 -11.445702546981968 M10.234740790612134 -11.685832391312642 C10.324249615811688 -11.621924318480898, 10.413758441011241 -11.558016245649153, 10.57106356344834 -11.445702546981968 M10.57106356344834 -11.445702546981968 C10.678108755459624 -11.35503989407561, 10.78515394747091 -11.26437724116925, 10.886407858128706 -11.178619553365658 M10.57106356344834 -11.445702546981968 C10.683867531991707 -11.350162459152251, 10.796671500535073 -11.254622371322533, 10.886407858128706 -11.178619553365658 M10.886407858128706 -11.178619553365658 C10.999650413920797 -11.065376997573567, 11.112892969712888 -10.952134441781476, 11.178619553365658 -10.886407858128706 M10.886407858128706 -11.178619553365658 C10.956547604875388 -11.108479806618977, 11.02668735162207 -11.038340059872295, 11.178619553365658 -10.886407858128706 M11.178619553365658 -10.886407858128706 C11.23665663220908 -10.817883608623402, 11.2946937110525 -10.749359359118099, 11.445702546981968 -10.57106356344834 M11.178619553365658 -10.886407858128706 C11.254957459303874 -10.796275862903112, 11.331295365242088 -10.706143867677518, 11.445702546981968 -10.57106356344834 M11.445702546981968 -10.57106356344834 C11.521936018940153 -10.464291942688858, 11.59816949089834 -10.357520321929377, 11.685832391312642 -10.234740790612134 M11.445702546981968 -10.57106356344834 C11.528598344037185 -10.454960775809475, 11.611494141092402 -10.338857988170611, 11.685832391312642 -10.234740790612134 M11.685832391312642 -10.234740790612134 C11.733104375352962 -10.155408165263982, 11.780376359393282 -10.076075539915827, 11.897368756032446 -9.879736965185367 M11.685832391312642 -10.234740790612134 C11.737786701507408 -10.147550208080467, 11.789741011702175 -10.060359625548799, 11.897368756032446 -9.879736965185367 M11.897368756032446 -9.879736965185367 C11.960693056074945 -9.75020503907887, 12.024017356117444 -9.620673112972373, 12.078866633275286 -9.508477123264846 M11.897368756032446 -9.879736965185367 C11.93848874396211 -9.7956246854692, 11.979608731891773 -9.71151240575303, 12.078866633275286 -9.508477123264846 M12.078866633275286 -9.508477123264846 C12.134141680858587 -9.366819316861474, 12.18941672844189 -9.2251615104581, 12.229086208503173 -9.123497346023417 M12.078866633275286 -9.508477123264846 C12.130603076434516 -9.37588798278506, 12.182339519593745 -9.243298842305274, 12.229086208503173 -9.123497346023417 M12.229086208503173 -9.123497346023417 C12.258709956744463 -9.02399292970686, 12.288333704985755 -8.924488513390303, 12.347001329696653 -8.727427435703996 M12.229086208503173 -9.123497346023417 C12.27226396452716 -8.978465820099325, 12.315441720551147 -8.833434294175236, 12.347001329696653 -8.727427435703996 M12.347001329696653 -8.727427435703996 C12.365762484610169 -8.63795138505789, 12.384523639523685 -8.548475334411783, 12.431806517013612 -8.32297295140367 M12.347001329696653 -8.727427435703996 C12.380315291809813 -8.568545864979788, 12.413629253922975 -8.409664294255581, 12.431806517013612 -8.32297295140367 M12.431806517013612 -8.32297295140367 C12.447960887221504 -8.193374980647633, 12.464115257429397 -8.063777009891595, 12.482922465033349 -7.9128967273616615 M12.431806517013612 -8.32297295140367 C12.4477183131486 -8.195321024176524, 12.463630109283589 -8.067669096949377, 12.482922465033349 -7.9128967273616615 M12.482922465033349 -7.9128967273616615 C12.487496430449847 -7.80230843957742, 12.492070395866344 -7.691720151793179, 12.5 -7.5 M12.482922465033349 -7.9128967273616615 C12.489115881137451 -7.763153731925466, 12.495309297241553 -7.6134107364892705, 12.5 -7.5 M12.5 -7.5 C12.5 -6.588868899753626, 12.5 -5.677737799507252, 12.5 -5 M12.5 -7.5 C12.5 -6.508945738152328, 12.5 -5.517891476304657, 12.5 -5 M12.5 -5 C12.5 -5, 12.5 -5.000000000000001, 12.5 -5.000000000000001 M12.5 -5 C12.5 -5, 12.5 -5.000000000000001, 12.5 -5.000000000000001 M12.5 -5.000000000000001 C12.5036631547157 -4.911433084641015, 12.507326309431399 -4.822866169282028, 12.517077534966651 -4.58710327263834 M12.5 -5.000000000000001 C12.50392544611339 -4.905091463327767, 12.507850892226783 -4.810182926655534, 12.517077534966651 -4.58710327263834 M12.517077534966651 -4.58710327263834 C12.52783434061229 -4.5008071084702665, 12.538591146257932 -4.414510944302193, 12.568193482986388 -4.177027048596331 M12.517077534966651 -4.58710327263834 C12.533946233886702 -4.45177462031705, 12.550814932806754 -4.31644596799576, 12.568193482986388 -4.177027048596331 M12.568193482986388 -4.177027048596331 C12.590930429510603 -4.068589578295781, 12.613667376034817 -3.9601521079952304, 12.652998670303347 -3.7725725642960057 M12.568193482986388 -4.177027048596331 C12.596755562037158 -4.040808247382576, 12.625317641087927 -3.9045894461688206, 12.652998670303347 -3.7725725642960057 M12.652998670303347 -3.7725725642960057 C12.688653937925075 -3.6528086315075994, 12.724309205546803 -3.533044698719193, 12.770913791496827 -3.376502653976583 M12.652998670303347 -3.7725725642960057 C12.683704202443161 -3.6694344999168758, 12.714409734582974 -3.566296435537746, 12.770913791496827 -3.376502653976583 M12.770913791496827 -3.376502653976583 C12.823774353970467 -3.2410326425943294, 12.87663491644411 -3.105562631212076, 12.921133366724712 -2.991522876735154 M12.770913791496827 -3.376502653976583 C12.825098656468473 -3.2376387461603335, 12.879283521440119 -3.0987748383440845, 12.921133366724712 -2.991522876735154 M12.921133366724712 -2.991522876735154 C12.978296108881688 -2.8745946187338376, 13.035458851038664 -2.7576663607325207, 13.102631243967554 -2.6202630348146325 M12.921133366724712 -2.991522876735154 C12.992107441412301 -2.8463430864849695, 13.06308151609989 -2.7011632962347845, 13.102631243967554 -2.6202630348146325 M13.102631243967554 -2.6202630348146325 C13.175009998182851 -2.4987958125708873, 13.247388752398148 -2.377328590327142, 13.314167608687356 -2.265259209387867 M13.102631243967554 -2.6202630348146325 C13.165250323770858 -2.5151746595637774, 13.227869403574159 -2.410086284312922, 13.314167608687356 -2.265259209387867 M13.314167608687356 -2.265259209387867 C13.37099806728167 -2.18566319969874, 13.427828525875984 -2.106067190009613, 13.554297453018032 -1.9289364365516608 M13.314167608687356 -2.265259209387867 C13.390064876296398 -2.1589584721175195, 13.46596214390544 -2.052657734847172, 13.554297453018032 -1.9289364365516608 M13.554297453018032 -1.9289364365516608 C13.62629813824995 -1.8439253881373232, 13.698298823481869 -1.7589143397229856, 13.821380446634342 -1.6135921418712957 M13.554297453018032 -1.9289364365516608 C13.631827705422156 -1.837396640513985, 13.709357957826278 -1.7458568444763092, 13.821380446634342 -1.6135921418712957 M13.821380446634342 -1.6135921418712957 C13.928350695472378 -1.5066218930332576, 14.035320944310417 -1.3996516441952194, 14.113592141871294 -1.321380446634342 M13.821380446634342 -1.6135921418712957 C13.912265450006744 -1.5227071384988924, 14.003150453379147 -1.431822135126489, 14.113592141871294 -1.321380446634342 M14.113592141871294 -1.321380446634342 C14.233491982039341 -1.2198304621050269, 14.353391822207387 -1.1182804775757118, 14.428936436551659 -1.054297453018033 M14.113592141871294 -1.321380446634342 C14.232046120747496 -1.221055044152947, 14.3505000996237 -1.1207296416715522, 14.428936436551659 -1.054297453018033 M14.428936436551659 -1.054297453018033 C14.557902803330434 -0.9622172369882902, 14.686869170109208 -0.8701370209585476, 14.765259209387866 -0.8141676086873577 M14.428936436551659 -1.054297453018033 C14.531846864444466 -0.9808208197781605, 14.634757292337273 -0.9073441865382881, 14.765259209387866 -0.8141676086873577 M14.765259209387866 -0.8141676086873577 C14.861935670057946 -0.7565609419999182, 14.958612130728026 -0.6989542753124786, 15.120263034814634 -0.6026312439675543 M14.765259209387866 -0.8141676086873577 C14.87332723106971 -0.7497730449905953, 14.981395252751556 -0.6853784812938328, 15.120263034814634 -0.6026312439675543 M15.120263034814634 -0.6026312439675543 C15.237350684355853 -0.5453905800348405, 15.35443833389707 -0.48814991610212677, 15.49152287673515 -0.4211333667247139 M15.120263034814634 -0.6026312439675543 C15.196110555710046 -0.565551650426176, 15.271958076605458 -0.5284720568847975, 15.49152287673515 -0.4211333667247139 M15.49152287673515 -0.4211333667247139 C15.621448599219658 -0.3704361924922107, 15.751374321704166 -0.3197390182597075, 15.876502653976582 -0.2709137914968265 M15.49152287673515 -0.4211333667247139 C15.58057167457025 -0.3863864179857584, 15.669620472405347 -0.3516394692468029, 15.876502653976582 -0.2709137914968265 M15.876502653976582 -0.2709137914968265 C15.990298219380927 -0.23703538383108863, 16.10409378478527 -0.20315697616535078, 16.272572564296006 -0.15299867030334813 M15.876502653976582 -0.2709137914968265 C15.97655394605976 -0.24112723128568253, 16.076605238142935 -0.21134067107453858, 16.272572564296006 -0.15299867030334813 M16.272572564296006 -0.15299867030334813 C16.433185004639128 -0.11932178299600261, 16.59379744498225 -0.0856448956886571, 16.677027048596326 -0.06819348298638861 M16.272572564296006 -0.15299867030334813 C16.413757175065786 -0.12339537048256331, 16.554941785835567 -0.0937920706617785, 16.677027048596326 -0.06819348298638861 M16.677027048596326 -0.06819348298638861 C16.833963662742303 -0.04863135443377707, 16.99090027688828 -0.029069225881165527, 17.087103272638338 -0.017077534966650987 M16.677027048596326 -0.06819348298638861 C16.810997028410718 -0.051494142417703864, 16.944967008225113 -0.034794801849019126, 17.087103272638338 -0.017077534966650987 M17.087103272638338 -0.017077534966650987 C17.225624928258128 -0.011348236910448943, 17.36414658387792 -0.005618938854246899, 17.5 0 M17.087103272638338 -0.017077534966650987 C17.234268014527586 -0.010990756218050178, 17.38143275641683 -0.004903977469449369, 17.5 0 M17.5 0 C17.5 0, 17.5 0, 17.5 0 M17.5 0 C17.5 0, 17.5 0, 17.5 0 M17.5 0 C17.347919581494967 0.006290092637347858, 17.195839162989934 0.012580185274695716, 17.087103272638338 0.017077534966650987 M17.5 0 C17.40597582382109 0.0038888686928230504, 17.311951647642182 0.007777737385646101, 17.087103272638338 0.017077534966650987 M17.087103272638338 0.017077534966650987 C16.93737201204361 0.035741517135745624, 16.787640751448883 0.05440549930484025, 16.67702704859633 0.06819348298638772 M17.087103272638338 0.017077534966650987 C16.99753770298688 0.028241871580795094, 16.907972133335416 0.0394062081949392, 16.67702704859633 0.06819348298638772 M16.67702704859633 0.06819348298638772 C16.565673434178933 0.09154188063222943, 16.45431981976154 0.11489027827807112, 16.272572564296006 0.15299867030334813 M16.67702704859633 0.06819348298638772 C16.543364382026407 0.09621959696397386, 16.409701715456485 0.12424571094156, 16.272572564296006 0.15299867030334813 M16.272572564296006 0.15299867030334813 C16.17380575786211 0.18240282256816756, 16.075038951428212 0.211806974832987, 15.876502653976583 0.2709137914968265 M16.272572564296006 0.15299867030334813 C16.123208545806342 0.1974662652487703, 15.973844527316677 0.24193386019419247, 15.876502653976583 0.2709137914968265 M15.876502653976583 0.2709137914968265 C15.77077028905112 0.3121706883155455, 15.665037924125656 0.35342758513426453, 15.491522876735154 0.421133366724713 M15.876502653976583 0.2709137914968265 C15.758716717012621 0.316874006719895, 15.640930780048658 0.3628342219429636, 15.491522876735154 0.421133366724713 M15.491522876735154 0.421133366724713 C15.38668955899603 0.4723832528840901, 15.281856241256909 0.5236331390434672, 15.120263034814633 0.6026312439675543 M15.491522876735154 0.421133366724713 C15.368937753474512 0.48106158179442, 15.246352630213872 0.540989796864127, 15.120263034814633 0.6026312439675543 M15.120263034814633 0.6026312439675543 C15.024986954777399 0.6594034649192607, 14.929710874740165 0.7161756858709671, 14.765259209387867 0.8141676086873568 M15.120263034814633 0.6026312439675543 C14.985824359192385 0.6827393067037446, 14.85138568357014 0.7628473694399348, 14.765259209387867 0.8141676086873568 M14.765259209387867 0.8141676086873568 C14.669539720655662 0.8825100100503188, 14.573820231923456 0.9508524114132808, 14.42893643655166 1.054297453018032 M14.765259209387867 0.8141676086873568 C14.653775534691453 0.8937654224913578, 14.542291859995037 0.9733632362953588, 14.42893643655166 1.054297453018032 M14.42893643655166 1.054297453018032 C14.358874636117791 1.113636771070363, 14.288812835683922 1.172976089122694, 14.113592141871296 1.3213804466343415 M14.42893643655166 1.054297453018032 C14.349198321834667 1.121832191217504, 14.269460207117671 1.189366929416976, 14.113592141871296 1.3213804466343415 M14.113592141871296 1.3213804466343415 C14.040375265185316 1.3945973233203197, 13.967158388499339 1.467814200006298, 13.821380446634342 1.6135921418712948 M14.113592141871296 1.3213804466343415 C14.01708392084972 1.4178886676559166, 13.920575699828145 1.514396888677492, 13.821380446634342 1.6135921418712948 M13.821380446634342 1.6135921418712948 C13.762734112993524 1.682835737156592, 13.704087779352705 1.7520793324418895, 13.554297453018034 1.9289364365516604 M13.821380446634342 1.6135921418712948 C13.757507332528927 1.6890069851897977, 13.693634218423512 1.7644218285083006, 13.554297453018034 1.9289364365516604 M13.554297453018034 1.9289364365516604 C13.476303004485823 2.038174458461429, 13.398308555953612 2.1474124803711976, 13.314167608687358 2.265259209387866 M13.554297453018034 1.9289364365516604 C13.495100277715704 2.011847239235287, 13.435903102413373 2.0947580419189142, 13.314167608687358 2.265259209387866 M13.314167608687358 2.265259209387866 C13.2704492222071 2.338628128545264, 13.226730835726844 2.4119970477026618, 13.102631243967554 2.6202630348146316 M13.314167608687358 2.265259209387866 C13.26661083051157 2.345069780963772, 13.219054052335782 2.424880352539678, 13.102631243967554 2.6202630348146316 M13.102631243967554 2.6202630348146316 C13.04708635585857 2.7338819194655173, 12.991541467749583 2.847500804116403, 12.921133366724714 2.991522876735151 M13.102631243967554 2.6202630348146316 C13.036530510714147 2.7554742458287174, 12.97042977746074 2.8906854568428026, 12.921133366724714 2.991522876735151 M12.921133366724714 2.991522876735151 C12.884118030316543 3.0863850539401945, 12.847102693908372 3.1812472311452376, 12.770913791496827 3.3765026539765817 M12.921133366724714 2.991522876735151 C12.873193646225031 3.1143818509466428, 12.825253925725349 3.237240825158134, 12.770913791496827 3.3765026539765817 M12.770913791496827 3.3765026539765817 C12.740920576627065 3.477248086822007, 12.710927361757303 3.577993519667432, 12.652998670303347 3.772572564296005 M12.770913791496827 3.3765026539765817 C12.731025985915 3.5104834311638435, 12.691138180333175 3.6444642083511054, 12.652998670303347 3.772572564296005 M12.652998670303347 3.772572564296005 C12.63345565950705 3.8657774566305996, 12.613912648710752 3.9589823489651947, 12.568193482986388 4.1770270485963295 M12.652998670303347 3.772572564296005 C12.631098224076108 3.8770205817466215, 12.609197777848872 3.981468599197238, 12.568193482986388 4.1770270485963295 M12.568193482986388 4.1770270485963295 C12.555726181621026 4.277045615520437, 12.543258880255665 4.377064182444543, 12.517077534966651 4.587103272638337 M12.568193482986388 4.1770270485963295 C12.556835637992354 4.268145033664502, 12.54547779299832 4.359263018732675, 12.517077534966651 4.587103272638337 M12.517077534966651 4.587103272638337 C12.513192447870043 4.681036018250454, 12.509307360773436 4.774968763862572, 12.5 4.999999999999999 M12.517077534966651 4.587103272638337 C12.51321047853281 4.680600077017522, 12.50934342209897 4.774096881396708, 12.5 4.999999999999999 M12.5 4.999999999999999 C12.5 5.796327874351651, 12.5 6.5926557487033035, 12.5 7.5 M12.5 4.999999999999999 C12.5 5.580234035299554, 12.5 6.160468070599109, 12.5 7.5 M12.5 7.5 C12.5 7.5, 12.5 7.5, 12.5 7.5 M12.5 7.5 C12.5 7.5, 12.5 7.5, 12.5 7.5 M12.5 7.5 C12.496160711652317 7.5928254339547125, 12.492321423304634 7.685650867909425, 12.482922465033349 7.9128967273616615 M12.5 7.5 C12.49405767006118 7.64367229166467, 12.48811534012236 7.7873445833293395, 12.482922465033349 7.9128967273616615 M12.482922465033349 7.9128967273616615 C12.465391995857269 8.053534412544304, 12.447861526681187 8.194172097726945, 12.431806517013612 8.322972951403669 M12.482922465033349 7.9128967273616615 C12.46914781192805 8.023403486049348, 12.455373158822752 8.133910244737034, 12.431806517013612 8.322972951403669 M12.431806517013612 8.322972951403669 C12.404538960116476 8.453017893368623, 12.37727140321934 8.583062835333577, 12.347001329696653 8.727427435703996 M12.431806517013612 8.322972951403669 C12.41274172918648 8.413897093816075, 12.393676941359347 8.504821236228482, 12.347001329696653 8.727427435703996 M12.347001329696653 8.727427435703996 C12.319023049940098 8.821404820808723, 12.291044770183543 8.91538220591345, 12.229086208503173 9.123497346023417 M12.347001329696653 8.727427435703996 C12.316888945400995 8.828573151594966, 12.286776561105336 8.929718867485938, 12.229086208503173 9.123497346023417 M12.229086208503173 9.123497346023417 C12.172780079179496 9.267797588461672, 12.116473949855822 9.412097830899928, 12.078866633275286 9.508477123264846 M12.229086208503173 9.123497346023417 C12.194019802075825 9.213364843748517, 12.158953395648478 9.303232341473617, 12.078866633275286 9.508477123264846 M12.078866633275286 9.508477123264846 C12.015340575345936 9.638421751725314, 11.951814517416587 9.76836638018578, 11.897368756032446 9.879736965185367 M12.078866633275286 9.508477123264846 C12.040999950390571 9.58593466114571, 12.003133267505858 9.663392199026573, 11.897368756032446 9.879736965185367 M11.897368756032446 9.879736965185367 C11.815695287898743 10.01680273003266, 11.73402181976504 10.153868494879953, 11.685832391312642 10.234740790612134 M11.897368756032446 9.879736965185367 C11.813945316766366 10.019739560526098, 11.730521877500287 10.159742155866828, 11.685832391312642 10.234740790612134 M11.685832391312642 10.234740790612134 C11.623917564531483 10.32145790101861, 11.562002737750323 10.408175011425085, 11.445702546981968 10.57106356344834 M11.685832391312642 10.234740790612134 C11.590011655284519 10.368946081612142, 11.494190919256395 10.50315137261215, 11.445702546981968 10.57106356344834 M11.445702546981968 10.57106356344834 C11.341335768159201 10.694289186354183, 11.236968989336434 10.817514809260027, 11.178619553365658 10.886407858128706 M11.445702546981968 10.57106356344834 C11.346344603510987 10.688375265629421, 11.246986660040005 10.805686967810505, 11.178619553365658 10.886407858128706 M11.178619553365658 10.886407858128706 C11.109486286755173 10.955541124739192, 11.040353020144686 11.024674391349679, 10.886407858128706 11.178619553365658 M11.178619553365658 10.886407858128706 C11.11339729858627 10.951630112908095, 11.048175043806882 11.016852367687482, 10.886407858128706 11.178619553365658 M10.886407858128706 11.178619553365658 C10.769115642887376 11.277960992240574, 10.651823427646045 11.377302431115488, 10.57106356344834 11.445702546981968 M10.886407858128706 11.178619553365658 C10.786699956042385 11.263067838702195, 10.686992053956066 11.34751612403873, 10.57106356344834 11.445702546981968 M10.57106356344834 11.445702546981968 C10.445725252809957 11.535192380716547, 10.320386942171575 11.624682214451123, 10.234740790612134 11.685832391312642 M10.57106356344834 11.445702546981968 C10.488247695637998 11.504831940087596, 10.405431827827657 11.563961333193225, 10.234740790612134 11.685832391312642 M10.234740790612134 11.685832391312642 C10.132411514104502 11.746807405119352, 10.030082237596872 11.807782418926061, 9.879736965185367 11.897368756032446 M10.234740790612134 11.685832391312642 C10.092814557132746 11.770402070111208, 9.950888323653357 11.854971748909774, 9.879736965185367 11.897368756032446 M9.879736965185367 11.897368756032446 C9.772657131694086 11.949716896821519, 9.665577298202804 12.002065037610592, 9.508477123264848 12.078866633275286 M9.879736965185367 11.897368756032446 C9.768360637663966 11.951817324764438, 9.656984310142564 12.00626589349643, 9.508477123264848 12.078866633275286 M9.508477123264848 12.078866633275286 C9.359048112219641 12.137174014319504, 9.209619101174434 12.195481395363721, 9.123497346023418 12.229086208503173 M9.508477123264848 12.078866633275286 C9.386454277224976 12.126480095549987, 9.264431431185105 12.174093557824687, 9.123497346023418 12.229086208503173 M9.123497346023418 12.229086208503173 C8.983466726631052 12.270775130146154, 8.843436107238684 12.312464051789135, 8.727427435703996 12.347001329696653 M9.123497346023418 12.229086208503173 C8.970731268703526 12.274566640245387, 8.817965191383633 12.320047071987602, 8.727427435703996 12.347001329696653 M8.727427435703996 12.347001329696653 C8.62810060386449 12.367827976221097, 8.528773772024984 12.388654622745543, 8.32297295140367 12.431806517013612 M8.727427435703996 12.347001329696653 C8.571064935062731 12.379787098357792, 8.414702434421468 12.41257286701893, 8.32297295140367 12.431806517013612 M8.32297295140367 12.431806517013612 C8.2296397659023 12.443440486453683, 8.136306580400928 12.455074455893755, 7.912896727361662 12.482922465033349 M8.32297295140367 12.431806517013612 C8.190306985606552 12.448343312404557, 8.057641019809436 12.4648801077955, 7.912896727361662 12.482922465033349 M7.912896727361662 12.482922465033349 C7.814313068961545 12.486999915305784, 7.715729410561428 12.491077365578219, 7.5 12.5 M7.912896727361662 12.482922465033349 C7.806827451922335 12.4873095227167, 7.700758176483009 12.49169658040005, 7.5 12.5 M7.5 12.5 C7.5 12.5, 7.5 12.5, 7.5 12.5 M7.5 12.5 C7.5 12.5, 7.5 12.5, 7.5 12.5 M7.5 12.5 C3.5315931280360937 12.5, -0.4368137439278126 12.5, -7.5 12.5 M7.5 12.5 C4.035769102649359 12.5, 0.5715382052987197 12.5, -7.5 12.5 M-7.5 12.5 C-7.5 6.762588983202375, -7.5 1.0251779664047493, -7.5 -12.5 M-7.5 12.5 C-7.5 6.49574484978934, -7.5 0.4914896995786808, -7.5 -12.5" stroke="currentColor" stroke-width="2" fill="none" vector-effect="non-scaling-stroke"/></g></g></g></g></g></g><linearGradient id="s2m-shape-commentRight-gradient" gradientUnits="objectBoundingBox" x1="0%" y1="0%" x2="100%" y2="0%"><stop offset="0%" stop-color="hsl(40.5882352941, 60%, 83.3333333333%)" stop-opacity="1"/><stop offset="100%" stop-color="hsl(-79.4117647059, 60%, 83.3333333333%)" stop-opacity="1"/></linearGradient></svg>