<svg id="s2m-shape-comment" width="100%" xmlns="http://www.w3.org/2000/svg" class="flowchart" style="max-width: 76px;" viewBox="-8 -8 76 46" role="graphics-document document" aria-roledescription="flowchart-v2"><g><marker id="s2m-shape-comment_flowchart-v2-pointEnd" class="marker flowchart-v2" viewBox="0 0 10 10" refX="5" refY="5" markerUnits="userSpaceOnUse" markerWidth="8" markerHeight="8" orient="auto"><path d="M 0 0 L 10 5 L 0 10 z" class="arrowMarkerPath" style="stroke-width: 1; stroke-dasharray: 1,0;"/></marker><marker id="s2m-shape-comment_flowchart-v2-pointStart" class="marker flowchart-v2" viewBox="0 0 10 10" refX="4.5" refY="5" markerUnits="userSpaceOnUse" markerWidth="8" markerHeight="8" orient="auto"><path d="M 0 5 L 10 10 L 10 0 z" class="arrowMarkerPath" style="stroke-width: 1; stroke-dasharray: 1,0;"/></marker><marker id="s2m-shape-comment_flowchart-v2-pointEnd-margin" class="marker flowchart-v2" viewBox="0 0 11.5 14" refX="11.5" refY="7" markerUnits="userSpaceOnUse" markerWidth="10.5" markerHeight="14" orient="auto"><path d="M 0 0 L 11.5 7 L 0 14 z" class="arrowMarkerPath" style="stroke-width: 0; stroke-dasharray: 1,0;"/></marker><marker id="s2m-shape-comment_flowchart-v2-pointStart-margin" class="marker flowchart-v2" viewBox="0 0 11.5 14" refX="1" refY="7" markerUnits="userSpaceOnUse" markerWidth="11.5" markerHeight="14" orient="auto"><polygon points="0,7 11.5,14 11.5,0" class="arrowMarkerPath" style="stroke-width: 0; stroke-dasharray: 1,0;"/></marker><marker id="s2m-shape-comment_flowchart-v2-circleEnd" class="marker flowchart-v2" viewBox="0 0 10 10" refX="11" refY="5" markerUnits="userSpaceOnUse" markerWidth="11" markerHeight="11" orient="auto"><circle cx="5" cy="5" r="5" class="arrowMarkerPath" style="stroke-width: 1; stroke-dasharray: 1,0;"/></marker><marker id="s2m-shape-comment_flowchart-v2-circleStart" class="marker flowchart-v2" viewBox="0 0 10 10" refX="-1" refY="5" markerUnits="userSpaceOnUse" markerWidth="11" markerHeight="11" orient="auto"><circle cx="5" cy="5" r="5" class="arrowMarkerPath" style="stroke-width: 1; stroke-dasharray: 1,0;"/></marker><marker id="s2m-shape-comment_flowchart-v2-circleEnd-margin" class="marker flowchart-v2" viewBox="0 0 10 10" refY="5" refX="12.25" markerUnits="userSpaceOnUse" markerWidth="14" markerHeight="14" orient="auto"><circle cx="5" cy="5" r="5" class="arrowMarkerPath" style="stroke-width: 0; stroke-dasharray: 1,0;"/></marker><marker id="s2m-shape-comment_flowchart-v2-circleStart-margin" class="marker flowchart-v2" viewBox="0 0 10 10" refX="-2" refY="5" markerUnits="userSpaceOnUse" markerWidth="14" markerHeight="14" orient="auto"><circle cx="5" cy="5" r="5" class="arrowMarkerPath" style="stroke-width: 0; stroke-dasharray: 1,0;"/></marker><marker id="s2m-shape-comment_flowchart-v2-crossEnd" class="marker cross flowchart-v2" viewBox="0 0 11 11" refX="12" refY="5.2" markerUnits="userSpaceOnUse" markerWidth="11" markerHeight="11" orient="auto"><path d="M 1,1 l 9,9 M 10,1 l -9,9" class="arrowMarkerPath" style="stroke-width: 2; stroke-dasharray: 1,0;"/></marker><marker id="s2m-shape-comment_flowchart-v2-crossStart" class="marker cross flowchart-v2" viewBox="0 0 11 11" refX="-1" refY="5.2" markerUnits="userSpaceOnUse" markerWidth="11" markerHeight="11" orient="auto"><path d="M 1,1 l 9,9 M 10,1 l -9,9" class="arrowMarkerPath" style="stroke-width: 2; stroke-dasharray: 1,0;"/></marker><marker id="s2m-shape-comment_flowchart-v2-crossEnd-margin" class="marker cross flowchart-v2" viewBox="0 0 15 15" refX="17.7" refY="7.5" markerUnits="userSpaceOnUse" markerWidth="12" markerHeight="12" orient="auto"><path d="M 1,1 L 14,14 M 1,14 L 14,1" class="arrowMarkerPath" style="stroke-width: 2.5;"/></marker><marker id="s2m-shape-comment_flowchart-v2-crossStart-margin" class="marker cross flowchart-v2" viewBox="0 0 15 15" refX="-3.5" refY="7.5" markerUnits="userSpaceOnUse" markerWidth="12" markerHeight="12" orient="auto"><path d="M 1,1 L 14,14 M 1,14 L 14,1" class="arrowMarkerPath" style="stroke-width: 2.5; stroke-dasharray: 1,0;"/></marker><g class="root"><g class="clusters"/><g class="edgePaths"/><g class="edgeLabels"/><g class="nodes"><g class="node default" data-look="classic" transform="translate(38, 23)"><g class="text" transform="translate(5, 0)"><g><path d="M-7.5 12.5 C-7.601139191211631 12.497260208215954, -7.702278382423263 12.494520416431909, -7.770694542927088 12.492667069255619 M-7.5 12.5 C-7.585029810346292 12.497696600368316, -7.670059620692583 12.49539320073663, -7.770694542927088 12.492667069255619 M-7.770694542927088 12.492667069255619 C-7.827435178267799 12.488046830313293, -7.884175813608509 12.483426591370968, -8.040595092119709 12.470689785771798 M-7.770694542927088 12.492667069255619 C-7.8577208329017925 12.485580750050117, -7.944747122876496 12.478494430844615, -8.040595092119709 12.470689785771798 M-8.040595092119709 12.470689785771798 C-8.144553878711399 12.456525684242248, -8.248512665303087 12.4423615827127, -8.308909982763824 12.43413261270763 M-8.040595092119709 12.470689785771798 C-8.099987624999175 12.462597714929283, -8.15938015787864 12.454505644086767, -8.308909982763824 12.43413261270763 M-8.308909982763824 12.43413261270763 C-8.402283993963865 12.41621571204874, -8.495658005163905 12.398298811389848, -8.574852201055121 12.383102778550434 M-8.308909982763824 12.43413261270763 C-8.402865960273866 12.416104042512119, -8.496821937783908 12.398075472316608, -8.574852201055121 12.383102778550434 M-8.574852201055121 12.383102778550434 C-8.637680215115962 12.367478152105765, -8.700508229176803 12.351853525661095, -8.837641692646104 12.317749962596114 M-8.574852201055121 12.383102778550434 C-8.643608274401371 12.366003909870658, -8.712364347747622 12.348905041190882, -8.837641692646104 12.317749962596114 M-8.837641692646104 12.317749962596114 C-8.891947198879237 12.301075600761731, -8.94625270511237 12.284401238927346, -9.0965076506799 12.238265855914012 M-8.837641692646104 12.317749962596114 C-8.889774238434175 12.301742802510246, -8.941906784222246 12.285735642424378, -9.0965076506799 12.238265855914012 M-9.0965076506799 12.238265855914012 C-9.195386113733342 12.201939707217962, -9.294264576786782 12.165613558521912, -9.350690776699572 12.144883599083958 M-9.0965076506799 12.238265855914012 C-9.16250006772793 12.214021442313015, -9.228492484775957 12.189777028712019, -9.350690776699572 12.144883599083958 M-9.350690776699572 12.144883599083958 C-9.433998978195989 12.109047017867233, -9.517307179692406 12.073210436650507, -9.599445507801324 12.037877098354784 M-9.350690776699572 12.144883599083958 C-9.40329477242719 12.122255006324119, -9.455898768154805 12.09962641356428, -9.599445507801324 12.037877098354784 M-9.599445507801324 12.037877098354784 C-9.669295087289443 12.003234898557029, -9.739144666777563 11.968592698759274, -9.84204220349895 11.917560222230115 M-9.599445507801324 12.037877098354784 C-9.663769042559172 12.005975564242352, -9.728092577317021 11.974074030129922, -9.84204220349895 11.917560222230115 M-9.84204220349895 11.917560222230115 C-9.927341828078426 11.869333895531659, -10.0126414526579 11.8211075688332, -10.077769285885108 11.784285880837945 M-9.84204220349895 11.917560222230115 C-9.915573430411863 11.875987460460966, -9.989104657324773 11.834414698691814, -10.077769285885108 11.784285880837945 M-10.077769285885108 11.784285880837945 C-10.164755776736644 11.728685199873823, -10.251742267588181 11.673084518909702, -10.305935326811912 11.638444990784453 M-10.077769285885108 11.784285880837945 C-10.143830186370613 11.742060576470099, -10.209891086856116 11.69983527210225, -10.305935326811912 11.638444990784453 M-10.305935326811912 11.638444990784453 C-10.354203087423317 11.603774299237104, -10.402470848034723 11.569103607689755, -10.525871075968826 11.480465328528219 M-10.305935326811912 11.638444990784453 C-10.376105098988562 11.58804210288852, -10.44627487116521 11.537639214992588, -10.525871075968826 11.480465328528219 M-10.525871075968826 11.480465328528219 C-10.598568400924398 11.422029584293638, -10.67126572587997 11.363593840059057, -10.736931423909137 11.310810275638183 M-10.525871075968826 11.480465328528219 C-10.573825678396767 11.441918340945627, -10.621780280824707 11.403371353363033, -10.736931423909137 11.310810275638183 M-10.736931423909137 11.310810275638183 C-10.781736501941493 11.270613845467189, -10.82654157997385 11.230417415296195, -10.938497294267115 11.129977459615654 M-10.736931423909137 11.310810275638183 C-10.807504037594178 11.247496757114083, -10.878076651279219 11.184183238589984, -10.938497294267115 11.129977459615654 M-10.938497294267115 11.129977459615654 C-10.988162389951558 11.080312363931212, -11.037827485636003 11.030647268246767, -11.129977459615654 10.938497294267115 M-10.938497294267115 11.129977459615654 C-11.009960725472729 11.058514028410041, -11.081424156678343 10.987050597204426, -11.129977459615654 10.938497294267115 M-11.129977459615654 10.938497294267115 C-11.169050448988491 10.894944463073895, -11.208123438361328 10.851391631880674, -11.310810275638183 10.736931423909137 M-11.129977459615654 10.938497294267115 C-11.190724441938777 10.870785478276506, -11.2514714242619 10.803073662285898, -11.310810275638183 10.736931423909137 M-11.310810275638183 10.736931423909137 C-11.34912963115651 10.689260008464831, -11.387448986674837 10.641588593020526, -11.480465328528219 10.525871075968826 M-11.310810275638183 10.736931423909137 C-11.377541432546089 10.653914142929176, -11.444272589453995 10.570896861949217, -11.480465328528219 10.525871075968826 M-11.480465328528219 10.525871075968826 C-11.528822859275213 10.458548804226226, -11.577180390022205 10.391226532483625, -11.638444990784453 10.305935326811912 M-11.480465328528219 10.525871075968826 C-11.522433035603392 10.467444573695355, -11.564400742678565 10.409018071421885, -11.638444990784453 10.305935326811912 M-11.638444990784453 10.305935326811912 C-11.6887104772485 10.227295673436545, -11.73897596371255 10.148656020061177, -11.784285880837945 10.077769285885108 M-11.638444990784453 10.305935326811912 C-11.689202205439091 10.226526371532136, -11.739959420093728 10.147117416252359, -11.784285880837945 10.077769285885108 M-11.784285880837945 10.077769285885108 C-11.81599458983848 10.021684961019204, -11.847703298839015 9.965600636153303, -11.917560222230115 9.84204220349895 M-11.784285880837945 10.077769285885108 C-11.812260593082545 10.028289414297468, -11.840235305327145 9.97880954270983, -11.917560222230115 9.84204220349895 M-11.917560222230115 9.84204220349895 C-11.965154017408965 9.746078130810305, -12.012747812587813 9.65011405812166, -12.037877098354786 9.599445507801322 M-11.917560222230115 9.84204220349895 C-11.962327247815796 9.751777788122638, -12.00709427340148 9.661513372746324, -12.037877098354786 9.599445507801322 M-12.037877098354786 9.599445507801322 C-12.079246432138145 9.503275486064195, -12.120615765921507 9.407105464327069, -12.144883599083958 9.350690776699572 M-12.037877098354786 9.599445507801322 C-12.078772096343705 9.504378159940961, -12.119667094332625 9.4093108120806, -12.144883599083958 9.350690776699572 M-12.144883599083958 9.350690776699572 C-12.168399486664965 9.28668138113157, -12.191915374245973 9.22267198556357, -12.238265855914012 9.0965076506799 M-12.144883599083958 9.350690776699572 C-12.174140254456603 9.271055218811599, -12.20339690982925 9.191419660923625, -12.238265855914012 9.0965076506799 M-12.238265855914012 9.0965076506799 C-12.257713552720332 9.033169873161006, -12.277161249526655 8.96983209564211, -12.317749962596114 8.837641692646104 M-12.238265855914012 9.0965076506799 C-12.260395181733767 9.024436272286177, -12.282524507553521 8.952364893892453, -12.317749962596114 8.837641692646104 M-12.317749962596114 8.837641692646104 C-12.339453008687457 8.750371811998482, -12.361156054778798 8.663101931350859, -12.383102778550434 8.57485220105512 M-12.317749962596114 8.837641692646104 C-12.34308600389697 8.735763214800038, -12.368422045197827 8.633884736953972, -12.383102778550434 8.57485220105512 M-12.383102778550434 8.57485220105512 C-12.39583332406026 8.508506903860699, -12.408563869570084 8.442161606666279, -12.43413261270763 8.308909982763822 M-12.383102778550434 8.57485220105512 C-12.399397425892362 8.489932570569207, -12.415692073234288 8.405012940083296, -12.43413261270763 8.308909982763822 M-12.43413261270763 8.308909982763822 C-12.44356702197494 8.239665227804053, -12.453001431242251 8.170420472844283, -12.470689785771798 8.040595092119709 M-12.43413261270763 8.308909982763822 C-12.444929810852955 8.229662907653823, -12.455727008998277 8.150415832543825, -12.470689785771798 8.040595092119709 M-12.470689785771798 8.040595092119709 C-12.476996819323489 7.963139121702316, -12.483303852875178 7.8856831512849235, -12.492667069255619 7.770694542927088 M-12.470689785771798 8.040595092119709 C-12.47625128147315 7.972294988276923, -12.481812777174502 7.9039948844341374, -12.492667069255619 7.770694542927088 M-12.492667069255619 7.770694542927088 C-12.494735386971122 7.694342762425782, -12.496803704686627 7.617990981924476, -12.5 7.5 M-12.492667069255619 7.770694542927088 C-12.494544794445215 7.701378470041798, -12.49642251963481 7.63206239715651, -12.5 7.5 M-12.5 7.5 C-12.5 6.557164574988617, -12.5 5.614329149977233, -12.5 5 M-12.5 7.5 C-12.5 6.56164263298778, -12.5 5.623285265975561, -12.5 5 M-12.5 5 C-12.5 5, -12.5 5, -12.5 5.000000000000001 M-12.5 5 C-12.5 5, -12.5 5.000000000000001, -12.5 5.000000000000001 M-12.5 5.000000000000001 C-12.505339468884 4.870903544782212, -12.510678937767997 4.741807089564424, -12.517077534966651 4.58710327263834 M-12.5 5.000000000000001 C-12.50414286856903 4.899834673014458, -12.508285737138058 4.7996693460289155, -12.517077534966651 4.58710327263834 M-12.517077534966651 4.58710327263834 C-12.531405123631938 4.472160604310645, -12.545732712297227 4.357217935982949, -12.568193482986388 4.177027048596331 M-12.517077534966651 4.58710327263834 C-12.530104704705131 4.482593177780119, -12.543131874443613 4.378083082921899, -12.568193482986388 4.177027048596331 M-12.568193482986388 4.177027048596331 C-12.593071995751497 4.058375980555365, -12.617950508516607 3.9397249125143983, -12.652998670303347 3.7725725642960057 M-12.568193482986388 4.177027048596331 C-12.591620119965528 4.065300293688327, -12.61504675694467 3.9535735387803217, -12.652998670303347 3.7725725642960057 M-12.652998670303347 3.7725725642960057 C-12.680099511813797 3.681542442306713, -12.707200353324247 3.59051232031742, -12.770913791496827 3.376502653976583 M-12.652998670303347 3.7725725642960057 C-12.688319906865035 3.653930622060252, -12.723641143426724 3.535288679824498, -12.770913791496827 3.376502653976583 M-12.770913791496827 3.376502653976583 C-12.805047469347413 3.289025534730211, -12.839181147197998 3.201548415483839, -12.921133366724712 2.991522876735154 M-12.770913791496827 3.376502653976583 C-12.80398642450448 3.291744759615887, -12.837059057512134 3.2069868652551907, -12.921133366724712 2.991522876735154 M-12.921133366724712 2.991522876735154 C-12.991439890938297 2.8477085828049136, -13.061746415151882 2.703894288874673, -13.102631243967554 2.6202630348146325 M-12.921133366724712 2.991522876735154 C-12.972643168494066 2.8861578931179577, -13.02415297026342 2.780792909500761, -13.102631243967554 2.6202630348146325 M-13.102631243967554 2.6202630348146325 C-13.180644392376129 2.4893400790603604, -13.258657540784704 2.3584171233060887, -13.314167608687356 2.265259209387867 M-13.102631243967554 2.6202630348146325 C-13.178736799732711 2.4925414325801984, -13.254842355497868 2.3648198303457644, -13.314167608687356 2.265259209387867 M-13.314167608687356 2.265259209387867 C-13.390384827446935 2.158510352649402, -13.466602046206514 2.0517614959109363, -13.554297453018032 1.9289364365516608 M-13.314167608687356 2.265259209387867 C-13.40378204237315 2.1397463856596812, -13.493396476058946 2.014233561931496, -13.554297453018032 1.9289364365516608 M-13.554297453018032 1.9289364365516608 C-13.646212229259804 1.820412865311836, -13.738127005501577 1.7118892940720114, -13.821380446634342 1.6135921418712957 M-13.554297453018032 1.9289364365516608 C-13.657824006999325 1.8067028652415411, -13.761350560980617 1.6844692939314212, -13.821380446634342 1.6135921418712957 M-13.821380446634342 1.6135921418712957 C-13.894837558763907 1.5401350297417307, -13.96829467089347 1.4666779176121658, -14.113592141871294 1.321380446634342 M-13.821380446634342 1.6135921418712957 C-13.921705567597806 1.5132670209078312, -14.02203068856127 1.4129418999443666, -14.113592141871294 1.321380446634342 M-14.113592141871294 1.321380446634342 C-14.188484805651166 1.2579495960381617, -14.263377469431038 1.1945187454419814, -14.428936436551659 1.054297453018033 M-14.113592141871294 1.321380446634342 C-14.203707619340191 1.2450565305224237, -14.293823096809088 1.1687326144105057, -14.428936436551659 1.054297453018033 M-14.428936436551659 1.054297453018033 C-14.51069776008106 0.9959209900571178, -14.59245908361046 0.9375445270962027, -14.765259209387866 0.8141676086873577 M-14.428936436551659 1.054297453018033 C-14.528693357915488 0.983072380163184, -14.628450279279317 0.9118473073083351, -14.765259209387866 0.8141676086873577 M-14.765259209387866 0.8141676086873577 C-14.851062045795574 0.7630402156951406, -14.936864882203285 0.7119128227029234, -15.120263034814634 0.6026312439675543 M-14.765259209387866 0.8141676086873577 C-14.904746996097675 0.7310509287813522, -15.044234782807482 0.6479342488753468, -15.120263034814634 0.6026312439675543 M-15.120263034814634 0.6026312439675543 C-15.232873701968806 0.5475792433588863, -15.345484369122978 0.49252724275021825, -15.49152287673515 0.4211333667247139 M-15.120263034814634 0.6026312439675543 C-15.218576843530249 0.5545685515598927, -15.316890652245865 0.5065058591522311, -15.49152287673515 0.4211333667247139 M-15.49152287673515 0.4211333667247139 C-15.624553262254015 0.36922474921695925, -15.757583647772881 0.3173161317092046, -15.876502653976582 0.2709137914968265 M-15.49152287673515 0.4211333667247139 C-15.614005057309832 0.37334067155835077, -15.736487237884514 0.3255479763919876, -15.876502653976582 0.2709137914968265 M-15.876502653976582 0.2709137914968265 C-15.964593431455755 0.24468803076153753, -16.05268420893493 0.21846227002624855, -16.272572564296006 0.15299867030334813 M-15.876502653976582 0.2709137914968265 C-15.994626525947282 0.2357467911356152, -16.112750397917985 0.20057979077440394, -16.272572564296006 0.15299867030334813 M-16.272572564296006 0.15299867030334813 C-16.416107437855562 0.1229025721977925, -16.55964231141512 0.09280647409223688, -16.677027048596326 0.06819348298638861 M-16.272572564296006 0.15299867030334813 C-16.376159112657426 0.13127885514910537, -16.479745661018846 0.10955903999486259, -16.677027048596326 0.06819348298638861 M-16.677027048596326 0.06819348298638861 C-16.787398194654713 0.05443573397770309, -16.897769340713104 0.040677984969017575, -17.087103272638338 0.017077534966650987 M-16.677027048596326 0.06819348298638861 C-16.787041848206812 0.05448015251611153, -16.897056647817298 0.040766822045834455, -17.087103272638338 0.017077534966650987 M-17.087103272638338 0.017077534966650987 C-17.205601081024017 0.012176429358212955, -17.324098889409697 0.007275323749774921, -17.5 0 M-17.087103272638338 0.017077534966650987 C-17.233715757057016 0.01101359775599228, -17.3803282414757 0.004949660545333573, -17.5 0 M-17.5 0 C-17.5 0, -17.5 0, -17.5 0 M-17.5 0 C-17.5 0, -17.5 0, -17.5 0 M-17.5 0 C-17.394338739874684 -0.0043701820451338596, -17.28867747974937 -0.008740364090267719, -17.087103272638338 -0.017077534966650987 M-17.5 0 C-17.397582547263152 -0.004236017179125789, -17.295165094526308 -0.008472034358251578, -17.087103272638338 -0.017077534966650987 M-17.087103272638338 -0.017077534966650987 C-16.977439426796572 -0.030747119095278358, -16.86777558095481 -0.04441670322390573, -16.67702704859633 -0.06819348298638772 M-17.087103272638338 -0.017077534966650987 C-16.9957678210603 -0.028462487132870275, -16.904432369482265 -0.039847439299089564, -16.67702704859633 -0.06819348298638772 M-16.67702704859633 -0.06819348298638772 C-16.557434195744236 -0.0932694672604562, -16.437841342892145 -0.11834545153452466, -16.272572564296006 -0.15299867030334813 M-16.67702704859633 -0.06819348298638772 C-16.553769443893497 -0.09403788491741392, -16.430511839190665 -0.11988228684844013, -16.272572564296006 -0.15299867030334813 M-16.272572564296006 -0.15299867030334813 C-16.149408249086207 -0.18966627563333363, -16.026243933876405 -0.22633388096331913, -15.876502653976583 -0.2709137914968265 M-16.272572564296006 -0.15299867030334813 C-16.133169631118804 -0.19450072166357263, -15.9937666979416 -0.23600277302379713, -15.876502653976583 -0.2709137914968265 M-15.876502653976583 -0.2709137914968265 C-15.735217772755144 -0.3260433232225856, -15.593932891533704 -0.3811728549483447, -15.491522876735154 -0.421133366724713 M-15.876502653976583 -0.2709137914968265 C-15.728372916503165 -0.32871419442012245, -15.580243179029745 -0.3865145973434184, -15.491522876735154 -0.421133366724713 M-15.491522876735154 -0.421133366724713 C-15.349282735029716 -0.4906703348080659, -15.207042593324278 -0.5602073028914187, -15.120263034814633 -0.6026312439675543 M-15.491522876735154 -0.421133366724713 C-15.375645571475502 -0.4777823293931555, -15.25976826621585 -0.534431292061598, -15.120263034814633 -0.6026312439675543 M-15.120263034814633 -0.6026312439675543 C-15.023757817956067 -0.6601358714915425, -14.927252601097502 -0.7176404990155307, -14.765259209387867 -0.8141676086873568 M-15.120263034814633 -0.6026312439675543 C-15.046490121783288 -0.6465903585452085, -14.972717208751943 -0.6905494731228627, -14.765259209387867 -0.8141676086873568 M-14.765259209387867 -0.8141676086873568 C-14.685361426336529 -0.8712135293209485, -14.605463643285193 -0.9282594499545401, -14.42893643655166 -1.054297453018032 M-14.765259209387867 -0.8141676086873568 C-14.691594754657107 -0.8667630184421884, -14.617930299926348 -0.9193584281970199, -14.42893643655166 -1.054297453018032 M-14.42893643655166 -1.054297453018032 C-14.31048211124243 -1.1546231489132344, -14.1920277859332 -1.2549488448084367, -14.113592141871296 -1.3213804466343415 M-14.42893643655166 -1.054297453018032 C-14.365088294989706 -1.1083740704576774, -14.30124015342775 -1.1624506878973229, -14.113592141871296 -1.3213804466343415 M-14.113592141871296 -1.3213804466343415 C-14.003755555143394 -1.4312170333622418, -13.893918968415495 -1.5410536200901421, -13.821380446634342 -1.6135921418712948 M-14.113592141871296 -1.3213804466343415 C-14.042604410476724 -1.3923681780289134, -13.971616679082151 -1.4633559094234854, -13.821380446634342 -1.6135921418712948 M-13.821380446634342 -1.6135921418712948 C-13.767782070362179 -1.676875625153796, -13.714183694090016 -1.740159108436297, -13.554297453018034 -1.9289364365516604 M-13.821380446634342 -1.6135921418712948 C-13.744006331940708 -1.7049475864625514, -13.666632217247075 -1.7963030310538082, -13.554297453018034 -1.9289364365516604 M-13.554297453018034 -1.9289364365516604 C-13.475680124224303 -2.039046856547904, -13.397062795430571 -2.149157276544148, -13.314167608687358 -2.265259209387866 M-13.554297453018034 -1.9289364365516604 C-13.504396119994132 -1.9988276020483995, -13.454494786970232 -2.0687187675451386, -13.314167608687358 -2.265259209387866 M-13.314167608687358 -2.265259209387866 C-13.241327407853111 -2.3875008389784242, -13.168487207018865 -2.5097424685689824, -13.102631243967554 -2.6202630348146316 M-13.314167608687358 -2.265259209387866 C-13.268301003775113 -2.3422333042426806, -13.22243439886287 -2.4192073990974956, -13.102631243967554 -2.6202630348146316 M-13.102631243967554 -2.6202630348146316 C-13.053661341204371 -2.7204325719734443, -13.00469143844119 -2.8206021091322566, -12.921133366724714 -2.991522876735151 M-13.102631243967554 -2.6202630348146316 C-13.04433299390826 -2.7395140113552423, -12.986034743848965 -2.858764987895853, -12.921133366724714 -2.991522876735151 M-12.921133366724714 -2.991522876735151 C-12.884187950439587 -3.0862058640220127, -12.847242534154462 -3.1808888513088744, -12.770913791496827 -3.3765026539765817 M-12.921133366724714 -2.991522876735151 C-12.881974182547117 -3.091879264900793, -12.84281499836952 -3.192235653066435, -12.770913791496827 -3.3765026539765817 M-12.770913791496827 -3.3765026539765817 C-12.727101118109024 -3.523666829732191, -12.68328844472122 -3.6708310054878, -12.652998670303347 -3.772572564296005 M-12.770913791496827 -3.3765026539765817 C-12.737777632099366 -3.487805051396399, -12.704641472701905 -3.5991074488162162, -12.652998670303347 -3.772572564296005 M-12.652998670303347 -3.772572564296005 C-12.622204020853413 -3.9194389819825948, -12.591409371403481 -4.066305399669185, -12.568193482986388 -4.1770270485963295 M-12.652998670303347 -3.772572564296005 C-12.633170753806777 -3.867136234221026, -12.613342837310205 -3.961699904146047, -12.568193482986388 -4.1770270485963295 M-12.568193482986388 -4.1770270485963295 C-12.554739582211466 -4.284960580931201, -12.541285681436543 -4.392894113266072, -12.517077534966651 -4.587103272638337 M-12.568193482986388 -4.1770270485963295 C-12.550485082479236 -4.319092182769186, -12.532776681972082 -4.4611573169420415, -12.517077534966651 -4.587103272638337 M-12.517077534966651 -4.587103272638337 C-12.512193806337521 -4.705180944399993, -12.50731007770839 -4.823258616161651, -12.5 -4.999999999999999 M-12.517077534966651 -4.587103272638337 C-12.512310980810176 -4.702347926848923, -12.5075444266537 -4.81759258105951, -12.5 -4.999999999999999 M-12.5 -4.999999999999999 C-12.5 -5.771246696889231, -12.5 -6.5424933937784635, -12.5 -7.5 M-12.5 -4.999999999999999 C-12.5 -5.850276721343235, -12.5 -6.700553442686472, -12.5 -7.5 M-12.5 -7.5 C-12.5 -7.5, -12.5 -7.5, -12.5 -7.5 M-12.5 -7.5 C-12.5 -7.5, -12.5 -7.5, -12.5 -7.5 M-12.5 -7.5 C-12.494633737979997 -7.629744253520858, -12.489267475959993 -7.759488507041717, -12.482922465033349 -7.9128967273616615 M-12.5 -7.5 C-12.495951643669889 -7.597880231729055, -12.491903287339778 -7.695760463458109, -12.482922465033349 -7.9128967273616615 M-12.482922465033349 -7.9128967273616615 C-12.471937180471093 -8.001025857072362, -12.460951895908837 -8.089154986783063, -12.431806517013612 -8.322972951403669 M-12.482922465033349 -7.9128967273616615 C-12.465840324274836 -8.049937710698218, -12.448758183516324 -8.186978694034774, -12.431806517013612 -8.322972951403669 M-12.431806517013612 -8.322972951403669 C-12.40162650104119 -8.466908047622256, -12.371446485068766 -8.610843143840844, -12.347001329696653 -8.727427435703996 M-12.431806517013612 -8.322972951403669 C-12.413305768399988 -8.411207067457516, -12.394805019786366 -8.499441183511365, -12.347001329696653 -8.727427435703996 M-12.347001329696653 -8.727427435703996 C-12.323325831360982 -8.806952032784213, -12.299650333025312 -8.886476629864429, -12.229086208503173 -9.123497346023417 M-12.347001329696653 -8.727427435703996 C-12.309689863981681 -8.852754439823903, -12.272378398266712 -8.978081443943807, -12.229086208503173 -9.123497346023417 M-12.229086208503173 -9.123497346023417 C-12.188637327609456 -9.227158943604856, -12.148188446715741 -9.330820541186295, -12.078866633275286 -9.508477123264846 M-12.229086208503173 -9.123497346023417 C-12.197453186365392 -9.20456583391923, -12.165820164227611 -9.285634321815044, -12.078866633275286 -9.508477123264846 M-12.078866633275286 -9.508477123264846 C-12.01193659726102 -9.645384700190082, -11.945006561246755 -9.782292277115317, -11.897368756032446 -9.879736965185367 M-12.078866633275286 -9.508477123264846 C-12.021785547073097 -9.625238351340927, -11.96470446087091 -9.741999579417008, -11.897368756032446 -9.879736965185367 M-11.897368756032446 -9.879736965185367 C-11.827044884984865 -9.997755648515671, -11.756721013937284 -10.115774331845973, -11.685832391312642 -10.234740790612134 M-11.897368756032446 -9.879736965185367 C-11.829534023970185 -9.993578334307886, -11.761699291907922 -10.107419703430402, -11.685832391312642 -10.234740790612134 M-11.685832391312642 -10.234740790612134 C-11.604959241989738 -10.348010683840485, -11.524086092666833 -10.461280577068836, -11.445702546981968 -10.57106356344834 M-11.685832391312642 -10.234740790612134 C-11.636007749346557 -10.304524543599245, -11.586183107380473 -10.374308296586355, -11.445702546981968 -10.57106356344834 M-11.445702546981968 -10.57106356344834 C-11.375351126303004 -10.65412732888464, -11.304999705624038 -10.737191094320938, -11.178619553365658 -10.886407858128706 M-11.445702546981968 -10.57106356344834 C-11.353483955515976 -10.679945848645565, -11.261265364049986 -10.788828133842792, -11.178619553365658 -10.886407858128706 M-11.178619553365658 -10.886407858128706 C-11.116636600086803 -10.948390811407561, -11.05465364680795 -11.010373764686415, -10.886407858128706 -11.178619553365658 M-11.178619553365658 -10.886407858128706 C-11.11177359392218 -10.953253817572184, -11.044927634478702 -11.020099777015663, -10.886407858128706 -11.178619553365658 M-10.886407858128706 -11.178619553365658 C-10.804326966322577 -11.248138522543451, -10.72224607451645 -11.317657491721244, -10.57106356344834 -11.445702546981968 M-10.886407858128706 -11.178619553365658 C-10.809011139499985 -11.244171230234873, -10.731614420871265 -11.309722907104089, -10.57106356344834 -11.445702546981968 M-10.57106356344834 -11.445702546981968 C-10.495322926218577 -11.499780322548913, -10.419582288988813 -11.553858098115859, -10.234740790612134 -11.685832391312642 M-10.57106356344834 -11.445702546981968 C-10.498360321827752 -11.497611663767199, -10.425657080207166 -11.549520780552427, -10.234740790612134 -11.685832391312642 M-10.234740790612134 -11.685832391312642 C-10.113119003930127 -11.758303245942198, -9.991497217248117 -11.830774100571753, -9.879736965185367 -11.897368756032446 M-10.234740790612134 -11.685832391312642 C-10.093438107360848 -11.77003051482356, -9.95213542410956 -11.854228638334478, -9.879736965185367 -11.897368756032446 M-9.879736965185367 -11.897368756032446 C-9.748079793706173 -11.961732025228649, -9.61642262222698 -12.026095294424852, -9.508477123264848 -12.078866633275286 M-9.879736965185367 -11.897368756032446 C-9.749040425841473 -11.961262400794004, -9.61834388649758 -12.025156045555564, -9.508477123264848 -12.078866633275286 M-9.508477123264848 -12.078866633275286 C-9.3593037308154 -12.137074271633926, -9.210130338365952 -12.195281909992566, -9.123497346023418 -12.229086208503173 M-9.508477123264848 -12.078866633275286 C-9.41906333505556 -12.113756001700194, -9.329649546846273 -12.148645370125102, -9.123497346023418 -12.229086208503173 M-9.123497346023418 -12.229086208503173 C-9.038792989654878 -12.254303787992503, -8.954088633286338 -12.279521367481834, -8.727427435703996 -12.347001329696653 M-9.123497346023418 -12.229086208503173 C-9.0037465584293 -12.264737562631002, -8.883995770835185 -12.30038891675883, -8.727427435703996 -12.347001329696653 M-8.727427435703996 -12.347001329696653 C-8.64639220909514 -12.36399262992596, -8.565356982486286 -12.380983930155267, -8.32297295140367 -12.431806517013612 M-8.727427435703996 -12.347001329696653 C-8.641031896751318 -12.365116569231965, -8.55463635779864 -12.383231808767277, -8.32297295140367 -12.431806517013612 M-8.32297295140367 -12.431806517013612 C-8.208407333243542 -12.446087106424526, -8.093841715083414 -12.46036769583544, -7.912896727361662 -12.482922465033349 M-8.32297295140367 -12.431806517013612 C-8.219572541755287 -12.444695364634939, -8.116172132106902 -12.457584212256265, -7.912896727361662 -12.482922465033349 M-7.912896727361662 -12.482922465033349 C-7.771861582383886 -12.488755721778382, -7.63082643740611 -12.494588978523415, -7.5 -12.5 M-7.912896727361662 -12.482922465033349 C-7.748689354884032 -12.489714132197163, -7.584481982406402 -12.496505799360978, -7.5 -12.5" stroke="currentColor" stroke-width="2" fill="none" vector-effect="non-scaling-stroke"/></g><g stroke-opacity="0"><path d="M7.5 -12.5 C4.16169190792853 -12.5, 0.8233838158570599 -12.5, -7.5 -12.5 M7.5 -12.5 C3.5738850668071946 -12.5, -0.3522298663856107 -12.5, -7.5 -12.5 M-7.5 -12.5 C-7.5 -7.018427698505703, -7.5 -1.536855397011406, -7.5 12.5 M-7.5 -12.5 C-7.5 -5.80923201710966, -7.5 0.8815359657806798, -7.5 12.5 M-7.5 12.5 C-7.6210605471323305 12.494992898732947, -7.742121094264661 12.489985797465895, -7.912896727361662 12.482922465033349 M-7.5 12.5 C-7.6149292503924135 12.49524649104194, -7.729858500784826 12.490492982083879, -7.912896727361662 12.482922465033349 M-7.912896727361662 12.482922465033349 C-8.02487435786024 12.468964467948027, -8.136851988358819 12.455006470862703, -8.32297295140367 12.431806517013612 M-7.912896727361662 12.482922465033349 C-8.00560686732574 12.47136615813851, -8.098317007289817 12.459809851243671, -8.32297295140367 12.431806517013612 M-8.32297295140367 12.431806517013612 C-8.437074140321878 12.407882013577742, -8.551175329240083 12.383957510141872, -8.727427435703996 12.347001329696653 M-8.32297295140367 12.431806517013612 C-8.431479721775881 12.409055039792406, -8.539986492148094 12.3863035625712, -8.727427435703996 12.347001329696653 M-8.727427435703996 12.347001329696653 C-8.828191159986972 12.317002669229991, -8.928954884269945 12.28700400876333, -9.123497346023418 12.229086208503173 M-8.727427435703996 12.347001329696653 C-8.853680702427754 12.309414103656689, -8.979933969151512 12.271826877616723, -9.123497346023418 12.229086208503173 M-9.123497346023418 12.229086208503173 C-9.21992702575343 12.191459230711768, -9.316356705483441 12.153832252920362, -9.508477123264848 12.078866633275286 M-9.123497346023418 12.229086208503173 C-9.229064595395146 12.18789373997345, -9.334631844766873 12.146701271443726, -9.508477123264848 12.078866633275286 M-9.508477123264848 12.078866633275286 C-9.656143851818237 12.006676768534751, -9.803810580371628 11.934486903794214, -9.879736965185367 11.897368756032446 M-9.508477123264848 12.078866633275286 C-9.628291135289931 12.020293131939917, -9.748105147315012 11.961719630604547, -9.879736965185367 11.897368756032446 M-9.879736965185367 11.897368756032446 C-9.960077899682918 11.849495950151063, -10.040418834180471 11.80162314426968, -10.234740790612134 11.685832391312642 M-9.879736965185367 11.897368756032446 C-9.99054472744089 11.831341661304407, -10.101352489696412 11.765314566576368, -10.234740790612134 11.685832391312642 M-10.234740790612134 11.685832391312642 C-10.348421437016514 11.604665969858962, -10.462102083420893 11.52349954840528, -10.57106356344834 11.445702546981968 M-10.234740790612134 11.685832391312642 C-10.32747990156357 11.619617938784389, -10.420219012515007 11.553403486256135, -10.57106356344834 11.445702546981968 M-10.57106356344834 11.445702546981968 C-10.639512679134992 11.3877291032369, -10.707961794821644 11.329755659491834, -10.886407858128706 11.178619553365658 M-10.57106356344834 11.445702546981968 C-10.684527561162728 11.349603442959967, -10.797991558877117 11.253504338937967, -10.886407858128706 11.178619553365658 M-10.886407858128706 11.178619553365658 C-10.977149189969861 11.087878221524504, -11.067890521811016 10.997136889683349, -11.178619553365658 10.886407858128706 M-10.886407858128706 11.178619553365658 C-10.95125497589162 11.113772435602744, -11.016102093654537 11.048925317839828, -11.178619553365658 10.886407858128706 M-11.178619553365658 10.886407858128706 C-11.261114411763556 10.789006362870593, -11.343609270161453 10.69160486761248, -11.445702546981968 10.57106356344834 M-11.178619553365658 10.886407858128706 C-11.285319918950336 10.760426974539483, -11.392020284535013 10.634446090950261, -11.445702546981968 10.57106356344834 M-11.445702546981968 10.57106356344834 C-11.527615998785848 10.456336635939367, -11.60952945058973 10.341609708430395, -11.685832391312642 10.234740790612134 M-11.445702546981968 10.57106356344834 C-11.510994645199057 10.47961629008724, -11.576286743416146 10.388169016726142, -11.685832391312642 10.234740790612134 M-11.685832391312642 10.234740790612134 C-11.768274083009116 10.09638578027777, -11.850715774705591 9.958030769943404, -11.897368756032446 9.879736965185367 M-11.685832391312642 10.234740790612134 C-11.763149851498426 10.104985350337873, -11.840467311684208 9.975229910063613, -11.897368756032446 9.879736965185367 M-11.897368756032446 9.879736965185367 C-11.951601953124964 9.768801187394022, -12.00583515021748 9.657865409602678, -12.078866633275286 9.508477123264846 M-11.897368756032446 9.879736965185367 C-11.948144559882449 9.77587339831005, -11.998920363732452 9.672009831434735, -12.078866633275286 9.508477123264846 M-12.078866633275286 9.508477123264846 C-12.115092063615409 9.41563930181808, -12.151317493955531 9.322801480371316, -12.229086208503173 9.123497346023417 M-12.078866633275286 9.508477123264846 C-12.130342196634563 9.376556560412977, -12.181817759993839 9.24463599756111, -12.229086208503173 9.123497346023417 M-12.229086208503173 9.123497346023417 C-12.275808610037979 8.966559565707401, -12.322531011572785 8.809621785391384, -12.347001329696653 8.727427435703996 M-12.229086208503173 9.123497346023417 C-12.266996502867327 8.99615891192762, -12.304906797231482 8.868820477831827, -12.347001329696653 8.727427435703996 M-12.347001329696653 8.727427435703996 C-12.374587282311749 8.59586399493036, -12.402173234926845 8.464300554156726, -12.431806517013612 8.32297295140367 M-12.347001329696653 8.727427435703996 C-12.376429853108254 8.58707637185134, -12.405858376519854 8.446725307998683, -12.431806517013612 8.32297295140367 M-12.431806517013612 8.32297295140367 C-12.452053292134835 8.160543779836065, -12.472300067256057 7.998114608268459, -12.482922465033349 7.9128967273616615 M-12.431806517013612 8.32297295140367 C-12.447170722211446 8.199714056733423, -12.462534927409282 8.076455162063176, -12.482922465033349 7.9128967273616615 M-12.482922465033349 7.9128967273616615 C-12.488576246020042 7.776200906144864, -12.494230027006735 7.639505084928068, -12.5 7.5 M-12.482922465033349 7.9128967273616615 C-12.487421146643213 7.8041286342040825, -12.491919828253074 7.695360541046504, -12.5 7.5 M-12.5 7.5 C-12.5 4.991231677840991, -12.5 2.4824633556819817, -12.5 -5 M-12.5 7.5 C-12.5 4.908019873095599, -12.5 2.3160397461911977, -12.5 -5 M-12.5 -5 C-10.661090066550722 -2.8365765488832024, -8.822180133101444 -0.6731530977664049, -4 5.000000000000001 M-12.5 -5 C-10.39197383471895 -2.5199692173164108, -8.283947669437898 -0.03993843463282154, -4 5.000000000000001 M-4 5.000000000000001 C-4.0034195622196584 4.917322608194692, -4.006839124439318 4.834645216389383, -4.017077534966651 4.58710327263834 M-4 5.000000000000001 C-4.00377889409895 4.908634764352724, -4.0075577881979 4.817269528705447, -4.017077534966651 4.58710327263834 M-4.017077534966651 4.58710327263834 C-4.035365679619916 4.440387157713708, -4.053653824273182 4.293671042789076, -4.068193482986388 4.177027048596331 M-4.017077534966651 4.58710327263834 C-4.032736419775118 4.4614803192601595, -4.048395304583585 4.335857365881978, -4.068193482986388 4.177027048596331 M-4.068193482986388 4.177027048596331 C-4.097847229488294 4.035601846572131, -4.1275009759902 3.894176644547932, -4.152998670303347 3.7725725642960057 M-4.068193482986388 4.177027048596331 C-4.091424698263544 4.066232302521725, -4.114655913540699 3.9554375564471194, -4.152998670303347 3.7725725642960057 M-4.152998670303347 3.7725725642960057 C-4.178629815309578 3.6864790658434643, -4.20426096031581 3.6003855673909224, -4.2709137914968265 3.376502653976583 M-4.152998670303347 3.7725725642960057 C-4.177644018008263 3.6897903006093977, -4.202289365713178 3.6070080369227897, -4.2709137914968265 3.376502653976583 M-4.2709137914968265 3.376502653976583 C-4.316817320054186 3.2588619924862336, -4.362720848611545 3.1412213309958843, -4.421133366724712 2.991522876735154 M-4.2709137914968265 3.376502653976583 C-4.312251604314451 3.270562919118228, -4.353589417132075 3.1646231842598733, -4.421133366724712 2.991522876735154 M-4.421133366724712 2.991522876735154 C-4.479645829427682 2.871833721228286, -4.538158292130652 2.7521445657214176, -4.602631243967554 2.6202630348146325 M-4.421133366724712 2.991522876735154 C-4.465778601296709 2.90019958975518, -4.510423835868706 2.8088763027752055, -4.602631243967554 2.6202630348146325 M-4.602631243967554 2.6202630348146325 C-4.672590029769489 2.5028570435809483, -4.742548815571423 2.385451052347264, -4.814167608687356 2.265259209387867 M-4.602631243967554 2.6202630348146325 C-4.657092310377385 2.528865572548888, -4.711553376787215 2.437468110283143, -4.814167608687356 2.265259209387867 M-4.814167608687356 2.265259209387867 C-4.907376555215481 2.1347119571841313, -5.000585501743605 2.0041647049803957, -5.054297453018032 1.9289364365516608 M-4.814167608687356 2.265259209387867 C-4.869718126123657 2.1874558688296015, -4.925268643559958 2.1096525282713365, -5.054297453018032 1.9289364365516608 M-5.054297453018032 1.9289364365516608 C-5.142742369402161 1.8245097211042358, -5.231187285786288 1.7200830056568106, -5.3213804466343415 1.6135921418712957 M-5.054297453018032 1.9289364365516608 C-5.153768611484424 1.811491061678089, -5.253239769950817 1.694045686804517, -5.3213804466343415 1.6135921418712957 M-5.3213804466343415 1.6135921418712957 C-5.3896167531633665 1.5453558353422703, -5.4578530596923915 1.4771195288132448, -5.613592141871294 1.321380446634342 M-5.3213804466343415 1.6135921418712957 C-5.431358259292451 1.5036143292131863, -5.5413360719505595 1.3936365165550766, -5.613592141871294 1.321380446634342 M-5.613592141871294 1.321380446634342 C-5.734766241107843 1.2187512197264605, -5.855940340344391 1.116121992818579, -5.92893643655166 1.054297453018033 M-5.613592141871294 1.321380446634342 C-5.708209435081551 1.2412436870836987, -5.802826728291809 1.1611069275330557, -5.92893643655166 1.054297453018033 M-5.92893643655166 1.054297453018033 C-6.062530448315353 0.9589131619758403, -6.196124460079045 0.8635288709336477, -6.265259209387866 0.8141676086873577 M-5.92893643655166 1.054297453018033 C-5.99724461450366 1.0055263513771868, -6.06555279245566 0.9567552497363407, -6.265259209387866 0.8141676086873577 M-6.265259209387866 0.8141676086873577 C-6.359947678394773 0.7577455279097045, -6.454636147401681 0.7013234471320513, -6.620263034814633 0.6026312439675543 M-6.265259209387866 0.8141676086873577 C-6.377336907836876 0.7473837962381121, -6.489414606285886 0.6805999837888665, -6.620263034814633 0.6026312439675543 M-6.620263034814633 0.6026312439675543 C-6.746659340954097 0.5408398551198471, -6.873055647093562 0.47904846627214, -6.99152287673515 0.4211333667247139 M-6.620263034814633 0.6026312439675543 C-6.700115637988727 0.5635936850076609, -6.77996824116282 0.5245561260477677, -6.99152287673515 0.4211333667247139 M-6.99152287673515 0.4211333667247139 C-7.099552698186195 0.37897999958786455, -7.207582519637241 0.3368266324510152, -7.376502653976582 0.2709137914968265 M-6.99152287673515 0.4211333667247139 C-7.124023942134563 0.36943129056849067, -7.256525007533976 0.3177292144122675, -7.376502653976582 0.2709137914968265 M-7.376502653976582 0.2709137914968265 C-7.473629404501794 0.24199790503104393, -7.570756155027006 0.21308201856526138, -7.772572564296004 0.15299867030334813 M-7.376502653976582 0.2709137914968265 C-7.518303471795358 0.22869785894857858, -7.660104289614134 0.18648192640033068, -7.772572564296004 0.15299867030334813 M-7.772572564296004 0.15299867030334813 C-7.925002115929801 0.12103755432930538, -8.077431667563598 0.08907643835526263, -8.177027048596328 0.06819348298638861 M-7.772572564296004 0.15299867030334813 C-7.93050245008566 0.11988425553673437, -8.088432335875316 0.08676984077012063, -8.177027048596328 0.06819348298638861 M-8.177027048596328 0.06819348298638861 C-8.296629799749123 0.05328501560273072, -8.416232550901917 0.038376548219072826, -8.587103272638336 0.017077534966650987 M-8.177027048596328 0.06819348298638861 C-8.272050531890658 0.05634881814615189, -8.367074015184988 0.04450415330591517, -8.587103272638336 0.017077534966650987 M-8.587103272638336 0.017077534966650987 C-8.712496178537199 0.011891246015559066, -8.83788908443606 0.006704957064467146, -8.999999999999998 0 M-8.587103272638336 0.017077534966650987 C-8.72224074409293 0.011488207802889793, -8.857378215547525 0.005898880639128601, -8.999999999999998 0 M-8.999999999999998 0 C-8.999999999999998 0, -9 0, -9 0 M-8.999999999999998 0 C-8.999999999999998 0, -9 0, -9 0 M-9 0 C-8.880799651852625 -0.00493016286791912, -8.761599303705248 -0.00986032573583824, -8.58710327263834 -0.017077534966650987 M-9 0 C-8.910793948004152 -0.0036895896025390213, -8.821587896008305 -0.007379179205078043, -8.58710327263834 -0.017077534966650987 M-8.58710327263834 -0.017077534966650987 C-8.483225137375182 -0.030025931023757578, -8.379347002112025 -0.04297432708086417, -8.177027048596331 -0.06819348298638772 M-8.58710327263834 -0.017077534966650987 C-8.46745513468422 -0.031991659809193634, -8.347806996730103 -0.04690578465173629, -8.177027048596331 -0.06819348298638772 M-8.177027048596331 -0.06819348298638772 C-8.093375060745856 -0.08573346034964488, -8.009723072895381 -0.10327343771290204, -7.772572564296004 -0.15299867030334813 M-8.177027048596331 -0.06819348298638772 C-8.034012879027816 -0.09818040094631203, -7.890998709459303 -0.12816731890623634, -7.772572564296004 -0.15299867030334813 M-7.772572564296004 -0.15299867030334813 C-7.618968618218828 -0.19872854638224438, -7.465364672141653 -0.24445842246114063, -7.376502653976583 -0.2709137914968265 M-7.772572564296004 -0.15299867030334813 C-7.6447922087230165 -0.19104053039159155, -7.51701185315003 -0.22908239047983497, -7.376502653976583 -0.2709137914968265 M-7.376502653976583 -0.2709137914968265 C-7.25198408095401 -0.31950108946209865, -7.127465507931436 -0.3680883874273709, -6.991522876735153 -0.421133366724713 M-7.376502653976583 -0.2709137914968265 C-7.24424770541356 -0.32251983256548233, -7.111992756850538 -0.37412587363413813, -6.991522876735153 -0.421133366724713 M-6.991522876735153 -0.421133366724713 C-6.902343336667734 -0.4647305872913117, -6.813163796600314 -0.5083278078579104, -6.6202630348146325 -0.6026312439675543 M-6.991522876735153 -0.421133366724713 C-6.906153582779933 -0.4628678714706087, -6.820784288824714 -0.5046023762165044, -6.6202630348146325 -0.6026312439675543 M-6.6202630348146325 -0.6026312439675543 C-6.529639435773729 -0.6566311879847558, -6.439015836732826 -0.7106311320019573, -6.2652592093878665 -0.8141676086873568 M-6.6202630348146325 -0.6026312439675543 C-6.501740820682887 -0.6732551542474832, -6.383218606551142 -0.7438790645274119, -6.2652592093878665 -0.8141676086873568 M-6.2652592093878665 -0.8141676086873568 C-6.131758303261949 -0.9094854235818988, -5.998257397136032 -1.0048032384764407, -5.928936436551661 -1.054297453018032 M-6.2652592093878665 -0.8141676086873568 C-6.187825306009971 -0.8694543530467882, -6.110391402632077 -0.9247410974062196, -5.928936436551661 -1.054297453018032 M-5.928936436551661 -1.054297453018032 C-5.829528851062389 -1.138491383171597, -5.730121265573117 -1.2226853133251623, -5.613592141871296 -1.3213804466343415 M-5.928936436551661 -1.054297453018032 C-5.840057136664051 -1.1295743801258007, -5.751177836776441 -1.2048513072335696, -5.613592141871296 -1.3213804466343415 M-5.613592141871296 -1.3213804466343415 C-5.5488501970881146 -1.3861223914175227, -5.484108252304933 -1.4508643362007037, -5.3213804466343415 -1.6135921418712948 M-5.613592141871296 -1.3213804466343415 C-5.508592242477923 -1.4263803460277134, -5.403592343084552 -1.5313802454210852, -5.3213804466343415 -1.6135921418712948 M-5.3213804466343415 -1.6135921418712948 C-5.240469488382474 -1.7091235297607916, -5.159558530130607 -1.8046549176502884, -5.054297453018033 -1.9289364365516604 M-5.3213804466343415 -1.6135921418712948 C-5.248944538025721 -1.6991170575554893, -5.176508629417099 -1.7846419732396837, -5.054297453018033 -1.9289364365516604 M-5.054297453018033 -1.9289364365516604 C-4.984850581307474 -2.0262028322535284, -4.915403709596915 -2.123469227955397, -4.814167608687358 -2.265259209387866 M-5.054297453018033 -1.9289364365516604 C-4.976838947135873 -2.0374238240759017, -4.8993804412537125 -2.145911211600143, -4.814167608687358 -2.265259209387866 M-4.814167608687358 -2.265259209387866 C-4.7376318776990765 -2.393702738795509, -4.661096146710794 -2.522146268203152, -4.602631243967555 -2.6202630348146316 M-4.814167608687358 -2.265259209387866 C-4.7586838177517095 -2.3583730248655224, -4.703200026816062 -2.451486840343179, -4.602631243967555 -2.6202630348146316 M-4.602631243967555 -2.6202630348146316 C-4.5525243720262205 -2.7227582796002316, -4.502417500084885 -2.825253524385831, -4.421133366724714 -2.991522876735151 M-4.602631243967555 -2.6202630348146316 C-4.554064688951808 -2.7196075109687277, -4.505498133936061 -2.8189519871228232, -4.421133366724714 -2.991522876735151 M-4.421133366724714 -2.991522876735151 C-4.383185081035601 -3.088775998035264, -4.345236795346486 -3.186029119335377, -4.2709137914968265 -3.3765026539765817 M-4.421133366724714 -2.991522876735151 C-4.368296394120398 -3.1269324324635788, -4.315459421516081 -3.262341988192006, -4.2709137914968265 -3.3765026539765817 M-4.2709137914968265 -3.3765026539765817 C-4.2273449581668885 -3.5228477854156255, -4.1837761248369505 -3.669192916854669, -4.152998670303347 -3.772572564296005 M-4.2709137914968265 -3.3765026539765817 C-4.245859026903699 -3.460660124749066, -4.220804262310572 -3.54481759552155, -4.152998670303347 -3.772572564296005 M-4.152998670303347 -3.772572564296005 C-4.125397174253542 -3.9042101351089555, -4.0977956782037355 -4.035847705921906, -4.068193482986389 -4.1770270485963295 M-4.152998670303347 -3.772572564296005 C-4.12652209168198 -3.898845157885344, -4.100045513060612 -4.025117751474683, -4.068193482986389 -4.1770270485963295 M-4.068193482986389 -4.1770270485963295 C-4.0550336621217005 -4.282601333302482, -4.041873841257011 -4.388175618008634, -4.017077534966651 -4.587103272638337 M-4.068193482986389 -4.1770270485963295 C-4.049221834988634 -4.329226549459918, -4.03025018699088 -4.481426050323506, -4.017077534966651 -4.587103272638337 M-4.017077534966651 -4.587103272638337 C-4.010560339613161 -4.744674528577069, -4.00404314425967 -4.9022457845158005, -4 -4.999999999999999 M-4.017077534966651 -4.587103272638337 C-4.0122558181081365 -4.703681638019111, -4.007434101249622 -4.820260003399885, -4 -4.999999999999999 M-4 -4.999999999999999 C-7.088771626794861 -0.4576887841252031, -10.177543253589722 4.084622431749593, -12.5 7.5 M-4 -4.999999999999999 C-7.234322028465792 -0.24364407578559977, -10.468644056931584 4.5127118484288, -12.5 7.5 M-12.5 7.5 C-12.5 1.5129125972718107, -12.5 -4.474174805456379, -12.5 -7.5 M-12.5 7.5 C-12.5 4.462784226803594, -12.5 1.4255684536071884, -12.5 -7.5 M-12.5 -7.5 C-12.49572519910099 -7.603355156629501, -12.49145039820198 -7.706710313259002, -12.482922465033349 -7.9128967273616615 M-12.5 -7.5 C-12.493208023408624 -7.66421485374631, -12.486416046817249 -7.828429707492621, -12.482922465033349 -7.9128967273616615 M-12.482922465033349 -7.9128967273616615 C-12.468579492360352 -8.027962813449111, -12.454236519687353 -8.143028899536562, -12.431806517013612 -8.322972951403669 M-12.482922465033349 -7.9128967273616615 C-12.470124123281636 -8.015571056271984, -12.457325781529924 -8.118245385182306, -12.431806517013612 -8.322972951403669 M-12.431806517013612 -8.322972951403669 C-12.413420846924087 -8.41065823280966, -12.39503517683456 -8.49834351421565, -12.347001329696653 -8.727427435703996 M-12.431806517013612 -8.322972951403669 C-12.41355107133813 -8.410037164100395, -12.39529562566265 -8.497101376797122, -12.347001329696653 -8.727427435703996 M-12.347001329696653 -8.727427435703996 C-12.308128156534593 -8.858000122669777, -12.269254983372534 -8.988572809635556, -12.229086208503173 -9.123497346023417 M-12.347001329696653 -8.727427435703996 C-12.307855720481635 -8.858915219240691, -12.268710111266616 -8.990403002777384, -12.229086208503173 -9.123497346023417 M-12.229086208503173 -9.123497346023417 C-12.191002822469978 -9.221096699832113, -12.152919436436784 -9.31869605364081, -12.078866633275286 -9.508477123264846 M-12.229086208503173 -9.123497346023417 C-12.19465399190788 -9.211739554501744, -12.160221775312584 -9.299981762980073, -12.078866633275286 -9.508477123264846 M-12.078866633275286 -9.508477123264846 C-12.008622232083724 -9.652164342522447, -11.938377830892163 -9.795851561780045, -11.897368756032446 -9.879736965185367 M-12.078866633275286 -9.508477123264846 C-12.022932916356295 -9.622891369959245, -11.966999199437302 -9.737305616653645, -11.897368756032446 -9.879736965185367 M-11.897368756032446 -9.879736965185367 C-11.84337188435093 -9.970355408181716, -11.789375012669415 -10.060973851178064, -11.685832391312642 -10.234740790612134 M-11.897368756032446 -9.879736965185367 C-11.843777959064692 -9.969673926881866, -11.79018716209694 -10.059610888578366, -11.685832391312642 -10.234740790612134 M-11.685832391312642 -10.234740790612134 C-11.601591306407641 -10.352727771118252, -11.517350221502639 -10.470714751624369, -11.445702546981968 -10.57106356344834 M-11.685832391312642 -10.234740790612134 C-11.61722140911815 -10.330836450204078, -11.548610426923657 -10.426932109796024, -11.445702546981968 -10.57106356344834 M-11.445702546981968 -10.57106356344834 C-11.386320234164335 -10.641176127705675, -11.326937921346703 -10.711288691963011, -11.178619553365658 -10.886407858128706 M-11.445702546981968 -10.57106356344834 C-11.385757746662144 -10.641840255444562, -11.32581294634232 -10.712616947440784, -11.178619553365658 -10.886407858128706 M-11.178619553365658 -10.886407858128706 C-11.071010238721858 -10.994017172772507, -10.963400924078059 -11.101626487416306, -10.886407858128706 -11.178619553365658 M-11.178619553365658 -10.886407858128706 C-11.090634746093812 -10.974392665400552, -11.002649938821966 -11.062377472672399, -10.886407858128706 -11.178619553365658 M-10.886407858128706 -11.178619553365658 C-10.79171432688623 -11.25882088323584, -10.697020795643756 -11.339022213106022, -10.57106356344834 -11.445702546981968 M-10.886407858128706 -11.178619553365658 C-10.789712755165576 -11.260516128008325, -10.693017652202448 -11.342412702650993, -10.57106356344834 -11.445702546981968 M-10.57106356344834 -11.445702546981968 C-10.49429755744508 -11.500512421781698, -10.417531551441819 -11.555322296581428, -10.234740790612134 -11.685832391312642 M-10.57106356344834 -11.445702546981968 C-10.454306799972452 -11.529065273810081, -10.337550036496566 -11.612428000638193, -10.234740790612134 -11.685832391312642 M-10.234740790612134 -11.685832391312642 C-10.103768457152372 -11.76387496244731, -9.972796123692609 -11.84191753358198, -9.879736965185367 -11.897368756032446 M-10.234740790612134 -11.685832391312642 C-10.152889156173575 -11.734605378969022, -10.071037521735018 -11.7833783666254, -9.879736965185367 -11.897368756032446 M-9.879736965185367 -11.897368756032446 C-9.803518705055431 -11.93462959294162, -9.727300444925493 -11.971890429850793, -9.508477123264848 -12.078866633275286 M-9.879736965185367 -11.897368756032446 C-9.759705257052048 -11.956048682510175, -9.639673548918726 -12.014728608987907, -9.508477123264848 -12.078866633275286 M-9.508477123264848 -12.078866633275286 C-9.388026375755116 -12.125866660799968, -9.267575628245384 -12.172866688324651, -9.123497346023418 -12.229086208503173 M-9.508477123264848 -12.078866633275286 C-9.385017115699311 -12.127040877717471, -9.261557108133774 -12.175215122159656, -9.123497346023418 -12.229086208503173 M-9.123497346023418 -12.229086208503173 C-9.03353794680574 -12.2558682820333, -8.943578547588062 -12.282650355563424, -8.727427435703996 -12.347001329696653 M-9.123497346023418 -12.229086208503173 C-9.000231417998558 -12.265784065278902, -8.8769654899737 -12.302481922054632, -8.727427435703996 -12.347001329696653 M-8.727427435703996 -12.347001329696653 C-8.642122260729293 -12.364887943947823, -8.55681708575459 -12.382774558198992, -8.32297295140367 -12.431806517013612 M-8.727427435703996 -12.347001329696653 C-8.608523685946107 -12.371932824246281, -8.489619936188218 -12.396864318795911, -8.32297295140367 -12.431806517013612 M-8.32297295140367 -12.431806517013612 C-8.228830205941463 -12.443541397997565, -8.134687460479256 -12.455276278981517, -7.912896727361662 -12.482922465033349 M-8.32297295140367 -12.431806517013612 C-8.229760403899464 -12.44342544894302, -8.136547856395259 -12.455044380872426, -7.912896727361662 -12.482922465033349 M-7.912896727361662 -12.482922465033349 C-7.785822105085886 -12.4881783102883, -7.65874748281011 -12.49343415554325, -7.5 -12.5 M-7.912896727361662 -12.482922465033349 C-7.755828683643555 -12.48941884737544, -7.598760639925449 -12.49591522971753, -7.5 -12.5 M-7.5 -12.5 C-7.5 -5.098967136955376, -7.5 2.302065726089248, -7.5 12.5 M-7.5 -12.5 C-7.5 -4.478162790759264, -7.5 3.543674418481473, -7.5 12.5 M-7.5 12.5 C-4.229739545482495 12.5, -0.9594790909649902 12.5, 7.5 12.5 M-7.5 12.5 C-3.236629717557225 12.5, 1.02674056488555 12.5, 7.5 12.5 M7.5 12.5 C7.5 6.760398007278279, 7.5 1.0207960145565576, 7.5 -12.5 M7.5 12.5 C7.5 5.106311233116337, 7.5 -2.2873775337673266, 7.5 -12.5" stroke="currentColor" stroke-width="2" fill="none" vector-effect="non-scaling-stroke"/></g></g></g></g></g></g><linearGradient id="s2m-shape-comment-gradient" gradientUnits="objectBoundingBox" x1="0%" y1="0%" x2="100%" y2="0%"><stop offset="0%" stop-color="hsl(40.5882352941, 60%, 83.3333333333%)" stop-opacity="1"/><stop offset="100%" stop-color="hsl(-79.4117647059, 60%, 83.3333333333%)" stop-opacity="1"/></linearGradient></svg>