<svg id="s2m-shape-commentRight" width="100%" xmlns="http://www.w3.org/2000/svg" class="flowchart" style="max-width: 76px;" viewBox="-21.30 -16.05 102.60 62.10" role="graphics-document document" aria-roledescription="flowchart-v2"><g><marker id="s2m-shape-commentRight_flowchart-v2-pointEnd" class="marker flowchart-v2" viewBox="0 0 10 10" refX="5" refY="5" markerUnits="userSpaceOnUse" markerWidth="8" markerHeight="8" orient="auto"><path d="M 0 0 L 10 5 L 0 10 z" class="arrowMarkerPath" style="stroke-width: 1; stroke-dasharray: 1,0;"/></marker><marker id="s2m-shape-commentRight_flowchart-v2-pointStart" class="marker flowchart-v2" viewBox="0 0 10 10" refX="4.5" refY="5" markerUnits="userSpaceOnUse" markerWidth="8" markerHeight="8" orient="auto"><path d="M 0 5 L 10 10 L 10 0 z" class="arrowMarkerPath" style="stroke-width: 1; stroke-dasharray: 1,0;"/></marker><marker id="s2m-shape-commentRight_flowchart-v2-pointEnd-margin" class="marker flowchart-v2" viewBox="0 0 11.5 14" refX="11.5" refY="7" markerUnits="userSpaceOnUse" markerWidth="10.5" markerHeight="14" orient="auto"><path d="M 0 0 L 11.5 7 L 0 14 z" class="arrowMarkerPath" style="stroke-width: 0; stroke-dasharray: 1,0;"/></marker><marker id="s2m-shape-commentRight_flowchart-v2-pointStart-margin" class="marker flowchart-v2" viewBox="0 0 11.5 14" refX="1" refY="7" markerUnits="userSpaceOnUse" markerWidth="11.5" markerHeight="14" orient="auto"><polygon points="0,7 11.5,14 11.5,0" class="arrowMarkerPath" style="stroke-width: 0; stroke-dasharray: 1,0;"/></marker><marker id="s2m-shape-commentRight_flowchart-v2-circleEnd" class="marker flowchart-v2" viewBox="0 0 10 10" refX="11" refY="5" markerUnits="userSpaceOnUse" markerWidth="11" markerHeight="11" orient="auto"><circle cx="5" cy="5" r="5" class="arrowMarkerPath" style="stroke-width: 1; stroke-dasharray: 1,0;"/></marker><marker id="s2m-shape-commentRight_flowchart-v2-circleStart" class="marker flowchart-v2" viewBox="0 0 10 10" refX="-1" refY="5" markerUnits="userSpaceOnUse" markerWidth="11" markerHeight="11" orient="auto"><circle cx="5" cy="5" r="5" class="arrowMarkerPath" style="stroke-width: 1; stroke-dasharray: 1,0;"/></marker><marker id="s2m-shape-commentRight_flowchart-v2-circleEnd-margin" class="marker flowchart-v2" viewBox="0 0 10 10" refY="5" refX="12.25" markerUnits="userSpaceOnUse" markerWidth="14" markerHeight="14" orient="auto"><circle cx="5" cy="5" r="5" class="arrowMarkerPath" style="stroke-width: 0; stroke-dasharray: 1,0;"/></marker><marker id="s2m-shape-commentRight_flowchart-v2-circleStart-margin" class="marker flowchart-v2" viewBox="0 0 10 10" refX="-2" refY="5" markerUnits="userSpaceOnUse" markerWidth="14" markerHeight="14" orient="auto"><circle cx="5" cy="5" r="5" class="arrowMarkerPath" style="stroke-width: 0; stroke-dasharray: 1,0;"/></marker><marker id="s2m-shape-commentRight_flowchart-v2-crossEnd" class="marker cross flowchart-v2" viewBox="0 0 11 11" refX="12" refY="5.2" markerUnits="userSpaceOnUse" markerWidth="11" markerHeight="11" orient="auto"><path d="M 1,1 l 9,9 M 10,1 l -9,9" class="arrowMarkerPath" style="stroke-width: 2; stroke-dasharray: 1,0;"/></marker><marker id="s2m-shape-commentRight_flowchart-v2-crossStart" class="marker cross flowchart-v2" viewBox="0 0 11 11" refX="-1" refY="5.2" markerUnits="userSpaceOnUse" markerWidth="11" markerHeight="11" orient="auto"><path d="M 1,1 l 9,9 M 10,1 l -9,9" class="arrowMarkerPath" style="stroke-width: 2; stroke-dasharray: 1,0;"/></marker><marker id="s2m-shape-commentRight_flowchart-v2-crossEnd-margin" class="marker cross flowchart-v2" viewBox="0 0 15 15" refX="17.7" refY="7.5" markerUnits="userSpaceOnUse" markerWidth="12" markerHeight="12" orient="auto"><path d="M 1,1 L 14,14 M 1,14 L 14,1" class="arrowMarkerPath" style="stroke-width: 2.5;"/></marker><marker id="s2m-shape-commentRight_flowchart-v2-crossStart-margin" class="marker cross flowchart-v2" viewBox="0 0 15 15" refX="-3.5" refY="7.5" markerUnits="userSpaceOnUse" markerWidth="12" markerHeight="12" orient="auto"><path d="M 1,1 L 14,14 M 1,14 L 14,1" class="arrowMarkerPath" style="stroke-width: 2.5; stroke-dasharray: 1,0;"/></marker><g class="root"><g class="clusters"/><g class="edgePaths"/><g class="edgeLabels"/><g class="nodes"><g class="node default" data-look="classic" transform="translate(38, 23)"><g class="text" transform="translate(-5, 0)"><g><path d="M7.5 -12.5 C7.6367137500270585 -12.49434547747223, 7.773427500054117 -12.48869095494446, 7.912896727361662 -12.482922465033349 M7.5 -12.5 C7.600874299607176 -12.495827808106435, 7.70174859921435 -12.491655616212869, 7.912896727361662 -12.482922465033349 M7.912896727361662 -12.482922465033349 C8.051607528195625 -12.46563218174085, 8.190318329029587 -12.44834189844835, 8.32297295140367 -12.431806517013612 M7.912896727361662 -12.482922465033349 C8.01123414143575 -12.470664719152204, 8.109571555509838 -12.458406973271059, 8.32297295140367 -12.431806517013612 M8.32297295140367 -12.431806517013612 C8.418542728477759 -12.411767642032096, 8.514112505551847 -12.391728767050578, 8.727427435703996 -12.347001329696653 M8.32297295140367 -12.431806517013612 C8.448334762141554 -12.40552090947384, 8.573696572879436 -12.379235301934067, 8.727427435703996 -12.347001329696653 M8.727427435703996 -12.347001329696653 C8.85388019202098 -12.309354713031576, 8.980332948337963 -12.271708096366499, 9.123497346023418 -12.229086208503173 M8.727427435703996 -12.347001329696653 C8.81810868255562 -12.320004352814815, 8.908789929407245 -12.293007375932977, 9.123497346023418 -12.229086208503173 M9.123497346023418 -12.229086208503173 C9.260386377752695 -12.175671942571919, 9.397275409481972 -12.122257676640665, 9.508477123264848 -12.078866633275286 M9.123497346023418 -12.229086208503173 C9.264564285722816 -12.174041717823206, 9.405631225422214 -12.11899722714324, 9.508477123264848 -12.078866633275286 M9.508477123264848 -12.078866633275286 C9.585024873605082 -12.041444718417493, 9.661572623945316 -12.0040228035597, 9.879736965185367 -11.897368756032446 M9.508477123264848 -12.078866633275286 C9.585064446185232 -12.041425372561887, 9.661651769105614 -12.003984111848489, 9.879736965185367 -11.897368756032446 M9.879736965185367 -11.897368756032446 C9.966996876874761 -11.84537313462652, 10.054256788564153 -11.793377513220596, 10.234740790612134 -11.685832391312642 M9.879736965185367 -11.897368756032446 C10.005123613030861 -11.822654531086412, 10.130510260876353 -11.747940306140379, 10.234740790612134 -11.685832391312642 M10.234740790612134 -11.685832391312642 C10.350814774218538 -11.602957159941315, 10.466888757824941 -11.520081928569988, 10.57106356344834 -11.445702546981968 M10.234740790612134 -11.685832391312642 C10.351218210268316 -11.602669112138265, 10.4676956299245 -11.51950583296389, 10.57106356344834 -11.445702546981968 M10.57106356344834 -11.445702546981968 C10.663113146625738 -11.367740526895089, 10.75516272980314 -11.28977850680821, 10.886407858128706 -11.178619553365658 M10.57106356344834 -11.445702546981968 C10.658750344808109 -11.371435631546305, 10.746437126167876 -11.29716871611064, 10.886407858128706 -11.178619553365658 M10.886407858128706 -11.178619553365658 C10.97343839722296 -11.091589014271404, 11.060468936317216 -11.004558475177149, 11.178619553365658 -10.886407858128706 M10.886407858128706 -11.178619553365658 C10.956009209045147 -11.109018202449217, 11.025610559961589 -11.039416851532776, 11.178619553365658 -10.886407858128706 M11.178619553365658 -10.886407858128706 C11.258996341998525 -10.79150716311659, 11.339373130631392 -10.696606468104473, 11.445702546981968 -10.57106356344834 M11.178619553365658 -10.886407858128706 C11.277306100745436 -10.769888871814572, 11.375992648125214 -10.653369885500437, 11.445702546981968 -10.57106356344834 M11.445702546981968 -10.57106356344834 C11.507061048314188 -10.485125635313471, 11.56841954964641 -10.399187707178603, 11.685832391312642 -10.234740790612134 M11.445702546981968 -10.57106356344834 C11.529440466875403 -10.453781309388683, 11.613178386768837 -10.336499055329027, 11.685832391312642 -10.234740790612134 M11.685832391312642 -10.234740790612134 C11.745093427486221 -10.135287939712287, 11.804354463659799 -10.03583508881244, 11.897368756032446 -9.879736965185367 M11.685832391312642 -10.234740790612134 C11.738920501797896 -10.145647445683437, 11.792008612283151 -10.05655410075474, 11.897368756032446 -9.879736965185367 M11.897368756032446 -9.879736965185367 C11.962509792806182 -9.746488844697446, 12.027650829579919 -9.613240724209522, 12.078866633275286 -9.508477123264846 M11.897368756032446 -9.879736965185367 C11.934206760432971 -9.804383622776257, 11.971044764833495 -9.729030280367148, 12.078866633275286 -9.508477123264846 M12.078866633275286 -9.508477123264846 C12.13233892945964 -9.371439372742575, 12.185811225643995 -9.234401622220304, 12.229086208503173 -9.123497346023417 M12.078866633275286 -9.508477123264846 C12.135625100032593 -9.363017639335109, 12.192383566789898 -9.21755815540537, 12.229086208503173 -9.123497346023417 M12.229086208503173 -9.123497346023417 C12.274379579229466 -8.971359595580099, 12.31967294995576 -8.81922184513678, 12.347001329696653 -8.727427435703996 M12.229086208503173 -9.123497346023417 C12.270283927587004 -8.985116646943068, 12.311481646670837 -8.846735947862719, 12.347001329696653 -8.727427435703996 M12.347001329696653 -8.727427435703996 C12.375149858924035 -8.59318094403689, 12.403298388151418 -8.458934452369784, 12.431806517013612 -8.32297295140367 M12.347001329696653 -8.727427435703996 C12.368678434496 -8.624044582365375, 12.390355539295344 -8.520661729026752, 12.431806517013612 -8.32297295140367 M12.431806517013612 -8.32297295140367 C12.448520236064423 -8.188887620629625, 12.465233955115233 -8.05480228985558, 12.482922465033349 -7.9128967273616615 M12.431806517013612 -8.32297295140367 C12.444171500985062 -8.223775222831868, 12.456536484956512 -8.124577494260064, 12.482922465033349 -7.9128967273616615 M12.482922465033349 -7.9128967273616615 C12.488292128778303 -7.783070227714411, 12.493661792523255 -7.653243728067161, 12.5 -7.5 M12.482922465033349 -7.9128967273616615 C12.488658762490473 -7.774205841830188, 12.494395059947598 -7.635514956298714, 12.5 -7.5 M12.5 -7.5 C12.5 -6.6478609464297325, 12.5 -5.795721892859464, 12.5 -5 M12.5 -7.5 C12.5 -6.922040987334279, 12.5 -6.344081974668558, 12.5 -5 M12.5 -5 C12.5 -5, 12.5 -5, 12.5 -5.000000000000001 M12.5 -5 C12.5 -5, 12.5 -5, 12.5 -5.000000000000001 M12.5 -5.000000000000001 C12.506361843326625 -4.8461848097702305, 12.51272368665325 -4.692369619540459, 12.517077534966651 -4.58710327263834 M12.5 -5.000000000000001 C12.504863387552803 -4.882414130120926, 12.509726775105607 -4.764828260241853, 12.517077534966651 -4.58710327263834 M12.517077534966651 -4.58710327263834 C12.530279410821358 -4.481191602983319, 12.543481286676064 -4.375279933328297, 12.568193482986388 -4.177027048596331 M12.517077534966651 -4.58710327263834 C12.530929392470481 -4.475977143882096, 12.544781249974312 -4.3648510151258515, 12.568193482986388 -4.177027048596331 M12.568193482986388 -4.177027048596331 C12.591050402825388 -4.068017399320693, 12.613907322664387 -3.9590077500450556, 12.652998670303347 -3.7725725642960057 M12.568193482986388 -4.177027048596331 C12.590614489844222 -4.070096363657367, 12.613035496702057 -3.9631656787184015, 12.652998670303347 -3.7725725642960057 M12.652998670303347 -3.7725725642960057 C12.677272138424808 -3.691039422111184, 12.701545606546269 -3.609506279926363, 12.770913791496827 -3.376502653976583 M12.652998670303347 -3.7725725642960057 C12.692359720095885 -3.6403611286156856, 12.731720769888424 -3.508149692935365, 12.770913791496827 -3.376502653976583 M12.770913791496827 -3.376502653976583 C12.811638282739281 -3.2721347276060926, 12.852362773981733 -3.167766801235602, 12.921133366724712 -2.991522876735154 M12.770913791496827 -3.376502653976583 C12.807987285594638 -3.281491431386685, 12.845060779692448 -3.1864802087967865, 12.921133366724712 -2.991522876735154 M12.921133366724712 -2.991522876735154 C12.97440155286303 -2.8825610604013754, 13.02766973900135 -2.773599244067597, 13.102631243967554 -2.6202630348146325 M12.921133366724712 -2.991522876735154 C12.959688727185442 -2.912656626356437, 12.998244087646174 -2.8337903759777197, 13.102631243967554 -2.6202630348146325 M13.102631243967554 -2.6202630348146325 C13.16339781131993 -2.518283576593721, 13.224164378672306 -2.4163041183728096, 13.314167608687356 -2.265259209387867 M13.102631243967554 -2.6202630348146325 C13.153436256405517 -2.5350012227842464, 13.204241268843479 -2.4497394107538604, 13.314167608687356 -2.265259209387867 M13.314167608687356 -2.265259209387867 C13.37769391865453 -2.1762850763484503, 13.441220228621702 -2.087310943309033, 13.554297453018032 -1.9289364365516608 M13.314167608687356 -2.265259209387867 C13.374701709075342 -2.1804759266169125, 13.435235809463329 -2.095692643845958, 13.554297453018032 -1.9289364365516608 M13.554297453018032 -1.9289364365516608 C13.635540340546253 -1.8330131405061325, 13.716783228074474 -1.7370898444606044, 13.821380446634342 -1.6135921418712957 M13.554297453018032 -1.9289364365516608 C13.636732416343172 -1.8316056592723235, 13.71916737966831 -1.7342748819929863, 13.821380446634342 -1.6135921418712957 M13.821380446634342 -1.6135921418712957 C13.907779136156492 -1.527193452349145, 13.994177825678642 -1.4407947628269944, 14.113592141871294 -1.321380446634342 M13.821380446634342 -1.6135921418712957 C13.888043363803941 -1.5469292247016952, 13.954706280973541 -1.4802663075320948, 14.113592141871294 -1.321380446634342 M14.113592141871294 -1.321380446634342 C14.235926302205261 -1.2177686980956495, 14.358260462539226 -1.1141569495569572, 14.428936436551659 -1.054297453018033 M14.113592141871294 -1.321380446634342 C14.179731934821989 -1.2653628994758002, 14.245871727772684 -1.2093453523172586, 14.428936436551659 -1.054297453018033 M14.428936436551659 -1.054297453018033 C14.54560992941248 -0.9709941802663252, 14.662283422273301 -0.8876909075146175, 14.765259209387866 -0.8141676086873577 M14.428936436551659 -1.054297453018033 C14.500758355130161 -1.0030175887901485, 14.572580273708665 -0.9517377245622639, 14.765259209387866 -0.8141676086873577 M14.765259209387866 -0.8141676086873577 C14.906485917055251 -0.7300147567979691, 15.047712624722637 -0.6458619049085805, 15.120263034814634 -0.6026312439675543 M14.765259209387866 -0.8141676086873577 C14.852846638283268 -0.7619768293868413, 14.94043406717867 -0.709786050086325, 15.120263034814634 -0.6026312439675543 M15.120263034814634 -0.6026312439675543 C15.267366350781446 -0.5307168148570792, 15.414469666748257 -0.4588023857466041, 15.49152287673515 -0.4211333667247139 M15.120263034814634 -0.6026312439675543 C15.251926114611868 -0.5382650863706637, 15.383589194409101 -0.4738989287737731, 15.49152287673515 -0.4211333667247139 M15.49152287673515 -0.4211333667247139 C15.639187438793567 -0.3635144758116038, 15.786852000851985 -0.3058955848984937, 15.876502653976582 -0.2709137914968265 M15.49152287673515 -0.4211333667247139 C15.614693350954997 -0.3730720985445946, 15.737863825174847 -0.3250108303644753, 15.876502653976582 -0.2709137914968265 M15.876502653976582 -0.2709137914968265 C16.013417483037014 -0.23015248082612985, 16.150332312097444 -0.18939117015543322, 16.272572564296006 -0.15299867030334813 M15.876502653976582 -0.2709137914968265 C15.995280580108075 -0.23555207077532644, 16.11405850623957 -0.2001903500538264, 16.272572564296006 -0.15299867030334813 M16.272572564296006 -0.15299867030334813 C16.363371258183783 -0.13396018626574624, 16.45416995207156 -0.11492170222814438, 16.677027048596326 -0.06819348298638861 M16.272572564296006 -0.15299867030334813 C16.376222326873297 -0.13126560052188269, 16.479872089450588 -0.10953253074041726, 16.677027048596326 -0.06819348298638861 M16.677027048596326 -0.06819348298638861 C16.81629180176005 -0.05083414960799443, 16.955556554923767 -0.033474816229600246, 17.087103272638338 -0.017077534966650987 M16.677027048596326 -0.06819348298638861 C16.797750064113316 -0.05314537479536056, 16.918473079630306 -0.038097266604332505, 17.087103272638338 -0.017077534966650987 M17.087103272638338 -0.017077534966650987 C17.2064785174683 -0.012140138318431533, 17.32585376229827 -0.007202741670212079, 17.5 0 M17.087103272638338 -0.017077534966650987 C17.239776540201206 -0.01076292191089294, 17.392449807764073 -0.00444830885513489, 17.5 0 M17.5 0 C17.5 0, 17.5 0, 17.5 0 M17.5 0 C17.5 0, 17.5 0, 17.5 0 M17.5 0 C17.384544365999947 0.004775280345115754, 17.269088731999894 0.009550560690231509, 17.087103272638338 0.017077534966650987 M17.5 0 C17.341626723204758 0.006550367181488467, 17.183253446409516 0.013100734362976934, 17.087103272638338 0.017077534966650987 M17.087103272638338 0.017077534966650987 C16.931833411565552 0.03643190296535535, 16.77656355049277 0.05578627096405973, 16.67702704859633 0.06819348298638772 M17.087103272638338 0.017077534966650987 C16.959710186266328 0.03295706662269336, 16.832317099894322 0.04883659827873574, 16.67702704859633 0.06819348298638772 M16.67702704859633 0.06819348298638772 C16.54690247448378 0.09547773698902168, 16.416777900371233 0.12276199099165562, 16.272572564296006 0.15299867030334813 M16.67702704859633 0.06819348298638772 C16.54720224216116 0.09541488231681933, 16.417377435725985 0.12263628164725093, 16.272572564296006 0.15299867030334813 M16.272572564296006 0.15299867030334813 C16.12952284686708 0.19558641637504887, 15.986473129438151 0.2381741624467496, 15.876502653976583 0.2709137914968265 M16.272572564296006 0.15299867030334813 C16.13936850305989 0.19265523752768698, 16.006164441823774 0.23231180475202587, 15.876502653976583 0.2709137914968265 M15.876502653976583 0.2709137914968265 C15.747712021845965 0.32116805209883126, 15.618921389715346 0.37142231270083603, 15.491522876735154 0.421133366724713 M15.876502653976583 0.2709137914968265 C15.789854592171995 0.3047239701297739, 15.703206530367405 0.3385341487627213, 15.491522876735154 0.421133366724713 M15.491522876735154 0.421133366724713 C15.368381445995448 0.48133354394907196, 15.245240015255742 0.5415337211734309, 15.120263034814633 0.6026312439675543 M15.491522876735154 0.421133366724713 C15.362173538815192 0.4843684048419402, 15.232824200895232 0.5476034429591674, 15.120263034814633 0.6026312439675543 M15.120263034814633 0.6026312439675543 C14.995859961422191 0.6767593857524288, 14.871456888029748 0.7508875275373031, 14.765259209387867 0.8141676086873568 M15.120263034814633 0.6026312439675543 C15.033734585123426 0.6541910086278766, 14.94720613543222 0.7057507732881988, 14.765259209387867 0.8141676086873568 M14.765259209387867 0.8141676086873568 C14.68121528686843 0.8741738160022585, 14.597171364348991 0.9341800233171601, 14.42893643655166 1.054297453018032 M14.765259209387867 0.8141676086873568 C14.651020024648549 0.8957328188471687, 14.53678083990923 0.9772980290069806, 14.42893643655166 1.054297453018032 M14.42893643655166 1.054297453018032 C14.316480786630025 1.1495425300237272, 14.20402513670839 1.2447876070294221, 14.113592141871296 1.3213804466343415 M14.42893643655166 1.054297453018032 C14.341557052977345 1.1283040158100779, 14.254177669403031 1.2023105786021238, 14.113592141871296 1.3213804466343415 M14.113592141871296 1.3213804466343415 C14.04692085568848 1.3880517328171562, 13.980249569505666 1.4547230189999707, 13.821380446634342 1.6135921418712948 M14.113592141871296 1.3213804466343415 C14.029737256699342 1.4052353318062962, 13.945882371527386 1.489090216978251, 13.821380446634342 1.6135921418712948 M13.821380446634342 1.6135921418712948 C13.742151910281907 1.7071370979777427, 13.662923373929472 1.8006820540841906, 13.554297453018034 1.9289364365516604 M13.821380446634342 1.6135921418712948 C13.726097195577394 1.726092863810075, 13.630813944520447 1.8385935857488551, 13.554297453018034 1.9289364365516604 M13.554297453018034 1.9289364365516604 C13.488147369404643 2.0215853932284715, 13.421997285791253 2.114234349905283, 13.314167608687358 2.265259209387866 M13.554297453018034 1.9289364365516604 C13.470909381281233 2.0457286977808185, 13.387521309544432 2.1625209590099765, 13.314167608687358 2.265259209387866 M13.314167608687358 2.265259209387866 C13.26745003277034 2.343661417855308, 13.220732456853321 2.42206362632275, 13.102631243967554 2.6202630348146316 M13.314167608687358 2.265259209387866 C13.246813259545991 2.378294391948497, 13.179458910404625 2.4913295745091277, 13.102631243967554 2.6202630348146316 M13.102631243967554 2.6202630348146316 C13.05333444433904 2.7211012501992786, 13.004037644710525 2.821939465583926, 12.921133366724714 2.991522876735151 M13.102631243967554 2.6202630348146316 C13.053969964378311 2.7198012731808068, 13.005308684789068 2.8193395115469824, 12.921133366724714 2.991522876735151 M12.921133366724714 2.991522876735151 C12.886733593213608 3.0796819407144715, 12.8523338197025 3.167841004693792, 12.770913791496827 3.3765026539765817 M12.921133366724714 2.991522876735151 C12.877196042125354 3.104124589336092, 12.833258717525995 3.2167263019370336, 12.770913791496827 3.3765026539765817 M12.770913791496827 3.3765026539765817 C12.73408924386203 3.50019412909567, 12.697264696227231 3.6238856042147587, 12.652998670303347 3.772572564296005 M12.770913791496827 3.3765026539765817 C12.729004105237381 3.517274808644151, 12.687094418977937 3.6580469633117207, 12.652998670303347 3.772572564296005 M12.652998670303347 3.772572564296005 C12.62954602611772 3.8844233532592347, 12.606093381932094 3.9962741422224646, 12.568193482986388 4.1770270485963295 M12.652998670303347 3.772572564296005 C12.623172106721356 3.9148219687683734, 12.593345543139364 4.057071373240742, 12.568193482986388 4.1770270485963295 M12.568193482986388 4.1770270485963295 C12.549045956461399 4.330637529890345, 12.52989842993641 4.484248011184361, 12.517077534966651 4.587103272638337 M12.568193482986388 4.1770270485963295 C12.553620086342262 4.293941704370338, 12.539046689698136 4.410856360144348, 12.517077534966651 4.587103272638337 M12.517077534966651 4.587103272638337 C12.513251259508955 4.6796140839206535, 12.50942498405126 4.772124895202969, 12.5 4.999999999999999 M12.517077534966651 4.587103272638337 C12.511798256673076 4.714744453552646, 12.5065189783795 4.842385634466954, 12.5 4.999999999999999 M12.5 4.999999999999999 C12.5 5.9234321728569945, 12.5 6.846864345713991, 12.5 7.5 M12.5 4.999999999999999 C12.5 5.682783725920808, 12.5 6.365567451841617, 12.5 7.5 M12.5 7.5 C12.5 7.5, 12.5 7.5, 12.5 7.5 M12.5 7.5 C12.5 7.5, 12.5 7.5, 12.5 7.5 M12.5 7.5 C12.493225649893894 7.663788684624288, 12.48645129978779 7.827577369248576, 12.482922465033349 7.9128967273616615 M12.5 7.5 C12.496385847542715 7.587382149983195, 12.49277169508543 7.674764299966388, 12.482922465033349 7.9128967273616615 M12.482922465033349 7.9128967273616615 C12.463470879765982 8.068946511178513, 12.444019294498613 8.224996294995364, 12.431806517013612 8.322972951403669 M12.482922465033349 7.9128967273616615 C12.46309394710473 8.07197044262129, 12.44326542917611 8.231044157880916, 12.431806517013612 8.322972951403669 M12.431806517013612 8.322972951403669 C12.407608100715054 8.438380490665846, 12.383409684416494 8.553788029928024, 12.347001329696653 8.727427435703996 M12.431806517013612 8.322972951403669 C12.408065534038846 8.436198891108914, 12.38432455106408 8.54942483081416, 12.347001329696653 8.727427435703996 M12.347001329696653 8.727427435703996 C12.31903553093499 8.821362897885884, 12.291069732173327 8.915298360067771, 12.229086208503173 9.123497346023417 M12.347001329696653 8.727427435703996 C12.308656194904462 8.856226473050608, 12.27031106011227 8.98502551039722, 12.229086208503173 9.123497346023417 M12.229086208503173 9.123497346023417 C12.184452171466567 9.23788457957584, 12.13981813442996 9.352271813128265, 12.078866633275286 9.508477123264846 M12.229086208503173 9.123497346023417 C12.17631261422636 9.258744477018801, 12.123539019949547 9.393991608014186, 12.078866633275286 9.508477123264846 M12.078866633275286 9.508477123264846 C12.032151695292114 9.604034056240728, 11.985436757308944 9.699590989216611, 11.897368756032446 9.879736965185367 M12.078866633275286 9.508477123264846 C12.033131941128872 9.60202893133279, 11.987397248982457 9.695580739400734, 11.897368756032446 9.879736965185367 M11.897368756032446 9.879736965185367 C11.816189758125065 10.015972901921845, 11.735010760217685 10.152208838658323, 11.685832391312642 10.234740790612134 M11.897368756032446 9.879736965185367 C11.83910480915654 9.977516484337103, 11.780840862280632 10.075296003488841, 11.685832391312642 10.234740790612134 M11.685832391312642 10.234740790612134 C11.599027971017996 10.356317945710492, 11.51222355072335 10.47789510080885, 11.445702546981968 10.57106356344834 M11.685832391312642 10.234740790612134 C11.637805750567786 10.302006286204074, 11.58977910982293 10.369271781796016, 11.445702546981968 10.57106356344834 M11.445702546981968 10.57106356344834 C11.352337771703963 10.681299145315187, 11.258972996425957 10.791534727182036, 11.178619553365658 10.886407858128706 M11.445702546981968 10.57106356344834 C11.344794994529058 10.690204885497089, 11.24388744207615 10.809346207545836, 11.178619553365658 10.886407858128706 M11.178619553365658 10.886407858128706 C11.078375839993484 10.98665157150088, 10.978132126621308 11.086895284873057, 10.886407858128706 11.178619553365658 M11.178619553365658 10.886407858128706 C11.092334015613515 10.97269339588085, 11.006048477861373 11.058978933632991, 10.886407858128706 11.178619553365658 M10.886407858128706 11.178619553365658 C10.771764324344524 11.275717673478686, 10.65712079056034 11.372815793591712, 10.57106356344834 11.445702546981968 M10.886407858128706 11.178619553365658 C10.792400637720592 11.258239607610168, 10.698393417312477 11.337859661854678, 10.57106356344834 11.445702546981968 M10.57106356344834 11.445702546981968 C10.459159731857287 11.525600347042781, 10.347255900266235 11.605498147103594, 10.234740790612134 11.685832391312642 M10.57106356344834 11.445702546981968 C10.48235297646913 11.509040688678887, 10.39364238948992 11.572378830375806, 10.234740790612134 11.685832391312642 M10.234740790612134 11.685832391312642 C10.14321650645263 11.740369027168352, 10.051692222293125 11.794905663024064, 9.879736965185367 11.897368756032446 M10.234740790612134 11.685832391312642 C10.109428370185663 11.760502386317311, 9.984115949759193 11.835172381321982, 9.879736965185367 11.897368756032446 M9.879736965185367 11.897368756032446 C9.769286068494944 11.951364909198864, 9.658835171804519 12.00536106236528, 9.508477123264848 12.078866633275286 M9.879736965185367 11.897368756032446 C9.76193867064946 11.954956833133634, 9.644140376113553 12.012544910234823, 9.508477123264848 12.078866633275286 M9.508477123264848 12.078866633275286 C9.428840967410524 12.109940757716156, 9.349204811556199 12.141014882157025, 9.123497346023418 12.229086208503173 M9.508477123264848 12.078866633275286 C9.428908672197053 12.109914339226473, 9.349340221129257 12.140962045177659, 9.123497346023418 12.229086208503173 M9.123497346023418 12.229086208503173 C9.042161811166599 12.253300846374158, 8.960826276309778 12.277515484245143, 8.727427435703996 12.347001329696653 M9.123497346023418 12.229086208503173 C9.002243949943914 12.265184908559194, 8.88099055386441 12.301283608615215, 8.727427435703996 12.347001329696653 M8.727427435703996 12.347001329696653 C8.62045698726301 12.369430674084095, 8.513486538822024 12.391860018471535, 8.32297295140367 12.431806517013612 M8.727427435703996 12.347001329696653 C8.58679235815586 12.37648940451782, 8.446157280607725 12.405977479338988, 8.32297295140367 12.431806517013612 M8.32297295140367 12.431806517013612 C8.159851859989915 12.452139539853713, 7.996730768576161 12.472472562693813, 7.912896727361662 12.482922465033349 M8.32297295140367 12.431806517013612 C8.204715476091138 12.446547295938657, 8.086458000778606 12.461288074863704, 7.912896727361662 12.482922465033349 M7.912896727361662 12.482922465033349 C7.802285938478489 12.487497361102182, 7.691675149595315 12.492072257171017, 7.5 12.5 M7.912896727361662 12.482922465033349 C7.796161141916572 12.487750684561824, 7.679425556471482 12.4925789040903, 7.5 12.5" stroke="currentColor" stroke-width="2" fill="none" vector-effect="non-scaling-stroke"/></g><g stroke-opacity="0"><path d="M-7.5 -12.5 C-4.372685799114437 -12.5, -1.2453715982288749 -12.5, 7.5 -12.5 M-7.5 -12.5 C-3.5168746287213755 -12.5, 0.4662507425572491 -12.5, 7.5 -12.5 M7.5 -12.5 C7.5 -12.5, 7.5 -12.5, 7.5 -12.5 M7.5 -12.5 C7.5 -12.5, 7.5 -12.5, 7.5 -12.5 M7.5 -12.5 C7.650546793845213 -12.493773338547784, 7.801093587690427 -12.487546677095569, 7.912896727361662 -12.482922465033349 M7.5 -12.5 C7.627147755845705 -12.494741129918221, 7.75429551169141 -12.489482259836445, 7.912896727361662 -12.482922465033349 M7.912896727361662 -12.482922465033349 C8.050795743753502 -12.465733370566033, 8.188694760145344 -12.448544276098717, 8.32297295140367 -12.431806517013612 M7.912896727361662 -12.482922465033349 C8.066839614574132 -12.463733504153835, 8.220782501786601 -12.444544543274322, 8.32297295140367 -12.431806517013612 M8.32297295140367 -12.431806517013612 C8.466276807266503 -12.401758858225223, 8.609580663129336 -12.371711199436835, 8.727427435703996 -12.347001329696653 M8.32297295140367 -12.431806517013612 C8.436587307562414 -12.407984091672956, 8.550201663721156 -12.3841616663323, 8.727427435703996 -12.347001329696653 M8.727427435703996 -12.347001329696653 C8.844767116209088 -12.31206779325001, 8.96210679671418 -12.277134256803366, 9.123497346023418 -12.229086208503173 M8.727427435703996 -12.347001329696653 C8.818726984311084 -12.31982027640676, 8.910026532918174 -12.292639223116868, 9.123497346023418 -12.229086208503173 M9.123497346023418 -12.229086208503173 C9.246060683285375 -12.181261845899167, 9.368624020547333 -12.133437483295161, 9.508477123264848 -12.078866633275286 M9.123497346023418 -12.229086208503173 C9.20857268017665 -12.195889710104105, 9.29364801432988 -12.162693211705035, 9.508477123264848 -12.078866633275286 M9.508477123264848 -12.078866633275286 C9.606904597102055 -12.030748373375653, 9.705332070939262 -11.98263011347602, 9.879736965185367 -11.897368756032446 M9.508477123264848 -12.078866633275286 C9.60628688448218 -12.031050354674447, 9.704096645699513 -11.98323407607361, 9.879736965185367 -11.897368756032446 M9.879736965185367 -11.897368756032446 C9.997688847716407 -11.82708468962139, 10.115640730247446 -11.756800623210337, 10.234740790612134 -11.685832391312642 M9.879736965185367 -11.897368756032446 C9.974953610557312 -11.840631950454133, 10.070170255929256 -11.783895144875821, 10.234740790612134 -11.685832391312642 M10.234740790612134 -11.685832391312642 C10.369091319553338 -11.589907957387656, 10.50344184849454 -11.493983523462669, 10.57106356344834 -11.445702546981968 M10.234740790612134 -11.685832391312642 C10.319787953912915 -11.625109883847685, 10.404835117213693 -11.564387376382728, 10.57106356344834 -11.445702546981968 M10.57106356344834 -11.445702546981968 C10.651888937429355 -11.377246947159279, 10.732714311410373 -11.308791347336587, 10.886407858128706 -11.178619553365658 M10.57106356344834 -11.445702546981968 C10.66163023985363 -11.368996484864299, 10.75219691625892 -11.292290422746632, 10.886407858128706 -11.178619553365658 M10.886407858128706 -11.178619553365658 C10.971081023924167 -11.093946387570197, 11.055754189719627 -11.009273221774738, 11.178619553365658 -10.886407858128706 M10.886407858128706 -11.178619553365658 C10.985577828494101 -11.079449583000264, 11.084747798859496 -10.980279612634869, 11.178619553365658 -10.886407858128706 M11.178619553365658 -10.886407858128706 C11.262493394793934 -10.787378200683241, 11.34636723622221 -10.688348543237774, 11.445702546981968 -10.57106356344834 M11.178619553365658 -10.886407858128706 C11.238931523728077 -10.815197649282378, 11.299243494090495 -10.74398744043605, 11.445702546981968 -10.57106356344834 M11.445702546981968 -10.57106356344834 C11.497469896729399 -10.49855887891832, 11.549237246476832 -10.426054194388303, 11.685832391312642 -10.234740790612134 M11.445702546981968 -10.57106356344834 C11.53412219724901 -10.447224138016203, 11.62254184751605 -10.323384712584069, 11.685832391312642 -10.234740790612134 M11.685832391312642 -10.234740790612134 C11.744426700859638 -10.136406851362606, 11.803021010406631 -10.038072912113078, 11.897368756032446 -9.879736965185367 M11.685832391312642 -10.234740790612134 C11.731198656458748 -10.158606374226919, 11.776564921604853 -10.082471957841703, 11.897368756032446 -9.879736965185367 M11.897368756032446 -9.879736965185367 C11.950412472828905 -9.771234308229321, 12.003456189625364 -9.662731651273274, 12.078866633275286 -9.508477123264846 M11.897368756032446 -9.879736965185367 C11.955615752911752 -9.760590828700128, 12.01386274979106 -9.641444692214888, 12.078866633275286 -9.508477123264846 M12.078866633275286 -9.508477123264846 C12.117787054155563 -9.408732632988519, 12.15670747503584 -9.308988142712192, 12.229086208503173 -9.123497346023417 M12.078866633275286 -9.508477123264846 C12.122628480560989 -9.396325120477158, 12.166390327846692 -9.28417311768947, 12.229086208503173 -9.123497346023417 M12.229086208503173 -9.123497346023417 C12.256817693740004 -9.030348929097704, 12.284549178976837 -8.93720051217199, 12.347001329696653 -8.727427435703996 M12.229086208503173 -9.123497346023417 C12.27381045767657 -8.973271241178518, 12.318534706849967 -8.823045136333619, 12.347001329696653 -8.727427435703996 M12.347001329696653 -8.727427435703996 C12.37919469824639 -8.57389022074556, 12.411388066796128 -8.420353005787122, 12.431806517013612 -8.32297295140367 M12.347001329696653 -8.727427435703996 C12.37136721849093 -8.611221183485299, 12.395733107285206 -8.495014931266603, 12.431806517013612 -8.32297295140367 M12.431806517013612 -8.32297295140367 C12.446995456041227 -8.201120124547286, 12.462184395068844 -8.079267297690901, 12.482922465033349 -7.9128967273616615 M12.431806517013612 -8.32297295140367 C12.445913711279864 -8.209798390808642, 12.460020905546118 -8.096623830213614, 12.482922465033349 -7.9128967273616615 M12.482922465033349 -7.9128967273616615 C12.487136519945604 -7.811010273280903, 12.491350574857858 -7.709123819200146, 12.5 -7.5 M12.482922465033349 -7.9128967273616615 C12.488666988362732 -7.774006958575518, 12.494411511692118 -7.635117189789375, 12.5 -7.5 M12.5 -7.5 C12.5 -6.974511317265454, 12.5 -6.449022634530907, 12.5 -5 M12.5 -7.5 C12.5 -6.817094455216043, 12.5 -6.134188910432085, 12.5 -5 M12.5 -5 C12.5 -5, 12.5 -5.000000000000001, 12.5 -5.000000000000001 M12.5 -5 C12.5 -5, 12.5 -5.000000000000001, 12.5 -5.000000000000001 M12.5 -5.000000000000001 C12.505949336349294 -4.8561583089483085, 12.511898672698589 -4.712316617896617, 12.517077534966651 -4.58710327263834 M12.5 -5.000000000000001 C12.50444671072975 -4.892488446873425, 12.5088934214595 -4.784976893746849, 12.517077534966651 -4.58710327263834 M12.517077534966651 -4.58710327263834 C12.536690122502991 -4.429761852745467, 12.556302710039331 -4.272420432852595, 12.568193482986388 -4.177027048596331 M12.517077534966651 -4.58710327263834 C12.527711607795588 -4.501791728965227, 12.538345680624525 -4.416480185292112, 12.568193482986388 -4.177027048596331 M12.568193482986388 -4.177027048596331 C12.587077976030033 -4.086962771434918, 12.605962469073676 -3.996898494273505, 12.652998670303347 -3.7725725642960057 M12.568193482986388 -4.177027048596331 C12.585242928909672 -4.0957145124570555, 12.602292374832956 -4.01440197631778, 12.652998670303347 -3.7725725642960057 M12.652998670303347 -3.7725725642960057 C12.676718841287217 -3.692897914435559, 12.700439012271087 -3.6132232645751126, 12.770913791496827 -3.376502653976583 M12.652998670303347 -3.7725725642960057 C12.688769978330814 -3.652418858655489, 12.724541286358281 -3.532265153014972, 12.770913791496827 -3.376502653976583 M12.770913791496827 -3.376502653976583 C12.826084708068198 -3.235111712485565, 12.881255624639566 -3.093720770994547, 12.921133366724712 -2.991522876735154 M12.770913791496827 -3.376502653976583 C12.804861206352937 -3.289502885874447, 12.838808621209047 -3.2025031177723102, 12.921133366724712 -2.991522876735154 M12.921133366724712 -2.991522876735154 C12.969894554416564 -2.8917802730786284, 13.018655742108415 -2.7920376694221027, 13.102631243967554 -2.6202630348146325 M12.921133366724712 -2.991522876735154 C12.968507159804465 -2.894618234118139, 13.015880952884217 -2.7977135915011235, 13.102631243967554 -2.6202630348146325 M13.102631243967554 -2.6202630348146325 C13.180157833705676 -2.490156629867284, 13.257684423443797 -2.3600502249199358, 13.314167608687356 -2.265259209387867 M13.102631243967554 -2.6202630348146325 C13.16861084334743 -2.5095349800378233, 13.234590442727306 -2.398806925261014, 13.314167608687356 -2.265259209387867 M13.314167608687356 -2.265259209387867 C13.389082361353212 -2.1603345699156353, 13.463997114019069 -2.0554099304434037, 13.554297453018032 -1.9289364365516608 M13.314167608687356 -2.265259209387867 C13.37510857588379 -2.1799060741957224, 13.436049543080223 -2.0945529390035773, 13.554297453018032 -1.9289364365516608 M13.554297453018032 -1.9289364365516608 C13.641126760943067 -1.8264172664073435, 13.7279560688681 -1.7238980962630261, 13.821380446634342 -1.6135921418712957 M13.554297453018032 -1.9289364365516608 C13.627210908248193 -1.8428476826368576, 13.700124363478354 -1.7567589287220542, 13.821380446634342 -1.6135921418712957 M13.821380446634342 -1.6135921418712957 C13.91606128118514 -1.5189113073204967, 14.010742115735939 -1.4242304727696977, 14.113592141871294 -1.321380446634342 M13.821380446634342 -1.6135921418712957 C13.914836141198503 -1.5201364473071346, 14.008291835762662 -1.4266807527429732, 14.113592141871294 -1.321380446634342 M14.113592141871294 -1.321380446634342 C14.23720814523528 -1.216683032429331, 14.360824148599267 -1.1119856182243197, 14.428936436551659 -1.054297453018033 M14.113592141871294 -1.321380446634342 C14.18139162467751 -1.2639572138725885, 14.249191107483725 -1.2065339811108353, 14.428936436551659 -1.054297453018033 M14.428936436551659 -1.054297453018033 C14.547150381166386 -0.9698943188541913, 14.665364325781114 -0.8854911846903497, 14.765259209387866 -0.8141676086873577 M14.428936436551659 -1.054297453018033 C14.550329230077825 -0.9676246643558739, 14.671722023603989 -0.8809518756937149, 14.765259209387866 -0.8141676086873577 M14.765259209387866 -0.8141676086873577 C14.87576553000623 -0.7483201341874184, 14.986271850624597 -0.682472659687479, 15.120263034814634 -0.6026312439675543 M14.765259209387866 -0.8141676086873577 C14.896687836514689 -0.7358531455429103, 15.02811646364151 -0.6575386823984628, 15.120263034814634 -0.6026312439675543 M15.120263034814634 -0.6026312439675543 C15.253415560966108 -0.5375369404172443, 15.386568087117581 -0.47244263686693444, 15.49152287673515 -0.4211333667247139 M15.120263034814634 -0.6026312439675543 C15.222273199655714 -0.5527615131610323, 15.324283364496791 -0.5028917823545103, 15.49152287673515 -0.4211333667247139 M15.49152287673515 -0.4211333667247139 C15.60269355585788 -0.3777544331213023, 15.71386423498061 -0.3343754995178907, 15.876502653976582 -0.2709137914968265 M15.49152287673515 -0.4211333667247139 C15.618993180340114 -0.37139429991212386, 15.746463483945078 -0.3216552330995338, 15.876502653976582 -0.2709137914968265 M15.876502653976582 -0.2709137914968265 C15.959999014671899 -0.24605584790130675, 16.04349537536722 -0.221197904305787, 16.272572564296006 -0.15299867030334813 M15.876502653976582 -0.2709137914968265 C16.01817525098874 -0.22873603193662462, 16.159847848000897 -0.18655827237642272, 16.272572564296006 -0.15299867030334813 M16.272572564296006 -0.15299867030334813 C16.388987839447303 -0.12858895400896705, 16.505403114598597 -0.10417923771458598, 16.677027048596326 -0.06819348298638861 M16.272572564296006 -0.15299867030334813 C16.38578614747393 -0.1292602782199047, 16.49899973065185 -0.10552188613646127, 16.677027048596326 -0.06819348298638861 M16.677027048596326 -0.06819348298638861 C16.833859023754044 -0.04864439767006126, 16.99069099891176 -0.029095312353733915, 17.087103272638338 -0.017077534966650987 M16.677027048596326 -0.06819348298638861 C16.80900703085622 -0.05174219535418653, 16.940987013116107 -0.03529090772198445, 17.087103272638338 -0.017077534966650987 M17.087103272638338 -0.017077534966650987 C17.179612748275193 -0.01325131475165966, 17.27212222391205 -0.009425094536668333, 17.5 0 M17.087103272638338 -0.017077534966650987 C17.22618906755688 -0.011324903936457902, 17.365274862475424 -0.005572272906264815, 17.5 0 M17.5 0 C17.5 0, 17.5 0, 17.5 0 M17.5 0 C17.5 0, 17.5 0, 17.5 0 M17.5 0 C17.386095654514452 0.004711118577549591, 17.2721913090289 0.009422237155099182, 17.087103272638338 0.017077534966650987 M17.5 0 C17.3752771442035 0.005158575473860823, 17.250554288407002 0.010317150947721647, 17.087103272638338 0.017077534966650987 M17.087103272638338 0.017077534966650987 C16.997856208551827 0.028202169903527606, 16.908609144465316 0.039326804840404225, 16.67702704859633 0.06819348298638772 M17.087103272638338 0.017077534966650987 C16.963612743028193 0.03247061342963288, 16.840122213418045 0.047863691892614774, 16.67702704859633 0.06819348298638772 M16.67702704859633 0.06819348298638772 C16.542006676932285 0.09650427778541967, 16.406986305268244 0.12481507258445163, 16.272572564296006 0.15299867030334813 M16.67702704859633 0.06819348298638772 C16.551944554017147 0.09442052408647779, 16.426862059437962 0.12064756518656786, 16.272572564296006 0.15299867030334813 M16.272572564296006 0.15299867030334813 C16.13529026699755 0.19386938100846438, 15.998007969699096 0.23474009171358062, 15.876502653976583 0.2709137914968265 M16.272572564296006 0.15299867030334813 C16.13755731528197 0.19319445149161943, 16.00254206626793 0.23339023267989073, 15.876502653976583 0.2709137914968265 M15.876502653976583 0.2709137914968265 C15.740321950115995 0.3240516670360476, 15.604141246255407 0.3771895425752687, 15.491522876735154 0.421133366724713 M15.876502653976583 0.2709137914968265 C15.779912192528318 0.3086035065093749, 15.683321731080055 0.3462932215219233, 15.491522876735154 0.421133366724713 M15.491522876735154 0.421133366724713 C15.387897487186043 0.4717927327750071, 15.284272097636933 0.5224520988253012, 15.120263034814633 0.6026312439675543 M15.491522876735154 0.421133366724713 C15.344774377191428 0.49287433665557956, 15.198025877647702 0.5646153065864461, 15.120263034814633 0.6026312439675543 M15.120263034814633 0.6026312439675543 C15.023803259984398 0.6601087939200068, 14.927343485154163 0.7175863438724593, 14.765259209387867 0.8141676086873568 M15.120263034814633 0.6026312439675543 C15.008698415795216 0.6691093274370676, 14.897133796775801 0.7355874109065809, 14.765259209387867 0.8141676086873568 M14.765259209387867 0.8141676086873568 C14.666957033410357 0.8843540133003509, 14.568654857432847 0.954540417913345, 14.42893643655166 1.054297453018032 M14.765259209387867 0.8141676086873568 C14.657291845339358 0.8912548249443067, 14.549324481290851 0.9683420412012567, 14.42893643655166 1.054297453018032 M14.42893643655166 1.054297453018032 C14.35826907912297 1.1141496516827947, 14.287601721694278 1.1740018503475576, 14.113592141871296 1.3213804466343415 M14.42893643655166 1.054297453018032 C14.324077213574288 1.1431086845941865, 14.219217990596913 1.231919916170341, 14.113592141871296 1.3213804466343415 M14.113592141871296 1.3213804466343415 C14.049648312266115 1.3853242762395233, 13.985704482660932 1.449268105844705, 13.821380446634342 1.6135921418712948 M14.113592141871296 1.3213804466343415 C14.010322404626537 1.4246501838790997, 13.907052667381778 1.5279199211238579, 13.821380446634342 1.6135921418712948 M13.821380446634342 1.6135921418712948 C13.756021582317494 1.6907612071496143, 13.690662718000647 1.7679302724279338, 13.554297453018034 1.9289364365516604 M13.821380446634342 1.6135921418712948 C13.736226498147479 1.7141332188648177, 13.651072549660617 1.8146742958583406, 13.554297453018034 1.9289364365516604 M13.554297453018034 1.9289364365516604 C13.464134034189248 2.055218161813311, 13.373970615360463 2.1814998870749616, 13.314167608687358 2.265259209387866 M13.554297453018034 1.9289364365516604 C13.469818612369975 2.047256414694891, 13.385339771721917 2.1655763928381218, 13.314167608687358 2.265259209387866 M13.314167608687358 2.265259209387866 C13.235220060729889 2.3977502899171554, 13.15627251277242 2.5302413704464453, 13.102631243967554 2.6202630348146316 M13.314167608687358 2.265259209387866 C13.236379395093817 2.395804675815824, 13.158591181500276 2.526350142243781, 13.102631243967554 2.6202630348146316 M13.102631243967554 2.6202630348146316 C13.056129304001376 2.715384273382848, 13.009627364035197 2.8105055119510642, 12.921133366724714 2.991522876735151 M13.102631243967554 2.6202630348146316 C13.032884350065382 2.7629325866459298, 12.963137456163208 2.9056021384772275, 12.921133366724714 2.991522876735151 M12.921133366724714 2.991522876735151 C12.881430654620663 3.0932722075963968, 12.841727942516613 3.195021538457642, 12.770913791496827 3.3765026539765817 M12.921133366724714 2.991522876735151 C12.881092977736923 3.0941375992824325, 12.841052588749132 3.196752321829714, 12.770913791496827 3.3765026539765817 M12.770913791496827 3.3765026539765817 C12.742052681946081 3.4734454120875338, 12.713191572395335 3.570388170198486, 12.652998670303347 3.772572564296005 M12.770913791496827 3.3765026539765817 C12.739154282942055 3.4831809627274795, 12.707394774387282 3.589859271478377, 12.652998670303347 3.772572564296005 M12.652998670303347 3.772572564296005 C12.624967284823045 3.906260371815201, 12.596935899342744 4.039948179334397, 12.568193482986388 4.1770270485963295 M12.652998670303347 3.772572564296005 C12.623237087460229 3.914512061414093, 12.593475504617112 4.056451558532181, 12.568193482986388 4.1770270485963295 M12.568193482986388 4.1770270485963295 C12.557804815402768 4.260369835741225, 12.547416147819147 4.343712622886122, 12.517077534966651 4.587103272638337 M12.568193482986388 4.1770270485963295 C12.548261816123233 4.336928273219014, 12.52833014926008 4.496829497841698, 12.517077534966651 4.587103272638337 M12.517077534966651 4.587103272638337 C12.512546867405684 4.696644714792613, 12.508016199844716 4.8061861569468896, 12.5 4.999999999999999 M12.517077534966651 4.587103272638337 C12.511448179485425 4.723208539580701, 12.5058188240042 4.8593138065230645, 12.5 4.999999999999999 M12.5 4.999999999999999 C12.5 5.78503738005724, 12.5 6.5700747601144815, 12.5 7.5 M12.5 4.999999999999999 C12.5 5.880813625036241, 12.5 6.7616272500724826, 12.5 7.5 M12.5 7.5 C12.5 7.5, 12.5 7.5, 12.5 7.5 M12.5 7.5 C12.5 7.5, 12.5 7.5, 12.5 7.5 M12.5 7.5 C12.495990233863274 7.5969472068757495, 12.491980467726549 7.693894413751498, 12.482922465033349 7.9128967273616615 M12.5 7.5 C12.494033567990778 7.644255026000216, 12.488067135981556 7.788510052000431, 12.482922465033349 7.9128967273616615 M12.482922465033349 7.9128967273616615 C12.46438249915731 8.061633070809279, 12.445842533281269 8.210369414256895, 12.431806517013612 8.322972951403669 M12.482922465033349 7.9128967273616615 C12.469055367720868 8.024145117044846, 12.455188270408389 8.13539350672803, 12.431806517013612 8.322972951403669 M12.431806517013612 8.322972951403669 C12.406885581002937 8.441826345180244, 12.381964644992264 8.56067973895682, 12.347001329696653 8.727427435703996 M12.431806517013612 8.322972951403669 C12.400979767642143 8.469992460635973, 12.370153018270674 8.617011969868276, 12.347001329696653 8.727427435703996 M12.347001329696653 8.727427435703996 C12.310304259357757 8.850690722134097, 12.273607189018861 8.973954008564197, 12.229086208503173 9.123497346023417 M12.347001329696653 8.727427435703996 C12.301772370810578 8.87934883058985, 12.256543411924506 9.031270225475701, 12.229086208503173 9.123497346023417 M12.229086208503173 9.123497346023417 C12.172975354359547 9.267297141065235, 12.116864500215923 9.411096936107052, 12.078866633275286 9.508477123264846 M12.229086208503173 9.123497346023417 C12.169689346313504 9.275718457951935, 12.110292484123834 9.427939569880454, 12.078866633275286 9.508477123264846 M12.078866633275286 9.508477123264846 C12.011007816790148 9.64728455100946, 11.943149000305008 9.786091978754074, 11.897368756032446 9.879736965185367 M12.078866633275286 9.508477123264846 C12.012422291309905 9.644391197133462, 11.945977949344524 9.780305271002078, 11.897368756032446 9.879736965185367 M11.897368756032446 9.879736965185367 C11.837126077173528 9.980837225073072, 11.776883398314608 10.081937484960777, 11.685832391312642 10.234740790612134 M11.897368756032446 9.879736965185367 C11.825832274693187 9.99979067115997, 11.754295793353927 10.119844377134571, 11.685832391312642 10.234740790612134 M11.685832391312642 10.234740790612134 C11.6165266391667 10.331809536066048, 11.547220887020757 10.428878281519962, 11.445702546981968 10.57106356344834 M11.685832391312642 10.234740790612134 C11.62866726996075 10.314805524657068, 11.571502148608857 10.394870258702, 11.445702546981968 10.57106356344834 M11.445702546981968 10.57106356344834 C11.37827489011187 10.65067524747865, 11.31084723324177 10.73028693150896, 11.178619553365658 10.886407858128706 M11.445702546981968 10.57106356344834 C11.377340138252281 10.651778906913764, 11.308977729522592 10.73249425037919, 11.178619553365658 10.886407858128706 M11.178619553365658 10.886407858128706 C11.107734920384225 10.95729249111014, 11.036850287402793 11.028177124091572, 10.886407858128706 11.178619553365658 M11.178619553365658 10.886407858128706 C11.10664362541478 10.958383786079585, 11.0346676974639 11.030359714030464, 10.886407858128706 11.178619553365658 M10.886407858128706 11.178619553365658 C10.792307459917353 11.258318525183904, 10.698207061705999 11.33801749700215, 10.57106356344834 11.445702546981968 M10.886407858128706 11.178619553365658 C10.807674445243787 11.245303352519999, 10.72894103235887 11.31198715167434, 10.57106356344834 11.445702546981968 M10.57106356344834 11.445702546981968 C10.458253951162188 11.52624706202874, 10.345444338876035 11.60679157707551, 10.234740790612134 11.685832391312642 M10.57106356344834 11.445702546981968 C10.47490788078407 11.514356384826383, 10.378752198119798 11.583010222670799, 10.234740790612134 11.685832391312642 M10.234740790612134 11.685832391312642 C10.12119728611635 11.753489634582376, 10.007653781620565 11.82114687785211, 9.879736965185367 11.897368756032446 M10.234740790612134 11.685832391312642 C10.149662985170975 11.73652775962234, 10.064585179729814 11.787223127932037, 9.879736965185367 11.897368756032446 M9.879736965185367 11.897368756032446 C9.804835017848246 11.933986086828899, 9.729933070511127 11.970603417625352, 9.508477123264848 12.078866633275286 M9.879736965185367 11.897368756032446 C9.794532082223148 11.939022885141508, 9.709327199260928 11.980677014250572, 9.508477123264848 12.078866633275286 M9.508477123264848 12.078866633275286 C9.4109148534233 12.116935549099596, 9.313352583581752 12.155004464923907, 9.123497346023418 12.229086208503173 M9.508477123264848 12.078866633275286 C9.374966065745074 12.130962809579811, 9.241455008225302 12.183058985884337, 9.123497346023418 12.229086208503173 M9.123497346023418 12.229086208503173 C9.016675918611966 12.260888325329274, 8.909854491200514 12.292690442155376, 8.727427435703996 12.347001329696653 M9.123497346023418 12.229086208503173 C8.988561164840354 12.269258450178272, 8.853624983657287 12.30943069185337, 8.727427435703996 12.347001329696653 M8.727427435703996 12.347001329696653 C8.631930708458741 12.36702488773978, 8.536433981213488 12.387048445782906, 8.32297295140367 12.431806517013612 M8.727427435703996 12.347001329696653 C8.645779702036654 12.364121059150618, 8.564131968369312 12.38124078860458, 8.32297295140367 12.431806517013612 M8.32297295140367 12.431806517013612 C8.22970919446699 12.44343183219212, 8.136445437530309 12.455057147370628, 7.912896727361662 12.482922465033349 M8.32297295140367 12.431806517013612 C8.169996670624986 12.450874990526806, 8.017020389846301 12.469943464040002, 7.912896727361662 12.482922465033349 M7.912896727361662 12.482922465033349 C7.752837843600537 12.489542549434647, 7.5927789598394115 12.496162633835944, 7.5 12.5 M7.912896727361662 12.482922465033349 C7.787451343588402 12.488110924485381, 7.662005959815142 12.493299383937414, 7.5 12.5 M7.5 12.5 C7.5 12.5, 7.5 12.5, 7.5 12.5 M7.5 12.5 C7.5 12.5, 7.5 12.5, 7.5 12.5 M7.5 12.5 C3.470686833162973 12.5, -0.558626333674054 12.5, -7.5 12.5 M7.5 12.5 C2.926910552176376 12.5, -1.6461788956472478 12.5, -7.5 12.5 M-7.5 12.5 C-7.5 5.451498039378425, -7.5 -1.5970039212431502, -7.5 -12.5 M-7.5 12.5 C-7.5 2.9105717997407208, -7.5 -6.6788564005185584, -7.5 -12.5" stroke="currentColor" stroke-width="2" fill="none" vector-effect="non-scaling-stroke"/></g></g></g></g></g></g><linearGradient id="s2m-shape-commentRight-gradient" gradientUnits="objectBoundingBox" x1="0%" y1="0%" x2="100%" y2="0%"><stop offset="0%" stop-color="hsl(40.5882352941, 60%, 83.3333333333%)" stop-opacity="1"/><stop offset="100%" stop-color="hsl(-79.4117647059, 60%, 83.3333333333%)" stop-opacity="1"/></linearGradient></svg>