<svg id="s2m-shape-delay" width="100%" xmlns="http://www.w3.org/2000/svg" class="flowchart" style="max-width: 76px;" viewBox="-21.30 -16.05 102.60 62.10" role="graphics-document document" aria-roledescription="flowchart-v2"><g><marker id="s2m-shape-delay_flowchart-v2-pointEnd" class="marker flowchart-v2" viewBox="0 0 10 10" refX="5" refY="5" markerUnits="userSpaceOnUse" markerWidth="8" markerHeight="8" orient="auto"><path d="M 0 0 L 10 5 L 0 10 z" class="arrowMarkerPath" style="stroke-width: 1; stroke-dasharray: 1,0;"/></marker><marker id="s2m-shape-delay_flowchart-v2-pointStart" class="marker flowchart-v2" viewBox="0 0 10 10" refX="4.5" refY="5" markerUnits="userSpaceOnUse" markerWidth="8" markerHeight="8" orient="auto"><path d="M 0 5 L 10 10 L 10 0 z" class="arrowMarkerPath" style="stroke-width: 1; stroke-dasharray: 1,0;"/></marker><marker id="s2m-shape-delay_flowchart-v2-pointEnd-margin" class="marker flowchart-v2" viewBox="0 0 11.5 14" refX="11.5" refY="7" markerUnits="userSpaceOnUse" markerWidth="10.5" markerHeight="14" orient="auto"><path d="M 0 0 L 11.5 7 L 0 14 z" class="arrowMarkerPath" style="stroke-width: 0; stroke-dasharray: 1,0;"/></marker><marker id="s2m-shape-delay_flowchart-v2-pointStart-margin" class="marker flowchart-v2" viewBox="0 0 11.5 14" refX="1" refY="7" markerUnits="userSpaceOnUse" markerWidth="11.5" markerHeight="14" orient="auto"><polygon points="0,7 11.5,14 11.5,0" class="arrowMarkerPath" style="stroke-width: 0; stroke-dasharray: 1,0;"/></marker><marker id="s2m-shape-delay_flowchart-v2-circleEnd" class="marker flowchart-v2" viewBox="0 0 10 10" refX="11" refY="5" markerUnits="userSpaceOnUse" markerWidth="11" markerHeight="11" orient="auto"><circle cx="5" cy="5" r="5" class="arrowMarkerPath" style="stroke-width: 1; stroke-dasharray: 1,0;"/></marker><marker id="s2m-shape-delay_flowchart-v2-circleStart" class="marker flowchart-v2" viewBox="0 0 10 10" refX="-1" refY="5" markerUnits="userSpaceOnUse" markerWidth="11" markerHeight="11" orient="auto"><circle cx="5" cy="5" r="5" class="arrowMarkerPath" style="stroke-width: 1; stroke-dasharray: 1,0;"/></marker><marker id="s2m-shape-delay_flowchart-v2-circleEnd-margin" class="marker flowchart-v2" viewBox="0 0 10 10" refY="5" refX="12.25" markerUnits="userSpaceOnUse" markerWidth="14" markerHeight="14" orient="auto"><circle cx="5" cy="5" r="5" class="arrowMarkerPath" style="stroke-width: 0; stroke-dasharray: 1,0;"/></marker><marker id="s2m-shape-delay_flowchart-v2-circleStart-margin" class="marker flowchart-v2" viewBox="0 0 10 10" refX="-2" refY="5" markerUnits="userSpaceOnUse" markerWidth="14" markerHeight="14" orient="auto"><circle cx="5" cy="5" r="5" class="arrowMarkerPath" style="stroke-width: 0; stroke-dasharray: 1,0;"/></marker><marker id="s2m-shape-delay_flowchart-v2-crossEnd" class="marker cross flowchart-v2" viewBox="0 0 11 11" refX="12" refY="5.2" markerUnits="userSpaceOnUse" markerWidth="11" markerHeight="11" orient="auto"><path d="M 1,1 l 9,9 M 10,1 l -9,9" class="arrowMarkerPath" style="stroke-width: 2; stroke-dasharray: 1,0;"/></marker><marker id="s2m-shape-delay_flowchart-v2-crossStart" class="marker cross flowchart-v2" viewBox="0 0 11 11" refX="-1" refY="5.2" markerUnits="userSpaceOnUse" markerWidth="11" markerHeight="11" orient="auto"><path d="M 1,1 l 9,9 M 10,1 l -9,9" class="arrowMarkerPath" style="stroke-width: 2; stroke-dasharray: 1,0;"/></marker><marker id="s2m-shape-delay_flowchart-v2-crossEnd-margin" class="marker cross flowchart-v2" viewBox="0 0 15 15" refX="17.7" refY="7.5" markerUnits="userSpaceOnUse" markerWidth="12" markerHeight="12" orient="auto"><path d="M 1,1 L 14,14 M 1,14 L 14,1" class="arrowMarkerPath" style="stroke-width: 2.5;"/></marker><marker id="s2m-shape-delay_flowchart-v2-crossStart-margin" class="marker cross flowchart-v2" viewBox="0 0 15 15" refX="-3.5" refY="7.5" markerUnits="userSpaceOnUse" markerWidth="12" markerHeight="12" orient="auto"><path d="M 1,1 L 14,14 M 1,14 L 14,1" class="arrowMarkerPath" style="stroke-width: 2.5; stroke-dasharray: 1,0;"/></marker><g class="root"><g class="clusters"/><g class="edgePaths"/><g class="edgeLabels"/><g class="nodes"><g class="node default" data-look="classic" transform="translate(38, 23)"><g class="basic label-container outer-path"><path d="M-22.5 -20 C-14.248567415575122 -20, -5.997134831150245 -20, 2.5 -20 M-22.5 -20 C-14.781202842171117 -20, -7.0624056843422345 -20, 2.5 -20 M2.5 -20 C2.4999999999999996 -20, 2.499999999999999 -20, 2.4999999999999987 -20 M2.5 -20 C2.4999999999999996 -20, 2.499999999999999 -20, 2.4999999999999987 -20 M2.4999999999999987 -20 C2.832875807438197 -19.989325320758912, 3.165751614876395 -19.97865064151782, 3.7814043996142566 -19.95890785500673 M2.4999999999999987 -20 C2.860528487833645 -19.988438553121306, 3.221056975667291 -19.97687710624261, 3.7814043996142566 -19.95890785500673 M3.7814043996142566 -19.95890785500673 C4.193705322446589 -19.9191336808455, 4.606006245278921 -19.87935950668427, 5.057543233690118 -19.835800276464923 M3.7814043996142566 -19.95890785500673 C4.219464524455219 -19.9166487216077, 4.657524649296183 -19.874389588208672, 5.057543233690118 -19.835800276464923 M5.057543233690118 -19.835800276464923 C5.487868457850721 -19.76622863144459, 5.918193682011323 -19.69665698642426, 6.323172574027443 -19.631183139821307 M5.057543233690118 -19.835800276464923 C5.53328790568431 -19.758885567351935, 6.009032577678502 -19.681970858238948, 6.323172574027443 -19.631183139821307 M6.323172574027443 -19.631183139821307 C6.736782863802563 -19.536779290239515, 7.1503931535776815 -19.442375440657727, 7.573091678190144 -19.34589726078059 M6.323172574027443 -19.631183139821307 C6.62056548371986 -19.563305148854113, 6.9179583934122775 -19.49542715788692, 7.573091678190144 -19.34589726078059 M7.573091678190144 -19.34589726078059 C8.00454776406304 -19.217843359252726, 8.436003849935933 -19.08978945772486, 8.802164360472414 -18.981114940213374 M7.573091678190144 -19.34589726078059 C7.838844080103413 -19.267023342855556, 8.104596482016682 -19.188149424930522, 8.802164360472414 -18.981114940213374 M8.802164360472414 -18.981114940213374 C9.160132869739037 -18.84937921977863, 9.51810137900566 -18.717643499343886, 10.005340097587482 -18.538335146920435 M8.802164360472414 -18.981114940213374 C9.082082663575523 -18.878102417135, 9.362000966678632 -18.775089894056627, 10.005340097587482 -18.538335146920435 M10.005340097587482 -18.538335146920435 C10.357213570393261 -18.382571198465026, 10.70908704319904 -18.226807250009617, 11.177674782351161 -18.019377358048384 M10.005340097587482 -18.538335146920435 C10.243061750518367 -18.433102822930216, 10.480783403449252 -18.32787049894, 11.177674782351161 -18.019377358048384 M11.177674782351161 -18.019377358048384 C11.508049444129183 -17.847021108613863, 11.838424105907203 -17.674664859179337, 12.314351040078751 -17.42637408246779 M11.177674782351161 -18.019377358048384 C11.471789236515377 -17.86593803570021, 11.765903690679592 -17.71249871335204, 12.314351040078751 -17.42637408246779 M12.314351040078751 -17.42637408246779 C12.58454161811219 -17.26258296624784, 12.85473219614563 -17.098791850027887, 13.410698024210973 -16.761762097836815 M12.314351040078751 -17.42637408246779 C12.655997171196677 -17.219266190048582, 12.997643302314604 -17.012158297629373, 13.410698024210973 -16.761762097836815 M13.410698024210973 -16.761762097836815 C13.788737917898045 -16.49805783308395, 14.166777811585117 -16.234353568331088, 14.46221060982432 -16.02827243735913 M13.410698024210973 -16.761762097836815 C13.805833426788963 -16.4861327461343, 14.200968829366955 -16.210503394431782, 14.46221060982432 -16.02827243735913 M14.46221060982432 -16.02827243735913 C14.812327787652663 -15.74906330505042, 15.162444965481006 -15.469854172741707, 15.464567906155764 -15.22891916738269 M14.46221060982432 -16.02827243735913 C14.86265778170645 -15.708926474129914, 15.26310495358858 -15.389580510900698, 15.464567906155764 -15.22891916738269 M15.464567906155764 -15.22891916738269 C15.66002625901009 -15.051409062865016, 15.855484611864417 -14.873898958347342, 16.413651012069728 -14.366987001954552 M15.464567906155764 -15.22891916738269 C15.719595847336167 -14.997309538872212, 15.974623788516569 -14.765699910361734, 16.413651012069728 -14.366987001954552 M16.413651012069728 -14.366987001954552 C16.75757571495157 -14.011856509485813, 17.101500417833414 -13.656726017017073, 17.30555994150631 -13.44601780522634 M16.413651012069728 -14.366987001954552 C16.603910822447144 -14.170528127118935, 16.79417063282456 -13.97406925228332, 17.30555994150631 -13.44601780522634 M17.30555994150631 -13.44601780522634 C17.518035811870732 -13.196431557676764, 17.730511682235154 -12.94684531012719, 18.136629649360593 -12.469796037174671 M17.30555994150631 -13.44601780522634 C17.573781534302416 -13.130949460087042, 17.842003127098522 -12.815881114947745, 18.136629649360593 -12.469796037174671 M18.136629649360593 -12.469796037174671 C18.37785344162361 -12.14657813148179, 18.619077233886628 -11.823360225788909, 18.903445091939112 -11.442333202443397 M18.136629649360593 -12.469796037174671 C18.414445541144893 -12.097548051732119, 18.69226143292919 -11.725300066289568, 18.903445091939112 -11.442333202443397 M18.903445091939112 -11.442333202443397 C19.045676374555256 -11.22382775789789, 19.1879076571714 -11.005322313352384, 19.60285526010692 -10.367851366210504 M18.903445091939112 -11.442333202443397 C19.109086422904742 -11.126412895650956, 19.314727753870372 -10.810492588858517, 19.60285526010692 -10.367851366210504 M19.60285526010692 -10.367851366210504 C19.77349743488903 -10.064858905490958, 19.94413960967114 -9.76186644477141, 20.23198612746 -9.250765804816705 M19.60285526010692 -10.367851366210504 C19.845070083492686 -9.9377744203786, 20.087284906878452 -9.5076974745467, 20.23198612746 -9.250765804816705 M20.23198612746 -9.250765804816705 C20.353912086051587 -8.997583943003685, 20.475838044643172 -8.744402081190664, 20.788252460316247 -8.095666862447882 M20.23198612746 -9.250765804816705 C20.41013173615688 -8.880842636652229, 20.588277344853765 -8.510919468487753, 20.788252460316247 -8.095666862447882 M20.788252460316247 -8.095666862447882 C20.961750037593486 -7.667124492225636, 21.13524761487073 -7.23858212200339, 21.269368440995205 -6.907301088426162 M20.788252460316247 -8.095666862447882 C20.884587582150886 -7.85771724900345, 20.980922703985524 -7.619767635559017, 21.269368440995205 -6.907301088426162 M21.269368440995205 -6.907301088426162 C21.415082627246044 -6.468433175841369, 21.56079681349688 -6.029565263256576, 21.67335706073321 -5.690551732620655 M21.269368440995205 -6.907301088426162 C21.3607543263237 -6.6320613621802185, 21.4521402116522 -6.356821635934274, 21.67335706073321 -5.690551732620655 M21.67335706073321 -5.690551732620655 C21.782754752156116 -5.273370921965734, 21.892152443579022 -4.856190111310813, 21.998558243636474 -4.45041867912629 M21.67335706073321 -5.690551732620655 C21.744541041678374 -5.419096361944244, 21.81572502262354 -5.147640991267833, 21.998558243636474 -4.45041867912629 M21.998558243636474 -4.45041867912629 C22.076457364802227 -4.050423155925238, 22.154356485967977 -3.650427632724186, 22.243635668289002 -3.191997900667592 M21.998558243636474 -4.45041867912629 C22.069003141758277 -4.088699015805317, 22.13944803988008 -3.726979352484344, 22.243635668289002 -3.191997900667592 M22.243635668289002 -3.191997900667592 C22.304518666765446 -2.719801387192208, 22.365401665241887 -2.247604873716824, 22.407582258983965 -1.920460518153639 M22.243635668289002 -3.191997900667592 C22.286570495443726 -2.859003859696151, 22.32950532259845 -2.5260098187247104, 22.407582258983965 -1.920460518153639 M22.407582258983965 -1.920460518153639 C22.425383972769442 -1.6431844566600964, 22.44318568655492 -1.3659083951665538, 22.489724324013757 -0.6410315514331033 M22.407582258983965 -1.920460518153639 C22.428034802501596 -1.6018956438705658, 22.448487346019224 -1.2833307695874927, 22.489724324013757 -0.6410315514331033 M22.489724324013757 -0.6410315514331033 C22.489724324013757 -0.18426943160594283, 22.489724324013757 0.27249268822121764, 22.489724324013757 0.6410315514330984 M22.489724324013757 -0.6410315514331033 C22.489724324013757 -0.24592479837925052, 22.489724324013757 0.14918195467460227, 22.489724324013757 0.6410315514330984 M22.489724324013757 0.6410315514330984 C22.467691466299545 0.9842110949345808, 22.445658608585337 1.327390638436063, 22.407582258983965 1.9204605181536252 M22.489724324013757 0.6410315514330984 C22.47045374136967 0.941186431049107, 22.45118315872558 1.2413413106651157, 22.407582258983965 1.9204605181536252 M22.407582258983965 1.9204605181536252 C22.374773055271376 2.174922223238365, 22.34196385155879 2.4293839283231047, 22.243635668289002 3.191997900667578 M22.407582258983965 1.9204605181536252 C22.37390998599528 2.1816160181114768, 22.340237713006594 2.4427715180693284, 22.243635668289002 3.191997900667578 M22.243635668289002 3.191997900667578 C22.172949697014296 3.5549554236778707, 22.102263725739594 3.9179129466881637, 21.998558243636474 4.450418679126286 M22.243635668289002 3.191997900667578 C22.187087914471334 3.4823586651493024, 22.130540160653666 3.7727194296310262, 21.998558243636474 4.450418679126286 M21.998558243636474 4.450418679126286 C21.926713655255416 4.724393232264826, 21.85486906687436 4.998367785403366, 21.673357060733213 5.690551732620641 M21.998558243636474 4.450418679126286 C21.93010005188531 4.711479434241447, 21.861641860134153 4.972540189356607, 21.673357060733213 5.690551732620641 M21.673357060733213 5.690551732620641 C21.571610950544002 5.996994805469391, 21.46986484035479 6.303437878318141, 21.26936844099521 6.9073010884261485 M21.673357060733213 5.690551732620641 C21.581698292896544 5.966613337503271, 21.490039525059878 6.242674942385903, 21.26936844099521 6.9073010884261485 M21.26936844099521 6.9073010884261485 C21.16338643096383 7.16907870222643, 21.057404420932446 7.430856316026711, 20.78825246031625 8.095666862447876 M21.26936844099521 6.9073010884261485 C21.107067331071967 7.308187967815053, 20.944766221148722 7.709074847203957, 20.78825246031625 8.095666862447876 M20.78825246031625 8.095666862447876 C20.67658108853006 8.327554855346486, 20.56490971674387 8.559442848245096, 20.231986127460004 9.250765804816702 M20.78825246031625 8.095666862447876 C20.65094108864245 8.38079686372122, 20.51362971696865 8.66592686499456, 20.231986127460004 9.250765804816702 M20.231986127460004 9.250765804816702 C20.03083189591361 9.60793551200201, 19.82967766436722 9.965105219187318, 19.602855260106924 10.367851366210498 M20.231986127460004 9.250765804816702 C20.006940275961153 9.650357502516458, 19.781894424462305 10.049949200216215, 19.602855260106924 10.367851366210498 M19.602855260106924 10.367851366210498 C19.443946970239928 10.611977172296795, 19.285038680372935 10.856102978383092, 18.903445091939123 11.442333202443386 M19.602855260106924 10.367851366210498 C19.44562850007653 10.609393890913791, 19.288401740046137 10.850936415617085, 18.903445091939123 11.442333202443386 M18.903445091939123 11.442333202443386 C18.726604959192773 11.67928286985598, 18.54976482644642 11.916232537268574, 18.1366296493606 12.469796037174667 M18.903445091939123 11.442333202443386 C18.674240278767364 11.749446771105498, 18.44503546559561 12.05656033976761, 18.1366296493606 12.469796037174667 M18.1366296493606 12.469796037174667 C17.865749855498354 12.787986856542178, 17.594870061636108 13.106177675909686, 17.305559941506317 13.44601780522633 M18.1366296493606 12.469796037174667 C17.923494225435043 12.72015703386681, 17.71035880150949 12.970518030558955, 17.305559941506317 13.44601780522633 M17.305559941506317 13.44601780522633 C16.966290702803445 13.796341148709566, 16.627021464100572 14.146664492192803, 16.41365101206973 14.366987001954548 M17.305559941506317 13.44601780522633 C16.96919576196243 13.793341436618123, 16.63283158241854 14.140665068009916, 16.41365101206973 14.366987001954548 M16.41365101206973 14.366987001954548 C16.22221555849421 14.540843615787297, 16.030780104918684 14.714700229620044, 15.464567906155782 15.228919167382678 M16.41365101206973 14.366987001954548 C16.200773429898078 14.560316789650669, 15.987895847726422 14.75364657734679, 15.464567906155782 15.228919167382678 M15.464567906155782 15.228919167382678 C15.197122795764939 15.442199525906094, 14.929677685374093 15.655479884429509, 14.462210609824325 16.02827243735913 M15.464567906155782 15.228919167382678 C15.102162605632095 15.517927750540249, 14.739757305108409 15.806936333697822, 14.462210609824325 16.02827243735913 M14.462210609824325 16.02827243735913 C14.215730964079816 16.200205968298604, 13.969251318335308 16.37213949923808, 13.410698024210983 16.761762097836808 M14.462210609824325 16.02827243735913 C14.06191417342412 16.30750190283847, 13.661617737023915 16.586731368317807, 13.410698024210983 16.761762097836808 M13.410698024210983 16.761762097836808 C12.976688150959003 17.024861433527278, 12.542678277707022 17.287960769217747, 12.314351040078757 17.426374082467788 M13.410698024210983 16.761762097836808 C13.11321195495728 16.942099901240596, 12.815725885703575 17.122437704644383, 12.314351040078757 17.426374082467788 M12.314351040078757 17.426374082467788 C12.066434116495309 17.555712182702905, 11.818517192911862 17.685050282938022, 11.177674782351165 18.01937735804838 M12.314351040078757 17.426374082467788 C11.931472819530159 17.626121404882788, 11.54859459898156 17.825868727297784, 11.177674782351165 18.01937735804838 M11.177674782351165 18.01937735804838 C10.894401018386265 18.144774250337992, 10.611127254421366 18.270171142627607, 10.00534009758749 18.53833514692043 M11.177674782351165 18.01937735804838 C10.77257621434583 18.198702477282282, 10.367477646340495 18.37802759651618, 10.00534009758749 18.53833514692043 M10.00534009758749 18.53833514692043 C9.718463378878903 18.64390843126451, 9.431586660170316 18.749481715608585, 8.802164360472426 18.981114940213367 M10.00534009758749 18.53833514692043 C9.704331390641896 18.649109133570395, 9.403322683696302 18.75988312022036, 8.802164360472426 18.981114940213367 M8.802164360472426 18.981114940213367 C8.405799250054244 19.098754024422565, 8.009434139636062 19.21639310863176, 7.573091678190166 19.345897260780585 M8.802164360472426 18.981114940213367 C8.474824637665515 19.078267651701193, 8.147484914858602 19.175420363189016, 7.573091678190166 19.345897260780585 M7.573091678190166 19.345897260780585 C7.196588586124396 19.43183163463231, 6.820085494058626 19.51776600848404, 6.323172574027452 19.631183139821307 M7.573091678190166 19.345897260780585 C7.190067708523727 19.43331998239196, 6.807043738857287 19.520742704003336, 6.323172574027452 19.631183139821307 M6.323172574027452 19.631183139821307 C6.011856689737612 19.681514277702547, 5.700540805447772 19.73184541558379, 5.057543233690131 19.835800276464923 M6.323172574027452 19.631183139821307 C5.875405633715118 19.70357462624652, 5.427638693402786 19.775966112671735, 5.057543233690131 19.835800276464923 M5.057543233690131 19.835800276464923 C4.733820901488926 19.86702938051931, 4.41009856928772 19.89825848457369, 3.781404399614257 19.95890785500673 M5.057543233690131 19.835800276464923 C4.6068081660388875 19.87928214635301, 4.156073098387645 19.922764016241096, 3.781404399614257 19.95890785500673 M3.781404399614257 19.95890785500673 C3.473232048735022 19.968790342478332, 3.1650596978557877 19.97867282994994, 2.5000000000000036 20 M3.781404399614257 19.95890785500673 C3.4651820057758838 19.969048491687573, 3.14895961193751 19.97918912836842, 2.5000000000000036 20 M2.5000000000000036 20 C2.500000000000002 20, 2.500000000000001 20, 2.5 20 M2.5000000000000036 20 C2.500000000000002 20, 2.500000000000001 20, 2.5 20 M2.5 20 C-6.864189967496243 20, -16.228379934992486 20, -22.5 20 M2.5 20 C-5.196563955808151 20, -12.893127911616302 20, -22.5 20 M-22.5 20 C-22.5 11.980736575712827, -22.5 3.961473151425654, -22.5 -20 M-22.5 20 C-22.5 6.950182069786862, -22.5 -6.099635860426275, -22.5 -20" stroke="currentColor" stroke-width="2" fill="none" vector-effect="non-scaling-stroke"/></g></g></g></g></g><linearGradient id="s2m-shape-delay-gradient" gradientUnits="objectBoundingBox" x1="0%" y1="0%" x2="100%" y2="0%"><stop offset="0%" stop-color="hsl(40.5882352941, 60%, 83.3333333333%)" stop-opacity="1"/><stop offset="100%" stop-color="hsl(-79.4117647059, 60%, 83.3333333333%)" stop-opacity="1"/></linearGradient></svg>