<svg id="s2m-shape-delay" width="100%" xmlns="http://www.w3.org/2000/svg" class="flowchart" style="max-width: 76px;" viewBox="-8 -8 76 46" role="graphics-document document" aria-roledescription="flowchart-v2"><g><marker id="s2m-shape-delay_flowchart-v2-pointEnd" class="marker flowchart-v2" viewBox="0 0 10 10" refX="5" refY="5" markerUnits="userSpaceOnUse" markerWidth="8" markerHeight="8" orient="auto"><path d="M 0 0 L 10 5 L 0 10 z" class="arrowMarkerPath" style="stroke-width: 1; stroke-dasharray: 1,0;"/></marker><marker id="s2m-shape-delay_flowchart-v2-pointStart" class="marker flowchart-v2" viewBox="0 0 10 10" refX="4.5" refY="5" markerUnits="userSpaceOnUse" markerWidth="8" markerHeight="8" orient="auto"><path d="M 0 5 L 10 10 L 10 0 z" class="arrowMarkerPath" style="stroke-width: 1; stroke-dasharray: 1,0;"/></marker><marker id="s2m-shape-delay_flowchart-v2-pointEnd-margin" class="marker flowchart-v2" viewBox="0 0 11.5 14" refX="11.5" refY="7" markerUnits="userSpaceOnUse" markerWidth="10.5" markerHeight="14" orient="auto"><path d="M 0 0 L 11.5 7 L 0 14 z" class="arrowMarkerPath" style="stroke-width: 0; stroke-dasharray: 1,0;"/></marker><marker id="s2m-shape-delay_flowchart-v2-pointStart-margin" class="marker flowchart-v2" viewBox="0 0 11.5 14" refX="1" refY="7" markerUnits="userSpaceOnUse" markerWidth="11.5" markerHeight="14" orient="auto"><polygon points="0,7 11.5,14 11.5,0" class="arrowMarkerPath" style="stroke-width: 0; stroke-dasharray: 1,0;"/></marker><marker id="s2m-shape-delay_flowchart-v2-circleEnd" class="marker flowchart-v2" viewBox="0 0 10 10" refX="11" refY="5" markerUnits="userSpaceOnUse" markerWidth="11" markerHeight="11" orient="auto"><circle cx="5" cy="5" r="5" class="arrowMarkerPath" style="stroke-width: 1; stroke-dasharray: 1,0;"/></marker><marker id="s2m-shape-delay_flowchart-v2-circleStart" class="marker flowchart-v2" viewBox="0 0 10 10" refX="-1" refY="5" markerUnits="userSpaceOnUse" markerWidth="11" markerHeight="11" orient="auto"><circle cx="5" cy="5" r="5" class="arrowMarkerPath" style="stroke-width: 1; stroke-dasharray: 1,0;"/></marker><marker id="s2m-shape-delay_flowchart-v2-circleEnd-margin" class="marker flowchart-v2" viewBox="0 0 10 10" refY="5" refX="12.25" markerUnits="userSpaceOnUse" markerWidth="14" markerHeight="14" orient="auto"><circle cx="5" cy="5" r="5" class="arrowMarkerPath" style="stroke-width: 0; stroke-dasharray: 1,0;"/></marker><marker id="s2m-shape-delay_flowchart-v2-circleStart-margin" class="marker flowchart-v2" viewBox="0 0 10 10" refX="-2" refY="5" markerUnits="userSpaceOnUse" markerWidth="14" markerHeight="14" orient="auto"><circle cx="5" cy="5" r="5" class="arrowMarkerPath" style="stroke-width: 0; stroke-dasharray: 1,0;"/></marker><marker id="s2m-shape-delay_flowchart-v2-crossEnd" class="marker cross flowchart-v2" viewBox="0 0 11 11" refX="12" refY="5.2" markerUnits="userSpaceOnUse" markerWidth="11" markerHeight="11" orient="auto"><path d="M 1,1 l 9,9 M 10,1 l -9,9" class="arrowMarkerPath" style="stroke-width: 2; stroke-dasharray: 1,0;"/></marker><marker id="s2m-shape-delay_flowchart-v2-crossStart" class="marker cross flowchart-v2" viewBox="0 0 11 11" refX="-1" refY="5.2" markerUnits="userSpaceOnUse" markerWidth="11" markerHeight="11" orient="auto"><path d="M 1,1 l 9,9 M 10,1 l -9,9" class="arrowMarkerPath" style="stroke-width: 2; stroke-dasharray: 1,0;"/></marker><marker id="s2m-shape-delay_flowchart-v2-crossEnd-margin" class="marker cross flowchart-v2" viewBox="0 0 15 15" refX="17.7" refY="7.5" markerUnits="userSpaceOnUse" markerWidth="12" markerHeight="12" orient="auto"><path d="M 1,1 L 14,14 M 1,14 L 14,1" class="arrowMarkerPath" style="stroke-width: 2.5;"/></marker><marker id="s2m-shape-delay_flowchart-v2-crossStart-margin" class="marker cross flowchart-v2" viewBox="0 0 15 15" refX="-3.5" refY="7.5" markerUnits="userSpaceOnUse" markerWidth="12" markerHeight="12" orient="auto"><path d="M 1,1 L 14,14 M 1,14 L 14,1" class="arrowMarkerPath" style="stroke-width: 2.5; stroke-dasharray: 1,0;"/></marker><g class="root"><g class="clusters"/><g class="edgePaths"/><g class="edgeLabels"/><g class="nodes"><g class="node default" data-look="classic" transform="translate(38, 23)"><g class="basic label-container outer-path"><path d="M-22.5 -20 C-16.839005763921072 -20, -11.178011527842148 -20, 2.5 -20 M-22.5 -20 C-17.032365964230735 -20, -11.564731928461466 -20, 2.5 -20 M2.5 -20 C2.4999999999999996 -20, 2.499999999999999 -20, 2.4999999999999987 -20 M2.5 -20 C2.4999999999999996 -20, 2.499999999999999 -20, 2.4999999999999987 -20 M2.4999999999999987 -20 C2.76611563326958 -19.991466189603702, 3.0322312665391618 -19.982932379207405, 3.7814043996142566 -19.95890785500673 M2.4999999999999987 -20 C2.770717849585875 -19.99131860548411, 3.0414356991717506 -19.982637210968218, 3.7814043996142566 -19.95890785500673 M3.7814043996142566 -19.95890785500673 C4.194164917176377 -19.91908934429466, 4.606925434738498 -19.879270833582595, 5.057543233690118 -19.835800276464923 M3.7814043996142566 -19.95890785500673 C4.248919107098778 -19.913807273444394, 4.716433814583299 -19.86870669188206, 5.057543233690118 -19.835800276464923 M5.057543233690118 -19.835800276464923 C5.414568588048877 -19.778079185945174, 5.771593942407637 -19.720358095425425, 6.323172574027443 -19.631183139821307 M5.057543233690118 -19.835800276464923 C5.325056664997934 -19.792550779488717, 5.592570096305749 -19.749301282512516, 6.323172574027443 -19.631183139821307 M6.323172574027443 -19.631183139821307 C6.789790494714181 -19.524680644391058, 7.256408415400918 -19.41817814896081, 7.573091678190144 -19.34589726078059 M6.323172574027443 -19.631183139821307 C6.7736917113825745 -19.528355086632118, 7.224210848737706 -19.42552703344293, 7.573091678190144 -19.34589726078059 M7.573091678190144 -19.34589726078059 C7.8695311158802825 -19.257915591716518, 8.165970553570421 -19.169933922652447, 8.802164360472414 -18.981114940213374 M7.573091678190144 -19.34589726078059 C8.036284835043134 -19.20842396317712, 8.499477991896123 -19.070950665573644, 8.802164360472414 -18.981114940213374 M8.802164360472414 -18.981114940213374 C9.153715694282784 -18.851740799666253, 9.505267028093154 -18.72236665911913, 10.005340097587482 -18.538335146920435 M8.802164360472414 -18.981114940213374 C9.151303858747967 -18.852628377437828, 9.500443357023522 -18.72414181466228, 10.005340097587482 -18.538335146920435 M10.005340097587482 -18.538335146920435 C10.46410616860846 -18.335253016091425, 10.922872239629438 -18.132170885262415, 11.177674782351161 -18.019377358048384 M10.005340097587482 -18.538335146920435 C10.258277187860012 -18.426367400168985, 10.511214278132542 -18.31439965341753, 11.177674782351161 -18.019377358048384 M11.177674782351161 -18.019377358048384 C11.484671045733212 -17.85921760408246, 11.79166730911526 -17.699057850116535, 12.314351040078751 -17.42637408246779 M11.177674782351161 -18.019377358048384 C11.520511531331886 -17.840519645702557, 11.86334828031261 -17.661661933356733, 12.314351040078751 -17.42637408246779 M12.314351040078751 -17.42637408246779 C12.674012072803878 -17.208345450826986, 13.033673105529006 -16.99031681918618, 13.410698024210973 -16.761762097836815 M12.314351040078751 -17.42637408246779 C12.692318721475694 -17.197247852820322, 13.070286402872638 -16.968121623172852, 13.410698024210973 -16.761762097836815 M13.410698024210973 -16.761762097836815 C13.824009901545613 -16.47345362419097, 14.237321778880256 -16.185145150545125, 14.46221060982432 -16.02827243735913 M13.410698024210973 -16.761762097836815 C13.683584149487288 -16.571408549894027, 13.956470274763603 -16.38105500195124, 14.46221060982432 -16.02827243735913 M14.46221060982432 -16.02827243735913 C14.842787236061065 -15.724772705504682, 15.22336386229781 -15.421272973650234, 15.464567906155764 -15.22891916738269 M14.46221060982432 -16.02827243735913 C14.85232042791143 -15.717170238692905, 15.242430245998541 -15.40606804002668, 15.464567906155764 -15.22891916738269 M15.464567906155764 -15.22891916738269 C15.670073340089933 -15.042284569659502, 15.8755787740241 -14.855649971936312, 16.413651012069728 -14.366987001954552 M15.464567906155764 -15.22891916738269 C15.815960633289679 -14.90979358994175, 16.167353360423594 -14.59066801250081, 16.413651012069728 -14.366987001954552 M16.413651012069728 -14.366987001954552 C16.766326660404232 -14.002820439839958, 17.119002308738732 -13.638653877725364, 17.30555994150631 -13.44601780522634 M16.413651012069728 -14.366987001954552 C16.651087733939594 -14.121814092706513, 16.88852445580946 -13.876641183458474, 17.30555994150631 -13.44601780522634 M17.30555994150631 -13.44601780522634 C17.584452913725826 -13.118414250597612, 17.863345885945346 -12.790810695968881, 18.136629649360593 -12.469796037174671 M17.30555994150631 -13.44601780522634 C17.50985971816331 -13.206035662578415, 17.714159494820308 -12.966053519930488, 18.136629649360593 -12.469796037174671 M18.136629649360593 -12.469796037174671 C18.323791052016258 -12.21901680837063, 18.510952454671923 -11.96823757956659, 18.903445091939112 -11.442333202443397 M18.136629649360593 -12.469796037174671 C18.359031168433788 -12.171798262811791, 18.58143268750698 -11.873800488448913, 18.903445091939112 -11.442333202443397 M18.903445091939112 -11.442333202443397 C19.14441432557282 -11.072139750282632, 19.385383559206534 -10.701946298121866, 19.60285526010692 -10.367851366210504 M18.903445091939112 -11.442333202443397 C19.141596640875992 -11.076468470631248, 19.379748189812872 -10.710603738819097, 19.60285526010692 -10.367851366210504 M19.60285526010692 -10.367851366210504 C19.83700989296881 -9.952086104836544, 20.071164525830692 -9.536320843462585, 20.23198612746 -9.250765804816705 M19.60285526010692 -10.367851366210504 C19.749447369143244 -10.107562232555837, 19.896039478179567 -9.84727309890117, 20.23198612746 -9.250765804816705 M20.23198612746 -9.250765804816705 C20.375201849637815 -8.953375293388918, 20.518417571815625 -8.65598478196113, 20.788252460316247 -8.095666862447882 M20.23198612746 -9.250765804816705 C20.424151297750388 -8.851730717032746, 20.61631646804078 -8.452695629248787, 20.788252460316247 -8.095666862447882 M20.788252460316247 -8.095666862447882 C20.895695690040508 -7.830280007755428, 21.003138919764766 -7.564893153062975, 21.269368440995205 -6.907301088426162 M20.788252460316247 -8.095666862447882 C20.94458350181705 -7.709526167485829, 21.100914543317852 -7.323385472523776, 21.269368440995205 -6.907301088426162 M21.269368440995205 -6.907301088426162 C21.405174288272374 -6.4982755141506345, 21.540980135549542 -6.089249939875106, 21.67335706073321 -5.690551732620655 M21.269368440995205 -6.907301088426162 C21.370729450969172 -6.602017876068342, 21.47209046094314 -6.296734663710522, 21.67335706073321 -5.690551732620655 M21.67335706073321 -5.690551732620655 C21.796031299516514 -5.222741692788514, 21.918705538299818 -4.7549316529563725, 21.998558243636474 -4.45041867912629 M21.67335706073321 -5.690551732620655 C21.738521739455507 -5.442050570102129, 21.803686418177804 -5.193549407583603, 21.998558243636474 -4.45041867912629 M21.998558243636474 -4.45041867912629 C22.093044555751028 -3.9652514361071827, 22.187530867865583 -3.4800841930880755, 22.243635668289002 -3.191997900667592 M21.998558243636474 -4.45041867912629 C22.069050976160185 -4.088453396261328, 22.139543708683895 -3.726488113396365, 22.243635668289002 -3.191997900667592 M22.243635668289002 -3.191997900667592 C22.29221565284288 -2.8152211336707125, 22.340795637396763 -2.438444366673833, 22.407582258983965 -1.920460518153639 M22.243635668289002 -3.191997900667592 C22.289059399413443 -2.8397004119967115, 22.334483130537883 -2.4874029233258312, 22.407582258983965 -1.920460518153639 M22.407582258983965 -1.920460518153639 C22.43717187512808 -1.4595783624007803, 22.466761491272194 -0.9986962066479216, 22.489724324013757 -0.6410315514331033 M22.407582258983965 -1.920460518153639 C22.425327183876703 -1.6440689895036833, 22.44307210876944 -1.3676774608537277, 22.489724324013757 -0.6410315514331033 M22.489724324013757 -0.6410315514331033 C22.489724324013757 -0.32059733443526117, 22.489724324013757 -0.00016311743741903584, 22.489724324013757 0.6410315514330984 M22.489724324013757 -0.6410315514331033 C22.489724324013757 -0.3775975636180931, 22.489724324013757 -0.1141635758030829, 22.489724324013757 0.6410315514330984 M22.489724324013757 0.6410315514330984 C22.467035929228082 0.994421613962613, 22.44434753444241 1.3478116764921275, 22.407582258983965 1.9204605181536252 M22.489724324013757 0.6410315514330984 C22.462420260156083 1.066314385460021, 22.43511619629841 1.4915972194869438, 22.407582258983965 1.9204605181536252 M22.407582258983965 1.9204605181536252 C22.361074102633616 2.2811685947326676, 22.314565946283267 2.64187667131171, 22.243635668289002 3.191997900667578 M22.407582258983965 1.9204605181536252 C22.367811912103633 2.228911475014196, 22.3280415652233 2.537362431874767, 22.243635668289002 3.191997900667578 M22.243635668289002 3.191997900667578 C22.191981424705126 3.457231524342542, 22.140327181121247 3.722465148017506, 21.998558243636474 4.450418679126286 M22.243635668289002 3.191997900667578 C22.167785036018188 3.5814748663414036, 22.091934403747373 3.9709518320152295, 21.998558243636474 4.450418679126286 M21.998558243636474 4.450418679126286 C21.91818957548796 4.756899242777668, 21.837820907339452 5.063379806429049, 21.673357060733213 5.690551732620641 M21.998558243636474 4.450418679126286 C21.909500783371307 4.790033372864798, 21.82044332310614 5.12964806660331, 21.673357060733213 5.690551732620641 M21.673357060733213 5.690551732620641 C21.53423193868053 6.109574433665408, 21.395106816627845 6.528597134710174, 21.26936844099521 6.9073010884261485 M21.673357060733213 5.690551732620641 C21.570247714551424 6.001100655076869, 21.46713836836964 6.311649577533099, 21.26936844099521 6.9073010884261485 M21.26936844099521 6.9073010884261485 C21.113721124182057 7.291752970190787, 20.95807380736891 7.6762048519554265, 20.78825246031625 8.095666862447876 M21.26936844099521 6.9073010884261485 C21.113440451410156 7.292446237363825, 20.957512461825104 7.6775913863015015, 20.78825246031625 8.095666862447876 M20.78825246031625 8.095666862447876 C20.66255851477261 8.356673029788848, 20.536864569228968 8.617679197129819, 20.231986127460004 9.250765804816702 M20.78825246031625 8.095666862447876 C20.64854241043237 8.385777770347945, 20.50883236054849 8.675888678248013, 20.231986127460004 9.250765804816702 M20.231986127460004 9.250765804816702 C20.03477844239174 9.60092801909893, 19.837570757323473 9.95109023338116, 19.602855260106924 10.367851366210498 M20.231986127460004 9.250765804816702 C20.068235813561234 9.541521068661288, 19.904485499662464 9.832276332505876, 19.602855260106924 10.367851366210498 M19.602855260106924 10.367851366210498 C19.453021707259882 10.598035939326056, 19.30318815441284 10.828220512441614, 18.903445091939123 11.442333202443386 M19.602855260106924 10.367851366210498 C19.394732300335054 10.687584121259965, 19.186609340563184 11.007316876309433, 18.903445091939123 11.442333202443386 M18.903445091939123 11.442333202443386 C18.716200863219896 11.69322341062699, 18.52895663450067 11.944113618810594, 18.1366296493606 12.469796037174667 M18.903445091939123 11.442333202443386 C18.729567209397697 11.675313724447927, 18.555689326856267 11.908294246452469, 18.1366296493606 12.469796037174667 M18.1366296493606 12.469796037174667 C17.92974745070825 12.71281163964231, 17.722865252055893 12.95582724210995, 17.305559941506317 13.44601780522633 M18.1366296493606 12.469796037174667 C17.85091944669724 12.805407498594134, 17.565209244033877 13.1410189600136, 17.305559941506317 13.44601780522633 M17.305559941506317 13.44601780522633 C17.030401106876504 13.73014189294207, 16.755242272246686 14.014265980657813, 16.41365101206973 14.366987001954548 M17.305559941506317 13.44601780522633 C17.118458445551404 13.639215461118276, 16.93135694959649 13.832413117010223, 16.41365101206973 14.366987001954548 M16.41365101206973 14.366987001954548 C16.145830757417002 14.610214271094527, 15.878010502764274 14.853441540234506, 15.464567906155782 15.228919167382678 M16.41365101206973 14.366987001954548 C16.123089315396008 14.630867447032411, 15.832527618722285 14.894747892110274, 15.464567906155782 15.228919167382678 M15.464567906155782 15.228919167382678 C15.196701926508553 15.44253515793826, 14.928835946861323 15.65615114849384, 14.462210609824325 16.02827243735913 M15.464567906155782 15.228919167382678 C15.238965949112744 15.408830724604293, 15.013363992069705 15.588742281825908, 14.462210609824325 16.02827243735913 M14.462210609824325 16.02827243735913 C14.164431778758212 16.235990059273014, 13.866652947692101 16.443707681186897, 13.410698024210983 16.761762097836808 M14.462210609824325 16.02827243735913 C14.131480028333755 16.25897577391083, 13.800749446843184 16.489679110462532, 13.410698024210983 16.761762097836808 M13.410698024210983 16.761762097836808 C13.173264391370386 16.905695761379683, 12.935830758529788 17.049629424922557, 12.314351040078757 17.426374082467788 M13.410698024210983 16.761762097836808 C13.178730078809654 16.902382429534054, 12.946762133408322 17.0430027612313, 12.314351040078757 17.426374082467788 M12.314351040078757 17.426374082467788 C11.898052678478669 17.643556671062726, 11.48175431687858 17.860739259657667, 11.177674782351165 18.01937735804838 M12.314351040078757 17.426374082467788 C11.994192482766994 17.59340059674599, 11.674033925455232 17.760427111024196, 11.177674782351165 18.01937735804838 M11.177674782351165 18.01937735804838 C10.737837845777136 18.21408012257055, 10.298000909203108 18.40878288709272, 10.00534009758749 18.53833514692043 M11.177674782351165 18.01937735804838 C10.906291842948576 18.139510535033036, 10.634908903545986 18.25964371201769, 10.00534009758749 18.53833514692043 M10.00534009758749 18.53833514692043 C9.636676153764515 18.674006886139424, 9.26801220994154 18.80967862535842, 8.802164360472426 18.981114940213367 M10.00534009758749 18.53833514692043 C9.681454347789515 18.657528096813138, 9.35756859799154 18.77672104670584, 8.802164360472426 18.981114940213367 M8.802164360472426 18.981114940213367 C8.44906742379791 19.085912257574723, 8.095970487123394 19.190709574936076, 7.573091678190166 19.345897260780585 M8.802164360472426 18.981114940213367 C8.314875553036178 19.1257397004293, 7.827586745599928 19.270364460645236, 7.573091678190166 19.345897260780585 M7.573091678190166 19.345897260780585 C7.254164783715819 19.41869024325187, 6.935237889241471 19.491483225723158, 6.323172574027452 19.631183139821307 M7.573091678190166 19.345897260780585 C7.128125671546268 19.4474578481225, 6.683159664902371 19.54901843546441, 6.323172574027452 19.631183139821307 M6.323172574027452 19.631183139821307 C5.893994206543461 19.70056936994817, 5.464815839059469 19.769955600075033, 5.057543233690131 19.835800276464923 M6.323172574027452 19.631183139821307 C5.9765147912846945 19.6872280817639, 5.629857008541938 19.743273023706493, 5.057543233690131 19.835800276464923 M5.057543233690131 19.835800276464923 C4.727402565311478 19.867648549691168, 4.397261896932824 19.89949682291741, 3.781404399614257 19.95890785500673 M5.057543233690131 19.835800276464923 C4.801557566981275 19.86049490586452, 4.54557190027242 19.885189535264114, 3.781404399614257 19.95890785500673 M3.781404399614257 19.95890785500673 C3.443378268257919 19.969747695111376, 3.1053521369015815 19.98058753521602, 2.5000000000000036 20 M3.781404399614257 19.95890785500673 C3.286141346061041 19.974789977163127, 2.7908782925078244 19.990672099319525, 2.5000000000000036 20 M2.5000000000000036 20 C2.5000000000000027 20, 2.5000000000000013 20, 2.5 20 M2.5000000000000036 20 C2.5000000000000027 20, 2.500000000000002 20, 2.5 20 M2.5 20 C-7.237490683605662 20, -16.974981367211324 20, -22.5 20 M2.5 20 C-3.253079373192657 20, -9.006158746385314 20, -22.5 20 M-22.5 20 C-22.5 10.26852526927729, -22.5 0.5370505385545812, -22.5 -20 M-22.5 20 C-22.5 10.206212932542995, -22.5 0.41242586508598933, -22.5 -20" stroke="currentColor" stroke-width="2" fill="none" vector-effect="non-scaling-stroke"/></g></g></g></g></g><linearGradient id="s2m-shape-delay-gradient" gradientUnits="objectBoundingBox" x1="0%" y1="0%" x2="100%" y2="0%"><stop offset="0%" stop-color="hsl(40.5882352941, 60%, 83.3333333333%)" stop-opacity="1"/><stop offset="100%" stop-color="hsl(-79.4117647059, 60%, 83.3333333333%)" stop-opacity="1"/></linearGradient></svg>