<svg id="s2m-shape-display" width="100%" xmlns="http://www.w3.org/2000/svg" class="flowchart" style="max-width: 76px;" viewBox="-21.30 -16.05 102.60 62.10" role="graphics-document document" aria-roledescription="flowchart-v2"><g><marker id="s2m-shape-display_flowchart-v2-pointEnd" class="marker flowchart-v2" viewBox="0 0 10 10" refX="5" refY="5" markerUnits="userSpaceOnUse" markerWidth="8" markerHeight="8" orient="auto"><path d="M 0 0 L 10 5 L 0 10 z" class="arrowMarkerPath" style="stroke-width: 1; stroke-dasharray: 1,0;"/></marker><marker id="s2m-shape-display_flowchart-v2-pointStart" class="marker flowchart-v2" viewBox="0 0 10 10" refX="4.5" refY="5" markerUnits="userSpaceOnUse" markerWidth="8" markerHeight="8" orient="auto"><path d="M 0 5 L 10 10 L 10 0 z" class="arrowMarkerPath" style="stroke-width: 1; stroke-dasharray: 1,0;"/></marker><marker id="s2m-shape-display_flowchart-v2-pointEnd-margin" class="marker flowchart-v2" viewBox="0 0 11.5 14" refX="11.5" refY="7" markerUnits="userSpaceOnUse" markerWidth="10.5" markerHeight="14" orient="auto"><path d="M 0 0 L 11.5 7 L 0 14 z" class="arrowMarkerPath" style="stroke-width: 0; stroke-dasharray: 1,0;"/></marker><marker id="s2m-shape-display_flowchart-v2-pointStart-margin" class="marker flowchart-v2" viewBox="0 0 11.5 14" refX="1" refY="7" markerUnits="userSpaceOnUse" markerWidth="11.5" markerHeight="14" orient="auto"><polygon points="0,7 11.5,14 11.5,0" class="arrowMarkerPath" style="stroke-width: 0; stroke-dasharray: 1,0;"/></marker><marker id="s2m-shape-display_flowchart-v2-circleEnd" class="marker flowchart-v2" viewBox="0 0 10 10" refX="11" refY="5" markerUnits="userSpaceOnUse" markerWidth="11" markerHeight="11" orient="auto"><circle cx="5" cy="5" r="5" class="arrowMarkerPath" style="stroke-width: 1; stroke-dasharray: 1,0;"/></marker><marker id="s2m-shape-display_flowchart-v2-circleStart" class="marker flowchart-v2" viewBox="0 0 10 10" refX="-1" refY="5" markerUnits="userSpaceOnUse" markerWidth="11" markerHeight="11" orient="auto"><circle cx="5" cy="5" r="5" class="arrowMarkerPath" style="stroke-width: 1; stroke-dasharray: 1,0;"/></marker><marker id="s2m-shape-display_flowchart-v2-circleEnd-margin" class="marker flowchart-v2" viewBox="0 0 10 10" refY="5" refX="12.25" markerUnits="userSpaceOnUse" markerWidth="14" markerHeight="14" orient="auto"><circle cx="5" cy="5" r="5" class="arrowMarkerPath" style="stroke-width: 0; stroke-dasharray: 1,0;"/></marker><marker id="s2m-shape-display_flowchart-v2-circleStart-margin" class="marker flowchart-v2" viewBox="0 0 10 10" refX="-2" refY="5" markerUnits="userSpaceOnUse" markerWidth="14" markerHeight="14" orient="auto"><circle cx="5" cy="5" r="5" class="arrowMarkerPath" style="stroke-width: 0; stroke-dasharray: 1,0;"/></marker><marker id="s2m-shape-display_flowchart-v2-crossEnd" class="marker cross flowchart-v2" viewBox="0 0 11 11" refX="12" refY="5.2" markerUnits="userSpaceOnUse" markerWidth="11" markerHeight="11" orient="auto"><path d="M 1,1 l 9,9 M 10,1 l -9,9" class="arrowMarkerPath" style="stroke-width: 2; stroke-dasharray: 1,0;"/></marker><marker id="s2m-shape-display_flowchart-v2-crossStart" class="marker cross flowchart-v2" viewBox="0 0 11 11" refX="-1" refY="5.2" markerUnits="userSpaceOnUse" markerWidth="11" markerHeight="11" orient="auto"><path d="M 1,1 l 9,9 M 10,1 l -9,9" class="arrowMarkerPath" style="stroke-width: 2; stroke-dasharray: 1,0;"/></marker><marker id="s2m-shape-display_flowchart-v2-crossEnd-margin" class="marker cross flowchart-v2" viewBox="0 0 15 15" refX="17.7" refY="7.5" markerUnits="userSpaceOnUse" markerWidth="12" markerHeight="12" orient="auto"><path d="M 1,1 L 14,14 M 1,14 L 14,1" class="arrowMarkerPath" style="stroke-width: 2.5;"/></marker><marker id="s2m-shape-display_flowchart-v2-crossStart-margin" class="marker cross flowchart-v2" viewBox="0 0 15 15" refX="-3.5" refY="7.5" markerUnits="userSpaceOnUse" markerWidth="12" markerHeight="12" orient="auto"><path d="M 1,1 L 14,14 M 1,14 L 14,1" class="arrowMarkerPath" style="stroke-width: 2.5; stroke-dasharray: 1,0;"/></marker><g class="root"><g class="clusters"/><g class="edgePaths"/><g class="edgeLabels"/><g class="nodes"><g class="node default" data-look="classic" transform="translate(38, 23)"><g class="basic label-container outer-path" transform="translate(-18.75, -15)"><path d="M22.5 0 C16.679168655357707 0, 10.85833731071541 0, 7.5 0 M22.5 0 C18.537686496918457 0, 14.575372993836917 0, 7.5 0 M7.5 0 C5.88658120204493 3.2268375959101414, 4.273162404089859 6.453675191820283, 0 15 M7.5 0 C5.38442744544503 4.23114510910994, 3.2688548908900597 8.46229021821988, 0 15 M0 15 C2.5680808440298524 20.136161688059705, 5.136161688059705 25.27232337611941, 7.5 30 M0 15 C2.0207618930053934 19.041523786010785, 4.041523786010787 23.083047572021574, 7.5 30 M7.5 30 C12.456293256545033 30, 17.412586513090066 30, 22.5 30 M7.5 30 C10.633973885589679 30, 13.767947771179358 30, 22.5 30 M22.5 30 C22.5 30, 22.500000000000004 30, 22.500000000000004 30 M22.5 30 C22.5 30, 22.500000000000004 30, 22.500000000000004 30 M22.500000000000004 30 C22.864660715763105 29.9883060406145, 23.22932143152621 29.976612081229, 23.46105329971069 29.969180891255043 M22.500000000000004 30 C22.854111999738286 29.988644317405587, 23.20822399947657 29.977288634811174, 23.46105329971069 29.969180891255043 M23.46105329971069 29.969180891255043 C23.84013323962937 29.932611505361418, 24.21921317954805 29.896042119467793, 24.418157425267598 29.87685020734869 M23.46105329971069 29.969180891255043 C23.840600030189965 29.932566474637436, 24.220146760669238 29.895952058019827, 24.418157425267598 29.87685020734869 M24.418157425267598 29.87685020734869 C24.655845841792804 29.838422587466095, 24.893534258318013 29.799994967583498, 25.36737943052059 29.72338735486598 M24.418157425267598 29.87685020734869 C24.759025397594186 29.821741317053533, 25.09989336992078 29.766632426758378, 25.36737943052059 29.72338735486598 M25.36737943052059 29.72338735486598 C25.63132496582861 29.66314350883751, 25.89527050113663 29.60289966280904, 26.30481875864261 29.50942294558544 M25.36737943052059 29.72338735486598 C25.659279251834224 29.656763125475493, 25.951179073147863 29.590138896085005, 26.30481875864261 29.50942294558544 M26.30481875864261 29.50942294558544 C26.625448105087802 29.414261838578295, 26.94607745153299 29.319100731571147, 27.226623270354306 29.235836205160034 M26.30481875864261 29.50942294558544 C26.49440547789521 29.453154602472267, 26.68399219714781 29.396886259359093, 27.226623270354306 29.235836205160034 M27.226623270354306 29.235836205160034 C27.579736904779345 29.105887123544964, 27.932850539204388 28.975938041929897, 28.12900507319062 28.903751360190327 M27.226623270354306 29.235836205160034 C27.581593228741525 29.10520397916721, 27.936563187128744 28.97457175317439, 28.12900507319062 28.903751360190327 M28.12900507319062 28.903751360190327 C28.39263383425003 28.787050727938666, 28.656262595309443 28.670350095687006, 29.008256086763375 28.514533018536284 M28.12900507319062 28.903751360190327 C28.477888586770284 28.749310977990326, 28.826772100349952 28.594870595790326, 29.008256086763375 28.514533018536284 M29.008256086763375 28.514533018536284 C29.32177842210776 28.35096861700776, 29.635300757452146 28.187404215479233, 29.860763280059068 28.06978056185084 M29.008256086763375 28.514533018536284 C29.19811987909305 28.415481199691456, 29.387983671422727 28.31642938084663, 29.860763280059068 28.06978056185084 M29.860763280059068 28.06978056185084 C30.14895858275397 27.895074875733606, 30.43715388544887 27.720369189616367, 30.683023518158226 27.571321573377613 M29.860763280059068 28.06978056185084 C30.035138257966018 27.964073425502534, 30.20951323587297 27.858366289154226, 30.683023518158226 27.571321573377613 M30.683023518158226 27.571321573377613 C30.906726052235072 27.41527636953223, 31.13042858631192 27.259231165686842, 31.471657957368244 27.021204328019348 M30.683023518158226 27.571321573377613 C30.9074248635178 27.41478890903245, 31.131826208877378 27.258256244687285, 31.471657957368244 27.021204328019348 M31.471657957368244 27.021204328019348 C31.658260117323987 26.872394071146665, 31.84486227727973 26.72358381427398, 32.22342592961682 26.421689375537017 M31.471657957368244 27.021204328019348 C31.67754621574039 26.857013920884217, 31.883434474112534 26.692823513749087, 32.22342592961682 26.421689375537017 M32.22342592961682 26.421689375537017 C32.450235267184674 26.215707136204124, 32.67704460475252 26.009724896871226, 32.9352382590523 25.77524025146591 M32.22342592961682 26.421689375537017 C32.365829768998545 26.292361976409662, 32.50823360838026 26.163034577282307, 32.9352382590523 25.77524025146591 M32.9352382590523 25.77524025146591 C33.185594456905285 25.516726922556593, 33.43595065475827 25.258213593647277, 33.60416995612973 25.084513353919753 M32.9352382590523 25.77524025146591 C33.08803852645103 25.617461430241455, 33.24083879384977 25.459682609017, 33.60416995612973 25.084513353919753 M33.60416995612973 25.084513353919753 C33.83468831394148 24.813733373967935, 34.065206671753224 24.542953394016116, 34.22747223702045 24.352347027881002 M33.60416995612973 25.084513353919753 C33.81962657386264 24.83142575090182, 34.03508319159556 24.578338147883887, 34.22747223702045 24.352347027881002 M34.22747223702045 24.352347027881002 C34.37217669391032 24.158456238495795, 34.51688115080019 23.96456544911059, 34.80258381895434 23.581749901832545 M34.22747223702045 24.352347027881002 C34.429877831358894 24.081141970996466, 34.63228342569734 23.809936914111933, 34.80258381895434 23.581749901832545 M34.80258381895434 23.581749901832545 C34.99922200357271 23.27966084551279, 35.195860188191084 22.977571789193036, 35.327141445080194 22.775888524657873 M34.80258381895434 23.581749901832545 C34.97808397366812 23.31213453580204, 35.1535841283819 23.042519169771538, 35.327141445080194 22.775888524657873 M35.327141445080194 22.775888524657873 C35.50477105111218 22.460489172200038, 35.682400657144164 22.145089819742203, 35.798989595595 21.938074353612524 M35.327141445080194 22.775888524657873 C35.433886875184406 22.586351204360945, 35.54063230528862 22.39681388406402, 35.798989595595 21.938074353612524 M35.798989595595 21.938074353612524 C35.91664315907333 21.693764211666792, 36.034296722551666 21.44945406972106, 36.21618934523719 21.071750146835907 M35.798989595595 21.938074353612524 C35.92772405176661 21.670754500896088, 36.05645850793821 21.403434648179648, 36.21618934523719 21.071750146835907 M36.21618934523719 21.071750146835907 C36.34133076688035 20.762648415932514, 36.466472188523504 20.453546685029117, 36.577026330746406 20.180475816319618 M36.21618934523719 21.071750146835907 C36.329376816889884 20.792174903522863, 36.44256428854257 20.51259966020982, 36.577026330746406 20.180475816319618 M36.577026330746406 20.180475816319618 C36.66861135644152 19.904636311018137, 36.760196382136634 19.628796805716657, 36.88001779554991 19.26791379946549 M36.577026330746406 20.180475816319618 C36.676698290106664 19.88027975529662, 36.77637024946692 19.580083694273625, 36.88001779554991 19.26791379946549 M36.88001779554991 19.26791379946549 C36.95465433393857 18.98329233090915, 37.02929087232724 18.698670862352813, 37.12391868272735 18.337814009344715 M36.88001779554991 19.26791379946549 C36.962836417499126 18.952090500155318, 37.04565503944834 18.636267200845147, 37.12391868272735 18.337814009344715 M37.12391868272735 18.337814009344715 C37.19261271604257 17.98508466676014, 37.26130674935779 17.632355324175567, 37.30772675121675 17.39399842550069 M37.12391868272735 18.337814009344715 C37.19627621952655 17.966273350651612, 37.26863375632576 17.59473269195851, 37.30772675121675 17.39399842550069 M37.30772675121675 17.39399842550069 C37.353814085348816 17.036554162945883, 37.39990141948089 16.679109900391072, 37.43068669423798 16.440345388615224 M37.30772675121675 17.39399842550069 C37.34410824973987 17.111830707294875, 37.38048974826299 16.829662989089055, 37.43068669423798 16.440345388615224 M37.43068669423798 16.440345388615224 C37.45496692854394 16.062161140647394, 37.47924716284991 15.68397689267956, 37.492293243010316 15.480773663574825 M37.43068669423798 16.440345388615224 C37.44902965292464 16.154639000900676, 37.4673726116113 15.868932613186125, 37.492293243010316 15.480773663574825 M37.492293243010316 15.480773663574825 C37.492293243010316 15.171259446488339, 37.492293243010316 14.861745229401853, 37.492293243010316 14.519226336425172 M37.492293243010316 15.480773663574825 C37.492293243010316 15.193513590940555, 37.492293243010316 14.906253518306283, 37.492293243010316 14.519226336425172 M37.492293243010316 14.519226336425172 C37.477553870409615 14.289648710761817, 37.462814497808914 14.060071085098462, 37.43068669423798 13.559654611384778 M37.492293243010316 14.519226336425172 C37.47864405963748 14.306629287970756, 37.46499487626465 14.094032239516341, 37.43068669423798 13.559654611384778 M37.43068669423798 13.559654611384778 C37.38902996934503 13.236573279165873, 37.34737324445209 12.91349194694697, 37.307726751216755 12.606001574499313 M37.43068669423798 13.559654611384778 C37.38299785945236 13.189789426013128, 37.33530902466674 12.819924240641479, 37.307726751216755 12.606001574499313 M37.307726751216755 12.606001574499313 C37.25079254066145 12.313656436347493, 37.193858330106146 12.021311298195672, 37.12391868272735 11.662185990655281 M37.307726751216755 12.606001574499313 C37.252573196566836 12.322799728079906, 37.19741964191692 12.039597881660498, 37.12391868272735 11.662185990655281 M37.12391868272735 11.662185990655281 C37.04738533344392 11.370331160074155, 36.97085198416049 11.078476329493027, 36.88001779554991 10.732086200534516 M37.12391868272735 11.662185990655281 C37.067003070583574 11.445142094168727, 37.010087458439806 11.228098197682174, 36.88001779554991 10.732086200534516 M36.88001779554991 10.732086200534516 C36.805984236432714 10.509108916119295, 36.731950677315524 10.286131631704073, 36.577026330746406 9.819524183680386 M36.88001779554991 10.732086200534516 C36.77097287845384 10.403660284189261, 36.66192796135777 10.075234367844008, 36.577026330746406 9.819524183680386 M36.577026330746406 9.819524183680386 C36.478987258789736 9.577365780490911, 36.38094818683307 9.335207377301437, 36.21618934523718 8.92824985316409 M36.577026330746406 9.819524183680386 C36.504099274550725 9.63939294492835, 36.43117221835505 9.459261706176312, 36.21618934523718 8.92824985316409 M36.21618934523718 8.92824985316409 C36.12495164188484 8.73879280997883, 36.0337139385325 8.549335766793572, 35.798989595595 8.061925646387472 M36.21618934523718 8.92824985316409 C36.05852856401912 8.600863867564467, 35.90086778280106 8.273477881964844, 35.798989595595 8.061925646387472 M35.798989595595 8.061925646387472 C35.65273364982457 7.802233404651618, 35.506477704054134 7.542541162915764, 35.32714144508019 7.224111475342123 M35.798989595595 8.061925646387472 C35.70376595762608 7.892846434734718, 35.60854231965716 7.723767223081963, 35.32714144508019 7.224111475342123 M35.32714144508019 7.224111475342123 C35.20955331207366 7.043464526209212, 35.09196517906714 6.862817577076302, 34.80258381895434 6.418250098167457 M35.32714144508019 7.224111475342123 C35.13928115743312 6.935507625965664, 34.95142086978605 6.646903776589205, 34.80258381895434 6.418250098167457 M34.80258381895434 6.418250098167457 C34.609538149545166 6.15958648798144, 34.416492480135986 5.9009228777954235, 34.22747223702044 5.647652972118996 M34.80258381895434 6.418250098167457 C34.66352838753801 6.231928488279991, 34.524472956121684 6.045606878392523, 34.22747223702044 5.647652972118996 M34.22747223702044 5.647652972118996 C33.990963024456185 5.369835793285576, 33.75445381189192 5.092018614452156, 33.60416995612974 4.91548664608025 M34.22747223702044 5.647652972118996 C34.03990319608847 5.42732370365951, 33.852334155156484 5.2069944352000235, 33.60416995612974 4.91548664608025 M33.60416995612974 4.91548664608025 C33.387781557392074 4.692047858565679, 33.17139315865441 4.468609071051108, 32.9352382590523 4.224759748534087 M33.60416995612974 4.91548664608025 C33.407559843803575 4.712470563113068, 33.21094973147741 4.509454480145885, 32.9352382590523 4.224759748534087 M32.9352382590523 4.224759748534087 C32.75859048081365 4.064332910181845, 32.58194270257501 3.903906071829602, 32.22342592961683 3.5783106244629845 M32.9352382590523 4.224759748534087 C32.652600292419436 3.9680754254289283, 32.36996232578658 3.7113911023237702, 32.22342592961683 3.5783106244629845 M32.22342592961683 3.5783106244629845 C31.959492696806528 3.367830894855065, 31.695559463996226 3.1573511652471455, 31.47165795736824 2.9787956719806505 M32.22342592961683 3.5783106244629845 C31.954547314623778 3.3638870841664685, 31.685668699630725 3.1494635438699525, 31.47165795736824 2.9787956719806505 M31.47165795736824 2.9787956719806505 C31.240194353209066 2.8173366816171415, 31.00873074904989 2.655877691253632, 30.683023518158233 2.428678426622392 M31.47165795736824 2.9787956719806505 C31.281566154828695 2.8461958594705696, 31.091474352289154 2.7135960469604887, 30.683023518158233 2.428678426622392 M30.683023518158233 2.428678426622392 C30.441025529925888 2.28197782401791, 30.19902754169354 2.1352772214134275, 29.860763280059068 1.9302194381491606 M30.683023518158233 2.428678426622392 C30.43979239739852 2.2812302918331295, 30.196561276638807 2.1337821570438673, 29.860763280059068 1.9302194381491606 M29.860763280059068 1.9302194381491606 C29.552533481440236 1.7694161496403231, 29.2443036828214 1.6086128611314856, 29.00825608676337 1.4854669814637127 M29.860763280059068 1.9302194381491606 C29.602814160973185 1.795647547946351, 29.3448650418873 1.6610756577435415, 29.00825608676337 1.4854669814637127 M29.00825608676337 1.4854669814637127 C28.80998031473533 1.397696178828701, 28.61170454270729 1.3099253761936893, 28.129005073190616 1.096248639809673 M29.00825608676337 1.4854669814637127 C28.785997410032238 1.3870796583442329, 28.563738733301104 1.2886923352247528, 28.129005073190616 1.096248639809673 M28.129005073190616 1.096248639809673 C27.778005400772454 0.9670775157543856, 27.42700572835429 0.8379063916990983, 27.22662327035431 0.7641637948399698 M28.129005073190616 1.096248639809673 C27.829567236649314 0.9860527479894561, 27.53012940010801 0.8758568561692393, 27.22662327035431 0.7641637948399698 M27.22662327035431 0.7641637948399698 C26.92897474865163 0.6758232759875878, 26.631326226948953 0.587482757135206, 26.304818758642615 0.49057705441456 M27.22662327035431 0.7641637948399698 C27.020288267454518 0.7029246490538434, 26.813953264554726 0.6416855032677172, 26.304818758642615 0.49057705441456 M26.304818758642615 0.49057705441456 C26.020289680329416 0.42563514901532784, 25.735760602016214 0.36069324361609567, 25.367379430520586 0.2766126451340192 M26.304818758642615 0.49057705441456 C26.041855656764913 0.4305574424055822, 25.77889255488721 0.3705378303966044, 25.367379430520586 0.2766126451340192 M25.367379430520586 0.2766126451340192 C25.098833077832555 0.23319615343948785, 24.830286725144525 0.18977966174495653, 24.418157425267594 0.12314979265130965 M25.367379430520586 0.2766126451340192 C25.128866454244417 0.2380517168254451, 24.89035347796825 0.19949078851687102, 24.418157425267594 0.12314979265130965 M24.418157425267594 0.12314979265130965 C24.105120655886797 0.09295151199094004, 23.792083886505996 0.06275323133057044, 23.461053299710695 0.030819108744955415 M24.418157425267594 0.12314979265130965 C24.176986353149488 0.0998843093747257, 23.935815281031378 0.07661882609814175, 23.461053299710695 0.030819108744955415 M23.461053299710695 0.030819108744955415 C23.225332287238558 0.023259994678090846, 22.989611274766425 0.015700880611226275, 22.5 0 M23.461053299710695 0.030819108744955415 C23.256181766149936 0.024249277421910704, 23.051310232589177 0.017679446098865993, 22.5 0 M22.5 0 C22.5 0, 22.5 0, 22.5 0 M22.5 0 C22.5 0, 22.5 0, 22.5 0" stroke="currentColor" stroke-width="2" fill="none" vector-effect="non-scaling-stroke"/></g></g></g></g></g><linearGradient id="s2m-shape-display-gradient" gradientUnits="objectBoundingBox" x1="0%" y1="0%" x2="100%" y2="0%"><stop offset="0%" stop-color="hsl(40.5882352941, 60%, 83.3333333333%)" stop-opacity="1"/><stop offset="100%" stop-color="hsl(-79.4117647059, 60%, 83.3333333333%)" stop-opacity="1"/></linearGradient></svg>