<svg id="s2m-shape-display" width="100%" xmlns="http://www.w3.org/2000/svg" class="flowchart" style="max-width: 76px;" viewBox="-8 -8 76 46" role="graphics-document document" aria-roledescription="flowchart-v2"><g><marker id="s2m-shape-display_flowchart-v2-pointEnd" class="marker flowchart-v2" viewBox="0 0 10 10" refX="5" refY="5" markerUnits="userSpaceOnUse" markerWidth="8" markerHeight="8" orient="auto"><path d="M 0 0 L 10 5 L 0 10 z" class="arrowMarkerPath" style="stroke-width: 1; stroke-dasharray: 1,0;"/></marker><marker id="s2m-shape-display_flowchart-v2-pointStart" class="marker flowchart-v2" viewBox="0 0 10 10" refX="4.5" refY="5" markerUnits="userSpaceOnUse" markerWidth="8" markerHeight="8" orient="auto"><path d="M 0 5 L 10 10 L 10 0 z" class="arrowMarkerPath" style="stroke-width: 1; stroke-dasharray: 1,0;"/></marker><marker id="s2m-shape-display_flowchart-v2-pointEnd-margin" class="marker flowchart-v2" viewBox="0 0 11.5 14" refX="11.5" refY="7" markerUnits="userSpaceOnUse" markerWidth="10.5" markerHeight="14" orient="auto"><path d="M 0 0 L 11.5 7 L 0 14 z" class="arrowMarkerPath" style="stroke-width: 0; stroke-dasharray: 1,0;"/></marker><marker id="s2m-shape-display_flowchart-v2-pointStart-margin" class="marker flowchart-v2" viewBox="0 0 11.5 14" refX="1" refY="7" markerUnits="userSpaceOnUse" markerWidth="11.5" markerHeight="14" orient="auto"><polygon points="0,7 11.5,14 11.5,0" class="arrowMarkerPath" style="stroke-width: 0; stroke-dasharray: 1,0;"/></marker><marker id="s2m-shape-display_flowchart-v2-circleEnd" class="marker flowchart-v2" viewBox="0 0 10 10" refX="11" refY="5" markerUnits="userSpaceOnUse" markerWidth="11" markerHeight="11" orient="auto"><circle cx="5" cy="5" r="5" class="arrowMarkerPath" style="stroke-width: 1; stroke-dasharray: 1,0;"/></marker><marker id="s2m-shape-display_flowchart-v2-circleStart" class="marker flowchart-v2" viewBox="0 0 10 10" refX="-1" refY="5" markerUnits="userSpaceOnUse" markerWidth="11" markerHeight="11" orient="auto"><circle cx="5" cy="5" r="5" class="arrowMarkerPath" style="stroke-width: 1; stroke-dasharray: 1,0;"/></marker><marker id="s2m-shape-display_flowchart-v2-circleEnd-margin" class="marker flowchart-v2" viewBox="0 0 10 10" refY="5" refX="12.25" markerUnits="userSpaceOnUse" markerWidth="14" markerHeight="14" orient="auto"><circle cx="5" cy="5" r="5" class="arrowMarkerPath" style="stroke-width: 0; stroke-dasharray: 1,0;"/></marker><marker id="s2m-shape-display_flowchart-v2-circleStart-margin" class="marker flowchart-v2" viewBox="0 0 10 10" refX="-2" refY="5" markerUnits="userSpaceOnUse" markerWidth="14" markerHeight="14" orient="auto"><circle cx="5" cy="5" r="5" class="arrowMarkerPath" style="stroke-width: 0; stroke-dasharray: 1,0;"/></marker><marker id="s2m-shape-display_flowchart-v2-crossEnd" class="marker cross flowchart-v2" viewBox="0 0 11 11" refX="12" refY="5.2" markerUnits="userSpaceOnUse" markerWidth="11" markerHeight="11" orient="auto"><path d="M 1,1 l 9,9 M 10,1 l -9,9" class="arrowMarkerPath" style="stroke-width: 2; stroke-dasharray: 1,0;"/></marker><marker id="s2m-shape-display_flowchart-v2-crossStart" class="marker cross flowchart-v2" viewBox="0 0 11 11" refX="-1" refY="5.2" markerUnits="userSpaceOnUse" markerWidth="11" markerHeight="11" orient="auto"><path d="M 1,1 l 9,9 M 10,1 l -9,9" class="arrowMarkerPath" style="stroke-width: 2; stroke-dasharray: 1,0;"/></marker><marker id="s2m-shape-display_flowchart-v2-crossEnd-margin" class="marker cross flowchart-v2" viewBox="0 0 15 15" refX="17.7" refY="7.5" markerUnits="userSpaceOnUse" markerWidth="12" markerHeight="12" orient="auto"><path d="M 1,1 L 14,14 M 1,14 L 14,1" class="arrowMarkerPath" style="stroke-width: 2.5;"/></marker><marker id="s2m-shape-display_flowchart-v2-crossStart-margin" class="marker cross flowchart-v2" viewBox="0 0 15 15" refX="-3.5" refY="7.5" markerUnits="userSpaceOnUse" markerWidth="12" markerHeight="12" orient="auto"><path d="M 1,1 L 14,14 M 1,14 L 14,1" class="arrowMarkerPath" style="stroke-width: 2.5; stroke-dasharray: 1,0;"/></marker><g class="root"><g class="clusters"/><g class="edgePaths"/><g class="edgeLabels"/><g class="nodes"><g class="node default" data-look="classic" transform="translate(38, 23)"><g class="basic label-container outer-path" transform="translate(-18.75, -15)"><path d="M22.5 0 C16.640385317396635 0, 10.780770634793274 0, 7.5 0 M22.5 0 C19.118839877089084 0, 15.737679754178165 0, 7.5 0 M7.5 0 C5.794524265841197 3.410951468317606, 4.089048531682394 6.821902936635212, 0 15 M7.5 0 C5.166568540397877 4.666862919204246, 2.833137080795754 9.333725838408492, 0 15 M0 15 C1.8998887659878227 18.799777531975646, 3.7997775319756455 22.599555063951293, 7.5 30 M0 15 C2.3843722813701356 19.76874456274027, 4.768744562740271 24.53748912548054, 7.5 30 M7.5 30 C11.62348769013759 30, 15.746975380275183 30, 22.5 30 M7.5 30 C11.199414033813063 30, 14.898828067626127 30, 22.5 30 M22.5 30 C22.5 30, 22.5 30, 22.500000000000004 30 M22.5 30 C22.5 30, 22.500000000000004 30, 22.500000000000004 30 M22.500000000000004 30 C22.854938620723 29.98861780927953, 23.209877241445998 29.977235618559053, 23.46105329971069 29.969180891255043 M22.500000000000004 30 C22.85359285762246 29.988660965282794, 23.20718571524491 29.977321930565584, 23.46105329971069 29.969180891255043 M23.46105329971069 29.969180891255043 C23.75219625368558 29.941094680635715, 24.043339207660466 29.91300847001639, 24.418157425267598 29.87685020734869 M23.46105329971069 29.969180891255043 C23.693523175275725 29.946754801945215, 23.925993050840763 29.924328712635386, 24.418157425267598 29.87685020734869 M24.418157425267598 29.87685020734869 C24.774347539872295 29.819264151914997, 25.130537654476996 29.761678096481305, 25.36737943052059 29.72338735486598 M24.418157425267598 29.87685020734869 C24.745077639271525 29.823996282452658, 25.07199785327545 29.77114235755663, 25.36737943052059 29.72338735486598 M25.36737943052059 29.72338735486598 C25.68617046538571 29.650625381463932, 26.004961500250836 29.577863408061887, 26.30481875864261 29.50942294558544 M25.36737943052059 29.72338735486598 C25.681554434893908 29.651678960301275, 25.995729439267226 29.579970565736566, 26.30481875864261 29.50942294558544 M26.30481875864261 29.50942294558544 C26.62044219853649 29.415747565366182, 26.936065638430367 29.322072185146926, 27.226623270354306 29.235836205160034 M26.30481875864261 29.50942294558544 C26.56656451885876 29.43173817788482, 26.828310279074906 29.354053410184203, 27.226623270354306 29.235836205160034 M27.226623270354306 29.235836205160034 C27.5511646653397 29.11640197177764, 27.875706060325093 28.99696773839525, 28.12900507319062 28.903751360190327 M27.226623270354306 29.235836205160034 C27.47570816593252 29.144170661071716, 27.724793061510734 29.0525051169834, 28.12900507319062 28.903751360190327 M28.12900507319062 28.903751360190327 C28.308138841226402 28.824454154895314, 28.487272609262188 28.7451569496003, 29.008256086763375 28.514533018536284 M28.12900507319062 28.903751360190327 C28.393783860764337 28.786541645315108, 28.658562648338055 28.669331930439885, 29.008256086763375 28.514533018536284 M29.008256086763375 28.514533018536284 C29.233322705548503 28.39711590767813, 29.45838932433363 28.279698796819982, 29.860763280059068 28.06978056185084 M29.008256086763375 28.514533018536284 C29.340820164781533 28.34103455205167, 29.673384242799692 28.167536085567054, 29.860763280059068 28.06978056185084 M29.860763280059068 28.06978056185084 C30.039372427538293 27.96150664702508, 30.21798157501752 27.853232732199313, 30.683023518158226 27.571321573377613 M29.860763280059068 28.06978056185084 C30.122983447216164 27.910821155543463, 30.385203614373257 27.751861749236085, 30.683023518158226 27.571321573377613 M30.683023518158226 27.571321573377613 C30.94955303054074 27.385402123416206, 31.216082542923253 27.199482673454796, 31.471657957368244 27.021204328019348 M30.683023518158226 27.571321573377613 C30.931227360761177 27.39818531734897, 31.179431203364132 27.225049061320323, 31.471657957368244 27.021204328019348 M31.471657957368244 27.021204328019348 C31.751340983019286 26.798164557740527, 32.03102400867033 26.575124787461704, 32.22342592961682 26.421689375537017 M31.471657957368244 27.021204328019348 C31.64686012532151 26.881485261402112, 31.822062293274776 26.741766194784876, 32.22342592961682 26.421689375537017 M32.22342592961682 26.421689375537017 C32.41540145599428 26.2473422818751, 32.607376982371726 26.072995188213184, 32.9352382590523 25.77524025146591 M32.22342592961682 26.421689375537017 C32.376316076884194 26.282838589040413, 32.52920622415157 26.14398780254381, 32.9352382590523 25.77524025146591 M32.9352382590523 25.77524025146591 C33.14993451141799 25.5535487440082, 33.36463076378368 25.331857236550487, 33.60416995612973 25.084513353919753 M32.9352382590523 25.77524025146591 C33.139907311726056 25.563902650938523, 33.34457636439982 25.352565050411137, 33.60416995612973 25.084513353919753 M33.60416995612973 25.084513353919753 C33.83736793461512 24.810585739049934, 34.070565913100516 24.536658124180114, 34.22747223702045 24.352347027881002 M33.60416995612973 25.084513353919753 C33.75623636079605 24.90588750217514, 33.90830276546238 24.72726165043053, 34.22747223702045 24.352347027881002 M34.22747223702045 24.352347027881002 C34.37195847835958 24.15874862745394, 34.51644471969872 23.965150227026875, 34.80258381895434 23.581749901832545 M34.22747223702045 24.352347027881002 C34.368901127384795 24.162845199229746, 34.51033001774915 23.97334337057849, 34.80258381895434 23.581749901832545 M34.80258381895434 23.581749901832545 C34.923351677089464 23.396218041026355, 35.04411953522459 23.210686180220165, 35.327141445080194 22.775888524657873 M34.80258381895434 23.581749901832545 C34.99275514385796 23.289595678629624, 35.18292646876159 22.9974414554267, 35.327141445080194 22.775888524657873 M35.327141445080194 22.775888524657873 C35.458594014069135 22.542481177402, 35.59004658305808 22.309073830146122, 35.798989595595 21.938074353612524 M35.327141445080194 22.775888524657873 C35.4521906960956 22.553850916870267, 35.577239947111 22.331813309082662, 35.798989595595 21.938074353612524 M35.798989595595 21.938074353612524 C35.889083936773396 21.750991526445503, 35.97917827795179 21.563908699278482, 36.21618934523719 21.071750146835907 M35.798989595595 21.938074353612524 C35.89244409487427 21.744014086253177, 35.98589859415353 21.54995381889383, 36.21618934523719 21.071750146835907 M36.21618934523719 21.071750146835907 C36.344276018590676 20.755373587265424, 36.47236269194417 20.43899702769494, 36.577026330746406 20.180475816319618 M36.21618934523719 21.071750146835907 C36.29208028794041 20.884298051107397, 36.367971230643626 20.696845955378887, 36.577026330746406 20.180475816319618 M36.577026330746406 20.180475816319618 C36.657698038645016 19.937505485420147, 36.738369746543626 19.694535154520675, 36.88001779554991 19.26791379946549 M36.577026330746406 20.180475816319618 C36.696505430216874 19.82062380512388, 36.81598452968734 19.46077179392814, 36.88001779554991 19.26791379946549 M36.88001779554991 19.26791379946549 C36.93214525092298 19.06912921994592, 36.98427270629604 18.870344640426353, 37.12391868272735 18.337814009344715 M36.88001779554991 19.26791379946549 C36.95205137507095 18.99321854120091, 37.02408495459199 18.71852328293633, 37.12391868272735 18.337814009344715 M37.12391868272735 18.337814009344715 C37.18648337889224 18.016557517591206, 37.24904807505714 17.6953010258377, 37.30772675121675 17.39399842550069 M37.12391868272735 18.337814009344715 C37.161653067844675 18.144055916932373, 37.199387452962 17.950297824520035, 37.30772675121675 17.39399842550069 M37.30772675121675 17.39399842550069 C37.35416859209551 17.033804678623795, 37.400610432974275 16.6736109317469, 37.43068669423798 16.440345388615224 M37.30772675121675 17.39399842550069 C37.33719014495989 17.165486161834064, 37.366653538703034 16.936973898167437, 37.43068669423798 16.440345388615224 M37.43068669423798 16.440345388615224 C37.452922989927124 16.093997134441842, 37.47515928561628 15.747648880268464, 37.492293243010316 15.480773663574825 M37.43068669423798 16.440345388615224 C37.45024989609017 16.135632728634924, 37.46981309794237 15.830920068654622, 37.492293243010316 15.480773663574825 M37.492293243010316 15.480773663574825 C37.492293243010316 15.107213202115531, 37.492293243010316 14.733652740656236, 37.492293243010316 14.519226336425172 M37.492293243010316 15.480773663574825 C37.492293243010316 15.228154597712388, 37.492293243010316 14.975535531849953, 37.492293243010316 14.519226336425172 M37.492293243010316 14.519226336425172 C37.474944535250465 14.249006209440573, 37.45759582749061 13.978786082455972, 37.43068669423798 13.559654611384778 M37.492293243010316 14.519226336425172 C37.46995162522138 14.171237605533166, 37.447610007432445 13.823248874641159, 37.43068669423798 13.559654611384778 M37.43068669423798 13.559654611384778 C37.39144602613569 13.255311738529802, 37.3522053580334 12.950968865674826, 37.307726751216755 12.606001574499313 M37.43068669423798 13.559654611384778 C37.397015135021334 13.298504647301922, 37.363343575804684 13.037354683219066, 37.307726751216755 12.606001574499313 M37.307726751216755 12.606001574499313 C37.23828347863358 12.249425046625595, 37.16884020605041 11.892848518751878, 37.12391868272735 11.662185990655281 M37.307726751216755 12.606001574499313 C37.23489673295688 12.232034823364664, 37.162066714697 11.858068072230017, 37.12391868272735 11.662185990655281 M37.12391868272735 11.662185990655281 C37.06853902632976 11.45099935911635, 37.01315936993217 11.239812727577418, 36.88001779554991 10.732086200534516 M37.12391868272735 11.662185990655281 C37.03625330097352 11.327879895611131, 36.94858791921969 10.99357380056698, 36.88001779554991 10.732086200534516 M36.88001779554991 10.732086200534516 C36.77960726898869 10.429665692776922, 36.67919674242747 10.127245185019326, 36.577026330746406 9.819524183680386 M36.88001779554991 10.732086200534516 C36.78900065796512 10.457957083740636, 36.697983520380326 10.183827966946756, 36.577026330746406 9.819524183680386 M36.577026330746406 9.819524183680386 C36.470939489959804 9.557487635887947, 36.3648526491732 9.29545108809551, 36.21618934523718 8.92824985316409 M36.577026330746406 9.819524183680386 C36.477321981755196 9.573252514019645, 36.377617632763986 9.326980844358905, 36.21618934523718 8.92824985316409 M36.21618934523718 8.92824985316409 C36.0686801975447 8.6219439517905, 35.92117104985222 8.315638050416911, 35.798989595595 8.061925646387472 M36.21618934523718 8.92824985316409 C36.10388708003231 8.69505179658263, 35.99158481482744 8.461853740001173, 35.798989595595 8.061925646387472 M35.798989595595 8.061925646387472 C35.68038722769575 7.851335132390315, 35.56178485979651 7.6407446183931595, 35.32714144508019 7.224111475342123 M35.798989595595 8.061925646387472 C35.64072768005318 7.780915589586245, 35.48246576451135 7.499905532785018, 35.32714144508019 7.224111475342123 M35.32714144508019 7.224111475342123 C35.14413229391971 6.942960274321617, 34.961123142759234 6.661809073301112, 34.80258381895434 6.418250098167457 M35.32714144508019 7.224111475342123 C35.15974444536236 6.966944731387179, 34.992347445644526 6.7097779874322345, 34.80258381895434 6.418250098167457 M34.80258381895434 6.418250098167457 C34.66811849436691 6.238078813263373, 34.53365316977947 6.057907528359289, 34.22747223702044 5.647652972118996 M34.80258381895434 6.418250098167457 C34.62899201415875 6.185652894280116, 34.455400209363155 5.953055690392775, 34.22747223702044 5.647652972118996 M34.22747223702044 5.647652972118996 C34.07023941654734 5.462958354390345, 33.913006596074226 5.278263736661695, 33.60416995612974 4.91548664608025 M34.22747223702044 5.647652972118996 C34.04265734624253 5.430558885146054, 33.857842455464606 5.213464798173112, 33.60416995612974 4.91548664608025 M33.60416995612974 4.91548664608025 C33.3736011694659 4.677405443800404, 33.14303238280207 4.439324241520558, 32.9352382590523 4.224759748534087 M33.60416995612974 4.91548664608025 C33.35424754432582 4.657421236881099, 33.10432513252191 4.399355827681949, 32.9352382590523 4.224759748534087 M32.9352382590523 4.224759748534087 C32.76199596001688 4.067425676290174, 32.58875366098147 3.9100916040462623, 32.22342592961683 3.5783106244629845 M32.9352382590523 4.224759748534087 C32.74799242071367 4.054708032408347, 32.56074658237505 3.884656316282607, 32.22342592961683 3.5783106244629845 M32.22342592961683 3.5783106244629845 C31.931388596267066 3.345418622556369, 31.6393512629173 3.1125266206497537, 31.47165795736824 2.9787956719806505 M32.22342592961683 3.5783106244629845 C31.962103075393742 3.3699126023132764, 31.700780221170653 3.1615145801635687, 31.47165795736824 2.9787956719806505 M31.47165795736824 2.9787956719806505 C31.209576723033493 2.7959791482225116, 30.94749548869875 2.6131626244643726, 30.683023518158233 2.428678426622392 M31.47165795736824 2.9787956719806505 C31.232473308581866 2.8119508151238426, 30.993288659795493 2.645105958267034, 30.683023518158233 2.428678426622392 M30.683023518158233 2.428678426622392 C30.40844574578811 2.2622277674135267, 30.13386797341799 2.0957771082046612, 29.860763280059068 1.9302194381491606 M30.683023518158233 2.428678426622392 C30.50822452967063 2.32271425256833, 30.33342554118303 2.216750078514268, 29.860763280059068 1.9302194381491606 M29.860763280059068 1.9302194381491606 C29.607097146132705 1.7978819785606903, 29.353431012206343 1.6655445189722202, 29.00825608676337 1.4854669814637127 M29.860763280059068 1.9302194381491606 C29.678699411495252 1.8352368345368903, 29.496635542931433 1.74025423092462, 29.00825608676337 1.4854669814637127 M29.00825608676337 1.4854669814637127 C28.732488300543658 1.363392762864974, 28.45672051432394 1.2413185442662353, 28.129005073190616 1.096248639809673 M29.00825608676337 1.4854669814637127 C28.708770113687336 1.3528934251186964, 28.4092841406113 1.22031986877368, 28.129005073190616 1.096248639809673 M28.129005073190616 1.096248639809673 C27.906792131128704 1.014472223016971, 27.684579189066792 0.932695806224269, 27.22662327035431 0.7641637948399698 M28.129005073190616 1.096248639809673 C27.854572694469862 0.9952549876153369, 27.580140315749112 0.894261335421001, 27.22662327035431 0.7641637948399698 M27.22662327035431 0.7641637948399698 C26.92039598431119 0.673277143762198, 26.61416869826807 0.5823904926844264, 26.304818758642615 0.49057705441456 M27.22662327035431 0.7641637948399698 C26.876419514820643 0.6602251584546022, 26.526215759286973 0.5562865220692347, 26.304818758642615 0.49057705441456 M26.304818758642615 0.49057705441456 C25.97259587501206 0.41474934918280726, 25.640372991381504 0.33892164395105456, 25.367379430520586 0.2766126451340192 M26.304818758642615 0.49057705441456 C26.095490955800578 0.4427993494074373, 25.886163152958545 0.3950216444003147, 25.367379430520586 0.2766126451340192 M25.367379430520586 0.2766126451340192 C25.159820190711358 0.24305607688760855, 24.952260950902133 0.20949950864119793, 24.418157425267594 0.12314979265130965 M25.367379430520586 0.2766126451340192 C25.006448254431792 0.2182600916470583, 24.645517078342998 0.15990753816009745, 24.418157425267594 0.12314979265130965 M24.418157425267594 0.12314979265130965 C24.21763885485073 0.10380600732205807, 24.01712028443386 0.08446222199280648, 23.461053299710695 0.030819108744955415 M24.418157425267594 0.12314979265130965 C24.13699518923213 0.09602640988802966, 23.855832953196668 0.06890302712474965, 23.461053299710695 0.030819108744955415 M23.461053299710695 0.030819108744955415 C23.156057021788566 0.021038471751233707, 22.851060743866437 0.011257834757511999, 22.5 0 M23.461053299710695 0.030819108744955415 C23.09339610727661 0.019029058184906356, 22.725738914842523 0.0072390076248573, 22.5 0 M22.5 0 C22.5 0, 22.5 0, 22.5 0 M22.5 0 C22.5 0, 22.5 0, 22.5 0" stroke="currentColor" stroke-width="2" fill="none" vector-effect="non-scaling-stroke"/></g></g></g></g></g><linearGradient id="s2m-shape-display-gradient" gradientUnits="objectBoundingBox" x1="0%" y1="0%" x2="100%" y2="0%"><stop offset="0%" stop-color="hsl(40.5882352941, 60%, 83.3333333333%)" stop-opacity="1"/><stop offset="100%" stop-color="hsl(-79.4117647059, 60%, 83.3333333333%)" stop-opacity="1"/></linearGradient></svg>