<svg id="s2m-shape-documents" width="100%" xmlns="http://www.w3.org/2000/svg" class="flowchart" style="max-width: 76px;" viewBox="-21.30 -16.05 102.60 62.10" role="graphics-document document" aria-roledescription="flowchart-v2"><g><marker id="s2m-shape-documents_flowchart-v2-pointEnd" class="marker flowchart-v2" viewBox="0 0 10 10" refX="5" refY="5" markerUnits="userSpaceOnUse" markerWidth="8" markerHeight="8" orient="auto"><path d="M 0 0 L 10 5 L 0 10 z" class="arrowMarkerPath" style="stroke-width: 1; stroke-dasharray: 1,0;"/></marker><marker id="s2m-shape-documents_flowchart-v2-pointStart" class="marker flowchart-v2" viewBox="0 0 10 10" refX="4.5" refY="5" markerUnits="userSpaceOnUse" markerWidth="8" markerHeight="8" orient="auto"><path d="M 0 5 L 10 10 L 10 0 z" class="arrowMarkerPath" style="stroke-width: 1; stroke-dasharray: 1,0;"/></marker><marker id="s2m-shape-documents_flowchart-v2-pointEnd-margin" class="marker flowchart-v2" viewBox="0 0 11.5 14" refX="11.5" refY="7" markerUnits="userSpaceOnUse" markerWidth="10.5" markerHeight="14" orient="auto"><path d="M 0 0 L 11.5 7 L 0 14 z" class="arrowMarkerPath" style="stroke-width: 0; stroke-dasharray: 1,0;"/></marker><marker id="s2m-shape-documents_flowchart-v2-pointStart-margin" class="marker flowchart-v2" viewBox="0 0 11.5 14" refX="1" refY="7" markerUnits="userSpaceOnUse" markerWidth="11.5" markerHeight="14" orient="auto"><polygon points="0,7 11.5,14 11.5,0" class="arrowMarkerPath" style="stroke-width: 0; stroke-dasharray: 1,0;"/></marker><marker id="s2m-shape-documents_flowchart-v2-circleEnd" class="marker flowchart-v2" viewBox="0 0 10 10" refX="11" refY="5" markerUnits="userSpaceOnUse" markerWidth="11" markerHeight="11" orient="auto"><circle cx="5" cy="5" r="5" class="arrowMarkerPath" style="stroke-width: 1; stroke-dasharray: 1,0;"/></marker><marker id="s2m-shape-documents_flowchart-v2-circleStart" class="marker flowchart-v2" viewBox="0 0 10 10" refX="-1" refY="5" markerUnits="userSpaceOnUse" markerWidth="11" markerHeight="11" orient="auto"><circle cx="5" cy="5" r="5" class="arrowMarkerPath" style="stroke-width: 1; stroke-dasharray: 1,0;"/></marker><marker id="s2m-shape-documents_flowchart-v2-circleEnd-margin" class="marker flowchart-v2" viewBox="0 0 10 10" refY="5" refX="12.25" markerUnits="userSpaceOnUse" markerWidth="14" markerHeight="14" orient="auto"><circle cx="5" cy="5" r="5" class="arrowMarkerPath" style="stroke-width: 0; stroke-dasharray: 1,0;"/></marker><marker id="s2m-shape-documents_flowchart-v2-circleStart-margin" class="marker flowchart-v2" viewBox="0 0 10 10" refX="-2" refY="5" markerUnits="userSpaceOnUse" markerWidth="14" markerHeight="14" orient="auto"><circle cx="5" cy="5" r="5" class="arrowMarkerPath" style="stroke-width: 0; stroke-dasharray: 1,0;"/></marker><marker id="s2m-shape-documents_flowchart-v2-crossEnd" class="marker cross flowchart-v2" viewBox="0 0 11 11" refX="12" refY="5.2" markerUnits="userSpaceOnUse" markerWidth="11" markerHeight="11" orient="auto"><path d="M 1,1 l 9,9 M 10,1 l -9,9" class="arrowMarkerPath" style="stroke-width: 2; stroke-dasharray: 1,0;"/></marker><marker id="s2m-shape-documents_flowchart-v2-crossStart" class="marker cross flowchart-v2" viewBox="0 0 11 11" refX="-1" refY="5.2" markerUnits="userSpaceOnUse" markerWidth="11" markerHeight="11" orient="auto"><path d="M 1,1 l 9,9 M 10,1 l -9,9" class="arrowMarkerPath" style="stroke-width: 2; stroke-dasharray: 1,0;"/></marker><marker id="s2m-shape-documents_flowchart-v2-crossEnd-margin" class="marker cross flowchart-v2" viewBox="0 0 15 15" refX="17.7" refY="7.5" markerUnits="userSpaceOnUse" markerWidth="12" markerHeight="12" orient="auto"><path d="M 1,1 L 14,14 M 1,14 L 14,1" class="arrowMarkerPath" style="stroke-width: 2.5;"/></marker><marker id="s2m-shape-documents_flowchart-v2-crossStart-margin" class="marker cross flowchart-v2" viewBox="0 0 15 15" refX="-3.5" refY="7.5" markerUnits="userSpaceOnUse" markerWidth="12" markerHeight="12" orient="auto"><path d="M 1,1 L 14,14 M 1,14 L 14,1" class="arrowMarkerPath" style="stroke-width: 2.5; stroke-dasharray: 1,0;"/></marker><g class="root"><g class="clusters"/><g class="edgePaths"/><g class="edgeLabels"/><g class="nodes"><g class="node default" data-look="classic" transform="translate(38, 23)"><g class="basic label-container outer-path" transform="translate(0,-2.8125)"><path d="M-25 -13.90625 C-25 4.844775858712087, -25 23.595801717424173, -25 33.90625 M-25 -13.90625 C-25 -3.6386442399780865, -25 6.628961520043827, -25 33.90625 M-25 33.90625 C-25 33.90625, -25 33.90625, -25 33.90625 M-25 33.90625 C-25 33.90625, -25 33.90625, -25 33.90625 M-25 33.90625 C-24.780923789802863 34.11237685129834, -24.561847579605722 34.318503702596686, -24.4 34.470784646038084 M-25 33.90625 C-24.834985417759334 34.0615107479606, -24.669970835518665 34.21677149592119, -24.4 34.470784646038084 M-24.4 34.470784646038084 C-24.209373377043367 34.64833237460033, -24.018746754086735 34.82588010316257, -23.8 35.02961864039354 M-24.4 34.470784646038084 C-24.26030642534401 34.60089384322275, -24.120612850688016 34.731003040407415, -23.8 35.02961864039354 M-23.8 35.02961864039354 C-23.596853141284782 35.2149868498585, -23.393706282569564 35.40035505932346, -23.2 35.577108896370824 M-23.8 35.02961864039354 C-23.660363101558765 35.157035042512646, -23.52072620311753 35.284451444631756, -23.2 35.577108896370824 M-23.2 35.577108896370824 C-23.06137729090476 35.69970173274614, -22.922754581809517 35.82229456912147, -22.6 36.10772687595926 M-23.2 35.577108896370824 C-22.980615465339188 35.77112452726194, -22.76123093067838 35.965140158153055, -22.6 36.10772687595926 M-22.6 36.10772687595926 C-22.40566912058414 36.27238587245918, -22.211338241168274 36.437044868959106, -22 36.61611441682215 M-22.6 36.10772687595926 C-22.398646500732436 36.27833622652055, -22.197293001464875 36.44894557708184, -22 36.61611441682215 M-22 36.61611441682215 C-21.878754664484003 36.71331749381109, -21.757509328968005 36.81052057080004, -21.4 37.09713783883801 M-22 36.61611441682215 C-21.78148314650185 36.791300624551845, -21.562966293003697 36.96648683228155, -21.4 37.09713783883801 M-21.4 37.09713783883801 C-21.219257672658088 37.23233368559316, -21.038515345316174 37.367529532348314, -20.8 37.545939783828125 M-21.4 37.09713783883801 C-21.16479380531985 37.27307283491496, -20.929587610639704 37.449007830991924, -20.8 37.545939783828125 M-20.8 37.545939783828125 C-20.617032183226844 37.6715924688343, -20.434064366453683 37.79724515384047, -20.2 37.957988264994476 M-20.8 37.545939783828125 C-20.67901196766719 37.629028008764855, -20.55802393533438 37.71211623370159, -20.2 37.957988264994476 M-20.2 37.957988264994476 C-19.99314235153432 38.08594149965661, -19.786284703068638 38.21389473431875, -19.6 38.32912243076848 M-20.2 37.957988264994476 C-20.042128090333616 38.055641030816446, -19.884256180667233 38.153293796638415, -19.6 38.32912243076848 M-19.6 38.32912243076848 C-19.373764339933768 38.45222183475064, -19.147528679867538 38.5753212387328, -19 38.655594580948836 M-19.6 38.32912243076848 C-19.477421439655906 38.39581990770439, -19.354842879311807 38.462517384640314, -19 38.655594580948836 M-19 38.655594580948836 C-18.782325767617117 38.75663657605258, -18.564651535234233 38.85767857115632, -18.4 38.934108010850856 M-19 38.655594580948836 C-18.8496464644097 38.725387045774085, -18.699292928819407 38.79517951059933, -18.4 38.934108010850856 M-18.4 38.934108010850856 C-18.244728475653183 38.993044498516085, -18.08945695130637 39.05198098618131, -17.8 39.16185030131844 M-18.4 38.934108010850856 C-18.211212267020002 39.0057662620526, -18.022424534040006 39.07742451325434, -17.8 39.16185030131844 M-17.8 39.16185030131844 C-17.623423464235966 39.21325509087147, -17.44684692847193 39.2646598804245, -17.2 39.33652171843717 M-17.8 39.16185030131844 C-17.629032354436177 39.21162223620525, -17.45806470887235 39.26139417109206, -17.2 39.33652171843717 M-17.2 39.33652171843717 C-17.031774718865872 39.370120994321624, -16.863549437731745 39.40372027020608, -16.6 39.45635843616926 M-17.2 39.33652171843717 C-17.07980816443593 39.36052737689082, -16.959616328871864 39.38453303534448, -16.6 39.45635843616926 M-16.6 39.45635843616926 C-16.425205378706462 39.47494257444717, -16.25041075741292 39.493526712725085, -16 39.52015034740903 M-16.6 39.45635843616926 C-16.367166310541464 39.48111327958854, -16.13433262108293 39.505868123007815, -16 39.52015034740903 M-16 39.52015034740903 C-15.864929947393954 39.521749337351395, -15.729859894787905 39.52334832729376, -15.4 39.527253283603315 M-16 39.52015034740903 C-15.819143681113655 39.52229136556467, -15.638287362227311 39.5244323837203, -15.4 39.527253283603315 M-15.4 39.527253283603315 C-15.216596565251937 39.512074276119236, -15.033193130503872 39.49689526863515, -14.799999999999999 39.47759551954366 M-15.4 39.527253283603315 C-15.22008459102416 39.51236295538728, -15.04016918204832 39.497472627171256, -14.799999999999999 39.47759551954366 M-14.799999999999999 39.47759551954366 C-14.583900491976788 39.43944782567104, -14.367800983953575 39.40130013179841, -14.200000000000001 39.37167849764504 M-14.799999999999999 39.47759551954366 C-14.562254196342652 39.43562664038986, -14.324508392685303 39.393657761236064, -14.200000000000001 39.37167849764504 M-14.200000000000001 39.37167849764504 C-14.015788878681864 39.32221574433928, -13.831577757363727 39.27275299103352, -13.6 39.210571764397365 M-14.200000000000001 39.37167849764504 C-13.969826349906686 39.30987428956799, -13.739652699813371 39.24807008149095, -13.6 39.210571764397365 M-13.6 39.210571764397365 C-13.459447687594986 39.1602845845998, -13.318895375189971 39.109997404802236, -13 38.99590217012136 M-13.6 39.210571764397365 C-13.447573190318968 39.15603609541235, -13.295146380637936 39.10150042642732, -13 38.99590217012136 M-13 38.99590217012136 C-12.8061207341393 38.90992811289442, -12.6122414682786 38.823954055667485, -12.4 38.729837441089295 M-13 38.99590217012136 C-12.778294965576082 38.89758902027295, -12.556589931152164 38.799275870424545, -12.4 38.729837441089295 M-12.4 38.729837441089295 C-12.23125931583428 38.64131237960779, -12.062518631668556 38.55278731812628, -11.8 38.41506428989868 M-12.4 38.729837441089295 C-12.182624590425092 38.615797536650554, -11.965249180850185 38.50175763221181, -11.8 38.41506428989868 M-11.8 38.41506428989868 C-11.656323349986268 38.3287857420426, -11.512646699972537 38.24250719418652, -11.2 38.054761285139726 M-11.8 38.41506428989868 C-11.627392549742934 38.31141265161301, -11.45478509948587 38.20776101332734, -11.2 38.054761285139726 M-11.2 38.054761285139726 C-10.965844815969563 37.89780139450527, -10.731689631939128 37.74084150387081, -10.600000000000001 37.65256675431767 M-11.2 38.054761285139726 C-11.045981376245752 37.95151887160856, -10.891962752491503 37.84827645807739, -10.600000000000001 37.65256675431767 M-10.600000000000001 37.65256675431767 C-10.367142252233679 37.4817948160305, -10.134284504467354 37.31102287774334, -10 37.21254204414516 M-10.600000000000001 37.65256675431767 C-10.416922109530368 37.51830209482951, -10.233844219060733 37.384037435341355, -10 37.21254204414516 M-10 37.21254204414516 C-9.866936982754156 37.1075527654141, -9.733873965508312 37.002563486683044, -9.399999999999999 36.73913050920115 M-10 37.21254204414516 C-9.84293407231864 37.08861400762677, -9.685868144637281 36.96468597110837, -9.399999999999999 36.73913050920115 M-9.399999999999999 36.73913050920115 C-9.16942808838215 36.54621181077415, -8.9388561767643 36.353293112347146, -8.799999999999997 36.23711264308722 M-9.399999999999999 36.73913050920115 C-9.162970268962388 36.54080857623272, -8.925940537924777 36.34248664326429, -8.799999999999997 36.23711264308722 M-8.799999999999997 36.23711264308722 C-8.636502893701675 36.09390148441843, -8.473005787403354 35.95069032574963, -8.2 35.711557805165555 M-8.799999999999997 36.23711264308722 C-8.66858290008786 36.12200115534646, -8.537165800175721 36.00688966760569, -8.2 35.711557805165555 M-8.2 35.711557805165555 C-7.96965824002166 35.50279723502776, -7.739316480043321 35.29403666488995, -7.600000000000001 35.16777303034027 M-8.2 35.711557805165555 C-7.990953036025355 35.52209687811079, -7.781906072050712 35.33263595105602, -7.600000000000001 35.16777303034027 M-7.600000000000001 35.16777303034027 C-7.435037538984143 35.01476386155028, -7.270075077968284 34.86175469276028, -7 34.61124943879921 M-7.600000000000001 35.16777303034027 C-7.360505270192885 34.94563225169458, -7.121010540385767 34.723491473048895, -7 34.61124943879921 M-7 34.61124943879921 C-6.796013085742873 34.419623229947554, -6.592026171485745 34.2279970210959, -6.399999999999999 34.047606786868776 M-7 34.61124943879921 C-6.775429378810318 34.40028680467752, -6.550858757620637 34.18932417055582, -6.399999999999999 34.047606786868776 M-6.399999999999999 34.047606786868776 C-6.239327216778112 33.896287819310345, -6.078654433556226 33.74496885175191, -5.800000000000001 33.48253671890538 M-6.399999999999999 34.047606786868776 C-6.2146144156340934 33.87301371227365, -6.029228831268189 33.698420637678524, -5.800000000000001 33.48253671890538 M-5.800000000000001 33.48253671890538 C-5.655068006823815 33.34707568711487, -5.510136013647629 33.21161465532435, -5.199999999999999 32.921745293264074 M-5.800000000000001 33.48253671890538 C-5.675099348898309 33.365798028580635, -5.550198697796617 33.2490593382559, -5.199999999999999 32.921745293264074 M-5.199999999999999 32.921745293264074 C-5.0402369301913055 32.775069500083376, -4.8804738603826125 32.62839370690268, -4.599999999999998 32.370895362715046 M-5.199999999999999 32.921745293264074 C-4.986085431878234 32.72535391827524, -4.772170863756468 32.52896254328641, -4.599999999999998 32.370895362715046 M-4.599999999999998 32.370895362715046 C-4.367309312230202 32.16327865885077, -4.134618624460407 31.955661954986493, -4 31.83554939114869 M-4.599999999999998 32.370895362715046 C-4.41130971383834 32.202537721764465, -4.2226194276766815 32.03418008081389, -4 31.83554939114869 M-4 31.83554939114869 C-3.7949857963234432 31.659771543067507, -3.5899715926468865 31.483993694986324, -3.400000000000002 31.321113284004134 M-4 31.83554939114869 C-3.865503458184782 31.720232928822313, -3.7310069163695645 31.604916466495936, -3.400000000000002 31.321113284004134 M-3.400000000000002 31.321113284004134 C-3.173607253545434 31.136855440787436, -2.9472145070908655 30.952597597570737, -2.8000000000000007 30.832781799619738 M-3.400000000000002 31.321113284004134 C-3.1990438912740835 31.1575579592204, -2.9980877825481653 30.99400263443667, -2.8000000000000007 30.832781799619738 M-2.8000000000000007 30.832781799619738 C-2.645598947620494 30.715103568968253, -2.491197895240988 30.597425338316768, -2.1999999999999993 30.37548609273981 M-2.8000000000000007 30.832781799619738 C-2.5675772079626547 30.655638557986865, -2.335154415925308 30.47849531635399, -2.1999999999999993 30.37548609273981 M-2.1999999999999993 30.37548609273981 C-1.9886871248829079 30.226988726377623, -1.7773742497658163 30.078491360015434, -1.5999999999999979 29.953843919881475 M-2.1999999999999993 30.37548609273981 C-2.0586574294468103 30.276159445130762, -1.9173148588936215 30.176832797521712, -1.5999999999999979 29.953843919881475 M-1.5999999999999979 29.953843919881475 C-1.4719159259013632 29.87235450283878, -1.3438318518027286 29.79086508579608, -1 29.572113009386186 M-1.5999999999999979 29.953843919881475 C-1.3730994231102924 29.80948564686812, -1.146198846220587 29.665127373854762, -1 29.572113009386186 M-1 29.572113009386186 C-0.8759581946722962 29.50224337340596, -0.7519163893445925 29.43237373742574, -0.40000000000000213 29.234148067023554 M-1 29.572113009386186 C-0.8348065429335108 29.47906368072592, -0.6696130858670215 29.38601435206565, -0.40000000000000213 29.234148067023554 M-0.40000000000000213 29.234148067023554 C-0.2038899750486239 29.13910458032289, -0.007779950097245691 29.044061093622226, 0.1999999999999993 28.94336185130339 M-0.40000000000000213 29.234148067023554 C-0.26678358205930364 29.16958557028227, -0.1335671641186052 29.105023073540984, 0.1999999999999993 28.94336185130339 M0.1999999999999993 28.94336185130339 C0.39220130606711395 28.866266338983266, 0.5844026121342286 28.78917082666314, 0.8000000000000007 28.702690711556176 M0.1999999999999993 28.94336185130339 C0.3755720395168429 28.87293664653962, 0.5511440790336866 28.802511441775852, 0.8000000000000007 28.702690711556176 M0.8000000000000007 28.702690711556176 C0.9516821211935261 28.655131850606775, 1.1033642423870516 28.60757298965737, 1.3999999999999986 28.514564936777262 M0.8000000000000007 28.702690711556176 C0.9554178363960866 28.653960543412047, 1.1108356727921724 28.605230375267922, 1.3999999999999986 28.514564936777262 M1.3999999999999986 28.514564936777262 C1.6380568485613067 28.461525584406015, 1.8761136971226147 28.408486232034768, 2 28.380884214651125 M1.3999999999999986 28.514564936777262 C1.62502537189533 28.464429013091145, 1.8500507437906615 28.414293089405028, 2 28.380884214651125 M2 28.380884214651125 C2.1301494432693717 28.36398956616094, 2.2602988865387434 28.347094917670752, 2.6000000000000014 28.302998448569653 M2 28.380884214651125 C2.223572329296131 28.351862377748045, 2.4471446585922623 28.322840540844965, 2.6000000000000014 28.302998448569653 M2.6000000000000014 28.302998448569653 C2.7678752154156014 28.297037669100796, 2.935750430831202 28.29107688963194, 3.1999999999999993 28.281694126353536 M2.6000000000000014 28.302998448569653 C2.7573141136754282 28.297412664291514, 2.914628227350855 28.29182688001337, 3.1999999999999993 28.281694126353536 M3.1999999999999993 28.281694126353536 C3.3818065918879667 28.29244866863579, 3.563613183775934 28.303203210918042, 3.799999999999997 28.31718637832495 M3.1999999999999993 28.281694126353536 C3.3980193307293325 28.293407712989296, 3.5960386614586657 28.305121299625057, 3.799999999999997 28.31718637832495 M3.799999999999997 28.31718637832495 C3.939709972464425 28.338592373940756, 4.079419944928853 28.359998369556557, 4.399999999999999 28.40911680492891 M3.799999999999997 28.31718637832495 C3.928535178280932 28.33688020127992, 4.057070356561867 28.35657402423489, 4.399999999999999 28.40911680492891 M4.399999999999999 28.40911680492891 C4.546392923973111 28.445090497092053, 4.692785847946223 28.481064189255196, 5 28.55655709583976 M4.399999999999999 28.40911680492891 C4.620773451288862 28.46336830806795, 4.8415469025777265 28.517619811206984, 5 28.55655709583976 M5 28.55655709583976 C5 26.427819740486907, 5 24.299082385134053, 5 18.55655709583976 M5 28.55655709583976 C5 25.716864862056386, 5 22.87717262827301, 5 18.55655709583976 M5 18.55655709583976 C8.835957783105815 18.55655709583976, 12.671915566211629 18.55655709583976, 15 18.55655709583976 M5 18.55655709583976 C7.885104409702706 18.55655709583976, 10.770208819405411 18.55655709583976, 15 18.55655709583976 M15 18.55655709583976 C15 14.744890480155188, 15 10.933223864470618, 15 8.55655709583976 M15 18.55655709583976 C15 15.082819612288148, 15 11.609082128736535, 15 8.55655709583976 M15 8.55655709583976 C18.761725895263996 8.55655709583976, 22.523451790527993 8.55655709583976, 25 8.55655709583976 M15 8.55655709583976 C17.041258277814034 8.55655709583976, 19.082516555628068 8.55655709583976, 25 8.55655709583976 M25 8.55655709583976 C25 -0.8887337793600008, 25 -10.334024654559762, 25 -33.90625 M25 8.55655709583976 C25 -5.3313267793686805, 25 -19.21921065457712, 25 -33.90625 M25 -33.90625 C16.699279047910984 -33.90625, 8.398558095821972 -33.90625, -5 -33.90625 M25 -33.90625 C13.902415193830242 -33.90625, 2.804830387660484 -33.90625, -5 -33.90625 M-5 -33.90625 C-5 -31.88461139695134, -5 -29.862972793902678, -5 -23.90625 M-5 -33.90625 C-5 -30.80353181894622, -5 -27.700813637892438, -5 -23.90625 M-5 -23.90625 C-7.31348763992032 -23.90625, -9.62697527984064 -23.90625, -15 -23.90625 M-5 -23.90625 C-8.122191128996127 -23.90625, -11.244382257992253 -23.90625, -15 -23.90625 M-15 -23.90625 C-15 -21.043682669270222, -15 -18.181115338540444, -15 -13.90625 M-15 -23.90625 C-15 -20.12673094821193, -15 -16.347211896423858, -15 -13.90625 M-15 -13.90625 C-18.96168905191057 -13.90625, -22.923378103821147 -13.90625, -25 -13.90625 M-15 -13.90625 C-18.16409361330723 -13.90625, -21.32818722661446 -13.90625, -25 -13.90625" stroke="currentColor" stroke-width="2" fill="none" vector-effect="non-scaling-stroke"/><g><path d="M-15 -13.90625 C-7.455384878176595 -13.90625, 0.08923024364680998 -13.90625, 5 -13.90625 M-15 -13.90625 C-8.513204869225113 -13.90625, -2.026409738450228 -13.90625, 5 -13.90625 M5 -13.90625 C5 -5.035306485744076, 5 3.8356370285118473, 5 18.55655709583976 M5 -13.90625 C5 -5.628367189566129, 5 2.649515620867742, 5 18.55655709583976 M5 18.55655709583976 C8.273502458804131 18.55655709583976, 11.547004917608263 18.55655709583976, 15 18.55655709583976 M5 18.55655709583976 C7.130069991454942 18.55655709583976, 9.260139982909884 18.55655709583976, 15 18.55655709583976 M15 18.55655709583976 C15 8.470993644498815, 15 -1.6145698068421304, 15 -23.90625 M15 18.55655709583976 C15 7.487461600981847, 15 -3.5816338938760666, 15 -23.90625 M15 -23.90625 C8.359998481284432 -23.90625, 1.7199969625688656 -23.90625, -15 -23.90625 M15 -23.90625 C6.595129241647486 -23.90625, -1.809741516705028 -23.90625, -15 -23.90625 M-15 -23.90625 C-15 -21.47025929460081, -15 -19.034268589201627, -15 -13.90625 M-15 -23.90625 C-15 -19.96647351744751, -15 -16.02669703489502, -15 -13.90625" stroke="currentColor" stroke-width="2" fill="none" vector-effect="non-scaling-stroke"/></g></g></g></g></g></g><linearGradient id="s2m-shape-documents-gradient" gradientUnits="objectBoundingBox" x1="0%" y1="0%" x2="100%" y2="0%"><stop offset="0%" stop-color="hsl(40.5882352941, 60%, 83.3333333333%)" stop-opacity="1"/><stop offset="100%" stop-color="hsl(-79.4117647059, 60%, 83.3333333333%)" stop-opacity="1"/></linearGradient></svg>