<svg id="s2m-shape-documents" width="100%" xmlns="http://www.w3.org/2000/svg" class="flowchart" style="max-width: 76px;" viewBox="-8 -8 76 46" role="graphics-document document" aria-roledescription="flowchart-v2"><g><marker id="s2m-shape-documents_flowchart-v2-pointEnd" class="marker flowchart-v2" viewBox="0 0 10 10" refX="5" refY="5" markerUnits="userSpaceOnUse" markerWidth="8" markerHeight="8" orient="auto"><path d="M 0 0 L 10 5 L 0 10 z" class="arrowMarkerPath" style="stroke-width: 1; stroke-dasharray: 1,0;"/></marker><marker id="s2m-shape-documents_flowchart-v2-pointStart" class="marker flowchart-v2" viewBox="0 0 10 10" refX="4.5" refY="5" markerUnits="userSpaceOnUse" markerWidth="8" markerHeight="8" orient="auto"><path d="M 0 5 L 10 10 L 10 0 z" class="arrowMarkerPath" style="stroke-width: 1; stroke-dasharray: 1,0;"/></marker><marker id="s2m-shape-documents_flowchart-v2-pointEnd-margin" class="marker flowchart-v2" viewBox="0 0 11.5 14" refX="11.5" refY="7" markerUnits="userSpaceOnUse" markerWidth="10.5" markerHeight="14" orient="auto"><path d="M 0 0 L 11.5 7 L 0 14 z" class="arrowMarkerPath" style="stroke-width: 0; stroke-dasharray: 1,0;"/></marker><marker id="s2m-shape-documents_flowchart-v2-pointStart-margin" class="marker flowchart-v2" viewBox="0 0 11.5 14" refX="1" refY="7" markerUnits="userSpaceOnUse" markerWidth="11.5" markerHeight="14" orient="auto"><polygon points="0,7 11.5,14 11.5,0" class="arrowMarkerPath" style="stroke-width: 0; stroke-dasharray: 1,0;"/></marker><marker id="s2m-shape-documents_flowchart-v2-circleEnd" class="marker flowchart-v2" viewBox="0 0 10 10" refX="11" refY="5" markerUnits="userSpaceOnUse" markerWidth="11" markerHeight="11" orient="auto"><circle cx="5" cy="5" r="5" class="arrowMarkerPath" style="stroke-width: 1; stroke-dasharray: 1,0;"/></marker><marker id="s2m-shape-documents_flowchart-v2-circleStart" class="marker flowchart-v2" viewBox="0 0 10 10" refX="-1" refY="5" markerUnits="userSpaceOnUse" markerWidth="11" markerHeight="11" orient="auto"><circle cx="5" cy="5" r="5" class="arrowMarkerPath" style="stroke-width: 1; stroke-dasharray: 1,0;"/></marker><marker id="s2m-shape-documents_flowchart-v2-circleEnd-margin" class="marker flowchart-v2" viewBox="0 0 10 10" refY="5" refX="12.25" markerUnits="userSpaceOnUse" markerWidth="14" markerHeight="14" orient="auto"><circle cx="5" cy="5" r="5" class="arrowMarkerPath" style="stroke-width: 0; stroke-dasharray: 1,0;"/></marker><marker id="s2m-shape-documents_flowchart-v2-circleStart-margin" class="marker flowchart-v2" viewBox="0 0 10 10" refX="-2" refY="5" markerUnits="userSpaceOnUse" markerWidth="14" markerHeight="14" orient="auto"><circle cx="5" cy="5" r="5" class="arrowMarkerPath" style="stroke-width: 0; stroke-dasharray: 1,0;"/></marker><marker id="s2m-shape-documents_flowchart-v2-crossEnd" class="marker cross flowchart-v2" viewBox="0 0 11 11" refX="12" refY="5.2" markerUnits="userSpaceOnUse" markerWidth="11" markerHeight="11" orient="auto"><path d="M 1,1 l 9,9 M 10,1 l -9,9" class="arrowMarkerPath" style="stroke-width: 2; stroke-dasharray: 1,0;"/></marker><marker id="s2m-shape-documents_flowchart-v2-crossStart" class="marker cross flowchart-v2" viewBox="0 0 11 11" refX="-1" refY="5.2" markerUnits="userSpaceOnUse" markerWidth="11" markerHeight="11" orient="auto"><path d="M 1,1 l 9,9 M 10,1 l -9,9" class="arrowMarkerPath" style="stroke-width: 2; stroke-dasharray: 1,0;"/></marker><marker id="s2m-shape-documents_flowchart-v2-crossEnd-margin" class="marker cross flowchart-v2" viewBox="0 0 15 15" refX="17.7" refY="7.5" markerUnits="userSpaceOnUse" markerWidth="12" markerHeight="12" orient="auto"><path d="M 1,1 L 14,14 M 1,14 L 14,1" class="arrowMarkerPath" style="stroke-width: 2.5;"/></marker><marker id="s2m-shape-documents_flowchart-v2-crossStart-margin" class="marker cross flowchart-v2" viewBox="0 0 15 15" refX="-3.5" refY="7.5" markerUnits="userSpaceOnUse" markerWidth="12" markerHeight="12" orient="auto"><path d="M 1,1 L 14,14 M 1,14 L 14,1" class="arrowMarkerPath" style="stroke-width: 2.5; stroke-dasharray: 1,0;"/></marker><g class="root"><g class="clusters"/><g class="edgePaths"/><g class="edgeLabels"/><g class="nodes"><g class="node default" data-look="classic" transform="translate(38, 23)"><g class="basic label-container outer-path" transform="translate(0,-2.8125)"><path d="M-25 -13.90625 C-25 0.07036504547411404, -25 14.046980090948228, -25 33.90625 M-25 -13.90625 C-25 -2.180762719300125, -25 9.54472456139975, -25 33.90625 M-25 33.90625 C-25 33.90625, -25 33.90625, -25 33.90625 M-25 33.90625 C-25 33.90625, -25 33.90625, -25 33.90625 M-25 33.90625 C-24.80152657288522 34.092991876540346, -24.603053145770442 34.27973375308069, -24.4 34.470784646038084 M-25 33.90625 C-24.878012153082455 34.02102727663424, -24.75602430616491 34.13580455326848, -24.4 34.470784646038084 M-24.4 34.470784646038084 C-24.215663502075056 34.642473815106236, -24.03132700415011 34.81416298417439, -23.8 35.02961864039354 M-24.4 34.470784646038084 C-24.1952387436357 34.66149723067692, -23.990477487271395 34.85220981531577, -23.8 35.02961864039354 M-23.8 35.02961864039354 C-23.63398044747256 35.18110878591101, -23.46796089494512 35.33259893142848, -23.2 35.577108896370824 M-23.8 35.02961864039354 C-23.569015542737098 35.2403882064496, -23.338031085474196 35.451157772505674, -23.2 35.577108896370824 M-23.2 35.577108896370824 C-23.014420462622628 35.74122862833105, -22.828840925245256 35.905348360291285, -22.6 36.10772687595926 M-23.2 35.577108896370824 C-23.012381857069848 35.74303149626371, -22.824763714139696 35.90895409615659, -22.6 36.10772687595926 M-22.6 36.10772687595926 C-22.474255496140373 36.21427177444963, -22.34851099228074 36.32081667294, -22 36.61611441682215 M-22.6 36.10772687595926 C-22.407712616232345 36.27065439291359, -22.215425232464685 36.43358190986792, -22 36.61611441682215 M-22 36.61611441682215 C-21.87004638981762 36.72029896727756, -21.74009277963524 36.82448351773296, -21.4 37.09713783883801 M-22 36.61611441682215 C-21.79219960969797 36.78270917488767, -21.584399219395944 36.94930393295319, -21.4 37.09713783883801 M-21.4 37.09713783883801 C-21.18079069476704 37.26110710975215, -20.96158138953408 37.42507638066629, -20.8 37.545939783828125 M-21.4 37.09713783883801 C-21.213841155161607 37.23638525823898, -21.027682310323215 37.375632677639956, -20.8 37.545939783828125 M-20.8 37.545939783828125 C-20.566442058730754 37.70633510876868, -20.332884117461507 37.866730433709236, -20.2 37.957988264994476 M-20.8 37.545939783828125 C-20.651911995741305 37.64763884588438, -20.50382399148261 37.74933790794063, -20.2 37.957988264994476 M-20.2 37.957988264994476 C-20.059874015909323 38.044664165342404, -19.919748031818646 38.131340065690324, -19.6 38.32912243076848 M-20.2 37.957988264994476 C-20.054213864927963 38.0481652910301, -19.908427729855923 38.138342317065735, -19.6 38.32912243076848 M-19.6 38.32912243076848 C-19.40999350165067 38.43250881420906, -19.21998700330134 38.53589519764964, -19 38.655594580948836 M-19.6 38.32912243076848 C-19.43526849502864 38.418756178485886, -19.27053699005728 38.5083899262033, -19 38.655594580948836 M-19 38.655594580948836 C-18.87652670100949 38.71290953428744, -18.75305340201898 38.77022448762605, -18.4 38.934108010850856 M-19 38.655594580948836 C-18.84151282368001 38.72916259273612, -18.68302564736002 38.80273060452339, -18.4 38.934108010850856 M-18.4 38.934108010850856 C-18.275983978558422 38.98118083214716, -18.15196795711685 39.02825365344346, -17.8 39.16185030131844 M-18.4 38.934108010850856 C-18.274536980877144 38.98173006975755, -18.149073961754286 39.02935212866425, -17.8 39.16185030131844 M-17.8 39.16185030131844 C-17.57649665843044 39.22691637698965, -17.352993316860875 39.29198245266086, -17.2 39.33652171843717 M-17.8 39.16185030131844 C-17.607572491175002 39.217869610750256, -17.415144982350004 39.27388892018207, -17.2 39.33652171843717 M-17.2 39.33652171843717 C-17.01645341742839 39.373181085114375, -16.832906834856786 39.40984045179158, -16.6 39.45635843616926 M-17.2 39.33652171843717 C-16.96275776982101 39.38390560205732, -16.72551553964202 39.431289485677475, -16.6 39.45635843616926 M-16.6 39.45635843616926 C-16.458467296368067 39.471406172281945, -16.316934592736136 39.48645390839464, -16 39.52015034740903 M-16.6 39.45635843616926 C-16.45550118253278 39.47172152906613, -16.31100236506556 39.48708462196299, -16 39.52015034740903 M-16 39.52015034740903 C-15.820888624591522 39.52227070852769, -15.641777249183043 39.524391069646356, -15.4 39.527253283603315 M-16 39.52015034740903 C-15.801514617738947 39.52250006241853, -15.603029235477894 39.524849777428024, -15.4 39.527253283603315 M-15.4 39.527253283603315 C-15.273479108010022 39.51678204259822, -15.146958216020044 39.50631080159313, -14.799999999999999 39.47759551954366 M-15.4 39.527253283603315 C-15.204244046974125 39.51105194538893, -15.008488093948252 39.49485060717454, -14.799999999999999 39.47759551954366 M-14.799999999999999 39.47759551954366 C-14.679116779535043 39.456256201695055, -14.558233559070088 39.434916883846455, -14.200000000000001 39.37167849764504 M-14.799999999999999 39.47759551954366 C-14.582094315359504 39.43912898425716, -14.36418863071901 39.40066244897066, -14.200000000000001 39.37167849764504 M-14.200000000000001 39.37167849764504 C-13.968746680256857 39.30958438615088, -13.737493360513712 39.24749027465671, -13.6 39.210571764397365 M-14.200000000000001 39.37167849764504 C-13.96919355791246 39.3097043778163, -13.738387115824917 39.24773025798756, -13.6 39.210571764397365 M-13.6 39.210571764397365 C-13.366852174879668 39.127155516022505, -13.133704349759334 39.04373926764765, -13 38.99590217012136 M-13.6 39.210571764397365 C-13.43019334312607 39.14981788750321, -13.260386686252142 39.089064010609064, -13 38.99590217012136 M-13 38.99590217012136 C-12.867981028152041 38.937359516834995, -12.735962056304084 38.87881686354863, -12.4 38.729837441089295 M-13 38.99590217012136 C-12.77980388314627 38.89825813651369, -12.559607766292538 38.800614102906025, -12.4 38.729837441089295 M-12.4 38.729837441089295 C-12.204572791184997 38.62731204384416, -12.009145582369996 38.52478664659901, -11.8 38.41506428989868 M-12.4 38.729837441089295 C-12.270491640497795 38.6618945170459, -12.140983280995592 38.59395159300251, -11.8 38.41506428989868 M-11.8 38.41506428989868 C-11.651571392755807 38.32593216792823, -11.503142785511614 38.236800045957786, -11.2 38.054761285139726 M-11.8 38.41506428989868 C-11.603513950701926 38.297073433306494, -11.40702790140385 38.17908257671431, -11.2 38.054761285139726 M-11.2 38.054761285139726 C-11.04886408968144 37.953451224238165, -10.897728179362877 37.8521411633366, -10.600000000000001 37.65256675431767 M-11.2 38.054761285139726 C-11.062217855690701 37.96240257699617, -10.9244357113814 37.870043868852605, -10.600000000000001 37.65256675431767 M-10.600000000000001 37.65256675431767 C-10.458167178223924 37.54855017715939, -10.316334356447848 37.44453360000111, -10 37.21254204414516 M-10.600000000000001 37.65256675431767 C-10.374937595586818 37.4875117221966, -10.149875191173635 37.32245669007554, -10 37.21254204414516 M-10 37.21254204414516 C-9.838689388751268 37.08526487068846, -9.677378777502538 36.957987697231765, -9.399999999999999 36.73913050920115 M-10 37.21254204414516 C-9.76291628141577 37.025478432269836, -9.52583256283154 36.83841482039452, -9.399999999999999 36.73913050920115 M-9.399999999999999 36.73913050920115 C-9.17680659337108 36.552385379656904, -8.953613186742158 36.365640250112655, -8.799999999999997 36.23711264308722 M-9.399999999999999 36.73913050920115 C-9.21760436928753 36.58652073366986, -9.035208738575061 36.43391095813856, -8.799999999999997 36.23711264308722 M-8.799999999999997 36.23711264308722 C-8.646152927772492 36.10235418790514, -8.492305855544988 35.967595732723055, -8.2 35.711557805165555 M-8.799999999999997 36.23711264308722 C-8.57771260092907 36.04240561310264, -8.355425201858141 35.84769858311805, -8.2 35.711557805165555 M-8.2 35.711557805165555 C-7.98883242218682 35.52017494891299, -7.777664844373641 35.32879209266042, -7.600000000000001 35.16777303034027 M-8.2 35.711557805165555 C-8.05086188329007 35.57639274314393, -7.901723766580142 35.4412276811223, -7.600000000000001 35.16777303034027 M-7.600000000000001 35.16777303034027 C-7.398029477353852 34.9804374292595, -7.196058954707702 34.79310182817874, -7 34.61124943879921 M-7.600000000000001 35.16777303034027 C-7.390297059635514 34.973265307793, -7.180594119271026 34.77875758524572, -7 34.61124943879921 M-7 34.61124943879921 C-6.858488098680942 34.47831253323389, -6.716976197361884 34.345375627668574, -6.399999999999999 34.047606786868776 M-7 34.61124943879921 C-6.828322975396752 34.449975283094375, -6.6566459507935045 34.288701127389544, -6.399999999999999 34.047606786868776 M-6.399999999999999 34.047606786868776 C-6.245322392321302 33.901933976396414, -6.090644784642606 33.75626116592405, -5.800000000000001 33.48253671890538 M-6.399999999999999 34.047606786868776 C-6.271662157850255 33.92674033155906, -6.143324315700511 33.805873876249336, -5.800000000000001 33.48253671890538 M-5.800000000000001 33.48253671890538 C-5.623498119982875 33.317568817366755, -5.446996239965749 33.15260091582813, -5.199999999999999 32.921745293264074 M-5.800000000000001 33.48253671890538 C-5.623709904125172 33.31776676191857, -5.447419808250343 33.15299680493175, -5.199999999999999 32.921745293264074 M-5.199999999999999 32.921745293264074 C-5.048065101066677 32.78225641238842, -4.896130202133355 32.64276753151276, -4.599999999999998 32.370895362715046 M-5.199999999999999 32.921745293264074 C-5.066430374285334 32.79911726151677, -4.932860748570668 32.676489229769466, -4.599999999999998 32.370895362715046 M-4.599999999999998 32.370895362715046 C-4.387344481439916 32.18115490406089, -4.174688962879833 31.99141444540673, -4 31.83554939114869 M-4.599999999999998 32.370895362715046 C-4.4357484635936295 32.224343032150486, -4.271496927187261 32.07779070158593, -4 31.83554939114869 M-4 31.83554939114869 C-3.8562634077963382 31.71231056956956, -3.7125268155926765 31.589071747990435, -3.400000000000002 31.321113284004134 M-4 31.83554939114869 C-3.8445145718059526 31.702237193818938, -3.6890291436119056 31.568924996489187, -3.400000000000002 31.321113284004134 M-3.400000000000002 31.321113284004134 C-3.227813672777236 31.18097327606515, -3.0556273455544702 31.040833268126168, -2.8000000000000007 30.832781799619738 M-3.400000000000002 31.321113284004134 C-3.181210278226223 31.14304343466774, -2.962420556452444 30.96497358533134, -2.8000000000000007 30.832781799619738 M-2.8000000000000007 30.832781799619738 C-2.630047413747033 30.7032508195087, -2.4600948274940655 30.57371983939766, -2.1999999999999993 30.37548609273981 M-2.8000000000000007 30.832781799619738 C-2.5880526847440795 30.67124413736764, -2.3761053694881586 30.50970647511554, -2.1999999999999993 30.37548609273981 M-2.1999999999999993 30.37548609273981 C-2.0592236608712726 30.276557356877678, -1.9184473217425455 30.17762862101555, -1.5999999999999979 29.953843919881475 M-2.1999999999999993 30.37548609273981 C-1.9988144002895858 30.234105537056966, -1.7976288005791725 30.092724981374126, -1.5999999999999979 29.953843919881475 M-1.5999999999999979 29.953843919881475 C-1.45601447728603 29.862237712075235, -1.312028954572062 29.770631504268998, -1 29.572113009386186 M-1.5999999999999979 29.953843919881475 C-1.4005916757006698 29.826976717889604, -1.2011833514013417 29.700109515897733, -1 29.572113009386186 M-1 29.572113009386186 C-0.8390515807634864 29.48145480400181, -0.6781031615269727 29.390796598617435, -0.40000000000000213 29.234148067023554 M-1 29.572113009386186 C-0.7890673366711551 29.4532999337123, -0.5781346733423103 29.33448685803842, -0.40000000000000213 29.234148067023554 M-0.40000000000000213 29.234148067023554 C-0.18393573812912295 29.12943388525388, 0.03212852374175623 29.02471970348421, 0.1999999999999993 28.94336185130339 M-0.40000000000000213 29.234148067023554 C-0.16797835008027426 29.121700237781376, 0.06404329983945362 29.0092524085392, 0.1999999999999993 28.94336185130339 M0.1999999999999993 28.94336185130339 C0.43434758729274003 28.849360683085468, 0.6686951745854808 28.755359514867546, 0.8000000000000007 28.702690711556176 M0.1999999999999993 28.94336185130339 C0.3530749773210875 28.881960635872314, 0.5061499546421757 28.82055942044124, 0.8000000000000007 28.702690711556176 M0.8000000000000007 28.702690711556176 C0.9739687507845838 28.648144034841728, 1.1479375015691669 28.593597358127276, 1.3999999999999986 28.514564936777262 M0.8000000000000007 28.702690711556176 C1.0075058984420644 28.637628698363496, 1.215011796884128 28.572566685170816, 1.3999999999999986 28.514564936777262 M1.3999999999999986 28.514564936777262 C1.5237077063156865 28.487002710922514, 1.6474154126313745 28.459440485067766, 2 28.380884214651125 M1.3999999999999986 28.514564936777262 C1.5890271682016686 28.4724494561995, 1.7780543364033385 28.430333975621735, 2 28.380884214651125 M2 28.380884214651125 C2.130540539209007 28.363938798149487, 2.261081078418014 28.346993381647852, 2.6000000000000014 28.302998448569653 M2 28.380884214651125 C2.1419498732212015 28.362457756949457, 2.2838997464424025 28.34403129924779, 2.6000000000000014 28.302998448569653 M2.6000000000000014 28.302998448569653 C2.752744759258666 28.297574909289537, 2.90548951851733 28.29215137000942, 3.1999999999999993 28.281694126353536 M2.6000000000000014 28.302998448569653 C2.779023225802225 28.29664183442522, 2.9580464516044485 28.29028522028079, 3.1999999999999993 28.281694126353536 M3.1999999999999993 28.281694126353536 C3.375377247226649 28.292068348767906, 3.5507544944532983 28.302442571182272, 3.799999999999997 28.31718637832495 M3.1999999999999993 28.281694126353536 C3.346986228701649 28.290388913462547, 3.4939724574032986 28.299083700571558, 3.799999999999997 28.31718637832495 M3.799999999999997 28.31718637832495 C3.940345331815651 28.33868972203443, 4.080690663631305 28.360193065743907, 4.399999999999999 28.40911680492891 M3.799999999999997 28.31718637832495 C3.9942625303722545 28.34695077380876, 4.188525060744512 28.37671516929257, 4.399999999999999 28.40911680492891 M4.399999999999999 28.40911680492891 C4.572821773852181 28.451584959283068, 4.745643547704363 28.494053113637225, 5 28.55655709583976 M4.399999999999999 28.40911680492891 C4.634351470019942 28.46670488645412, 4.868702940039885 28.524292967979328, 5 28.55655709583976 M5 28.55655709583976 C5 25.949384373700234, 5 23.34221165156071, 5 18.55655709583976 M5 28.55655709583976 C5 26.247328267883077, 5 23.938099439926397, 5 18.55655709583976 M5 18.55655709583976 C7.208569727899682 18.55655709583976, 9.417139455799363 18.55655709583976, 15 18.55655709583976 M5 18.55655709583976 C7.613258941557097 18.55655709583976, 10.226517883114195 18.55655709583976, 15 18.55655709583976 M15 18.55655709583976 C15 15.318543054634342, 15 12.080529013428922, 15 8.55655709583976 M15 18.55655709583976 C15 15.573834135625408, 15 12.591111175411054, 15 8.55655709583976 M15 8.55655709583976 C18.191316812541338 8.55655709583976, 21.38263362508268 8.55655709583976, 25 8.55655709583976 M15 8.55655709583976 C17.296825111313787 8.55655709583976, 19.593650222627573 8.55655709583976, 25 8.55655709583976 M25 8.55655709583976 C25 -0.6840554424450627, 25 -9.924667980729886, 25 -33.90625 M25 8.55655709583976 C25 -3.3177440829447473, 25 -15.192045261729255, 25 -33.90625 M25 -33.90625 C16.000200879388657 -33.90625, 7.000401758777318 -33.90625, -5 -33.90625 M25 -33.90625 C15.28285287386778 -33.90625, 5.56570574773556 -33.90625, -5 -33.90625 M-5 -33.90625 C-5 -30.827944558114073, -5 -27.749639116228145, -5 -23.90625 M-5 -33.90625 C-5 -30.809154678011602, -5 -27.712059356023204, -5 -23.90625 M-5 -23.90625 C-7.929609053473161 -23.90625, -10.859218106946322 -23.90625, -15 -23.90625 M-5 -23.90625 C-8.47087466514921 -23.90625, -11.94174933029842 -23.90625, -15 -23.90625 M-15 -23.90625 C-15 -21.52931067317443, -15 -19.152371346348858, -15 -13.90625 M-15 -23.90625 C-15 -21.101090345629657, -15 -18.29593069125932, -15 -13.90625 M-15 -13.90625 C-18.074799240725497 -13.90625, -21.149598481450994 -13.90625, -25 -13.90625 M-15 -13.90625 C-17.113677699876874 -13.90625, -19.22735539975375 -13.90625, -25 -13.90625" stroke="currentColor" stroke-width="2" fill="none" vector-effect="non-scaling-stroke"/><g><path d="M-15 -13.90625 C-9.37346656746178 -13.90625, -3.7469331349235606 -13.90625, 5 -13.90625 M-15 -13.90625 C-9.394625452932793 -13.90625, -3.7892509058655843 -13.90625, 5 -13.90625 M5 -13.90625 C5 -5.488692485402934, 5 2.9288650291941316, 5 18.55655709583976 M5 -13.90625 C5 -3.1301662859024404, 5 7.645917428195119, 5 18.55655709583976 M5 18.55655709583976 C8.508206749177742 18.55655709583976, 12.016413498355483 18.55655709583976, 15 18.55655709583976 M5 18.55655709583976 C8.960278540920438 18.55655709583976, 12.920557081840878 18.55655709583976, 15 18.55655709583976 M15 18.55655709583976 C15 9.449704154621557, 15 0.3428512134033532, 15 -23.90625 M15 18.55655709583976 C15 8.691137048859636, 15 -1.1742829981204892, 15 -23.90625 M15 -23.90625 C3.3427661817133103 -23.90625, -8.31446763657338 -23.90625, -15 -23.90625 M15 -23.90625 C7.083514337764693 -23.90625, -0.8329713244706145 -23.90625, -15 -23.90625 M-15 -23.90625 C-15 -20.818795616230293, -15 -17.731341232460586, -15 -13.90625 M-15 -23.90625 C-15 -21.757796673714324, -15 -19.609343347428645, -15 -13.90625" stroke="currentColor" stroke-width="2" fill="none" vector-effect="non-scaling-stroke"/></g></g></g></g></g></g><linearGradient id="s2m-shape-documents-gradient" gradientUnits="objectBoundingBox" x1="0%" y1="0%" x2="100%" y2="0%"><stop offset="0%" stop-color="hsl(40.5882352941, 60%, 83.3333333333%)" stop-opacity="1"/><stop offset="100%" stop-color="hsl(-79.4117647059, 60%, 83.3333333333%)" stop-opacity="1"/></linearGradient></svg>