<svg id="s2m-shape-file" width="100%" xmlns="http://www.w3.org/2000/svg" class="flowchart" style="max-width: 76px;" viewBox="-8 -8 76 46" role="graphics-document document" aria-roledescription="flowchart-v2"><g><marker id="s2m-shape-file_flowchart-v2-pointEnd" class="marker flowchart-v2" viewBox="0 0 10 10" refX="5" refY="5" markerUnits="userSpaceOnUse" markerWidth="8" markerHeight="8" orient="auto"><path d="M 0 0 L 10 5 L 0 10 z" class="arrowMarkerPath" style="stroke-width: 1; stroke-dasharray: 1,0;"/></marker><marker id="s2m-shape-file_flowchart-v2-pointStart" class="marker flowchart-v2" viewBox="0 0 10 10" refX="4.5" refY="5" markerUnits="userSpaceOnUse" markerWidth="8" markerHeight="8" orient="auto"><path d="M 0 5 L 10 10 L 10 0 z" class="arrowMarkerPath" style="stroke-width: 1; stroke-dasharray: 1,0;"/></marker><marker id="s2m-shape-file_flowchart-v2-pointEnd-margin" class="marker flowchart-v2" viewBox="0 0 11.5 14" refX="11.5" refY="7" markerUnits="userSpaceOnUse" markerWidth="10.5" markerHeight="14" orient="auto"><path d="M 0 0 L 11.5 7 L 0 14 z" class="arrowMarkerPath" style="stroke-width: 0; stroke-dasharray: 1,0;"/></marker><marker id="s2m-shape-file_flowchart-v2-pointStart-margin" class="marker flowchart-v2" viewBox="0 0 11.5 14" refX="1" refY="7" markerUnits="userSpaceOnUse" markerWidth="11.5" markerHeight="14" orient="auto"><polygon points="0,7 11.5,14 11.5,0" class="arrowMarkerPath" style="stroke-width: 0; stroke-dasharray: 1,0;"/></marker><marker id="s2m-shape-file_flowchart-v2-circleEnd" class="marker flowchart-v2" viewBox="0 0 10 10" refX="11" refY="5" markerUnits="userSpaceOnUse" markerWidth="11" markerHeight="11" orient="auto"><circle cx="5" cy="5" r="5" class="arrowMarkerPath" style="stroke-width: 1; stroke-dasharray: 1,0;"/></marker><marker id="s2m-shape-file_flowchart-v2-circleStart" class="marker flowchart-v2" viewBox="0 0 10 10" refX="-1" refY="5" markerUnits="userSpaceOnUse" markerWidth="11" markerHeight="11" orient="auto"><circle cx="5" cy="5" r="5" class="arrowMarkerPath" style="stroke-width: 1; stroke-dasharray: 1,0;"/></marker><marker id="s2m-shape-file_flowchart-v2-circleEnd-margin" class="marker flowchart-v2" viewBox="0 0 10 10" refY="5" refX="12.25" markerUnits="userSpaceOnUse" markerWidth="14" markerHeight="14" orient="auto"><circle cx="5" cy="5" r="5" class="arrowMarkerPath" style="stroke-width: 0; stroke-dasharray: 1,0;"/></marker><marker id="s2m-shape-file_flowchart-v2-circleStart-margin" class="marker flowchart-v2" viewBox="0 0 10 10" refX="-2" refY="5" markerUnits="userSpaceOnUse" markerWidth="14" markerHeight="14" orient="auto"><circle cx="5" cy="5" r="5" class="arrowMarkerPath" style="stroke-width: 0; stroke-dasharray: 1,0;"/></marker><marker id="s2m-shape-file_flowchart-v2-crossEnd" class="marker cross flowchart-v2" viewBox="0 0 11 11" refX="12" refY="5.2" markerUnits="userSpaceOnUse" markerWidth="11" markerHeight="11" orient="auto"><path d="M 1,1 l 9,9 M 10,1 l -9,9" class="arrowMarkerPath" style="stroke-width: 2; stroke-dasharray: 1,0;"/></marker><marker id="s2m-shape-file_flowchart-v2-crossStart" class="marker cross flowchart-v2" viewBox="0 0 11 11" refX="-1" refY="5.2" markerUnits="userSpaceOnUse" markerWidth="11" markerHeight="11" orient="auto"><path d="M 1,1 l 9,9 M 10,1 l -9,9" class="arrowMarkerPath" style="stroke-width: 2; stroke-dasharray: 1,0;"/></marker><marker id="s2m-shape-file_flowchart-v2-crossEnd-margin" class="marker cross flowchart-v2" viewBox="0 0 15 15" refX="17.7" refY="7.5" markerUnits="userSpaceOnUse" markerWidth="12" markerHeight="12" orient="auto"><path d="M 1,1 L 14,14 M 1,14 L 14,1" class="arrowMarkerPath" style="stroke-width: 2.5;"/></marker><marker id="s2m-shape-file_flowchart-v2-crossStart-margin" class="marker cross flowchart-v2" viewBox="0 0 15 15" refX="-3.5" refY="7.5" markerUnits="userSpaceOnUse" markerWidth="12" markerHeight="12" orient="auto"><path d="M 1,1 L 14,14 M 1,14 L 14,1" class="arrowMarkerPath" style="stroke-width: 2.5; stroke-dasharray: 1,0;"/></marker><g class="root"><g class="clusters"/><g class="edgePaths"/><g class="edgeLabels"/><g class="nodes"><g class="node default" data-look="classic" transform="translate(38, 23)"><g class="basic label-container outer-path" transform="translate(0,-1.875)"><path d="M-15 16.875 C-15 16.875, -15 16.875, -15 16.875 M-15 16.875 C-15 16.875, -15 16.875, -15 16.875 M-15 16.875 C-14.846378981137844 16.97136043056373, -14.69275796227569 17.06772086112746, -14.4 17.251356430692056 M-15 16.875 C-14.867777748057085 16.957937824665503, -14.73555549611417 17.040875649331003, -14.4 17.251356430692056 M-14.4 17.251356430692056 C-14.269088042566775 17.332643155226833, -14.13817608513355 17.41392987976161, -13.8 17.623912426929024 M-14.4 17.251356430692056 C-14.163510715749903 17.398198932180662, -13.927021431499805 17.545041433669265, -13.8 17.623912426929024 M-13.8 17.623912426929024 C-13.679617961750012 17.697143530191862, -13.559235923500024 17.770374633454697, -13.2 17.98890593091388 M-13.8 17.623912426929024 C-13.573657196511318 17.761601848507507, -13.347314393022637 17.89929127008599, -13.2 17.98890593091388 M-13.2 17.98890593091388 C-12.965405280276139 18.12721723780498, -12.73081056055228 18.265528544696085, -12.6 18.34265125063951 M-13.2 17.98890593091388 C-13.006408719581394 18.103042613226837, -12.812817439162789 18.217179295539793, -12.6 18.34265125063951 M-12.6 18.34265125063951 C-12.374250722975532 18.470171383748447, -12.148501445951064 18.597691516857385, -12 18.681576277881433 M-12.6 18.34265125063951 C-12.472066917655768 18.414917456337278, -12.344133835311535 18.48718366203505, -12 18.681576277881433 M-12 18.681576277881433 C-11.829448746001864 18.772730886578408, -11.658897492003726 18.863885495275387, -11.4 19.002258559225336 M-12 18.681576277881433 C-11.807710786250219 18.784349184119943, -11.61542157250044 18.88712209035845, -11.4 19.002258559225336 M-11.4 19.002258559225336 C-11.217302025817427 19.09336434384633, -11.034604051634853 19.18447012846732, -10.8 19.301459855885415 M-11.4 19.002258559225336 C-11.252882932103281 19.075621255017882, -11.105765864206562 19.148983950810425, -10.8 19.301459855885415 M-10.8 19.301459855885415 C-10.646596310118019 19.371692919686733, -10.493192620236037 19.441925983488048, -10.2 19.57615884332965 M-10.8 19.301459855885415 C-10.60948406073826 19.388684081897395, -10.41896812147652 19.475908307909375, -10.2 19.57615884332965 M-10.2 19.57615884332965 C-10.022350359423 19.649416455724758, -9.844700718846001 19.722674068119865, -9.600000000000001 19.82358162051232 M-10.2 19.57615884332965 C-9.998291401712562 19.65933767927949, -9.796582803425123 19.742516515229322, -9.600000000000001 19.82358162051232 M-9.600000000000001 19.82358162051232 C-9.408878769044183 19.892910241862612, -9.217757538088362 19.962238863212903, -9 20.041229720632558 M-9.600000000000001 19.82358162051232 C-9.422746780713341 19.88787966454222, -9.245493561426679 19.952177708572112, -9 20.041229720632558 M-9 20.041229720632558 C-8.830089354089118 20.093810161487568, -8.660178708178234 20.146390602342574, -8.4 20.22690534056724 M-9 20.041229720632558 C-8.812602735239523 20.09922155948, -8.625205470479045 20.157213398327443, -8.4 20.22690534056724 M-8.4 20.22690534056724 C-8.27721594572327 20.257975475849324, -8.154431891446542 20.289045611131414, -7.800000000000001 20.378733534212294 M-8.4 20.22690534056724 C-8.251677061620272 20.264438013584442, -8.103354123240543 20.301970686601642, -7.800000000000001 20.378733534212294 M-7.800000000000001 20.378733534212294 C-7.604430332182042 20.416689568682518, -7.408860664364082 20.45464560315274, -7.199999999999999 20.495181145624777 M-7.800000000000001 20.378733534212294 C-7.578090738147584 20.421801540033997, -7.356181476295167 20.4648695458557, -7.199999999999999 20.495181145624777 M-7.199999999999999 20.495181145624777 C-7.07667284431419 20.51160239178547, -6.953345688628381 20.52802363794616, -6.6 20.575072290779506 M-7.199999999999999 20.495181145624777 C-6.9917750350865635 20.52290669711934, -6.783550070173128 20.5506322486139, -6.6 20.575072290779506 M-6.6 20.575072290779506 C-6.4168110714060935 20.588056703971695, -6.2336221428121865 20.601041117163884, -6 20.61760023160602 M-6.6 20.575072290779506 C-6.371068303697322 20.59129894683563, -6.142136607394645 20.60752560289175, -6 20.61760023160602 M-6 20.61760023160602 C-5.879232853329711 20.61855334420287, -5.758465706659422 20.61950645679972, -5.4 20.62233552240221 M-6 20.61760023160602 C-5.79580514769841 20.619211768280575, -5.59161029539682 20.62082330495513, -5.4 20.62233552240221 M-5.4 20.62233552240221 C-5.261630456232043 20.61470094222724, -5.123260912464085 20.607066362052276, -4.799999999999999 20.58923034636244 M-5.4 20.62233552240221 C-5.262710296022599 20.61476052270451, -5.125420592045197 20.607185523006812, -4.799999999999999 20.58923034636244 M-4.799999999999999 20.58923034636244 C-4.5632504041070305 20.56136833288168, -4.326500808214063 20.53350631940092, -4.200000000000001 20.51861899843003 M-4.799999999999999 20.58923034636244 C-4.646258882192059 20.571137233760684, -4.49251776438412 20.553044121158926, -4.200000000000001 20.51861899843003 M-4.200000000000001 20.51861899843003 C-3.9969946647046726 20.482279524650828, -3.7939893294093436 20.445940050871627, -3.5999999999999996 20.411214509598242 M-4.200000000000001 20.51861899843003 C-4.02172244763781 20.486705982793957, -3.8434448952756197 20.454792967157886, -3.5999999999999996 20.411214509598242 M-3.5999999999999996 20.411214509598242 C-3.46528221964898 20.379081385987444, -3.3305644392979605 20.34694826237665, -3 20.268101446747572 M-3.5999999999999996 20.411214509598242 C-3.387272276574504 20.360474316177122, -3.1745445531490084 20.309734122755998, -3 20.268101446747572 M-3 20.268101446747572 C-2.850062668206591 20.22377585168601, -2.700125336413182 20.179450256624452, -2.4000000000000004 20.090724960726195 M-3 20.268101446747572 C-2.8213775935516137 20.215295755446743, -2.6427551871032273 20.162490064145917, -2.4000000000000004 20.090724960726195 M-2.4000000000000004 20.090724960726195 C-2.2742218976981947 20.046734327823625, -2.1484437953963895 20.00274369492105, -1.8000000000000007 19.880876193265788 M-2.4000000000000004 20.090724960726195 C-2.2766558093262326 20.04758558341571, -2.1533116186524652 20.00444620610522, -1.8000000000000007 19.880876193265788 M-1.8000000000000007 19.880876193265788 C-1.6609626484297049 19.825214442660783, -1.5219252968594088 19.76955269205578, -1.1999999999999993 19.64067419009315 M-1.8000000000000007 19.880876193265788 C-1.5803744708959302 19.79295203986804, -1.3607489417918595 19.705027886470294, -1.1999999999999993 19.64067419009315 M-1.1999999999999993 19.64067419009315 C-1.0741887166325936 19.58445128999751, -0.948377433265188 19.528228389901873, -0.6000000000000014 19.372544502878444 M-1.1999999999999993 19.64067419009315 C-1.0357207373534725 19.567260611244357, -0.8714414747069458 19.493847032395564, -0.6000000000000014 19.372544502878444 M-0.6000000000000014 19.372544502878444 C-0.46870641524506396 19.30835292334589, -0.33741283049012655 19.24416134381333, 0 19.079194696096774 M-0.6000000000000014 19.372544502878444 C-0.46975625784586716 19.308866208552715, -0.3395125156917329 19.24518791422699, 0 19.079194696096774 M0 19.079194696096774 C0.18661174436837613 18.981034526830094, 0.37322348873675226 18.882874357563416, 0.6000000000000014 18.763587006134102 M0 19.079194696096774 C0.18152052690518036 18.983712572467855, 0.3630410538103607 18.88823044883894, 0.6000000000000014 18.763587006134102 M0.6000000000000014 18.763587006134102 C0.8057103592753334 18.6488422554664, 1.0114207185506654 18.534097504798698, 1.2000000000000028 18.428908428724814 M0.6000000000000014 18.763587006134102 C0.8146998280550835 18.643827951094945, 1.0293996561101655 18.52406889605579, 1.2000000000000028 18.428908428724814 M1.2000000000000028 18.428908428724814 C1.329106941466652 18.35351645350585, 1.4582138829333016 18.278124478286887, 1.8000000000000007 18.078538536777035 M1.2000000000000028 18.428908428724814 C1.3615867301684683 18.334549886742614, 1.5231734603369336 18.24019134476041, 1.8000000000000007 18.078538536777035 M1.8000000000000007 18.078538536777035 C1.9780518191310337 17.97095868302881, 2.1561036382620666 17.863378829280588, 2.3999999999999986 17.71601535356018 M1.8000000000000007 18.078538536777035 C1.9264099849453276 18.00216095322241, 2.0528199698906544 17.925783369667787, 2.3999999999999986 17.71601535356018 M2.3999999999999986 17.71601535356018 C2.5735560311816092 17.608695324885957, 2.74711206236322 17.501375296211734, 3 17.34499962586614 M2.3999999999999986 17.71601535356018 C2.606905415284205 17.58807341486767, 2.8138108305684115 17.460131476175157, 3 17.34499962586614 M3 17.34499962586614 C3.1842256598965517 17.22962469309089, 3.3684513197931034 17.114249760315637, 3.6000000000000014 16.969237857912518 M3 17.34499962586614 C3.1313664072909018 17.26272883677723, 3.2627328145818035 17.180458047688326, 3.6000000000000014 16.969237857912518 M3.6000000000000014 16.969237857912518 C3.797571583740666 16.845191426521435, 3.9951431674813307 16.721144995130352, 4.199999999999999 16.592524479270253 M3.6000000000000014 16.969237857912518 C3.766317251612623 16.86481463494337, 3.9326345032252448 16.76039141197423, 4.199999999999999 16.592524479270253 M4.199999999999999 16.592524479270253 C4.353003665407026 16.497187652990306, 4.506007330814052 16.40185082671036, 4.800000000000001 16.218663528842715 M4.199999999999999 16.592524479270253 C4.4317917306545604 16.448094684730656, 4.6635834613091225 16.303664890191058, 4.800000000000001 16.218663528842715 M4.800000000000001 16.218663528842715 C4.958114822487618 16.121888485524853, 5.116229644975235 16.02511344220699, 5.400000000000002 15.85143024181003 M4.800000000000001 16.218663528842715 C5.008888014021708 16.09081247549118, 5.217776028043415 15.962961422139646, 5.400000000000002 15.85143024181003 M5.400000000000002 15.85143024181003 C5.596539101055332 15.734523112915314, 5.793078202110662 15.617615984020599, 6 15.49453292743246 M5.400000000000002 15.85143024181003 C5.62989106989085 15.714684399404312, 5.859782139781699 15.577938556998594, 6 15.49453292743246 M6 15.49453292743246 C6.163722474091052 15.400949869406375, 6.327444948182103 15.307366811380291, 6.599999999999998 15.151575522669424 M6 15.49453292743246 C6.12835046622591 15.421168356104186, 6.256700932451818 15.347803784775914, 6.599999999999998 15.151575522669424 M6.599999999999998 15.151575522669424 C6.806016098655489 15.03979313682107, 7.012032197310979 14.928010750972717, 7.199999999999999 14.826021199746492 M6.599999999999998 15.151575522669424 C6.765321571036411 15.0618736024639, 6.930643142072825 14.972171682258374, 7.199999999999999 14.826021199746492 M7.199999999999999 14.826021199746492 C7.3712746547666965 14.738995461610768, 7.542549309533393 14.651969723475043, 7.800000000000001 14.521157395159873 M7.199999999999999 14.826021199746492 C7.363572552757986 14.74290894848025, 7.527145105515972 14.65979669721401, 7.800000000000001 14.521157395159873 M7.800000000000001 14.521157395159873 C7.9226773334225955 14.463684131354574, 8.04535466684519 14.406210867549275, 8.400000000000002 14.240062613254317 M7.800000000000001 14.521157395159873 C7.9779584817652145 14.437785394126479, 8.155916963530428 14.354413393093084, 8.400000000000002 14.240062613254317 M8.400000000000002 14.240062613254317 C8.566043431775604 14.169636046150469, 8.732086863551205 14.099209479046621, 9 13.985575339590792 M8.400000000000002 14.240062613254317 C8.61016978558063 14.150920053689546, 8.82033957116126 14.061777494124776, 9 13.985575339590792 M9 13.985575339590792 C9.157567396832473 13.926406166047773, 9.315134793664946 13.867236992504754, 9.599999999999998 13.760265378015704 M9 13.985575339590792 C9.122880750689285 13.939431577563923, 9.245761501378572 13.893287815537056, 9.599999999999998 13.760265378015704 M9.599999999999998 13.760265378015704 C9.770809077154185 13.70507768339757, 9.941618154308374 13.649889988779437, 10.2 13.566407900868926 M9.599999999999998 13.760265378015704 C9.837862034897563 13.68341315469197, 10.075724069795129 13.606560931368234, 10.2 13.566407900868926 M10.2 13.566407900868926 C10.431458074408182 13.504513146900578, 10.662916148816363 13.442618392932232, 10.8 13.405960474370783 M10.2 13.566407900868926 C10.383150563197495 13.517431173324386, 10.566301126394992 13.468454445779846, 10.8 13.405960474370783 M10.8 13.405960474370783 C10.999428086299726 13.364274292984325, 11.198856172599454 13.322588111597868, 11.399999999999999 13.280543291184841 M10.8 13.405960474370783 C11.014065791575536 13.361214593377662, 11.228131583151072 13.316468712384541, 11.399999999999999 13.280543291184841 M11.399999999999999 13.280543291184841 C11.612561366131258 13.248970672384237, 11.82512273226252 13.217398053583631, 12 13.191422809767419 M11.399999999999999 13.280543291184841 C11.570852642043022 13.255165841667653, 11.741705284086043 13.229788392150466, 12 13.191422809767419 M12 13.191422809767419 C12.199833557798826 13.174129265614143, 12.399667115597651 13.156835721460867, 12.600000000000001 13.139498965713102 M12 13.191422809767419 C12.151595473438178 13.17830377689718, 12.303190946876356 13.165184744026938, 12.600000000000001 13.139498965713102 M12.600000000000001 13.139498965713102 C12.72489287475329 13.136542567883945, 12.84978574950658 13.133586170054787, 13.2 13.12529608423569 M12.600000000000001 13.139498965713102 C12.732970490424062 13.136351358853958, 12.865940980848125 13.133203751994815, 13.2 13.12529608423569 M13.2 13.12529608423569 C13.359492977860096 13.131585823077781, 13.518985955720193 13.137875561919873, 13.799999999999997 13.148957585549969 M13.2 13.12529608423569 C13.346984097528468 13.131092524930436, 13.493968195056937 13.136888965625182, 13.799999999999997 13.148957585549969 M13.799999999999997 13.148957585549969 C13.94182125980907 13.163443906567478, 14.083642519618143 13.177930227584989, 14.399999999999999 13.210244536619275 M13.799999999999997 13.148957585549969 C13.97295574919919 13.16662413644718, 14.145911498398384 13.184290687344388, 14.399999999999999 13.210244536619275 M14.399999999999999 13.210244536619275 C14.605249485768235 13.243869029831464, 14.810498971536472 13.277493523043654, 15 13.308538063893174 M14.399999999999999 13.210244536619275 C14.575929910946003 13.239065822452384, 14.751859821892008 13.267887108285494, 15 13.308538063893174 M15 13.308538063893174 C15 4.802028729833895, 15 -3.7044806042253846, 15 -16.875 M15 13.308538063893174 C15 1.9535683113347844, 15 -9.401401441223605, 15 -16.875 M15 -16.875 C7.514002869311081 -16.875, 0.028005738622162824 -16.875, -15 -16.875 M15 -16.875 C3.4734809357308016 -16.875, -8.053038128538397 -16.875, -15 -16.875 M-15 -16.875 C-15 -7.1545429361316515, -15 2.565914127736697, -15 16.875 M-15 -16.875 C-15 -6.993373852459301, -15 2.888252295081397, -15 16.875" stroke="currentColor" stroke-width="2" fill="none" vector-effect="non-scaling-stroke"/></g></g></g></g></g><linearGradient id="s2m-shape-file-gradient" gradientUnits="objectBoundingBox" x1="0%" y1="0%" x2="100%" y2="0%"><stop offset="0%" stop-color="hsl(40.5882352941, 60%, 83.3333333333%)" stop-opacity="1"/><stop offset="100%" stop-color="hsl(-79.4117647059, 60%, 83.3333333333%)" stop-opacity="1"/></linearGradient></svg>