<svg id="s2m-shape-file" width="100%" xmlns="http://www.w3.org/2000/svg" class="flowchart" style="max-width: 76px;" viewBox="-21.30 -16.05 102.60 62.10" role="graphics-document document" aria-roledescription="flowchart-v2"><g><marker id="s2m-shape-file_flowchart-v2-pointEnd" class="marker flowchart-v2" viewBox="0 0 10 10" refX="5" refY="5" markerUnits="userSpaceOnUse" markerWidth="8" markerHeight="8" orient="auto"><path d="M 0 0 L 10 5 L 0 10 z" class="arrowMarkerPath" style="stroke-width: 1; stroke-dasharray: 1,0;"/></marker><marker id="s2m-shape-file_flowchart-v2-pointStart" class="marker flowchart-v2" viewBox="0 0 10 10" refX="4.5" refY="5" markerUnits="userSpaceOnUse" markerWidth="8" markerHeight="8" orient="auto"><path d="M 0 5 L 10 10 L 10 0 z" class="arrowMarkerPath" style="stroke-width: 1; stroke-dasharray: 1,0;"/></marker><marker id="s2m-shape-file_flowchart-v2-pointEnd-margin" class="marker flowchart-v2" viewBox="0 0 11.5 14" refX="11.5" refY="7" markerUnits="userSpaceOnUse" markerWidth="10.5" markerHeight="14" orient="auto"><path d="M 0 0 L 11.5 7 L 0 14 z" class="arrowMarkerPath" style="stroke-width: 0; stroke-dasharray: 1,0;"/></marker><marker id="s2m-shape-file_flowchart-v2-pointStart-margin" class="marker flowchart-v2" viewBox="0 0 11.5 14" refX="1" refY="7" markerUnits="userSpaceOnUse" markerWidth="11.5" markerHeight="14" orient="auto"><polygon points="0,7 11.5,14 11.5,0" class="arrowMarkerPath" style="stroke-width: 0; stroke-dasharray: 1,0;"/></marker><marker id="s2m-shape-file_flowchart-v2-circleEnd" class="marker flowchart-v2" viewBox="0 0 10 10" refX="11" refY="5" markerUnits="userSpaceOnUse" markerWidth="11" markerHeight="11" orient="auto"><circle cx="5" cy="5" r="5" class="arrowMarkerPath" style="stroke-width: 1; stroke-dasharray: 1,0;"/></marker><marker id="s2m-shape-file_flowchart-v2-circleStart" class="marker flowchart-v2" viewBox="0 0 10 10" refX="-1" refY="5" markerUnits="userSpaceOnUse" markerWidth="11" markerHeight="11" orient="auto"><circle cx="5" cy="5" r="5" class="arrowMarkerPath" style="stroke-width: 1; stroke-dasharray: 1,0;"/></marker><marker id="s2m-shape-file_flowchart-v2-circleEnd-margin" class="marker flowchart-v2" viewBox="0 0 10 10" refY="5" refX="12.25" markerUnits="userSpaceOnUse" markerWidth="14" markerHeight="14" orient="auto"><circle cx="5" cy="5" r="5" class="arrowMarkerPath" style="stroke-width: 0; stroke-dasharray: 1,0;"/></marker><marker id="s2m-shape-file_flowchart-v2-circleStart-margin" class="marker flowchart-v2" viewBox="0 0 10 10" refX="-2" refY="5" markerUnits="userSpaceOnUse" markerWidth="14" markerHeight="14" orient="auto"><circle cx="5" cy="5" r="5" class="arrowMarkerPath" style="stroke-width: 0; stroke-dasharray: 1,0;"/></marker><marker id="s2m-shape-file_flowchart-v2-crossEnd" class="marker cross flowchart-v2" viewBox="0 0 11 11" refX="12" refY="5.2" markerUnits="userSpaceOnUse" markerWidth="11" markerHeight="11" orient="auto"><path d="M 1,1 l 9,9 M 10,1 l -9,9" class="arrowMarkerPath" style="stroke-width: 2; stroke-dasharray: 1,0;"/></marker><marker id="s2m-shape-file_flowchart-v2-crossStart" class="marker cross flowchart-v2" viewBox="0 0 11 11" refX="-1" refY="5.2" markerUnits="userSpaceOnUse" markerWidth="11" markerHeight="11" orient="auto"><path d="M 1,1 l 9,9 M 10,1 l -9,9" class="arrowMarkerPath" style="stroke-width: 2; stroke-dasharray: 1,0;"/></marker><marker id="s2m-shape-file_flowchart-v2-crossEnd-margin" class="marker cross flowchart-v2" viewBox="0 0 15 15" refX="17.7" refY="7.5" markerUnits="userSpaceOnUse" markerWidth="12" markerHeight="12" orient="auto"><path d="M 1,1 L 14,14 M 1,14 L 14,1" class="arrowMarkerPath" style="stroke-width: 2.5;"/></marker><marker id="s2m-shape-file_flowchart-v2-crossStart-margin" class="marker cross flowchart-v2" viewBox="0 0 15 15" refX="-3.5" refY="7.5" markerUnits="userSpaceOnUse" markerWidth="12" markerHeight="12" orient="auto"><path d="M 1,1 L 14,14 M 1,14 L 14,1" class="arrowMarkerPath" style="stroke-width: 2.5; stroke-dasharray: 1,0;"/></marker><g class="root"><g class="clusters"/><g class="edgePaths"/><g class="edgeLabels"/><g class="nodes"><g class="node default" data-look="classic" transform="translate(38, 23)"><g class="basic label-container outer-path" transform="translate(0,-1.875)"><path d="M-15 16.875 C-15 16.875, -15 16.875, -15 16.875 M-15 16.875 C-15 16.875, -15 16.875, -15 16.875 M-15 16.875 C-14.7604372205048 17.025268321029138, -14.5208744410096 17.175536642058272, -14.4 17.251356430692056 M-15 16.875 C-14.792189062193811 17.005351638019178, -14.584378124387623 17.135703276038353, -14.4 17.251356430692056 M-14.4 17.251356430692056 C-14.210700128378159 17.3688977677914, -14.021400256756317 17.486439104890742, -13.8 17.623912426929024 M-14.4 17.251356430692056 C-14.24207750283314 17.349414719459105, -14.08415500566628 17.447473008226154, -13.8 17.623912426929024 M-13.8 17.623912426929024 C-13.657064189449047 17.710863497492205, -13.514128378898091 17.797814568055387, -13.2 17.98890593091388 M-13.8 17.623912426929024 C-13.598317079686362 17.746600686560978, -13.396634159372725 17.869288946192935, -13.2 17.98890593091388 M-13.2 17.98890593091388 C-13.064600653349787 18.06873407286625, -12.929201306699575 18.148562214818615, -12.6 18.34265125063951 M-13.2 17.98890593091388 C-12.961871847308231 18.129300463429917, -12.723743694616463 18.269694995945958, -12.6 18.34265125063951 M-12.6 18.34265125063951 C-12.470632837025626 18.41572753269834, -12.341265674051254 18.488803814757176, -12 18.681576277881433 M-12.6 18.34265125063951 C-12.422067037619058 18.44316114084317, -12.244134075238117 18.54367103104683, -12 18.681576277881433 M-12 18.681576277881433 C-11.864932519910063 18.753765857299122, -11.729865039820126 18.82595543671681, -11.4 19.002258559225336 M-12 18.681576277881433 C-11.80164212342561 18.787592705185446, -11.60328424685122 18.89360913248946, -11.4 19.002258559225336 M-11.4 19.002258559225336 C-11.163833157580108 19.12002760169225, -10.927666315160213 19.237796644159165, -10.8 19.301459855885415 M-11.4 19.002258559225336 C-11.165054148938097 19.119418731363048, -10.930108297876195 19.23657890350076, -10.8 19.301459855885415 M-10.8 19.301459855885415 C-10.575422348721865 19.404278611566596, -10.35084469744373 19.507097367247777, -10.2 19.57615884332965 M-10.8 19.301459855885415 C-10.676787307530129 19.357870525655002, -10.553574615060255 19.41428119542459, -10.2 19.57615884332965 M-10.2 19.57615884332965 C-9.97518986815921 19.6688640885944, -9.75037973631842 19.761569333859153, -9.600000000000001 19.82358162051232 M-10.2 19.57615884332965 C-10.006152138077514 19.656096137242624, -9.812304276155029 19.736033431155597, -9.600000000000001 19.82358162051232 M-9.600000000000001 19.82358162051232 C-9.47156752578048 19.870170093858356, -9.34313505156096 19.916758567204386, -9 20.041229720632558 M-9.600000000000001 19.82358162051232 C-9.41410417562922 19.891014742169965, -9.228208351258438 19.958447863827608, -9 20.041229720632558 M-9 20.041229720632558 C-8.829734096753691 20.093920099197554, -8.659468193507383 20.146610477762547, -8.4 20.22690534056724 M-9 20.041229720632558 C-8.87371152360344 20.080310872541787, -8.747423047206881 20.119392024451017, -8.4 20.22690534056724 M-8.4 20.22690534056724 C-8.180320962511674 20.2824944596398, -7.960641925023348 20.33808357871236, -7.800000000000001 20.378733534212294 M-8.4 20.22690534056724 C-8.179507207509895 20.282700377893118, -7.959014415019788 20.338495415218997, -7.800000000000001 20.378733534212294 M-7.800000000000001 20.378733534212294 C-7.5830702701208414 20.4208351156936, -7.366140540241681 20.462936697174904, -7.199999999999999 20.495181145624777 M-7.800000000000001 20.378733534212294 C-7.63433419681469 20.410885846001726, -7.468668393629378 20.44303815779116, -7.199999999999999 20.495181145624777 M-7.199999999999999 20.495181145624777 C-7.073006189114344 20.512090613923473, -6.946012378228689 20.529000082222172, -6.6 20.575072290779506 M-7.199999999999999 20.495181145624777 C-7.002148721863525 20.521525420925858, -6.804297443727051 20.547869696226943, -6.6 20.575072290779506 M-6.6 20.575072290779506 C-6.477206061170373 20.583775913053508, -6.3544121223407455 20.59247953532751, -6 20.61760023160602 M-6.6 20.575072290779506 C-6.470104824967652 20.584279247975214, -6.340209649935304 20.593486205170922, -6 20.61760023160602 M-6 20.61760023160602 C-5.8438754243011655 20.618832390383297, -5.68775084860233 20.62006454916057, -5.4 20.62233552240221 M-6 20.61760023160602 C-5.763304052244379 20.61946827184419, -5.526608104488759 20.621336312082363, -5.4 20.62233552240221 M-5.4 20.62233552240221 C-5.241383003891685 20.613583783103767, -5.082766007783371 20.604832043805327, -4.799999999999999 20.58923034636244 M-5.4 20.62233552240221 C-5.202342713782252 20.611429723642573, -5.004685427564503 20.60052392488294, -4.799999999999999 20.58923034636244 M-4.799999999999999 20.58923034636244 C-4.603984098447008 20.566162101321034, -4.407968196894019 20.54309385627963, -4.200000000000001 20.51861899843003 M-4.799999999999999 20.58923034636244 C-4.6539383801215575 20.57204099992776, -4.507876760243115 20.55485165349308, -4.200000000000001 20.51861899843003 M-4.200000000000001 20.51861899843003 C-3.9787247428022594 20.479009071945953, -3.757449485604518 20.439399145461877, -3.5999999999999996 20.411214509598242 M-4.200000000000001 20.51861899843003 C-4.059229253771165 20.493419981694732, -3.9184585075423293 20.46822096495944, -3.5999999999999996 20.411214509598242 M-3.5999999999999996 20.411214509598242 C-3.437989283060694 20.372571426405212, -3.2759785661213883 20.333928343212186, -3 20.268101446747572 M-3.5999999999999996 20.411214509598242 C-3.4792522366721306 20.382413539194545, -3.358504473344262 20.353612568790844, -3 20.268101446747572 M-3 20.268101446747572 C-2.7866521834705233 20.20502997008702, -2.5733043669410467 20.141958493426465, -2.4000000000000004 20.090724960726195 M-3 20.268101446747572 C-2.813530728558913 20.212976006548928, -2.627061457117826 20.157850566350284, -2.4000000000000004 20.090724960726195 M-2.4000000000000004 20.090724960726195 C-2.163720766150727 20.00808678405993, -1.9274415323014535 19.925448607393665, -1.8000000000000007 19.880876193265788 M-2.4000000000000004 20.090724960726195 C-2.243445443750778 20.03597032627751, -2.0868908875015553 19.981215691828826, -1.8000000000000007 19.880876193265788 M-1.8000000000000007 19.880876193265788 C-1.5609982464800123 19.78519502667033, -1.3219964929600239 19.689513860074875, -1.1999999999999993 19.64067419009315 M-1.8000000000000007 19.880876193265788 C-1.599789300621831 19.80072450818707, -1.3995786012436613 19.720572823108352, -1.1999999999999993 19.64067419009315 M-1.1999999999999993 19.64067419009315 C-1.0429610072315438 19.570496163407288, -0.8859220144630884 19.500318136721422, -0.6000000000000014 19.372544502878444 M-1.1999999999999993 19.64067419009315 C-0.9896185577567121 19.546658339585697, -0.779237115513425 19.452642489078244, -0.6000000000000014 19.372544502878444 M-0.6000000000000014 19.372544502878444 C-0.4275100064870377 19.28821132576378, -0.25502001297407395 19.203878148649114, 0 19.079194696096774 M-0.6000000000000014 19.372544502878444 C-0.37382176138316614 19.261962265217665, -0.14764352276633091 19.151380027556886, 0 19.079194696096774 M0 19.079194696096774 C0.2352994704966689 18.955424158875285, 0.4705989409933378 18.831653621653796, 0.6000000000000014 18.763587006134102 M0 19.079194696096774 C0.12654368630228177 19.0126310952414, 0.25308737260456354 18.94606749438603, 0.6000000000000014 18.763587006134102 M0.6000000000000014 18.763587006134102 C0.7690295616004161 18.669302717439866, 0.9380591232008308 18.57501842874563, 1.2000000000000028 18.428908428724814 M0.6000000000000014 18.763587006134102 C0.8041654862738612 18.64970398196375, 1.008330972547721 18.5358209577934, 1.2000000000000028 18.428908428724814 M1.2000000000000028 18.428908428724814 C1.3284435089460576 18.353903864806774, 1.4568870178921125 18.27889930088874, 1.8000000000000007 18.078538536777035 M1.2000000000000028 18.428908428724814 C1.3801908400807805 18.323686020109676, 1.5603816801615582 18.218463611494542, 1.8000000000000007 18.078538536777035 M1.8000000000000007 18.078538536777035 C1.9700720846939643 17.975780080911065, 2.140144169387928 17.873021625045094, 2.3999999999999986 17.71601535356018 M1.8000000000000007 18.078538536777035 C1.9771297478507588 17.971515803388275, 2.154259495701517 17.864493069999515, 2.3999999999999986 17.71601535356018 M2.3999999999999986 17.71601535356018 C2.557433952285195 17.618664566275445, 2.714867904570392 17.521313778990713, 3 17.34499962586614 M2.3999999999999986 17.71601535356018 C2.560545342651161 17.61674060834083, 2.721090685302324 17.51746586312148, 3 17.34499962586614 M3 17.34499962586614 C3.2387126470937657 17.195501148691402, 3.4774252941875314 17.046002671516664, 3.6000000000000014 16.969237857912518 M3 17.34499962586614 C3.1372580442337212 17.25903908358761, 3.2745160884674425 17.173078541309074, 3.6000000000000014 16.969237857912518 M3.6000000000000014 16.969237857912518 C3.7666031451495363 16.864635135076337, 3.9332062902990708 16.760032412240154, 4.199999999999999 16.592524479270253 M3.6000000000000014 16.969237857912518 C3.7944203266654015 16.84716996102109, 3.988840653330801 16.725102064129665, 4.199999999999999 16.592524479270253 M4.199999999999999 16.592524479270253 C4.369219571970732 16.48708349592372, 4.538439143941465 16.381642512577187, 4.800000000000001 16.218663528842715 M4.199999999999999 16.592524479270253 C4.43337169606685 16.44711020577952, 4.6667433921337 16.30169593228879, 4.800000000000001 16.218663528842715 M4.800000000000001 16.218663528842715 C4.981835832037418 16.107369911677008, 5.163671664074835 15.996076294511303, 5.400000000000002 15.85143024181003 M4.800000000000001 16.218663528842715 C4.950100772889419 16.126793528485504, 5.100201545778837 16.03492352812829, 5.400000000000002 15.85143024181003 M5.400000000000002 15.85143024181003 C5.528935272638061 15.774735820921592, 5.657870545276121 15.698041400033151, 6 15.49453292743246 M5.400000000000002 15.85143024181003 C5.5734538348282285 15.748254895445555, 5.746907669656456 15.64507954908108, 6 15.49453292743246 M6 15.49453292743246 C6.15690933266787 15.404844231574339, 6.31381866533574 15.315155535716217, 6.599999999999998 15.151575522669424 M6 15.49453292743246 C6.135178864656758 15.417265273096634, 6.270357729313517 15.339997618760806, 6.599999999999998 15.151575522669424 M6.599999999999998 15.151575522669424 C6.838007206587033 15.022435064350724, 7.076014413174067 14.893294606032024, 7.199999999999999 14.826021199746492 M6.599999999999998 15.151575522669424 C6.7482467621777475 15.071138232192267, 6.896493524355497 14.99070094171511, 7.199999999999999 14.826021199746492 M7.199999999999999 14.826021199746492 C7.412511135804793 14.718042944115703, 7.625022271609585 14.610064688484917, 7.800000000000001 14.521157395159873 M7.199999999999999 14.826021199746492 C7.400239843067331 14.724278065767601, 7.600479686134663 14.622534931788712, 7.800000000000001 14.521157395159873 M7.800000000000001 14.521157395159873 C7.944306045167401 14.453551268003235, 8.0886120903348 14.385945140846594, 8.400000000000002 14.240062613254317 M7.800000000000001 14.521157395159873 C7.977876154071604 14.437823963934946, 8.155752308143207 14.354490532710019, 8.400000000000002 14.240062613254317 M8.400000000000002 14.240062613254317 C8.569990977995994 14.167961712358323, 8.739981955991984 14.095860811462328, 9 13.985575339590792 M8.400000000000002 14.240062613254317 C8.62429571595877 14.144928604506392, 8.848591431917539 14.049794595758465, 9 13.985575339590792 M9 13.985575339590792 C9.179387017026427 13.918212536401969, 9.358774034052855 13.850849733213145, 9.599999999999998 13.760265378015704 M9 13.985575339590792 C9.206486689536186 13.90803615944885, 9.412973379072373 13.830496979306908, 9.599999999999998 13.760265378015704 M9.599999999999998 13.760265378015704 C9.810844932009973 13.692142267034642, 10.021689864019947 13.62401915605358, 10.2 13.566407900868926 M9.599999999999998 13.760265378015704 C9.817971207551508 13.689839797371416, 10.03594241510302 13.61941421672713, 10.2 13.566407900868926 M10.2 13.566407900868926 C10.356283677163827 13.524615711194588, 10.512567354327656 13.48282352152025, 10.8 13.405960474370783 M10.2 13.566407900868926 C10.401487745537473 13.512527583798258, 10.602975491074949 13.458647266727592, 10.8 13.405960474370783 M10.8 13.405960474370783 C11.000351174146722 13.364081341188319, 11.200702348293445 13.322202208005857, 11.399999999999999 13.280543291184841 M10.8 13.405960474370783 C10.984418463793533 13.367411733943344, 11.168836927587066 13.328862993515905, 11.399999999999999 13.280543291184841 M11.399999999999999 13.280543291184841 C11.587727004403789 13.252659422838981, 11.77545400880758 13.22477555449312, 12 13.191422809767419 M11.399999999999999 13.280543291184841 C11.596872474611054 13.251301008326214, 11.793744949222111 13.222058725467585, 12 13.191422809767419 M12 13.191422809767419 C12.126535845631382 13.180472430574344, 12.253071691262765 13.16952205138127, 12.600000000000001 13.139498965713102 M12 13.191422809767419 C12.20276152619692 13.173875879989978, 12.405523052393837 13.156328950212538, 12.600000000000001 13.139498965713102 M12.600000000000001 13.139498965713102 C12.789802320345682 13.135006065946422, 12.979604640691361 13.130513166179743, 13.2 13.12529608423569 M12.600000000000001 13.139498965713102 C12.829940423300755 13.134055938081424, 13.059880846601507 13.128612910449746, 13.2 13.12529608423569 M13.2 13.12529608423569 C13.340031964135557 13.130818361741413, 13.480063928271113 13.136340639247138, 13.799999999999997 13.148957585549969 M13.2 13.12529608423569 C13.41529262381466 13.133786328737932, 13.63058524762932 13.142276573240174, 13.799999999999997 13.148957585549969 M13.799999999999997 13.148957585549969 C13.997460323376337 13.169127154178128, 14.194920646752678 13.189296722806287, 14.399999999999999 13.210244536619275 M13.799999999999997 13.148957585549969 C13.966873858277404 13.166002902194958, 14.133747716554812 13.183048218839948, 14.399999999999999 13.210244536619275 M14.399999999999999 13.210244536619275 C14.607473655931129 13.244233399049078, 14.814947311862259 13.27822226147888, 15 13.308538063893174 M14.399999999999999 13.210244536619275 C14.546495542598388 13.234243809305774, 14.692991085196777 13.258243081992273, 15 13.308538063893174 M15 13.308538063893174 C15 7.006190550667948, 15 0.7038430374427218, 15 -16.875 M15 13.308538063893174 C15 2.1989508496756915, 15 -8.91063636454179, 15 -16.875 M15 -16.875 C4.82341689806346 -16.875, -5.35316620387308 -16.875, -15 -16.875 M15 -16.875 C8.16533639358245 -16.875, 1.3306727871649002 -16.875, -15 -16.875 M-15 -16.875 C-15 -9.427740082775669, -15 -1.980480165551338, -15 16.875 M-15 -16.875 C-15 -4.8962810088167235, -15 7.082437982366553, -15 16.875" stroke="currentColor" stroke-width="2" fill="none" vector-effect="non-scaling-stroke"/></g></g></g></g></g><linearGradient id="s2m-shape-file-gradient" gradientUnits="objectBoundingBox" x1="0%" y1="0%" x2="100%" y2="0%"><stop offset="0%" stop-color="hsl(40.5882352941, 60%, 83.3333333333%)" stop-opacity="1"/><stop offset="100%" stop-color="hsl(-79.4117647059, 60%, 83.3333333333%)" stop-opacity="1"/></linearGradient></svg>