<svg id="s2m-shape-linedDocument" width="100%" xmlns="http://www.w3.org/2000/svg" class="flowchart" style="max-width: 76px;" viewBox="-8 -8 76 46" role="graphics-document document" aria-roledescription="flowchart-v2"><g><marker id="s2m-shape-linedDocument_flowchart-v2-pointEnd" class="marker flowchart-v2" viewBox="0 0 10 10" refX="5" refY="5" markerUnits="userSpaceOnUse" markerWidth="8" markerHeight="8" orient="auto"><path d="M 0 0 L 10 5 L 0 10 z" class="arrowMarkerPath" style="stroke-width: 1; stroke-dasharray: 1,0;"/></marker><marker id="s2m-shape-linedDocument_flowchart-v2-pointStart" class="marker flowchart-v2" viewBox="0 0 10 10" refX="4.5" refY="5" markerUnits="userSpaceOnUse" markerWidth="8" markerHeight="8" orient="auto"><path d="M 0 5 L 10 10 L 10 0 z" class="arrowMarkerPath" style="stroke-width: 1; stroke-dasharray: 1,0;"/></marker><marker id="s2m-shape-linedDocument_flowchart-v2-pointEnd-margin" class="marker flowchart-v2" viewBox="0 0 11.5 14" refX="11.5" refY="7" markerUnits="userSpaceOnUse" markerWidth="10.5" markerHeight="14" orient="auto"><path d="M 0 0 L 11.5 7 L 0 14 z" class="arrowMarkerPath" style="stroke-width: 0; stroke-dasharray: 1,0;"/></marker><marker id="s2m-shape-linedDocument_flowchart-v2-pointStart-margin" class="marker flowchart-v2" viewBox="0 0 11.5 14" refX="1" refY="7" markerUnits="userSpaceOnUse" markerWidth="11.5" markerHeight="14" orient="auto"><polygon points="0,7 11.5,14 11.5,0" class="arrowMarkerPath" style="stroke-width: 0; stroke-dasharray: 1,0;"/></marker><marker id="s2m-shape-linedDocument_flowchart-v2-circleEnd" class="marker flowchart-v2" viewBox="0 0 10 10" refX="11" refY="5" markerUnits="userSpaceOnUse" markerWidth="11" markerHeight="11" orient="auto"><circle cx="5" cy="5" r="5" class="arrowMarkerPath" style="stroke-width: 1; stroke-dasharray: 1,0;"/></marker><marker id="s2m-shape-linedDocument_flowchart-v2-circleStart" class="marker flowchart-v2" viewBox="0 0 10 10" refX="-1" refY="5" markerUnits="userSpaceOnUse" markerWidth="11" markerHeight="11" orient="auto"><circle cx="5" cy="5" r="5" class="arrowMarkerPath" style="stroke-width: 1; stroke-dasharray: 1,0;"/></marker><marker id="s2m-shape-linedDocument_flowchart-v2-circleEnd-margin" class="marker flowchart-v2" viewBox="0 0 10 10" refY="5" refX="12.25" markerUnits="userSpaceOnUse" markerWidth="14" markerHeight="14" orient="auto"><circle cx="5" cy="5" r="5" class="arrowMarkerPath" style="stroke-width: 0; stroke-dasharray: 1,0;"/></marker><marker id="s2m-shape-linedDocument_flowchart-v2-circleStart-margin" class="marker flowchart-v2" viewBox="0 0 10 10" refX="-2" refY="5" markerUnits="userSpaceOnUse" markerWidth="14" markerHeight="14" orient="auto"><circle cx="5" cy="5" r="5" class="arrowMarkerPath" style="stroke-width: 0; stroke-dasharray: 1,0;"/></marker><marker id="s2m-shape-linedDocument_flowchart-v2-crossEnd" class="marker cross flowchart-v2" viewBox="0 0 11 11" refX="12" refY="5.2" markerUnits="userSpaceOnUse" markerWidth="11" markerHeight="11" orient="auto"><path d="M 1,1 l 9,9 M 10,1 l -9,9" class="arrowMarkerPath" style="stroke-width: 2; stroke-dasharray: 1,0;"/></marker><marker id="s2m-shape-linedDocument_flowchart-v2-crossStart" class="marker cross flowchart-v2" viewBox="0 0 11 11" refX="-1" refY="5.2" markerUnits="userSpaceOnUse" markerWidth="11" markerHeight="11" orient="auto"><path d="M 1,1 l 9,9 M 10,1 l -9,9" class="arrowMarkerPath" style="stroke-width: 2; stroke-dasharray: 1,0;"/></marker><marker id="s2m-shape-linedDocument_flowchart-v2-crossEnd-margin" class="marker cross flowchart-v2" viewBox="0 0 15 15" refX="17.7" refY="7.5" markerUnits="userSpaceOnUse" markerWidth="12" markerHeight="12" orient="auto"><path d="M 1,1 L 14,14 M 1,14 L 14,1" class="arrowMarkerPath" style="stroke-width: 2.5;"/></marker><marker id="s2m-shape-linedDocument_flowchart-v2-crossStart-margin" class="marker cross flowchart-v2" viewBox="0 0 15 15" refX="-3.5" refY="7.5" markerUnits="userSpaceOnUse" markerWidth="12" markerHeight="12" orient="auto"><path d="M 1,1 L 14,14 M 1,14 L 14,1" class="arrowMarkerPath" style="stroke-width: 2.5; stroke-dasharray: 1,0;"/></marker><g class="root"><g class="clusters"/><g class="edgePaths"/><g class="edgeLabels"/><g class="nodes"><g class="node default" data-look="classic" transform="translate(38, 23)"><g class="basic label-container outer-path" transform="translate(0,-1.875)"><path d="M-16.5 -16.875 C-16.5 -8.59776219809321, -16.5 -0.32052439618642126, -16.5 16.875 M-16.5 -16.875 C-16.5 -5.733966791814343, -16.5 5.407066416371315, -16.5 16.875 M-16.5 16.875 C-16.5 16.875, -16.5 16.875, -16.5 16.875 M-16.5 16.875 C-16.5 16.875, -16.5 16.875, -16.5 16.875 M-16.5 16.875 C-16.276651761189317 17.00236143327295, -16.05330352237863 17.129722866545897, -15.84 17.251356430692056 M-16.5 16.875 C-16.32572031931743 16.974380725096733, -16.15144063863486 17.073761450193466, -15.84 17.251356430692056 M-15.84 17.251356430692056 C-15.66669643193144 17.349182617742365, -15.49339286386288 17.447008804792674, -15.18 17.623912426929028 M-15.84 17.251356430692056 C-15.677221246879078 17.34324158301808, -15.514442493758155 17.43512673534411, -15.18 17.623912426929028 M-15.18 17.623912426929028 C-14.999114704849132 17.723945696166073, -14.818229409698267 17.823978965403114, -14.52 17.98890593091388 M-15.18 17.623912426929028 C-14.978719827747588 17.735224480494306, -14.777439655495174 17.84653653405958, -14.52 17.98890593091388 M-14.52 17.98890593091388 C-14.295677662272714 18.109137714369847, -14.071355324545431 18.229369497825815, -13.86 18.34265125063951 M-14.52 17.98890593091388 C-14.282038168420787 18.116448179693403, -14.044076336841572 18.243990428472927, -13.86 18.34265125063951 M-13.86 18.34265125063951 C-13.718159672039588 18.41548948854555, -13.576319344079176 18.488327726451587, -13.2 18.681576277881433 M-13.86 18.34265125063951 C-13.614077636713338 18.468937983482434, -13.368155273426677 18.595224716325358, -13.2 18.681576277881433 M-13.2 18.681576277881433 C-12.950841654938177 18.802637893806125, -12.701683309876357 18.923699509730817, -12.54 19.00225855922534 M-13.2 18.681576277881433 C-13.03332967347076 18.76255843022042, -12.866659346941521 18.843540582559402, -12.54 19.00225855922534 M-12.54 19.00225855922534 C-12.30546785183283 19.108580260498204, -12.070935703665663 19.214901961771066, -11.879999999999999 19.301459855885415 M-12.54 19.00225855922534 C-12.397828805816381 19.066709779903295, -12.255657611632762 19.131161000581248, -11.879999999999999 19.301459855885415 M-11.879999999999999 19.301459855885415 C-11.7145035211334 19.370341242506992, -11.549007042266801 19.43922262912857, -11.219999999999999 19.57615884332965 M-11.879999999999999 19.301459855885415 C-11.652089519615556 19.396318610718044, -11.424179039231113 19.491177365550676, -11.219999999999999 19.57615884332965 M-11.219999999999999 19.57615884332965 C-11.03537655744237 19.645371032557883, -10.850753114884743 19.714583221786118, -10.56 19.82358162051232 M-11.219999999999999 19.57615884332965 C-11.060918696707192 19.635795718872902, -10.901837393414386 19.69543259441615, -10.56 19.82358162051232 M-10.56 19.82358162051232 C-10.413707529862931 19.871824466250548, -10.267415059725863 19.920067311988774, -9.899999999999999 20.041229720632558 M-10.56 19.82358162051232 C-10.335657550083571 19.897562996270853, -10.111315100167142 19.97154437202938, -9.899999999999999 20.041229720632558 M-9.899999999999999 20.041229720632558 C-9.752361120714372 20.082764478871677, -9.604722241428746 20.1242992371108, -9.24 20.22690534056724 M-9.899999999999999 20.041229720632558 C-9.75244133910444 20.082741911296974, -9.604882678208883 20.124254101961387, -9.24 20.22690534056724 M-9.24 20.22690534056724 C-9.07937760883733 20.26385535194478, -8.918755217674661 20.300805363322322, -8.58 20.378733534212294 M-9.24 20.22690534056724 C-9.064950489347924 20.2671742057199, -8.889900978695849 20.30744307087256, -8.58 20.378733534212294 M-8.58 20.378733534212294 C-8.35457130086708 20.418507221421162, -8.12914260173416 20.458280908630027, -7.92 20.495181145624777 M-8.58 20.378733534212294 C-8.384901196021438 20.413155942867956, -8.189802392042878 20.447578351523614, -7.92 20.495181145624777 M-7.92 20.495181145624777 C-7.785373396870469 20.51147731758282, -7.650746793740939 20.527773489540866, -7.26 20.575072290779506 M-7.92 20.495181145624777 C-7.711462077112616 20.520424075121234, -7.502924154225233 20.54566700461769, -7.26 20.575072290779506 M-7.26 20.575072290779506 C-7.023853782325994 20.590288673160785, -6.787707564651988 20.605505055542068, -6.6 20.61760023160602 M-7.26 20.575072290779506 C-7.073107887982261 20.5871149221141, -6.886215775964524 20.599157553448695, -6.6 20.61760023160602 M-6.6 20.61760023160602 C-6.431020422983737 20.61881260650873, -6.262040845967474 20.62002498141144, -5.9399999999999995 20.62233552240221 M-6.6 20.61760023160602 C-6.363250406598719 20.61929883489486, -6.1265008131974374 20.6209974381837, -5.9399999999999995 20.62233552240221 M-5.9399999999999995 20.62233552240221 C-5.729387207477505 20.611771320019354, -5.518774414955012 20.6012071176365, -5.279999999999999 20.58923034636244 M-5.9399999999999995 20.62233552240221 C-5.759796677547617 20.613296639504124, -5.579593355095235 20.604257756606035, -5.279999999999999 20.58923034636244 M-5.279999999999999 20.58923034636244 C-5.0247543936753 20.561922412549695, -4.769508787350601 20.53461447873695, -4.620000000000001 20.51861899843003 M-5.279999999999999 20.58923034636244 C-5.147320664183592 20.575035396749147, -5.014641328367184 20.560840447135853, -4.620000000000001 20.51861899843003 M-4.620000000000001 20.51861899843003 C-4.471437976733571 20.494442895144047, -4.322875953467142 20.47026679185807, -3.959999999999999 20.411214509598242 M-4.620000000000001 20.51861899843003 C-4.431332030767262 20.487916291165828, -4.242664061534523 20.457213583901623, -3.959999999999999 20.411214509598242 M-3.959999999999999 20.411214509598242 C-3.7105711905074488 20.357128871886612, -3.461142381014899 20.303043234174986, -3.299999999999999 20.268101446747572 M-3.959999999999999 20.411214509598242 C-3.7254860316674523 20.360362975826522, -3.490972063334906 20.3095114420548, -3.299999999999999 20.268101446747572 M-3.299999999999999 20.268101446747572 C-3.107587401120018 20.216390127572463, -2.9151748022400374 20.164678808397355, -2.6400000000000006 20.090724960726195 M-3.299999999999999 20.268101446747572 C-3.0899723202643137 20.211656034931302, -2.879944640528629 20.15521062311503, -2.6400000000000006 20.090724960726195 M-2.6400000000000006 20.090724960726195 C-2.4085510743745244 20.017135155010223, -2.1771021487490483 19.94354534929425, -1.9800000000000004 19.880876193265788 M-2.6400000000000006 20.090724960726195 C-2.390307228532067 20.011334475368137, -2.140614457064133 19.931943990010076, -1.9800000000000004 19.880876193265788 M-1.9800000000000004 19.880876193265788 C-1.7267474678513102 19.78870685155267, -1.47349493570262 19.69653750983955, -1.3199999999999985 19.64067419009315 M-1.9800000000000004 19.880876193265788 C-1.7797363629345633 19.807991758741917, -1.5794727258691261 19.735107324218042, -1.3199999999999985 19.64067419009315 M-1.3199999999999985 19.64067419009315 C-1.111620542723283 19.556018555696824, -0.9032410854465674 19.471362921300496, -0.6600000000000001 19.372544502878444 M-1.3199999999999985 19.64067419009315 C-1.0753270090765317 19.541274049901943, -0.8306540181530648 19.44187390971074, -0.6600000000000001 19.372544502878444 M-0.6600000000000001 19.372544502878444 C-0.43278340471722576 19.271553678145427, -0.20556680943445144 19.170562853412413, 0 19.079194696096774 M-0.6600000000000001 19.372544502878444 C-0.40741426966648187 19.260277873803982, -0.1548285393329636 19.14801124472952, 0 19.079194696096774 M0 19.079194696096774 C0.22470415211982822 18.971742637951987, 0.44940830423965644 18.8642905798072, 0.6600000000000001 18.763587006134102 M0 19.079194696096774 C0.24986939669329125 18.959708782335053, 0.4997387933865825 18.84022286857333, 0.6600000000000001 18.763587006134102 M0.6600000000000001 18.763587006134102 C0.8113024542041701 18.686863233207458, 0.9626049084083401 18.610139460280813, 1.3200000000000003 18.428908428724817 M0.6600000000000001 18.763587006134102 C0.8732382918766934 18.655456266475802, 1.0864765837533867 18.547325526817502, 1.3200000000000003 18.428908428724817 M1.3200000000000003 18.428908428724817 C1.502619467780237 18.331962423885845, 1.6852389355604738 18.235016419046868, 1.9800000000000004 18.078538536777035 M1.3200000000000003 18.428908428724817 C1.4704954443630445 18.349015894512526, 1.6209908887260887 18.26912336030023, 1.9800000000000004 18.078538536777035 M1.9800000000000004 18.078538536777035 C2.170246894047201 17.97404018885717, 2.3604937880944012 17.869541840937305, 2.639999999999997 17.71601535356018 M1.9800000000000004 18.078538536777035 C2.17983852049081 17.96877172378056, 2.37967704098162 17.85900491078408, 2.639999999999997 17.71601535356018 M2.639999999999997 17.71601535356018 C2.8942846191828444 17.57307051563969, 3.148569238365692 17.430125677719193, 3.3000000000000007 17.34499962586614 M2.639999999999997 17.71601535356018 C2.8776582882546937 17.582416925136943, 3.115316576509391 17.44881849671371, 3.3000000000000007 17.34499962586614 M3.3000000000000007 17.34499962586614 C3.4689297926186407 17.24882181142005, 3.63785958523728 17.15264399697396, 3.960000000000001 16.969237857912514 M3.3000000000000007 17.34499962586614 C3.5346246244352013 17.21141937786125, 3.769249248870402 17.077839129856365, 3.960000000000001 16.969237857912514 M3.960000000000001 16.969237857912514 C4.1307373865705825 16.87178474010107, 4.301474773141164 16.774331622289623, 4.620000000000001 16.592524479270253 M3.960000000000001 16.969237857912514 C4.094607043652621 16.892407139422478, 4.22921408730524 16.815576420932437, 4.620000000000001 16.592524479270253 M4.620000000000001 16.592524479270253 C4.780014056753487 16.5018835590587, 4.940028113506973 16.41124263884715, 5.280000000000001 16.218663528842715 M4.620000000000001 16.592524479270253 C4.762016528465341 16.51207836668166, 4.904033056930681 16.431632254093067, 5.280000000000001 16.218663528842715 M5.280000000000001 16.218663528842715 C5.4755455742979775 16.10985921973038, 5.671091148595954 16.00105491061805, 5.940000000000001 15.85143024181003 M5.280000000000001 16.218663528842715 C5.418361056484197 16.14167749010028, 5.556722112968393 16.06469145135785, 5.940000000000001 15.85143024181003 M5.940000000000001 15.85143024181003 C6.075190301242262 15.778325612350548, 6.210380602484523 15.705220982891067, 6.599999999999998 15.49453292743246 M5.940000000000001 15.85143024181003 C6.146694927768176 15.7396592348162, 6.353389855536351 15.62788822782237, 6.599999999999998 15.49453292743246 M6.599999999999998 15.49453292743246 C6.835311082596208 15.372257657433707, 7.070622165192419 15.249982387434953, 7.259999999999998 15.151575522669422 M6.599999999999998 15.49453292743246 C6.7824270855458435 15.399737897406265, 6.964854171091688 15.304942867380072, 7.259999999999998 15.151575522669422 M7.259999999999998 15.151575522669422 C7.521842288046037 15.022418115400605, 7.783684576092076 14.89326070813179, 7.919999999999998 14.826021199746492 M7.259999999999998 15.151575522669422 C7.473663134137531 15.046183163627399, 7.687326268275063 14.940790804585376, 7.919999999999998 14.826021199746492 M7.919999999999998 14.826021199746492 C8.124191013627009 14.731702337205995, 8.328382027254019 14.637383474665496, 8.580000000000002 14.521157395159872 M7.919999999999998 14.826021199746492 C8.164906208826892 14.712895383701262, 8.409812417653788 14.59976956765603, 8.580000000000002 14.521157395159872 M8.580000000000002 14.521157395159872 C8.808860871282434 14.423685278947977, 9.037721742564864 14.326213162736082, 9.240000000000002 14.240062613254315 M8.580000000000002 14.521157395159872 C8.759090959229761 14.444882343453893, 8.93818191845952 14.368607291747914, 9.240000000000002 14.240062613254315 M9.240000000000002 14.240062613254315 C9.471778445607649 14.150691909138164, 9.703556891215296 14.061321205022013, 9.900000000000002 13.98557533959079 M9.240000000000002 14.240062613254315 C9.382413980374618 14.18514966537991, 9.524827960749235 14.130236717505506, 9.900000000000002 13.98557533959079 M9.900000000000002 13.98557533959079 C10.121702341720386 13.90989087581181, 10.343404683440772 13.834206412032831, 10.559999999999999 13.760265378015704 M9.900000000000002 13.98557533959079 C10.114670103944317 13.912291532210467, 10.329340207888631 13.839007724830143, 10.559999999999999 13.760265378015704 M10.559999999999999 13.760265378015704 C10.791534060776192 13.69225839484052, 11.023068121552383 13.624251411665336, 11.219999999999999 13.566407900868924 M10.559999999999999 13.760265378015704 C10.727333270660115 13.711115672420418, 10.89466654132023 13.66196596682513, 11.219999999999999 13.566407900868924 M11.219999999999999 13.566407900868924 C11.410523438820828 13.520091241101685, 11.601046877641659 13.473774581334444, 11.879999999999999 13.405960474370783 M11.219999999999999 13.566407900868924 C11.4274153476683 13.515984781551355, 11.6348306953366 13.465561662233785, 11.879999999999999 13.405960474370783 M11.879999999999999 13.405960474370783 C12.086921646491563 13.366639974305375, 12.293843292983127 13.327319474239966, 12.54 13.28054329118484 M11.879999999999999 13.405960474370783 C12.141849993132126 13.35620215837701, 12.403699986264252 13.306443842383239, 12.54 13.28054329118484 M12.54 13.28054329118484 C12.747457964634952 13.252530028030073, 12.954915929269905 13.224516764875307, 13.2 13.191422809767417 M12.54 13.28054329118484 C12.681214132906721 13.261475001021823, 12.822428265813445 13.242406710858805, 13.2 13.191422809767417 M13.2 13.191422809767417 C13.337339879519527 13.180617939333159, 13.474679759039054 13.1698130688989, 13.860000000000003 13.139498965713102 M13.2 13.191422809767417 C13.430867252668417 13.173259907911655, 13.661734505336836 13.155097006055893, 13.860000000000003 13.139498965713102 M13.860000000000003 13.139498965713102 C14.041129805851465 13.13560113970623, 14.222259611702926 13.13170331369936, 14.52 13.12529608423569 M13.860000000000003 13.139498965713102 C14.058463761503429 13.13522812134614, 14.256927523006855 13.130957276979178, 14.52 13.12529608423569 M14.52 13.12529608423569 C14.721959478047783 13.132536484925476, 14.923918956095568 13.13977688561526, 15.18 13.148957585549969 M14.52 13.12529608423569 C14.719022906901746 13.132431206619367, 14.918045813803493 13.139566329003046, 15.18 13.148957585549969 M15.18 13.148957585549969 C15.349463181293252 13.164693769943861, 15.518926362586505 13.180429954337752, 15.839999999999996 13.210244536619275 M15.18 13.148957585549969 C15.364471492755065 13.166087426989607, 15.548942985510132 13.183217268429246, 15.839999999999996 13.210244536619275 M15.839999999999996 13.210244536619275 C15.977819764963872 13.230769977265274, 16.115639529927748 13.25129541791127, 16.5 13.308538063893174 M15.839999999999996 13.210244536619275 C16.044146808755404 13.240648036489395, 16.24829361751081 13.271051536359513, 16.5 13.308538063893174 M16.5 13.308538063893174 C16.5 6.347572347942808, 16.5 -0.6133933680075572, 16.5 -16.875 M16.5 13.308538063893174 C16.5 5.205969030902056, 16.5 -2.8966000020890625, 16.5 -16.875 M16.5 -16.875 C8.756780381882674 -16.875, 1.0135607637653479 -16.875, -16.5 -16.875 M16.5 -16.875 C9.852368653227543 -16.875, 3.2047373064550886 -16.875, -16.5 -16.875 M-16.5 -16.875 C-16.032922934176522 -16.875, -15.56584586835304 -16.875, -15 -16.875 M-16.5 -16.875 C-16.171282470740337 -16.875, -15.84256494148067 -16.875, -15 -16.875 M-15 -16.875 C-15 -7.283015787290296, -15 2.3089684254194083, -15 18.5625 M-15 -16.875 C-15 -7.250128034848373, -15 2.3747439303032536, -15 18.5625 M-15 18.5625 C-15 7.120742462230055, -15 -4.32101507553989, -15 -16.875 M-15 18.5625 C-15 7.5780421884840745, -15 -3.406415623031851, -15 -16.875 M-15 -16.875 C-15.365860314206087 -16.875, -15.731720628412173 -16.875, -16.5 -16.875 M-15 -16.875 C-15.59204645750987 -16.875, -16.18409291501974 -16.875, -16.5 -16.875" stroke="currentColor" stroke-width="2" fill="none" vector-effect="non-scaling-stroke"/></g></g></g></g></g><linearGradient id="s2m-shape-linedDocument-gradient" gradientUnits="objectBoundingBox" x1="0%" y1="0%" x2="100%" y2="0%"><stop offset="0%" stop-color="hsl(40.5882352941, 60%, 83.3333333333%)" stop-opacity="1"/><stop offset="100%" stop-color="hsl(-79.4117647059, 60%, 83.3333333333%)" stop-opacity="1"/></linearGradient></svg>