<svg id="s2m-shape-linedDocument" width="100%" xmlns="http://www.w3.org/2000/svg" class="flowchart" style="max-width: 76px;" viewBox="-21.30 -16.05 102.60 62.10" role="graphics-document document" aria-roledescription="flowchart-v2"><g><marker id="s2m-shape-linedDocument_flowchart-v2-pointEnd" class="marker flowchart-v2" viewBox="0 0 10 10" refX="5" refY="5" markerUnits="userSpaceOnUse" markerWidth="8" markerHeight="8" orient="auto"><path d="M 0 0 L 10 5 L 0 10 z" class="arrowMarkerPath" style="stroke-width: 1; stroke-dasharray: 1,0;"/></marker><marker id="s2m-shape-linedDocument_flowchart-v2-pointStart" class="marker flowchart-v2" viewBox="0 0 10 10" refX="4.5" refY="5" markerUnits="userSpaceOnUse" markerWidth="8" markerHeight="8" orient="auto"><path d="M 0 5 L 10 10 L 10 0 z" class="arrowMarkerPath" style="stroke-width: 1; stroke-dasharray: 1,0;"/></marker><marker id="s2m-shape-linedDocument_flowchart-v2-pointEnd-margin" class="marker flowchart-v2" viewBox="0 0 11.5 14" refX="11.5" refY="7" markerUnits="userSpaceOnUse" markerWidth="10.5" markerHeight="14" orient="auto"><path d="M 0 0 L 11.5 7 L 0 14 z" class="arrowMarkerPath" style="stroke-width: 0; stroke-dasharray: 1,0;"/></marker><marker id="s2m-shape-linedDocument_flowchart-v2-pointStart-margin" class="marker flowchart-v2" viewBox="0 0 11.5 14" refX="1" refY="7" markerUnits="userSpaceOnUse" markerWidth="11.5" markerHeight="14" orient="auto"><polygon points="0,7 11.5,14 11.5,0" class="arrowMarkerPath" style="stroke-width: 0; stroke-dasharray: 1,0;"/></marker><marker id="s2m-shape-linedDocument_flowchart-v2-circleEnd" class="marker flowchart-v2" viewBox="0 0 10 10" refX="11" refY="5" markerUnits="userSpaceOnUse" markerWidth="11" markerHeight="11" orient="auto"><circle cx="5" cy="5" r="5" class="arrowMarkerPath" style="stroke-width: 1; stroke-dasharray: 1,0;"/></marker><marker id="s2m-shape-linedDocument_flowchart-v2-circleStart" class="marker flowchart-v2" viewBox="0 0 10 10" refX="-1" refY="5" markerUnits="userSpaceOnUse" markerWidth="11" markerHeight="11" orient="auto"><circle cx="5" cy="5" r="5" class="arrowMarkerPath" style="stroke-width: 1; stroke-dasharray: 1,0;"/></marker><marker id="s2m-shape-linedDocument_flowchart-v2-circleEnd-margin" class="marker flowchart-v2" viewBox="0 0 10 10" refY="5" refX="12.25" markerUnits="userSpaceOnUse" markerWidth="14" markerHeight="14" orient="auto"><circle cx="5" cy="5" r="5" class="arrowMarkerPath" style="stroke-width: 0; stroke-dasharray: 1,0;"/></marker><marker id="s2m-shape-linedDocument_flowchart-v2-circleStart-margin" class="marker flowchart-v2" viewBox="0 0 10 10" refX="-2" refY="5" markerUnits="userSpaceOnUse" markerWidth="14" markerHeight="14" orient="auto"><circle cx="5" cy="5" r="5" class="arrowMarkerPath" style="stroke-width: 0; stroke-dasharray: 1,0;"/></marker><marker id="s2m-shape-linedDocument_flowchart-v2-crossEnd" class="marker cross flowchart-v2" viewBox="0 0 11 11" refX="12" refY="5.2" markerUnits="userSpaceOnUse" markerWidth="11" markerHeight="11" orient="auto"><path d="M 1,1 l 9,9 M 10,1 l -9,9" class="arrowMarkerPath" style="stroke-width: 2; stroke-dasharray: 1,0;"/></marker><marker id="s2m-shape-linedDocument_flowchart-v2-crossStart" class="marker cross flowchart-v2" viewBox="0 0 11 11" refX="-1" refY="5.2" markerUnits="userSpaceOnUse" markerWidth="11" markerHeight="11" orient="auto"><path d="M 1,1 l 9,9 M 10,1 l -9,9" class="arrowMarkerPath" style="stroke-width: 2; stroke-dasharray: 1,0;"/></marker><marker id="s2m-shape-linedDocument_flowchart-v2-crossEnd-margin" class="marker cross flowchart-v2" viewBox="0 0 15 15" refX="17.7" refY="7.5" markerUnits="userSpaceOnUse" markerWidth="12" markerHeight="12" orient="auto"><path d="M 1,1 L 14,14 M 1,14 L 14,1" class="arrowMarkerPath" style="stroke-width: 2.5;"/></marker><marker id="s2m-shape-linedDocument_flowchart-v2-crossStart-margin" class="marker cross flowchart-v2" viewBox="0 0 15 15" refX="-3.5" refY="7.5" markerUnits="userSpaceOnUse" markerWidth="12" markerHeight="12" orient="auto"><path d="M 1,1 L 14,14 M 1,14 L 14,1" class="arrowMarkerPath" style="stroke-width: 2.5; stroke-dasharray: 1,0;"/></marker><g class="root"><g class="clusters"/><g class="edgePaths"/><g class="edgeLabels"/><g class="nodes"><g class="node default" data-look="classic" transform="translate(38, 23)"><g class="basic label-container outer-path" transform="translate(0,-1.875)"><path d="M-16.5 -16.875 C-16.5 -8.174874628727974, -16.5 0.5252507425440527, -16.5 16.875 M-16.5 -16.875 C-16.5 -5.085213088895308, -16.5 6.704573822209383, -16.5 16.875 M-16.5 16.875 C-16.5 16.875, -16.5 16.875, -16.5 16.875 M-16.5 16.875 C-16.5 16.875, -16.5 16.875, -16.5 16.875 M-16.5 16.875 C-16.248425533055048 17.018457073382816, -15.996851066110098 17.161914146765632, -15.84 17.251356430692056 M-16.5 16.875 C-16.30806313762257 16.984449503700912, -16.116126275245147 17.09389900740182, -15.84 17.251356430692056 M-15.84 17.251356430692056 C-15.662473787232997 17.35156621107931, -15.484947574465995 17.451775991466562, -15.18 17.623912426929028 M-15.84 17.251356430692056 C-15.610839725007814 17.380712543643043, -15.381679450015628 17.510068656594033, -15.18 17.623912426929028 M-15.18 17.623912426929028 C-14.958197918829736 17.7465735160161, -14.736395837659474 17.86923460510317, -14.52 17.98890593091388 M-15.18 17.623912426929028 C-14.987514487683663 17.730360853605784, -14.795028975367329 17.83680928028254, -14.52 17.98890593091388 M-14.52 17.98890593091388 C-14.300950465629183 18.106311609052902, -14.081900931258367 18.223717287191924, -13.86 18.34265125063951 M-14.52 17.98890593091388 C-14.34057517677349 18.08507364524566, -14.16115035354698 18.181241359577445, -13.86 18.34265125063951 M-13.86 18.34265125063951 C-13.67367803650661 18.438331821174003, -13.487356073013219 18.534012391708497, -13.2 18.681576277881433 M-13.86 18.34265125063951 C-13.59946781246829 18.476440460876756, -13.338935624936582 18.610229671114002, -13.2 18.681576277881433 M-13.2 18.681576277881433 C-13.037044889808078 18.760753272567786, -12.874089779616154 18.83993026725414, -12.54 19.00225855922534 M-13.2 18.681576277881433 C-13.019527860574257 18.769264486048193, -12.839055721148515 18.856952694214957, -12.54 19.00225855922534 M-12.54 19.00225855922534 C-12.399851332991357 19.065792896943773, -12.259702665982715 19.12932723466221, -11.879999999999999 19.301459855885415 M-12.54 19.00225855922534 C-12.310857139946775 19.10613710596522, -12.081714279893552 19.210015652705106, -11.879999999999999 19.301459855885415 M-11.879999999999999 19.301459855885415 C-11.642233593468346 19.400420751525566, -11.40446718693669 19.499381647165716, -11.219999999999999 19.57615884332965 M-11.879999999999999 19.301459855885415 C-11.722052061641454 19.367199460030864, -11.564104123282911 19.432939064176313, -11.219999999999999 19.57615884332965 M-11.219999999999999 19.57615884332965 C-11.078218563674714 19.629310292918362, -10.93643712734943 19.682461742507076, -10.56 19.82358162051232 M-11.219999999999999 19.57615884332965 C-11.042718605943046 19.642618623421146, -10.865437211886093 19.709078403512642, -10.56 19.82358162051232 M-10.56 19.82358162051232 C-10.372991586289086 19.88525135680123, -10.185983172578169 19.94692109309014, -9.899999999999999 20.041229720632558 M-10.56 19.82358162051232 C-10.315109981500683 19.904338964852904, -10.070219963001366 19.98509630919349, -9.899999999999999 20.041229720632558 M-9.899999999999999 20.041229720632558 C-9.754495357388691 20.08216406111775, -9.608990714777383 20.12309840160295, -9.24 20.22690534056724 M-9.899999999999999 20.041229720632558 C-9.66755935585483 20.106621479268423, -9.435118711709663 20.172013237904288, -9.24 20.22690534056724 M-9.24 20.22690534056724 C-9.050731985051481 20.270445069089085, -8.861463970102962 20.31398479761093, -8.58 20.378733534212294 M-9.24 20.22690534056724 C-9.090581711484939 20.26127792972296, -8.941163422969877 20.295650518878684, -8.58 20.378733534212294 M-8.58 20.378733534212294 C-8.323853571181225 20.423926927860453, -8.06770714236245 20.46912032150861, -7.92 20.495181145624777 M-8.58 20.378733534212294 C-8.380449458885433 20.413941388559053, -8.180898917770865 20.449149242905808, -7.92 20.495181145624777 M-7.92 20.495181145624777 C-7.678706120343762 20.524389091631694, -7.4374122406875225 20.553597037638607, -7.26 20.575072290779506 M-7.92 20.495181145624777 C-7.727786259750389 20.51844807868995, -7.5355725195007786 20.541715011755127, -7.26 20.575072290779506 M-7.26 20.575072290779506 C-7.10897987456502 20.584803464958462, -6.957959749130041 20.594534639137418, -6.6 20.61760023160602 M-7.26 20.575072290779506 C-7.004786548012649 20.591517294695034, -6.749573096025298 20.607962298610563, -6.6 20.61760023160602 M-6.6 20.61760023160602 C-6.355183167717796 20.619356714776714, -6.110366335435593 20.62111319794741, -5.9399999999999995 20.62233552240221 M-6.6 20.61760023160602 C-6.381099465531593 20.619170773554732, -6.162198931063185 20.62074131550344, -5.9399999999999995 20.62233552240221 M-5.9399999999999995 20.62233552240221 C-5.6776833315786295 20.609177886816976, -5.41536666315726 20.59602025123174, -5.279999999999999 20.58923034636244 M-5.9399999999999995 20.62233552240221 C-5.699407006479086 20.610267532395476, -5.458814012958172 20.59819954238874, -5.279999999999999 20.58923034636244 M-5.279999999999999 20.58923034636244 C-5.123077096338475 20.572441652803338, -4.966154192676951 20.555652959244235, -4.620000000000001 20.51861899843003 M-5.279999999999999 20.58923034636244 C-5.104946895643764 20.57050195900131, -4.929893791287529 20.551773571640176, -4.620000000000001 20.51861899843003 M-4.620000000000001 20.51861899843003 C-4.463933827562286 20.493221714377594, -4.307867655124572 20.467824430325162, -3.959999999999999 20.411214509598242 M-4.620000000000001 20.51861899843003 C-4.408097693761264 20.48413527284844, -4.196195387522526 20.449651547266853, -3.959999999999999 20.411214509598242 M-3.959999999999999 20.411214509598242 C-3.777708438287643 20.37168677667629, -3.5954168765752876 20.33215904375434, -3.299999999999999 20.268101446747572 M-3.959999999999999 20.411214509598242 C-3.7390287952762242 20.363299561250027, -3.5180575905524494 20.315384612901813, -3.299999999999999 20.268101446747572 M-3.299999999999999 20.268101446747572 C-3.145740498221314 20.22664385832195, -2.991480996442629 20.185186269896324, -2.6400000000000006 20.090724960726195 M-3.299999999999999 20.268101446747572 C-3.0925408821947777 20.21234634173335, -2.8850817643895565 20.156591236719134, -2.6400000000000006 20.090724960726195 M-2.6400000000000006 20.090724960726195 C-2.415914927385451 20.019476511795226, -2.1918298547709014 19.94822806286426, -1.9800000000000004 19.880876193265788 M-2.6400000000000006 20.090724960726195 C-2.421475999796494 20.021244669660707, -2.2029519995929876 19.951764378595215, -1.9800000000000004 19.880876193265788 M-1.9800000000000004 19.880876193265788 C-1.747862961520061 19.796391675609055, -1.5157259230401214 19.711907157952318, -1.3199999999999985 19.64067419009315 M-1.9800000000000004 19.880876193265788 C-1.8393596516698592 19.829691203272155, -1.6987193033397179 19.778506213278522, -1.3199999999999985 19.64067419009315 M-1.3199999999999985 19.64067419009315 C-1.168068324784142 19.578950868042188, -1.016136649568285 19.51722754599123, -0.6600000000000001 19.372544502878444 M-1.3199999999999985 19.64067419009315 C-1.1203920167660506 19.559582029320307, -0.9207840335321028 19.478489868547463, -0.6600000000000001 19.372544502878444 M-0.6600000000000001 19.372544502878444 C-0.4677839392088122 19.287110344858096, -0.27556787841762437 19.20167618683775, 0 19.079194696096774 M-0.6600000000000001 19.372544502878444 C-0.5172416113827745 19.309092766943103, -0.3744832227655489 19.24564103100776, 0 19.079194696096774 M0 19.079194696096774 C0.19593762288820682 18.98549860437477, 0.39187524577641364 18.891802512652763, 0.6600000000000001 18.763587006134102 M0 19.079194696096774 C0.16906399685845186 18.998349396847754, 0.3381279937169037 18.917504097598737, 0.6600000000000001 18.763587006134102 M0.6600000000000001 18.763587006134102 C0.8513188984692273 18.666571344359568, 1.0426377969384544 18.569555682585033, 1.3200000000000003 18.428908428724817 M0.6600000000000001 18.763587006134102 C0.8781388795589551 18.65297123357585, 1.09627775911791 18.5423554610176, 1.3200000000000003 18.428908428724817 M1.3200000000000003 18.428908428724817 C1.5270193305148672 18.319009428022397, 1.734038661029734 18.20911042731998, 1.9800000000000004 18.078538536777035 M1.3200000000000003 18.428908428724817 C1.517067033641652 18.324292738901338, 1.7141340672833039 18.219677049077863, 1.9800000000000004 18.078538536777035 M1.9800000000000004 18.078538536777035 C2.221974510939082 17.945627370166463, 2.4639490218781637 17.81271620355589, 2.639999999999997 17.71601535356018 M1.9800000000000004 18.078538536777035 C2.121571444780932 18.000776520391288, 2.263142889561863 17.923014504005543, 2.639999999999997 17.71601535356018 M2.639999999999997 17.71601535356018 C2.858849844281924 17.59298999866323, 3.0776996885638517 17.469964643766282, 3.3000000000000007 17.34499962586614 M2.639999999999997 17.71601535356018 C2.837569897670811 17.604952415143856, 3.035139795341624 17.493889476727535, 3.3000000000000007 17.34499962586614 M3.3000000000000007 17.34499962586614 C3.528287729086448 17.215027200587894, 3.756575458172895 17.08505477530965, 3.960000000000001 16.969237857912514 M3.3000000000000007 17.34499962586614 C3.514581789072871 17.222830485816633, 3.7291635781457413 17.10066134576713, 3.960000000000001 16.969237857912514 M3.960000000000001 16.969237857912514 C4.180789289865902 16.84321622252856, 4.401578579731803 16.717194587144608, 4.620000000000001 16.592524479270253 M3.960000000000001 16.969237857912514 C4.171413490843522 16.848567720903095, 4.3828269816870415 16.727897583893675, 4.620000000000001 16.592524479270253 M4.620000000000001 16.592524479270253 C4.779058789728529 16.502424675782734, 4.938117579457057 16.41232487229522, 5.280000000000001 16.218663528842715 M4.620000000000001 16.592524479270253 C4.767561475373159 16.508937398316466, 4.9151229507463166 16.425350317362682, 5.280000000000001 16.218663528842715 M5.280000000000001 16.218663528842715 C5.4306639784974475 16.134831971174474, 5.581327956994895 16.051000413506234, 5.940000000000001 15.85143024181003 M5.280000000000001 16.218663528842715 C5.541281016865311 16.073283094505307, 5.802562033730619 15.927902660167897, 5.940000000000001 15.85143024181003 M5.940000000000001 15.85143024181003 C6.184460429560104 15.719237407292471, 6.428920859120206 15.587044572774914, 6.599999999999998 15.49453292743246 M5.940000000000001 15.85143024181003 C6.1063248831317205 15.761489478016282, 6.27264976626344 15.671548714222533, 6.599999999999998 15.49453292743246 M6.599999999999998 15.49453292743246 C6.761670906265965 15.410523481313271, 6.923341812531932 15.326514035194082, 7.259999999999998 15.151575522669422 M6.599999999999998 15.49453292743246 C6.830291964148079 15.374865754156689, 7.060583928296159 15.255198580880919, 7.259999999999998 15.151575522669422 M7.259999999999998 15.151575522669422 C7.497018582472258 15.03466275882562, 7.734037164944517 14.917749994981818, 7.919999999999998 14.826021199746492 M7.259999999999998 15.151575522669422 C7.407876556082132 15.078633322530795, 7.555753112164266 15.005691122392168, 7.919999999999998 14.826021199746492 M7.919999999999998 14.826021199746492 C8.075717956552683 14.754092762356938, 8.231435913105368 14.682164324967385, 8.580000000000002 14.521157395159872 M7.919999999999998 14.826021199746492 C8.114442990370877 14.73620509395912, 8.308885980741758 14.646388988171747, 8.580000000000002 14.521157395159872 M8.580000000000002 14.521157395159872 C8.818400608405273 14.419622293605581, 9.056801216810545 14.31808719205129, 9.240000000000002 14.240062613254315 M8.580000000000002 14.521157395159872 C8.756677653558723 14.445910173198245, 8.933355307117445 14.370662951236616, 9.240000000000002 14.240062613254315 M9.240000000000002 14.240062613254315 C9.430465086015142 14.166621794363282, 9.62093017203028 14.093180975472249, 9.900000000000002 13.98557533959079 M9.240000000000002 14.240062613254315 C9.478209068301457 14.148212346051336, 9.716418136602911 14.056362078848359, 9.900000000000002 13.98557533959079 M9.900000000000002 13.98557533959079 C10.044433859468334 13.936268692125712, 10.188867718936667 13.886962044660633, 10.559999999999999 13.760265378015704 M9.900000000000002 13.98557533959079 C10.099447592721972 13.917488173753775, 10.298895185443943 13.849401007916757, 10.559999999999999 13.760265378015704 M10.559999999999999 13.760265378015704 C10.80071112951152 13.68956287454865, 11.041422259023042 13.618860371081597, 11.219999999999999 13.566407900868924 M10.559999999999999 13.760265378015704 C10.775370178016782 13.697006106253603, 10.990740356033564 13.633746834491504, 11.219999999999999 13.566407900868924 M11.219999999999999 13.566407900868924 C11.394717404204558 13.523933722279445, 11.569434808409117 13.481459543689963, 11.879999999999999 13.405960474370783 M11.219999999999999 13.566407900868924 C11.471959109615582 13.505156096746829, 11.723918219231168 13.443904292624731, 11.879999999999999 13.405960474370783 M11.879999999999999 13.405960474370783 C12.041007925718537 13.375364776621948, 12.202015851437077 13.344769078873114, 12.54 13.28054329118484 M11.879999999999999 13.405960474370783 C12.095824159725039 13.364948265012924, 12.311648319450077 13.323936055655063, 12.54 13.28054329118484 M12.54 13.28054329118484 C12.754907939268444 13.251524050263582, 12.969815878536886 13.222504809342325, 13.2 13.191422809767417 M12.54 13.28054329118484 C12.741831440048745 13.253289783454058, 12.943662880097492 13.226036275723276, 13.2 13.191422809767417 M13.2 13.191422809767417 C13.37377207451938 13.177751727800237, 13.54754414903876 13.164080645833057, 13.860000000000003 13.139498965713102 M13.2 13.191422809767417 C13.459393016547489 13.171015715009856, 13.718786033094979 13.150608620252296, 13.860000000000003 13.139498965713102 M13.860000000000003 13.139498965713102 C14.12367156161947 13.133824880957578, 14.387343123238939 13.128150796202055, 14.52 13.12529608423569 M13.860000000000003 13.139498965713102 C14.018398583567693 13.136090304639463, 14.176797167135385 13.132681643565823, 14.52 13.12529608423569 M14.52 13.12529608423569 C14.72182338037462 13.132531605720517, 14.92364676074924 13.139767127205346, 15.18 13.148957585549969 M14.52 13.12529608423569 C14.694179232272425 13.131540542013468, 14.86835846454485 13.137784999791247, 15.18 13.148957585549969 M15.18 13.148957585549969 C15.3321152217395 13.163082855476704, 15.484230443478998 13.177208125403439, 15.839999999999996 13.210244536619275 M15.18 13.148957585549969 C15.35832196251012 13.165516387657455, 15.536643925020241 13.182075189764939, 15.839999999999996 13.210244536619275 M15.839999999999996 13.210244536619275 C16.100987144780365 13.249113244245951, 16.361974289560738 13.287981951872627, 16.5 13.308538063893174 M15.839999999999996 13.210244536619275 C16.025112864636323 13.237813319056972, 16.21022572927265 13.26538210149467, 16.5 13.308538063893174 M16.5 13.308538063893174 C16.5 5.310701247006266, 16.5 -2.687135569880642, 16.5 -16.875 M16.5 13.308538063893174 C16.5 1.9692451856360549, 16.5 -9.370047692621064, 16.5 -16.875 M16.5 -16.875 C6.034884777117124 -16.875, -4.430230445765751 -16.875, -16.5 -16.875 M16.5 -16.875 C5.716265880576419 -16.875, -5.067468238847162 -16.875, -16.5 -16.875 M-16.5 -16.875 C-16.062735288842717 -16.875, -15.625470577685435 -16.875, -15 -16.875 M-16.5 -16.875 C-15.934434433383645 -16.875, -15.368868866767288 -16.875, -15 -16.875 M-15 -16.875 C-15 -5.891938204155835, -15 5.09112359168833, -15 18.5625 M-15 -16.875 C-15 -5.082224662377518, -15 6.7105506752449635, -15 18.5625 M-15 18.5625 C-15 6.456001456520255, -15 -5.65049708695949, -15 -16.875 M-15 18.5625 C-15 10.202216047825678, -15 1.8419320956513552, -15 -16.875 M-15 -16.875 C-15.505820444715928 -16.875, -16.011640889431856 -16.875, -16.5 -16.875 M-15 -16.875 C-15.313432952080044 -16.875, -15.626865904160088 -16.875, -16.5 -16.875" stroke="currentColor" stroke-width="2" fill="none" vector-effect="non-scaling-stroke"/></g></g></g></g></g><linearGradient id="s2m-shape-linedDocument-gradient" gradientUnits="objectBoundingBox" x1="0%" y1="0%" x2="100%" y2="0%"><stop offset="0%" stop-color="hsl(40.5882352941, 60%, 83.3333333333%)" stop-opacity="1"/><stop offset="100%" stop-color="hsl(-79.4117647059, 60%, 83.3333333333%)" stop-opacity="1"/></linearGradient></svg>