<svg id="s2m-shape-multiProcess" width="100%" xmlns="http://www.w3.org/2000/svg" class="flowchart" style="max-width: 76px;" viewBox="-8 -8 76 46" role="graphics-document document" aria-roledescription="flowchart-v2"><g><marker id="s2m-shape-multiProcess_flowchart-v2-pointEnd" class="marker flowchart-v2" viewBox="0 0 10 10" refX="5" refY="5" markerUnits="userSpaceOnUse" markerWidth="8" markerHeight="8" orient="auto"><path d="M 0 0 L 10 5 L 0 10 z" class="arrowMarkerPath" style="stroke-width: 1; stroke-dasharray: 1,0;"/></marker><marker id="s2m-shape-multiProcess_flowchart-v2-pointStart" class="marker flowchart-v2" viewBox="0 0 10 10" refX="4.5" refY="5" markerUnits="userSpaceOnUse" markerWidth="8" markerHeight="8" orient="auto"><path d="M 0 5 L 10 10 L 10 0 z" class="arrowMarkerPath" style="stroke-width: 1; stroke-dasharray: 1,0;"/></marker><marker id="s2m-shape-multiProcess_flowchart-v2-pointEnd-margin" class="marker flowchart-v2" viewBox="0 0 11.5 14" refX="11.5" refY="7" markerUnits="userSpaceOnUse" markerWidth="10.5" markerHeight="14" orient="auto"><path d="M 0 0 L 11.5 7 L 0 14 z" class="arrowMarkerPath" style="stroke-width: 0; stroke-dasharray: 1,0;"/></marker><marker id="s2m-shape-multiProcess_flowchart-v2-pointStart-margin" class="marker flowchart-v2" viewBox="0 0 11.5 14" refX="1" refY="7" markerUnits="userSpaceOnUse" markerWidth="11.5" markerHeight="14" orient="auto"><polygon points="0,7 11.5,14 11.5,0" class="arrowMarkerPath" style="stroke-width: 0; stroke-dasharray: 1,0;"/></marker><marker id="s2m-shape-multiProcess_flowchart-v2-circleEnd" class="marker flowchart-v2" viewBox="0 0 10 10" refX="11" refY="5" markerUnits="userSpaceOnUse" markerWidth="11" markerHeight="11" orient="auto"><circle cx="5" cy="5" r="5" class="arrowMarkerPath" style="stroke-width: 1; stroke-dasharray: 1,0;"/></marker><marker id="s2m-shape-multiProcess_flowchart-v2-circleStart" class="marker flowchart-v2" viewBox="0 0 10 10" refX="-1" refY="5" markerUnits="userSpaceOnUse" markerWidth="11" markerHeight="11" orient="auto"><circle cx="5" cy="5" r="5" class="arrowMarkerPath" style="stroke-width: 1; stroke-dasharray: 1,0;"/></marker><marker id="s2m-shape-multiProcess_flowchart-v2-circleEnd-margin" class="marker flowchart-v2" viewBox="0 0 10 10" refY="5" refX="12.25" markerUnits="userSpaceOnUse" markerWidth="14" markerHeight="14" orient="auto"><circle cx="5" cy="5" r="5" class="arrowMarkerPath" style="stroke-width: 0; stroke-dasharray: 1,0;"/></marker><marker id="s2m-shape-multiProcess_flowchart-v2-circleStart-margin" class="marker flowchart-v2" viewBox="0 0 10 10" refX="-2" refY="5" markerUnits="userSpaceOnUse" markerWidth="14" markerHeight="14" orient="auto"><circle cx="5" cy="5" r="5" class="arrowMarkerPath" style="stroke-width: 0; stroke-dasharray: 1,0;"/></marker><marker id="s2m-shape-multiProcess_flowchart-v2-crossEnd" class="marker cross flowchart-v2" viewBox="0 0 11 11" refX="12" refY="5.2" markerUnits="userSpaceOnUse" markerWidth="11" markerHeight="11" orient="auto"><path d="M 1,1 l 9,9 M 10,1 l -9,9" class="arrowMarkerPath" style="stroke-width: 2; stroke-dasharray: 1,0;"/></marker><marker id="s2m-shape-multiProcess_flowchart-v2-crossStart" class="marker cross flowchart-v2" viewBox="0 0 11 11" refX="-1" refY="5.2" markerUnits="userSpaceOnUse" markerWidth="11" markerHeight="11" orient="auto"><path d="M 1,1 l 9,9 M 10,1 l -9,9" class="arrowMarkerPath" style="stroke-width: 2; stroke-dasharray: 1,0;"/></marker><marker id="s2m-shape-multiProcess_flowchart-v2-crossEnd-margin" class="marker cross flowchart-v2" viewBox="0 0 15 15" refX="17.7" refY="7.5" markerUnits="userSpaceOnUse" markerWidth="12" markerHeight="12" orient="auto"><path d="M 1,1 L 14,14 M 1,14 L 14,1" class="arrowMarkerPath" style="stroke-width: 2.5;"/></marker><marker id="s2m-shape-multiProcess_flowchart-v2-crossStart-margin" class="marker cross flowchart-v2" viewBox="0 0 15 15" refX="-3.5" refY="7.5" markerUnits="userSpaceOnUse" markerWidth="12" markerHeight="12" orient="auto"><path d="M 1,1 L 14,14 M 1,14 L 14,1" class="arrowMarkerPath" style="stroke-width: 2.5; stroke-dasharray: 1,0;"/></marker><g class="root"><g class="clusters"/><g class="edgePaths"/><g class="edgeLabels"/><g class="nodes"><g class="node default" data-look="classic" transform="translate(38, 23)"><g class="basic label-container outer-path"><g><path d="M-20 -10 C-20 -0.20581356563628006, -20 9.58837286872744, -20 20 C-9.118114454219551 20, 1.7637710915608977 20, 10 20 C10 18.142553548978665, 10 16.28510709795733, 10 15 C11.155765737467366 15, 12.311531474934734 15, 15 15 C15 13.409866759111303, 15 11.819733518222606, 15 10 C16.825084568463833 10, 18.650169136927662 10, 20 10 C20 0.7074731703449029, 20 -8.585053659310194, 20 -20 C10.76889448019449 -20, 1.5377889603889798 -20, -10 -20 C-10 -18.432190749465914, -10 -16.864381498931824, -10 -15 C-11.51372960947063 -15, -13.027459218941258 -15, -15 -15 C-15 -13.565790722364985, -15 -12.13158144472997, -15 -10 C-16.716349652530468 -10, -18.432699305060936 -10, -20 -10 M-20 -10 C-20 0.5576030441451838, -20 11.115206088290368, -20 20 M-20 -10 C-20 -0.39640022963259547, -20 9.207199540734809, -20 20 M-20 20 C-11.57861989373026 20, -3.1572397874605187 20, 10 20 M-20 20 C-10.705452560742005 20, -1.41090512148401 20, 10 20 M10 20 C10 18.224488862174084, 10 16.44897772434817, 10 15 M10 20 C10 18.011909695172466, 10 16.023819390344933, 10 15 M10 15 C11.338061956634876 15, 12.676123913269752 15, 15 15 M10 15 C11.951129057831874 15, 13.902258115663747 15, 15 15 M15 15 C15 13.214314744000985, 15 11.42862948800197, 15 10 M15 15 C15 13.375600673047789, 15 11.751201346095579, 15 10 M15 10 C16.926850069273808 10, 18.853700138547616 10, 20 10 M15 10 C16.637414630360585 10, 18.274829260721166 10, 20 10 M20 10 C20 1.6590013867047553, 20 -6.6819972265904894, 20 -20 M20 10 C20 -1.9962616112673093, 20 -13.992523222534619, 20 -20 M20 -20 C12.930212641482342 -20, 5.860425282964682 -20, -10 -20 M20 -20 C10.069619740714884 -20, 0.13923948142976883 -20, -10 -20 M-10 -20 C-10 -18.953605118634655, -10 -17.907210237269314, -10 -15 M-10 -20 C-10 -18.062035404774196, -10 -16.124070809548396, -10 -15 M-10 -15 C-11.649940036072884 -15, -13.299880072145767 -15, -15 -15 M-10 -15 C-11.861184460134407 -15, -13.722368920268815 -15, -15 -15 M-15 -15 C-15 -13.451971666602589, -15 -11.903943333205175, -15 -10 M-15 -15 C-15 -13.605440469288778, -15 -12.210880938577555, -15 -10 M-15 -10 C-16.925828437549445 -10, -18.85165687509889 -10, -20 -10 M-15 -10 C-16.917264453634022 -10, -18.834528907268048 -10, -20 -10" fill="none" fill-opacity="1" stroke="currentColor" stroke-width="2" stroke-opacity="1" vector-effect="non-scaling-stroke"/></g><g><path d="M-15 -10 C-5.9102575237896335 -10, 3.179484952420733 -10, 10 -10 C10 -2.005094185671328, 10 5.989811628657344, 10 15 C11.159553810899501 15, 12.319107621799002 15, 15 15 C15 8.829739101914537, 15 2.6594782038290745, 15 -15 C3.7185100517145777 -15, -7.562979896570845 -15, -15 -15 C-15 -13.192299057798621, -15 -11.384598115597242, -15 -10 M-15 -10 C-9.724383694306145 -10, -4.448767388612287 -10, 10 -10 M-15 -10 C-5.841044091117572 -10, 3.3179118177648554 -10, 10 -10 M10 -10 C10 -2.3322696248322528, 10 5.3354607503354945, 10 15 M10 -10 C10 -3.4767848258956953, 10 3.0464303482086095, 10 15 M10 15 C11.531329806459489 15, 13.062659612918976 15, 15 15 M10 15 C11.2095989518928 15, 12.419197903785602 15, 15 15 M15 15 C15 3.344980905586601, 15 -8.310038188826798, 15 -15 M15 15 C15 8.69590497252321, 15 2.39180994504642, 15 -15 M15 -15 C6.548199448476412 -15, -1.9036011030471762 -15, -15 -15 M15 -15 C6.004820722900593 -15, -2.9903585541988136 -15, -15 -15 M-15 -15 C-15 -13.033064867750484, -15 -11.066129735500969, -15 -10 M-15 -15 C-15 -13.46558940137957, -15 -11.931178802759138, -15 -10" fill="none" fill-opacity="1" stroke="currentColor" stroke-width="2" stroke-opacity="1" vector-effect="non-scaling-stroke"/></g></g></g></g></g></g><linearGradient id="s2m-shape-multiProcess-gradient" gradientUnits="objectBoundingBox" x1="0%" y1="0%" x2="100%" y2="0%"><stop offset="0%" stop-color="hsl(40.5882352941, 60%, 83.3333333333%)" stop-opacity="1"/><stop offset="100%" stop-color="hsl(-79.4117647059, 60%, 83.3333333333%)" stop-opacity="1"/></linearGradient></svg>