<svg id="s2m-shape-multiProcess" width="100%" xmlns="http://www.w3.org/2000/svg" class="flowchart" style="max-width: 76px;" viewBox="-21.30 -16.05 102.60 62.10" role="graphics-document document" aria-roledescription="flowchart-v2"><g><marker id="s2m-shape-multiProcess_flowchart-v2-pointEnd" class="marker flowchart-v2" viewBox="0 0 10 10" refX="5" refY="5" markerUnits="userSpaceOnUse" markerWidth="8" markerHeight="8" orient="auto"><path d="M 0 0 L 10 5 L 0 10 z" class="arrowMarkerPath" style="stroke-width: 1; stroke-dasharray: 1,0;"/></marker><marker id="s2m-shape-multiProcess_flowchart-v2-pointStart" class="marker flowchart-v2" viewBox="0 0 10 10" refX="4.5" refY="5" markerUnits="userSpaceOnUse" markerWidth="8" markerHeight="8" orient="auto"><path d="M 0 5 L 10 10 L 10 0 z" class="arrowMarkerPath" style="stroke-width: 1; stroke-dasharray: 1,0;"/></marker><marker id="s2m-shape-multiProcess_flowchart-v2-pointEnd-margin" class="marker flowchart-v2" viewBox="0 0 11.5 14" refX="11.5" refY="7" markerUnits="userSpaceOnUse" markerWidth="10.5" markerHeight="14" orient="auto"><path d="M 0 0 L 11.5 7 L 0 14 z" class="arrowMarkerPath" style="stroke-width: 0; stroke-dasharray: 1,0;"/></marker><marker id="s2m-shape-multiProcess_flowchart-v2-pointStart-margin" class="marker flowchart-v2" viewBox="0 0 11.5 14" refX="1" refY="7" markerUnits="userSpaceOnUse" markerWidth="11.5" markerHeight="14" orient="auto"><polygon points="0,7 11.5,14 11.5,0" class="arrowMarkerPath" style="stroke-width: 0; stroke-dasharray: 1,0;"/></marker><marker id="s2m-shape-multiProcess_flowchart-v2-circleEnd" class="marker flowchart-v2" viewBox="0 0 10 10" refX="11" refY="5" markerUnits="userSpaceOnUse" markerWidth="11" markerHeight="11" orient="auto"><circle cx="5" cy="5" r="5" class="arrowMarkerPath" style="stroke-width: 1; stroke-dasharray: 1,0;"/></marker><marker id="s2m-shape-multiProcess_flowchart-v2-circleStart" class="marker flowchart-v2" viewBox="0 0 10 10" refX="-1" refY="5" markerUnits="userSpaceOnUse" markerWidth="11" markerHeight="11" orient="auto"><circle cx="5" cy="5" r="5" class="arrowMarkerPath" style="stroke-width: 1; stroke-dasharray: 1,0;"/></marker><marker id="s2m-shape-multiProcess_flowchart-v2-circleEnd-margin" class="marker flowchart-v2" viewBox="0 0 10 10" refY="5" refX="12.25" markerUnits="userSpaceOnUse" markerWidth="14" markerHeight="14" orient="auto"><circle cx="5" cy="5" r="5" class="arrowMarkerPath" style="stroke-width: 0; stroke-dasharray: 1,0;"/></marker><marker id="s2m-shape-multiProcess_flowchart-v2-circleStart-margin" class="marker flowchart-v2" viewBox="0 0 10 10" refX="-2" refY="5" markerUnits="userSpaceOnUse" markerWidth="14" markerHeight="14" orient="auto"><circle cx="5" cy="5" r="5" class="arrowMarkerPath" style="stroke-width: 0; stroke-dasharray: 1,0;"/></marker><marker id="s2m-shape-multiProcess_flowchart-v2-crossEnd" class="marker cross flowchart-v2" viewBox="0 0 11 11" refX="12" refY="5.2" markerUnits="userSpaceOnUse" markerWidth="11" markerHeight="11" orient="auto"><path d="M 1,1 l 9,9 M 10,1 l -9,9" class="arrowMarkerPath" style="stroke-width: 2; stroke-dasharray: 1,0;"/></marker><marker id="s2m-shape-multiProcess_flowchart-v2-crossStart" class="marker cross flowchart-v2" viewBox="0 0 11 11" refX="-1" refY="5.2" markerUnits="userSpaceOnUse" markerWidth="11" markerHeight="11" orient="auto"><path d="M 1,1 l 9,9 M 10,1 l -9,9" class="arrowMarkerPath" style="stroke-width: 2; stroke-dasharray: 1,0;"/></marker><marker id="s2m-shape-multiProcess_flowchart-v2-crossEnd-margin" class="marker cross flowchart-v2" viewBox="0 0 15 15" refX="17.7" refY="7.5" markerUnits="userSpaceOnUse" markerWidth="12" markerHeight="12" orient="auto"><path d="M 1,1 L 14,14 M 1,14 L 14,1" class="arrowMarkerPath" style="stroke-width: 2.5;"/></marker><marker id="s2m-shape-multiProcess_flowchart-v2-crossStart-margin" class="marker cross flowchart-v2" viewBox="0 0 15 15" refX="-3.5" refY="7.5" markerUnits="userSpaceOnUse" markerWidth="12" markerHeight="12" orient="auto"><path d="M 1,1 L 14,14 M 1,14 L 14,1" class="arrowMarkerPath" style="stroke-width: 2.5; stroke-dasharray: 1,0;"/></marker><g class="root"><g class="clusters"/><g class="edgePaths"/><g class="edgeLabels"/><g class="nodes"><g class="node default" data-look="classic" transform="translate(38, 23)"><g class="basic label-container outer-path"><g><path d="M-20 -10 C-20 -3.0461547485856633, -20 3.9076905028286735, -20 20 C-8.541298260019406 20, 2.9174034799611874 20, 10 20 C10 18.585878100889783, 10 17.171756201779566, 10 15 C11.571607384000144 15, 13.143214768000288 15, 15 15 C15 13.791845578943324, 15 12.583691157886648, 15 10 C16.967516900730228 10, 18.935033801460456 10, 20 10 C20 -1.0619825700634884, 20 -12.123965140126977, 20 -20 C11.221908397831118 -20, 2.4438167956622365 -20, -10 -20 C-10 -18.488117527813287, -10 -16.97623505562657, -10 -15 C-11.284761345741101 -15, -12.569522691482202 -15, -15 -15 C-15 -13.561254510543964, -15 -12.122509021087929, -15 -10 C-16.100882657867448 -10, -17.2017653157349 -10, -20 -10 M-20 -10 C-20 -1.362891082006831, -20 7.274217835986338, -20 20 M-20 -10 C-20 0.558656176725199, -20 11.117312353450398, -20 20 M-20 20 C-8.617598057419446 20, 2.7648038851611076 20, 10 20 M-20 20 C-9.631972586811267 20, 0.7360548263774653 20, 10 20 M10 20 C10 18.69153905383716, 10 17.383078107674326, 10 15 M10 20 C10 18.071402797808236, 10 16.142805595616473, 10 15 M10 15 C11.921022560710501 15, 13.842045121421 15, 15 15 M10 15 C11.145641635162018 15, 12.291283270324037 15, 15 15 M15 15 C15 13.369277562837897, 15 11.738555125675795, 15 10 M15 15 C15 13.880375837106268, 15 12.760751674212536, 15 10 M15 10 C16.10633646430478 10, 17.212672928609553 10, 20 10 M15 10 C16.797458186808075 10, 18.59491637361615 10, 20 10 M20 10 C20 -0.11952915073241321, 20 -10.239058301464826, 20 -20 M20 10 C20 3.285468833809672, 20 -3.4290623323806564, 20 -20 M20 -20 C8.289110286642519 -20, -3.421779426714963 -20, -10 -20 M20 -20 C13.796925498722766 -20, 7.593850997445532 -20, -10 -20 M-10 -20 C-10 -18.686068576673115, -10 -17.37213715334623, -10 -15 M-10 -20 C-10 -18.548161299141405, -10 -17.09632259828281, -10 -15 M-10 -15 C-11.867159208659803 -15, -13.734318417319605 -15, -15 -15 M-10 -15 C-11.29146996042453 -15, -12.58293992084906 -15, -15 -15 M-15 -15 C-15 -13.28202293302685, -15 -11.5640458660537, -15 -10 M-15 -15 C-15 -13.429455526601465, -15 -11.858911053202933, -15 -10 M-15 -10 C-16.630874623929696 -10, -18.261749247859395 -10, -20 -10 M-15 -10 C-16.548325578972552 -10, -18.096651157945104 -10, -20 -10" fill="none" fill-opacity="1" stroke="currentColor" stroke-width="2" stroke-opacity="1" vector-effect="non-scaling-stroke"/></g><g><path d="M-15 -10 C-6.680155113759163 -10, 1.639689772481674 -10, 10 -10 C10 -0.9769205119857638, 10 8.046158976028472, 10 15 C11.866464163424457 15, 13.732928326848912 15, 15 15 C15 4.678465287084233, 15 -5.643069425831534, 15 -15 C4.959505380173161 -15, -5.080989239653679 -15, -15 -15 C-15 -13.740531738670501, -15 -12.481063477341003, -15 -10 M-15 -10 C-6.862323974045717 -10, 1.2753520519085662 -10, 10 -10 M-15 -10 C-7.965683742913496 -10, -0.9313674858269927 -10, 10 -10 M10 -10 C10 -1.8511404757521834, 10 6.297719048495633, 10 15 M10 -10 C10 -0.9200548788512997, 10 8.1598902422974, 10 15 M10 15 C11.683616781933933 15, 13.367233563867867 15, 15 15 M10 15 C11.878851664793912 15, 13.757703329587823 15, 15 15 M15 15 C15 6.032120618387429, 15 -2.9357587632251416, 15 -15 M15 15 C15 5.35277413129006, 15 -4.29445173741988, 15 -15 M15 -15 C7.272605392696452 -15, -0.4547892146070964 -15, -15 -15 M15 -15 C7.369821921063029 -15, -0.2603561578739413 -15, -15 -15 M-15 -15 C-15 -13.91396271550555, -15 -12.827925431011098, -15 -10 M-15 -15 C-15 -13.726807875555274, -15 -12.453615751110549, -15 -10" fill="none" fill-opacity="1" stroke="currentColor" stroke-width="2" stroke-opacity="1" vector-effect="non-scaling-stroke"/></g></g></g></g></g></g><linearGradient id="s2m-shape-multiProcess-gradient" gradientUnits="objectBoundingBox" x1="0%" y1="0%" x2="100%" y2="0%"><stop offset="0%" stop-color="hsl(40.5882352941, 60%, 83.3333333333%)" stop-opacity="1"/><stop offset="100%" stop-color="hsl(-79.4117647059, 60%, 83.3333333333%)" stop-opacity="1"/></linearGradient></svg>