<svg id="s2m-shape-paperTape" width="100%" xmlns="http://www.w3.org/2000/svg" class="flowchart" style="max-width: 76px;" viewBox="-8 -8 76 46" role="graphics-document document" aria-roledescription="flowchart-v2"><g><marker id="s2m-shape-paperTape_flowchart-v2-pointEnd" class="marker flowchart-v2" viewBox="0 0 10 10" refX="5" refY="5" markerUnits="userSpaceOnUse" markerWidth="8" markerHeight="8" orient="auto"><path d="M 0 0 L 10 5 L 0 10 z" class="arrowMarkerPath" style="stroke-width: 1; stroke-dasharray: 1,0;"/></marker><marker id="s2m-shape-paperTape_flowchart-v2-pointStart" class="marker flowchart-v2" viewBox="0 0 10 10" refX="4.5" refY="5" markerUnits="userSpaceOnUse" markerWidth="8" markerHeight="8" orient="auto"><path d="M 0 5 L 10 10 L 10 0 z" class="arrowMarkerPath" style="stroke-width: 1; stroke-dasharray: 1,0;"/></marker><marker id="s2m-shape-paperTape_flowchart-v2-pointEnd-margin" class="marker flowchart-v2" viewBox="0 0 11.5 14" refX="11.5" refY="7" markerUnits="userSpaceOnUse" markerWidth="10.5" markerHeight="14" orient="auto"><path d="M 0 0 L 11.5 7 L 0 14 z" class="arrowMarkerPath" style="stroke-width: 0; stroke-dasharray: 1,0;"/></marker><marker id="s2m-shape-paperTape_flowchart-v2-pointStart-margin" class="marker flowchart-v2" viewBox="0 0 11.5 14" refX="1" refY="7" markerUnits="userSpaceOnUse" markerWidth="11.5" markerHeight="14" orient="auto"><polygon points="0,7 11.5,14 11.5,0" class="arrowMarkerPath" style="stroke-width: 0; stroke-dasharray: 1,0;"/></marker><marker id="s2m-shape-paperTape_flowchart-v2-circleEnd" class="marker flowchart-v2" viewBox="0 0 10 10" refX="11" refY="5" markerUnits="userSpaceOnUse" markerWidth="11" markerHeight="11" orient="auto"><circle cx="5" cy="5" r="5" class="arrowMarkerPath" style="stroke-width: 1; stroke-dasharray: 1,0;"/></marker><marker id="s2m-shape-paperTape_flowchart-v2-circleStart" class="marker flowchart-v2" viewBox="0 0 10 10" refX="-1" refY="5" markerUnits="userSpaceOnUse" markerWidth="11" markerHeight="11" orient="auto"><circle cx="5" cy="5" r="5" class="arrowMarkerPath" style="stroke-width: 1; stroke-dasharray: 1,0;"/></marker><marker id="s2m-shape-paperTape_flowchart-v2-circleEnd-margin" class="marker flowchart-v2" viewBox="0 0 10 10" refY="5" refX="12.25" markerUnits="userSpaceOnUse" markerWidth="14" markerHeight="14" orient="auto"><circle cx="5" cy="5" r="5" class="arrowMarkerPath" style="stroke-width: 0; stroke-dasharray: 1,0;"/></marker><marker id="s2m-shape-paperTape_flowchart-v2-circleStart-margin" class="marker flowchart-v2" viewBox="0 0 10 10" refX="-2" refY="5" markerUnits="userSpaceOnUse" markerWidth="14" markerHeight="14" orient="auto"><circle cx="5" cy="5" r="5" class="arrowMarkerPath" style="stroke-width: 0; stroke-dasharray: 1,0;"/></marker><marker id="s2m-shape-paperTape_flowchart-v2-crossEnd" class="marker cross flowchart-v2" viewBox="0 0 11 11" refX="12" refY="5.2" markerUnits="userSpaceOnUse" markerWidth="11" markerHeight="11" orient="auto"><path d="M 1,1 l 9,9 M 10,1 l -9,9" class="arrowMarkerPath" style="stroke-width: 2; stroke-dasharray: 1,0;"/></marker><marker id="s2m-shape-paperTape_flowchart-v2-crossStart" class="marker cross flowchart-v2" viewBox="0 0 11 11" refX="-1" refY="5.2" markerUnits="userSpaceOnUse" markerWidth="11" markerHeight="11" orient="auto"><path d="M 1,1 l 9,9 M 10,1 l -9,9" class="arrowMarkerPath" style="stroke-width: 2; stroke-dasharray: 1,0;"/></marker><marker id="s2m-shape-paperTape_flowchart-v2-crossEnd-margin" class="marker cross flowchart-v2" viewBox="0 0 15 15" refX="17.7" refY="7.5" markerUnits="userSpaceOnUse" markerWidth="12" markerHeight="12" orient="auto"><path d="M 1,1 L 14,14 M 1,14 L 14,1" class="arrowMarkerPath" style="stroke-width: 2.5;"/></marker><marker id="s2m-shape-paperTape_flowchart-v2-crossStart-margin" class="marker cross flowchart-v2" viewBox="0 0 15 15" refX="-3.5" refY="7.5" markerUnits="userSpaceOnUse" markerWidth="12" markerHeight="12" orient="auto"><path d="M 1,1 L 14,14 M 1,14 L 14,1" class="arrowMarkerPath" style="stroke-width: 2.5; stroke-dasharray: 1,0;"/></marker><g class="root"><g class="clusters"/><g class="edgePaths"/><g class="edgeLabels"/><g class="nodes"><g class="node default" data-look="classic" transform="translate(38, 23)"><g class="basic label-container"><path d="M-15 9.375 C-15 9.375, -15 9.375, -15 9.375 M-15 9.375 C-15 9.375, -15 9.375, -15 9.375 M-15 9.375 C-14.81061006566111 9.449177665235077, -14.62122013132222 9.523355330470151, -14.4 9.60999981293307 M-15 9.375 C-14.864411429521182 9.428105481163975, -14.728822859042364 9.48121096232795, -14.4 9.60999981293307 M-14.4 9.60999981293307 C-14.221614390664104 9.678765599864857, -14.043228781328207 9.747531386796641, -13.8 9.841293538434103 M-14.4 9.60999981293307 C-14.229008768979746 9.675915144350874, -14.058017537959492 9.741830475768678, -13.8 9.841293538434103 M-13.8 9.841293538434103 C-13.620367960668117 9.908338202603625, -13.440735921336234 9.975382866773147, -13.2 10.065233536283772 M-13.8 9.841293538434103 C-13.678082298822039 9.886797288000151, -13.556164597644075 9.932301037566202, -13.2 10.065233536283772 M-13.2 10.065233536283772 C-12.963283227982982 10.149289532624305, -12.726566455965964 10.23334552896484, -12.6 10.278288138940717 M-13.2 10.065233536283772 C-12.962323009546997 10.14963049755321, -12.724646019093996 10.234027458822649, -12.6 10.278288138940717 M-12.6 10.278288138940717 C-12.471256995668474 10.320946963722877, -12.34251399133695 10.363605788505037, -12 10.477097348048387 M-12.6 10.278288138940717 C-12.47679753082612 10.319111114701668, -12.35359506165224 10.359934090462621, -12 10.477097348048387 M-12 10.477097348048387 C-11.784077383196783 10.542388200060454, -11.568154766393567 10.607679052072521, -11.4 10.65852582361629 M-12 10.477097348048387 C-11.800127934674492 10.537534821582746, -11.600255869348985 10.597972295117104, -11.4 10.65852582361629 M-11.4 10.65852582361629 C-11.19019661975492 10.71488828016983, -10.980393239509839 10.77125073672337, -10.8 10.819712330204604 M-11.4 10.65852582361629 C-11.201219370938473 10.711927082242715, -11.002438741876945 10.765328340869141, -10.8 10.819712330204604 M-10.8 10.819712330204604 C-10.659367612190348 10.852152127352108, -10.518735224380693 10.884591924499611, -10.2 10.958114860316279 M-10.8 10.819712330204604 C-10.655564784303014 10.853029329020751, -10.511129568606028 10.886346327836899, -10.2 10.958114860316279 M-10.2 10.958114860316279 C-9.984095496655481 10.998933716441092, -9.768190993310965 11.039752572565906, -9.600000000000001 11.071550723373786 M-10.2 10.958114860316279 C-10.072481815741204 10.982223419127816, -9.944963631482407 11.006331977939356, -9.600000000000001 11.071550723373786 M-9.600000000000001 11.071550723373786 C-9.396138919205185 11.101001937313699, -9.192277838410371 11.130453151253612, -9 11.158230968053413 M-9.600000000000001 11.071550723373786 C-9.393623726366993 11.101365299864751, -9.187247452733985 11.131179876355715, -9 11.158230968053413 M-9 11.158230968053413 C-8.877839585171044 11.170153341409081, -8.755679170342088 11.182075714764748, -8.4 11.216788595116292 M-9 11.158230968053413 C-8.765527861449113 11.181114521463243, -8.531055722898229 11.203998074873073, -8.4 11.216788595116292 M-8.4 11.216788595116292 C-8.203824995783865 11.226437632941527, -8.00764999156773 11.236086670766763, -7.800000000000001 11.24630011580301 M-8.4 11.216788595116292 C-8.268786964060867 11.2232424221571, -8.137573928121734 11.229696249197907, -7.800000000000001 11.24630011580301 M-7.800000000000001 11.24630011580301 C-7.6292602785299986 11.24630011580301, -7.4585205570599955 11.24630011580301, -7.199999999999999 11.24630011580301 M-7.800000000000001 11.24630011580301 C-7.6632887322803915 11.24630011580301, -7.5265774645607815 11.24630011580301, -7.199999999999999 11.24630011580301 M-7.199999999999999 11.24630011580301 C-7.070428428395122 11.239927025609964, -6.940856856790244 11.233553935416916, -6.6 11.216788595116292 M-7.199999999999999 11.24630011580301 C-6.999025934877906 11.236415032002435, -6.798051869755813 11.226529948201861, -6.6 11.216788595116292 M-6.6 11.216788595116292 C-6.404044775988451 11.19766414023514, -6.208089551976902 11.178539685353988, -6 11.158230968053413 M-6.6 11.216788595116292 C-6.3787908156093165 11.195199453578903, -6.157581631218633 11.173610312041514, -6 11.158230968053413 M-6 11.158230968053413 C-5.826735458796224 11.133199946677003, -5.653470917592449 11.10816892530059, -5.4 11.071550723373786 M-6 11.158230968053413 C-5.774920547075976 11.125714397967062, -5.549841094151953 11.09319782788071, -5.4 11.071550723373786 M-5.4 11.071550723373786 C-5.223351489870111 11.038153596366442, -5.046702979740221 11.004756469359096, -4.799999999999999 10.958114860316279 M-5.4 11.071550723373786 C-5.164109506606316 11.02695332053183, -4.9282190132126305 10.982355917689873, -4.799999999999999 10.958114860316279 M-4.799999999999999 10.958114860316279 C-4.658054083994485 10.925372070459309, -4.51610816798897 10.892629280602337, -4.200000000000001 10.819712330204606 M-4.799999999999999 10.958114860316279 C-4.655943991713992 10.92488533360866, -4.511887983427985 10.89165580690104, -4.200000000000001 10.819712330204606 M-4.200000000000001 10.819712330204606 C-3.9846682852238 10.761864718767194, -3.769336570447599 10.704017107329781, -3.5999999999999996 10.65852582361629 M-4.200000000000001 10.819712330204606 C-4.077983509948016 10.786933310575193, -3.9559670198960313 10.754154290945781, -3.5999999999999996 10.65852582361629 M-3.5999999999999996 10.65852582361629 C-3.415530772172353 10.602745872293028, -3.231061544344707 10.546965920969763, -3 10.477097348048387 M-3.5999999999999996 10.65852582361629 C-3.4049881734753558 10.599557992942826, -3.209976346950712 10.540590162269362, -3 10.477097348048387 M-3 10.477097348048387 C-2.8745305958049547 10.435523226356342, -2.7490611916099095 10.393949104664294, -2.4000000000000004 10.278288138940717 M-3 10.477097348048387 C-2.840332732716356 10.42419180949998, -2.6806654654327122 10.371286270951572, -2.4000000000000004 10.278288138940717 M-2.4000000000000004 10.278288138940717 C-2.1936447900465885 10.205013260169359, -1.9872895800931765 10.131738381398002, -1.8000000000000007 10.065233536283772 M-2.4000000000000004 10.278288138940717 C-2.2417139455833266 10.222082184890917, -2.083427891166653 10.165876230841118, -1.8000000000000007 10.065233536283772 M-1.8000000000000007 10.065233536283772 C-1.615454459058083 9.996354989547607, -1.4309089181161656 9.927476442811443, -1.1999999999999993 9.841293538434103 M-1.8000000000000007 10.065233536283772 C-1.5827024926396789 9.984130864065424, -1.365404985279357 9.903028191847076, -1.1999999999999993 9.841293538434103 M-1.1999999999999993 9.841293538434103 C-0.9718338093407579 9.753337857982512, -0.7436676186815167 9.66538217753092, -0.6000000000000014 9.609999812933072 M-1.1999999999999993 9.841293538434103 C-0.9769626273381409 9.755314963685898, -0.7539252546762825 9.669336388937692, -0.6000000000000014 9.609999812933072 M-0.6000000000000014 9.609999812933072 C-0.47184747796545246 9.559806781758038, -0.34369495593090343 9.509613750583004, 0 9.375 M-0.6000000000000014 9.609999812933072 C-0.4663865079357129 9.557667903532336, -0.3327730158714243 9.505335994131597, 0 9.375 M0 9.375 C0.1500438239010754 9.316232882419142, 0.3000876478021508 9.257465764838283, 0.6000000000000014 9.14000018706693 M0 9.375 C0.2258828677066931 9.28652928057357, 0.4517657354133862 9.198058561147139, 0.6000000000000014 9.14000018706693 M0.6000000000000014 9.14000018706693 C0.7532511384530146 9.08092347581681, 0.9065022769060278 9.02184676456669, 1.2000000000000028 8.908706461565897 M0.6000000000000014 9.14000018706693 C0.8015701963808186 9.062296984282106, 1.0031403927616358 8.984593781497283, 1.2000000000000028 8.908706461565897 M1.2000000000000028 8.908706461565897 C1.434942462189648 8.821018104103322, 1.6698849243792933 8.733329746640747, 1.8000000000000007 8.68476646371623 M1.2000000000000028 8.908706461565897 C1.3882256181016133 8.838454387377686, 1.5764512362032235 8.768202313189473, 1.8000000000000007 8.68476646371623 M1.8000000000000007 8.68476646371623 C1.9265456567385044 8.639831239358923, 2.053091313477008 8.594896015001616, 2.3999999999999986 8.471711861059285 M1.8000000000000007 8.68476646371623 C2.030932419445339 8.60276443894034, 2.261864838890677 8.520762414164452, 2.3999999999999986 8.471711861059285 M2.3999999999999986 8.471711861059285 C2.540907478775431 8.425022353704785, 2.681814957550864 8.378332846350286, 3 8.272902651951613 M2.3999999999999986 8.471711861059285 C2.621036696931557 8.398471642891392, 2.842073393863115 8.325231424723501, 3 8.272902651951613 M3 8.272902651951613 C3.1696404229413644 8.22160664640337, 3.3392808458827283 8.170310640855126, 3.6000000000000014 8.09147417638371 M3 8.272902651951613 C3.1237331244164177 8.235488131718073, 3.247466248832835 8.198073611484531, 3.6000000000000014 8.09147417638371 M3.6000000000000014 8.09147417638371 C3.7761879353696846 8.044142313374964, 3.9523758707393672 7.99681045036622, 4.199999999999999 7.930287669795396 M3.6000000000000014 8.09147417638371 C3.75456659279722 8.049950761169972, 3.9091331855944382 8.008427345956235, 4.199999999999999 7.930287669795396 M4.199999999999999 7.930287669795396 C4.402925768090833 7.883478603581019, 4.605851536181668 7.836669537366642, 4.800000000000001 7.791885139683722 M4.199999999999999 7.930287669795396 C4.368161155383271 7.891497787509484, 4.536322310766543 7.852707905223572, 4.800000000000001 7.791885139683722 M4.800000000000001 7.791885139683722 C4.944655314329176 7.764536638972413, 5.089310628658351 7.737188138261105, 5.400000000000002 7.678449276626214 M4.800000000000001 7.791885139683722 C4.97358763704407 7.759066700643376, 5.14717527408814 7.726248261603031, 5.400000000000002 7.678449276626214 M5.400000000000002 7.678449276626214 C5.571511644285021 7.653671491139496, 5.74302328857004 7.628893705652779, 6 7.591769031946587 M5.400000000000002 7.678449276626214 C5.562990868956649 7.654902462623369, 5.725981737913296 7.631355648620524, 6 7.591769031946587 M6 7.591769031946587 C6.121636962211217 7.57989774549621, 6.243273924422435 7.568026459045834, 6.599999999999998 7.533211404883709 M6 7.591769031946587 C6.2359260718899945 7.568743580393013, 6.471852143779989 7.54571812883944, 6.599999999999998 7.533211404883709 M6.599999999999998 7.533211404883709 C6.781821841553783 7.524268339819856, 6.963643683107568 7.5153252747560035, 7.199999999999999 7.50369988419699 M6.599999999999998 7.533211404883709 C6.791447512087643 7.523794892861384, 6.9828950241752885 7.514378380839058, 7.199999999999999 7.50369988419699 M7.199999999999999 7.50369988419699 C7.324105549889543 7.50369988419699, 7.448211099779086 7.50369988419699, 7.800000000000001 7.50369988419699 M7.199999999999999 7.50369988419699 C7.408225984992168 7.50369988419699, 7.616451969984336 7.50369988419699, 7.800000000000001 7.50369988419699 M7.800000000000001 7.50369988419699 C8.021606363774476 7.514599785511722, 8.24321272754895 7.525499686826453, 8.400000000000002 7.533211404883708 M7.800000000000001 7.50369988419699 C7.95371422039546 7.5112604515220625, 8.107428440790919 7.5188210188471345, 8.400000000000002 7.533211404883708 M8.400000000000002 7.533211404883708 C8.564626733515 7.549278322993294, 8.729253467029997 7.565345241102879, 9 7.591769031946587 M8.400000000000002 7.533211404883708 C8.544344939276355 7.547298900087973, 8.688689878552706 7.561386395292237, 9 7.591769031946587 M9 7.591769031946587 C9.147802457275318 7.6131216205480445, 9.295604914550635 7.634474209149502, 9.599999999999998 7.678449276626212 M9 7.591769031946587 C9.121890269572999 7.609378162597675, 9.243780539146 7.626987293248764, 9.599999999999998 7.678449276626212 M9.599999999999998 7.678449276626212 C9.777874443404748 7.7120781782986985, 9.9557488868095 7.745707079971186, 10.2 7.791885139683721 M9.599999999999998 7.678449276626212 C9.760628528073733 7.708817669482381, 9.92125705614747 7.73918606233855, 10.2 7.791885139683721 M10.2 7.791885139683721 C10.395223996655536 7.836917631476453, 10.590447993311074 7.881950123269185, 10.8 7.930287669795394 M10.2 7.791885139683721 C10.383848238963559 7.834293575398941, 10.567696477927116 7.876702011114161, 10.8 7.930287669795394 M10.8 7.930287669795394 C10.928630419620095 7.964843483094647, 11.057260839240188 7.9993992963939, 11.399999999999999 8.091474176383707 M10.8 7.930287669795394 C10.942329769699725 7.96852373373109, 11.084659539399448 8.006759797666787, 11.399999999999999 8.091474176383707 M11.399999999999999 8.091474176383707 C11.633151317970148 8.161974656710328, 11.866302635940297 8.232475137036948, 12 8.272902651951613 M11.399999999999999 8.091474176383707 C11.604750621161925 8.15338683149869, 11.80950124232385 8.215299486613674, 12 8.272902651951613 M12 8.272902651951613 C12.213493488529119 8.343643437958466, 12.426986977058236 8.414384223965317, 12.600000000000001 8.471711861059283 M12 8.272902651951613 C12.208449553112697 8.341972136606918, 12.416899106225395 8.411041621262221, 12.600000000000001 8.471711861059283 M12.600000000000001 8.471711861059283 C12.834498008504422 8.55497999443554, 13.06899601700884 8.638248127811798, 13.2 8.684766463716228 M12.600000000000001 8.471711861059283 C12.816596239838367 8.54862323741887, 13.033192479676734 8.625534613778456, 13.2 8.684766463716228 M13.2 8.684766463716228 C13.375269557253022 8.750182904173485, 13.550539114506044 8.815599344630742, 13.799999999999997 8.908706461565895 M13.2 8.684766463716228 C13.393857482871955 8.757120537545374, 13.587714965743912 8.82947461137452, 13.799999999999997 8.908706461565895 M13.799999999999997 8.908706461565895 C14.015486100818903 8.991774099986056, 14.230972201637808 9.074841738406215, 14.399999999999999 9.14000018706693 M13.799999999999997 8.908706461565895 C13.980021622879292 8.978102914610051, 14.160043245758587 9.04749936765421, 14.399999999999999 9.14000018706693 M14.399999999999999 9.14000018706693 C14.546805038954258 9.197498781553401, 14.693610077908515 9.254997376039872, 15 9.375 M14.399999999999999 9.14000018706693 C14.626547583203727 9.228731253189121, 14.853095166407456 9.317462319311314, 15 9.375 M15 9.375 C15 2.90255942061886, 15 -3.5698811587622803, 15 -9.375 M15 9.375 C15 5.042507755607461, 15 0.7100155112149213, 15 -9.375 M15 -9.375 C15 -9.375, 15 -9.375, 15 -9.375 M15 -9.375 C15 -9.375, 15 -9.375, 15 -9.375 M15 -9.375 C14.87316015380319 -9.424678900214516, 14.746320307606378 -9.474357800429033, 14.4 -9.60999981293307 M15 -9.375 C14.781007232152396 -9.460772099129803, 14.562014464304792 -9.546544198259607, 14.4 -9.60999981293307 M14.4 -9.60999981293307 C14.225156884534352 -9.677400005523499, 14.050313769068701 -9.744800198113929, 13.8 -9.841293538434103 M14.4 -9.60999981293307 C14.198700990981525 -9.687598475825652, 13.997401981963051 -9.765197138718234, 13.8 -9.841293538434103 M13.8 -9.841293538434103 C13.610266632188608 -9.912108355066925, 13.420533264377214 -9.982923171699749, 13.2 -10.065233536283772 M13.8 -9.841293538434103 C13.572129138637722 -9.926342538773222, 13.344258277275445 -10.011391539112338, 13.2 -10.065233536283772 M13.2 -10.065233536283772 C13.067404797077966 -10.112316900071724, 12.934809594155933 -10.159400263859673, 12.6 -10.278288138940717 M13.2 -10.065233536283772 C13.067811132856741 -10.112172613891902, 12.935622265713485 -10.159111691500033, 12.6 -10.278288138940717 M12.6 -10.278288138940717 C12.398436197042566 -10.345076039358553, 12.196872394085133 -10.411863939776389, 12 -10.477097348048387 M12.6 -10.278288138940717 C12.390068938490552 -10.347848519450428, 12.180137876981105 -10.41740889996014, 12 -10.477097348048387 M12 -10.477097348048387 C11.823173033481744 -10.530566426339561, 11.646346066963487 -10.584035504630734, 11.4 -10.65852582361629 M12 -10.477097348048387 C11.852227666840884 -10.521780863275339, 11.704455333681766 -10.56646437850229, 11.4 -10.65852582361629 M11.4 -10.65852582361629 C11.179070959071291 -10.717877124134967, 10.958141918142582 -10.777228424653641, 10.8 -10.819712330204604 M11.4 -10.65852582361629 C11.188120954341608 -10.715445895597862, 10.976241908683216 -10.77236596757943, 10.8 -10.819712330204604 M10.8 -10.819712330204604 C10.651628439794075 -10.853937329086465, 10.50325687958815 -10.888162327968326, 10.2 -10.958114860316279 M10.8 -10.819712330204604 C10.619712824945015 -10.861299332161765, 10.439425649890028 -10.902886334118925, 10.2 -10.958114860316279 M10.2 -10.958114860316279 C10.013226547355677 -10.99342620664451, 9.826453094711352 -11.028737552972743, 9.600000000000001 -11.071550723373786 M10.2 -10.958114860316279 C10.074216590750963 -10.981895442960413, 9.948433181501926 -11.005676025604545, 9.600000000000001 -11.071550723373786 M9.600000000000001 -11.071550723373786 C9.446862130014814 -11.093674103440508, 9.293724260029629 -11.11579748350723, 9 -11.158230968053413 M9.600000000000001 -11.071550723373786 C9.383752668111123 -11.10279134277286, 9.167505336222243 -11.134031962171933, 9 -11.158230968053413 M9 -11.158230968053413 C8.786116940449922 -11.179105108780414, 8.572233880899844 -11.199979249507416, 8.4 -11.216788595116292 M9 -11.158230968053413 C8.855720630862006 -11.172312063871496, 8.711441261724012 -11.18639315968958, 8.4 -11.216788595116292 M8.4 -11.216788595116292 C8.264445409314238 -11.223455965294962, 8.128890818628475 -11.230123335473634, 7.800000000000001 -11.24630011580301 M8.4 -11.216788595116292 C8.231539793197282 -11.225074456579536, 8.063079586394565 -11.233360318042783, 7.800000000000001 -11.24630011580301 M7.800000000000001 -11.24630011580301 C7.599016823096262 -11.24630011580301, 7.398033646192524 -11.24630011580301, 7.199999999999999 -11.24630011580301 M7.800000000000001 -11.24630011580301 C7.679851017307945 -11.24630011580301, 7.5597020346158885 -11.24630011580301, 7.199999999999999 -11.24630011580301 M7.199999999999999 -11.24630011580301 C7.038006651034785 -11.238332332354513, 6.8760133020695715 -11.230364548906017, 6.6 -11.216788595116292 M7.199999999999999 -11.24630011580301 C6.986916647867877 -11.235819426212272, 6.773833295735754 -11.225338736621534, 6.6 -11.216788595116292 M6.6 -11.216788595116292 C6.405790470029862 -11.197834513069544, 6.211580940059724 -11.178880431022797, 6 -11.158230968053413 M6.6 -11.216788595116292 C6.377195004691603 -11.195043708744599, 6.154390009383207 -11.173298822372907, 6 -11.158230968053413 M6 -11.158230968053413 C5.795574792273811 -11.128698256346096, 5.591149584547622 -11.099165544638781, 5.4 -11.071550723373786 M6 -11.158230968053413 C5.823538572431766 -11.132738101856528, 5.647077144863531 -11.107245235659644, 5.4 -11.071550723373786 M5.4 -11.071550723373786 C5.239709382951263 -11.04124621589888, 5.079418765902527 -11.010941708423973, 4.799999999999999 -10.958114860316279 M5.4 -11.071550723373786 C5.19634086311951 -11.033046973437811, 4.992681726239019 -10.994543223501834, 4.799999999999999 -10.958114860316279 M4.799999999999999 -10.958114860316279 C4.57808599609432 -10.906925760970015, 4.3561719921886395 -10.855736661623753, 4.200000000000001 -10.819712330204606 M4.799999999999999 -10.958114860316279 C4.638551955768752 -10.92087349731097, 4.4771039115375055 -10.883632134305659, 4.200000000000001 -10.819712330204606 M4.200000000000001 -10.819712330204606 C3.9649577314834388 -10.756569593266644, 3.729915462966876 -10.693426856328681, 3.5999999999999996 -10.65852582361629 M4.200000000000001 -10.819712330204606 C4.059953169187416 -10.782089564508864, 3.9199063383748314 -10.744466798813121, 3.5999999999999996 -10.65852582361629 M3.5999999999999996 -10.65852582361629 C3.4623260601577646 -10.616895868564617, 3.3246521203155295 -10.575265913512943, 3 -10.477097348048387 M3.5999999999999996 -10.65852582361629 C3.3825594087915687 -10.592775965300408, 3.1651188175831377 -10.527026106984525, 3 -10.477097348048387 M3 -10.477097348048387 C2.8787247439361185 -10.43691295181107, 2.7574494878722366 -10.396728555573752, 2.4000000000000004 -10.278288138940717 M3 -10.477097348048387 C2.8315191359856087 -10.421271435840923, 2.663038271971217 -10.36544552363346, 2.4000000000000004 -10.278288138940717 M2.4000000000000004 -10.278288138940717 C2.1943437575857834 -10.205261457254915, 1.9886875151715662 -10.132234775569112, 1.8000000000000007 -10.065233536283772 M2.4000000000000004 -10.278288138940717 C2.218035404817934 -10.213674148067138, 2.036070809635867 -10.14906015719356, 1.8000000000000007 -10.065233536283772 M1.8000000000000007 -10.065233536283772 C1.6753290132238665 -10.018702168766167, 1.550658026447732 -9.972170801248561, 1.1999999999999993 -9.841293538434103 M1.8000000000000007 -10.065233536283772 C1.6323953885771765 -10.002677909081068, 1.4647907771543522 -9.940122281878367, 1.1999999999999993 -9.841293538434103 M1.1999999999999993 -9.841293538434103 C1.0234968347438036 -9.773253414009387, 0.8469936694876079 -9.70521328958467, 0.6000000000000014 -9.609999812933072 M1.1999999999999993 -9.841293538434103 C1.0053790302498833 -9.76626918984389, 0.8107580604997673 -9.691244841253676, 0.6000000000000014 -9.609999812933072 M0.6000000000000014 -9.609999812933072 C0.4132459064462106 -9.536854517850362, 0.22649181289241982 -9.463709222767651, 0 -9.375 M0.6000000000000014 -9.609999812933072 C0.47660163728468224 -9.56166882600916, 0.35320327456936307 -9.513337839085247, 0 -9.375 M0 -9.375 C-0.1338120162559084 -9.322590335352775, -0.2676240325118168 -9.27018067070555, -0.6000000000000014 -9.14000018706693 M0 -9.375 C-0.20744204045366077 -9.293751932164893, -0.41488408090732154 -9.212503864329785, -0.6000000000000014 -9.14000018706693 M-0.6000000000000014 -9.14000018706693 C-0.7227752173041969 -9.092671624717786, -0.8455504346083924 -9.045343062368643, -1.2000000000000028 -8.908706461565897 M-0.6000000000000014 -9.14000018706693 C-0.7591373064655624 -9.078654419602564, -0.9182746129311236 -9.0173086521382, -1.2000000000000028 -8.908706461565897 M-1.2000000000000028 -8.908706461565897 C-1.3981638758393533 -8.83474509835032, -1.596327751678704 -8.760783735134744, -1.8000000000000007 -8.68476646371623 M-1.2000000000000028 -8.908706461565897 C-1.4219347159034579 -8.825873028562253, -1.643869431806913 -8.743039595558608, -1.8000000000000007 -8.68476646371623 M-1.8000000000000007 -8.68476646371623 C-1.9717192081178925 -8.623790517626025, -2.1434384162357842 -8.56281457153582, -2.3999999999999986 -8.471711861059285 M-1.8000000000000007 -8.68476646371623 C-1.9594140732480612 -8.62815996032658, -2.1188281464961216 -8.571553456936927, -2.3999999999999986 -8.471711861059285 M-2.3999999999999986 -8.471711861059285 C-2.5442928130716145 -8.423900627648136, -2.6885856261432304 -8.376089394236988, -3 -8.272902651951613 M-2.3999999999999986 -8.471711861059285 C-2.5503162764130964 -8.421904761009788, -2.7006325528261943 -8.372097660960291, -3 -8.272902651951613 M-3 -8.272902651951613 C-3.191857980649334 -8.214888483693704, -3.383715961298668 -8.156874315435797, -3.6000000000000014 -8.09147417638371 M-3 -8.272902651951613 C-3.1832443814848106 -8.217493070636326, -3.366488762969621 -8.162083489321038, -3.6000000000000014 -8.09147417638371 M-3.6000000000000014 -8.09147417638371 C-3.802949967170957 -8.036952849349543, -4.005899934341913 -7.982431522315379, -4.199999999999999 -7.930287669795396 M-3.6000000000000014 -8.09147417638371 C-3.83027305678948 -8.029612660408196, -4.060546113578958 -7.967751144432681, -4.199999999999999 -7.930287669795396 M-4.199999999999999 -7.930287669795396 C-4.334476982770731 -7.8992677453666404, -4.468953965541464 -7.868247820937885, -4.800000000000001 -7.791885139683722 M-4.199999999999999 -7.930287669795396 C-4.351636538214097 -7.895309535551718, -4.503273076428195 -7.8603314013080405, -4.800000000000001 -7.791885139683722 M-4.800000000000001 -7.791885139683722 C-4.9882750477882665 -7.7562899021202965, -5.176550095576532 -7.720694664556871, -5.400000000000002 -7.678449276626214 M-4.800000000000001 -7.791885139683722 C-5.032516643317331 -7.747925596167162, -5.265033286634661 -7.7039660526506015, -5.400000000000002 -7.678449276626214 M-5.400000000000002 -7.678449276626214 C-5.626370095837639 -7.645746251133953, -5.852740191675275 -7.6130432256416904, -6 -7.591769031946587 M-5.400000000000002 -7.678449276626214 C-5.622330256615053 -7.646329874887752, -5.844660513230103 -7.614210473149291, -6 -7.591769031946587 M-6 -7.591769031946587 C-6.170427127795307 -7.575136018295195, -6.340854255590615 -7.5585030046438035, -6.599999999999998 -7.533211404883709 M-6 -7.591769031946587 C-6.237910753657805 -7.568549883301683, -6.475821507315611 -7.545330734656781, -6.599999999999998 -7.533211404883709 M-6.599999999999998 -7.533211404883709 C-6.793138298811112 -7.523711730049106, -6.986276597622225 -7.514212055214503, -7.199999999999999 -7.50369988419699 M-6.599999999999998 -7.533211404883709 C-6.750462544711102 -7.525810774049012, -6.900925089422206 -7.518410143214315, -7.199999999999999 -7.50369988419699 M-7.199999999999999 -7.50369988419699 C-7.437051542200468 -7.50369988419699, -7.674103084400936 -7.50369988419699, -7.800000000000001 -7.50369988419699 M-7.199999999999999 -7.50369988419699 C-7.404059916311638 -7.50369988419699, -7.608119832623278 -7.50369988419699, -7.800000000000001 -7.50369988419699 M-7.800000000000001 -7.50369988419699 C-7.9537223654025855 -7.511260852141306, -8.10744473080517 -7.5188218200856225, -8.400000000000002 -7.533211404883708 M-7.800000000000001 -7.50369988419699 C-8.036398519881443 -7.515327350546642, -8.272797039762885 -7.526954816896293, -8.400000000000002 -7.533211404883708 M-8.400000000000002 -7.533211404883708 C-8.577815409784499 -7.550565485637365, -8.755630819568998 -7.56791956639102, -9 -7.591769031946587 M-8.400000000000002 -7.533211404883708 C-8.622884624704627 -7.554964062769547, -8.845769249409251 -7.576716720655385, -9 -7.591769031946587 M-9 -7.591769031946587 C-9.18447604090176 -7.618419745884743, -9.368952081803522 -7.645070459822898, -9.599999999999998 -7.678449276626212 M-9 -7.591769031946587 C-9.134116421207322 -7.611144438956265, -9.268232842414644 -7.630519845965941, -9.599999999999998 -7.678449276626212 M-9.599999999999998 -7.678449276626212 C-9.725742127555527 -7.702222054562793, -9.851484255111057 -7.725994832499375, -10.2 -7.791885139683721 M-9.599999999999998 -7.678449276626212 C-9.775513426315166 -7.711631804946615, -9.951026852630333 -7.744814333267017, -10.2 -7.791885139683721 M-10.2 -7.791885139683721 C-10.362227412639102 -7.829306280288258, -10.524454825278204 -7.866727420892794, -10.8 -7.930287669795394 M-10.2 -7.791885139683721 C-10.355700577237856 -7.827800729399667, -10.511401154475712 -7.863716319115612, -10.8 -7.930287669795394 M-10.8 -7.930287669795394 C-10.951475998629014 -7.970980814880373, -11.102951997258028 -8.011673959965352, -11.399999999999999 -8.091474176383707 M-10.8 -7.930287669795394 C-11.023330382629489 -7.990284076780525, -11.246660765258978 -8.050280483765656, -11.399999999999999 -8.091474176383707 M-11.399999999999999 -8.091474176383707 C-11.56947928430397 -8.142721456703056, -11.738958568607943 -8.193968737022406, -12 -8.272902651951613 M-11.399999999999999 -8.091474176383707 C-11.57367565635096 -8.143990359008725, -11.747351312701923 -8.196506541633742, -12 -8.272902651951613 M-12 -8.272902651951613 C-12.20584595629825 -8.34110943823439, -12.411691912596497 -8.40931622451717, -12.600000000000001 -8.471711861059283 M-12 -8.272902651951613 C-12.1849088219775 -8.334171946375575, -12.369817643954999 -8.395441240799538, -12.600000000000001 -8.471711861059283 M-12.600000000000001 -8.471711861059283 C-12.779851579505296 -8.535575539073825, -12.959703159010592 -8.599439217088365, -13.2 -8.684766463716228 M-12.600000000000001 -8.471711861059283 C-12.821629352999532 -8.550410450626668, -13.043258705999062 -8.629109040194052, -13.2 -8.684766463716228 M-13.2 -8.684766463716228 C-13.343424767394513 -8.738297367219422, -13.486849534789025 -8.791828270722617, -13.799999999999997 -8.908706461565895 M-13.2 -8.684766463716228 C-13.349347198361574 -8.740507815849469, -13.498694396723149 -8.796249167982712, -13.799999999999997 -8.908706461565895 M-13.799999999999997 -8.908706461565895 C-13.924994823398777 -8.956890658852975, -14.049989646797556 -9.005074856140054, -14.399999999999999 -9.14000018706693 M-13.799999999999997 -8.908706461565895 C-13.975445199569739 -8.976338751282158, -14.150890399139483 -9.043971040998422, -14.399999999999999 -9.14000018706693 M-14.399999999999999 -9.14000018706693 C-14.581794140973352 -9.21120283560204, -14.763588281946706 -9.28240548413715, -15 -9.375 M-14.399999999999999 -9.14000018706693 C-14.580702474484923 -9.210775266567763, -14.761404948969846 -9.281550346068595, -15 -9.375 M-15 -9.375 C-15 -3.1646331642804277, -15 3.0457336714391445, -15 9.375 M-15 -9.375 C-15 -2.638584848028726, -15 4.097830303942548, -15 9.375" stroke="currentColor" stroke-width="2" fill="none" vector-effect="non-scaling-stroke"/></g></g></g></g></g><linearGradient id="s2m-shape-paperTape-gradient" gradientUnits="objectBoundingBox" x1="0%" y1="0%" x2="100%" y2="0%"><stop offset="0%" stop-color="hsl(40.5882352941, 60%, 83.3333333333%)" stop-opacity="1"/><stop offset="100%" stop-color="hsl(-79.4117647059, 60%, 83.3333333333%)" stop-opacity="1"/></linearGradient></svg>