<svg id="s2m-shape-paperTape" width="100%" xmlns="http://www.w3.org/2000/svg" class="flowchart" style="max-width: 76px;" viewBox="-21.30 -16.05 102.60 62.10" role="graphics-document document" aria-roledescription="flowchart-v2"><g><marker id="s2m-shape-paperTape_flowchart-v2-pointEnd" class="marker flowchart-v2" viewBox="0 0 10 10" refX="5" refY="5" markerUnits="userSpaceOnUse" markerWidth="8" markerHeight="8" orient="auto"><path d="M 0 0 L 10 5 L 0 10 z" class="arrowMarkerPath" style="stroke-width: 1; stroke-dasharray: 1,0;"/></marker><marker id="s2m-shape-paperTape_flowchart-v2-pointStart" class="marker flowchart-v2" viewBox="0 0 10 10" refX="4.5" refY="5" markerUnits="userSpaceOnUse" markerWidth="8" markerHeight="8" orient="auto"><path d="M 0 5 L 10 10 L 10 0 z" class="arrowMarkerPath" style="stroke-width: 1; stroke-dasharray: 1,0;"/></marker><marker id="s2m-shape-paperTape_flowchart-v2-pointEnd-margin" class="marker flowchart-v2" viewBox="0 0 11.5 14" refX="11.5" refY="7" markerUnits="userSpaceOnUse" markerWidth="10.5" markerHeight="14" orient="auto"><path d="M 0 0 L 11.5 7 L 0 14 z" class="arrowMarkerPath" style="stroke-width: 0; stroke-dasharray: 1,0;"/></marker><marker id="s2m-shape-paperTape_flowchart-v2-pointStart-margin" class="marker flowchart-v2" viewBox="0 0 11.5 14" refX="1" refY="7" markerUnits="userSpaceOnUse" markerWidth="11.5" markerHeight="14" orient="auto"><polygon points="0,7 11.5,14 11.5,0" class="arrowMarkerPath" style="stroke-width: 0; stroke-dasharray: 1,0;"/></marker><marker id="s2m-shape-paperTape_flowchart-v2-circleEnd" class="marker flowchart-v2" viewBox="0 0 10 10" refX="11" refY="5" markerUnits="userSpaceOnUse" markerWidth="11" markerHeight="11" orient="auto"><circle cx="5" cy="5" r="5" class="arrowMarkerPath" style="stroke-width: 1; stroke-dasharray: 1,0;"/></marker><marker id="s2m-shape-paperTape_flowchart-v2-circleStart" class="marker flowchart-v2" viewBox="0 0 10 10" refX="-1" refY="5" markerUnits="userSpaceOnUse" markerWidth="11" markerHeight="11" orient="auto"><circle cx="5" cy="5" r="5" class="arrowMarkerPath" style="stroke-width: 1; stroke-dasharray: 1,0;"/></marker><marker id="s2m-shape-paperTape_flowchart-v2-circleEnd-margin" class="marker flowchart-v2" viewBox="0 0 10 10" refY="5" refX="12.25" markerUnits="userSpaceOnUse" markerWidth="14" markerHeight="14" orient="auto"><circle cx="5" cy="5" r="5" class="arrowMarkerPath" style="stroke-width: 0; stroke-dasharray: 1,0;"/></marker><marker id="s2m-shape-paperTape_flowchart-v2-circleStart-margin" class="marker flowchart-v2" viewBox="0 0 10 10" refX="-2" refY="5" markerUnits="userSpaceOnUse" markerWidth="14" markerHeight="14" orient="auto"><circle cx="5" cy="5" r="5" class="arrowMarkerPath" style="stroke-width: 0; stroke-dasharray: 1,0;"/></marker><marker id="s2m-shape-paperTape_flowchart-v2-crossEnd" class="marker cross flowchart-v2" viewBox="0 0 11 11" refX="12" refY="5.2" markerUnits="userSpaceOnUse" markerWidth="11" markerHeight="11" orient="auto"><path d="M 1,1 l 9,9 M 10,1 l -9,9" class="arrowMarkerPath" style="stroke-width: 2; stroke-dasharray: 1,0;"/></marker><marker id="s2m-shape-paperTape_flowchart-v2-crossStart" class="marker cross flowchart-v2" viewBox="0 0 11 11" refX="-1" refY="5.2" markerUnits="userSpaceOnUse" markerWidth="11" markerHeight="11" orient="auto"><path d="M 1,1 l 9,9 M 10,1 l -9,9" class="arrowMarkerPath" style="stroke-width: 2; stroke-dasharray: 1,0;"/></marker><marker id="s2m-shape-paperTape_flowchart-v2-crossEnd-margin" class="marker cross flowchart-v2" viewBox="0 0 15 15" refX="17.7" refY="7.5" markerUnits="userSpaceOnUse" markerWidth="12" markerHeight="12" orient="auto"><path d="M 1,1 L 14,14 M 1,14 L 14,1" class="arrowMarkerPath" style="stroke-width: 2.5;"/></marker><marker id="s2m-shape-paperTape_flowchart-v2-crossStart-margin" class="marker cross flowchart-v2" viewBox="0 0 15 15" refX="-3.5" refY="7.5" markerUnits="userSpaceOnUse" markerWidth="12" markerHeight="12" orient="auto"><path d="M 1,1 L 14,14 M 1,14 L 14,1" class="arrowMarkerPath" style="stroke-width: 2.5; stroke-dasharray: 1,0;"/></marker><g class="root"><g class="clusters"/><g class="edgePaths"/><g class="edgeLabels"/><g class="nodes"><g class="node default" data-look="classic" transform="translate(38, 23)"><g class="basic label-container"><path d="M-15 9.375 C-15 9.375, -15 9.375, -15 9.375 M-15 9.375 C-15 9.375, -15 9.375, -15 9.375 M-15 9.375 C-14.805049494053023 9.451355554047911, -14.610098988106046 9.527711108095824, -14.4 9.60999981293307 M-15 9.375 C-14.830376048309425 9.441435994860422, -14.660752096618848 9.507871989720845, -14.4 9.60999981293307 M-14.4 9.60999981293307 C-14.17954843495717 9.69498158588522, -13.959096869914339 9.77996335883737, -13.8 9.841293538434103 M-14.4 9.60999981293307 C-14.24426921525348 9.67003240189844, -14.088538430506958 9.730064990863811, -13.8 9.841293538434103 M-13.8 9.841293538434103 C-13.564599321794814 9.929152917385903, -13.329198643589628 10.017012296337702, -13.2 10.065233536283772 M-13.8 9.841293538434103 C-13.647386669985094 9.898253919759718, -13.494773339970186 9.955214301085334, -13.2 10.065233536283772 M-13.2 10.065233536283772 C-12.983955650780947 10.14194894124901, -12.767911301561893 10.21866434621425, -12.6 10.278288138940717 M-13.2 10.065233536283772 C-13.05482575108101 10.116783606149532, -12.909651502162019 10.168333676015292, -12.6 10.278288138940717 M-12.6 10.278288138940717 C-12.380397658586558 10.351053085298382, -12.160795317173115 10.423818031656047, -12 10.477097348048387 M-12.6 10.278288138940717 C-12.475985614276546 10.319380142180139, -12.351971228553092 10.36047214541956, -12 10.477097348048387 M-12 10.477097348048387 C-11.829354048991737 10.528697405970494, -11.658708097983475 10.5802974638926, -11.4 10.65852582361629 M-12 10.477097348048387 C-11.806096366675115 10.53573008238374, -11.61219273335023 10.594362816719093, -11.4 10.65852582361629 M-11.4 10.65852582361629 C-11.215613184711087 10.708060267978565, -11.031226369422173 10.75759471234084, -10.8 10.819712330204604 M-11.4 10.65852582361629 C-11.264524222296375 10.694920602508594, -11.129048444592751 10.731315381400899, -10.8 10.819712330204604 M-10.8 10.819712330204604 C-10.650509524715112 10.854195430216313, -10.501019049430223 10.888678530228022, -10.2 10.958114860316279 M-10.8 10.819712330204604 C-10.596073752599395 10.86675217786531, -10.392147505198789 10.913792025526014, -10.2 10.958114860316279 M-10.2 10.958114860316279 C-9.990660379547029 10.997692561179969, -9.781320759094058 11.037270262043657, -9.600000000000001 11.071550723373786 M-10.2 10.958114860316279 C-10.016759680239089 10.992758233347967, -9.833519360478178 11.027401606379653, -9.600000000000001 11.071550723373786 M-9.600000000000001 11.071550723373786 C-9.45853655563454 11.091987533325154, -9.317073111269076 11.112424343276523, -9 11.158230968053413 M-9.600000000000001 11.071550723373786 C-9.475969675867086 11.089469021446344, -9.351939351734169 11.107387319518901, -9 11.158230968053413 M-9 11.158230968053413 C-8.79368644891291 11.17836635469104, -8.58737289782582 11.198501741328666, -8.4 11.216788595116292 M-9 11.158230968053413 C-8.782279468279578 11.17947963088744, -8.564558936559155 11.200728293721466, -8.4 11.216788595116292 M-8.4 11.216788595116292 C-8.207216056832953 11.226270840661027, -8.014432113665904 11.235753086205763, -7.800000000000001 11.24630011580301 M-8.4 11.216788595116292 C-8.236276709380801 11.224841467246302, -8.0725534187616 11.232894339376312, -7.800000000000001 11.24630011580301 M-7.800000000000001 11.24630011580301 C-7.596874566294145 11.24630011580301, -7.3937491325882885 11.24630011580301, -7.199999999999999 11.24630011580301 M-7.800000000000001 11.24630011580301 C-7.614444298768897 11.24630011580301, -7.428888597537795 11.24630011580301, -7.199999999999999 11.24630011580301 M-7.199999999999999 11.24630011580301 C-6.961201444700742 11.234554601628556, -6.722402889401485 11.222809087454102, -6.6 11.216788595116292 M-7.199999999999999 11.24630011580301 C-7.072563622894932 11.240032047004382, -6.945127245789864 11.233763978205754, -6.6 11.216788595116292 M-6.6 11.216788595116292 C-6.457122094147441 11.202844276572225, -6.314244188294882 11.188899958028161, -6 11.158230968053413 M-6.6 11.216788595116292 C-6.470750925490981 11.204174396610757, -6.341501850981962 11.19156019810522, -6 11.158230968053413 M-6 11.158230968053413 C-5.850213247394076 11.136591714110667, -5.700426494788152 11.114952460167919, -5.4 11.071550723373786 M-6 11.158230968053413 C-5.7809821775836845 11.126590103993005, -5.56196435516737 11.094949239932596, -5.4 11.071550723373786 M-5.4 11.071550723373786 C-5.224485379176061 11.038367969219829, -5.048970758352122 11.00518521506587, -4.799999999999999 10.958114860316279 M-5.4 11.071550723373786 C-5.247237034111784 11.042669391909195, -5.094474068223567 11.013788060444606, -4.799999999999999 10.958114860316279 M-4.799999999999999 10.958114860316279 C-4.583826671364298 10.90824996760654, -4.367653342728596 10.858385074896802, -4.200000000000001 10.819712330204606 M-4.799999999999999 10.958114860316279 C-4.621458171912298 10.91693045908611, -4.442916343824598 10.875746057855942, -4.200000000000001 10.819712330204606 M-4.200000000000001 10.819712330204606 C-4.073745164343609 10.785794703705713, -3.947490328687216 10.75187707720682, -3.5999999999999996 10.65852582361629 M-4.200000000000001 10.819712330204606 C-4.010287526975507 10.768747178899526, -3.820575053951013 10.717782027594446, -3.5999999999999996 10.65852582361629 M-3.5999999999999996 10.65852582361629 C-3.4000961473602604 10.59807873820866, -3.2001922947205212 10.537631652801029, -3 10.477097348048387 M-3.5999999999999996 10.65852582361629 C-3.392955782637612 10.595919629064278, -3.1859115652752252 10.533313434512266, -3 10.477097348048387 M-3 10.477097348048387 C-2.836982731767187 10.42308179110129, -2.673965463534374 10.369066234154191, -2.4000000000000004 10.278288138940717 M-3 10.477097348048387 C-2.820211422125348 10.417524639758634, -2.6404228442506965 10.357951931468879, -2.4000000000000004 10.278288138940717 M-2.4000000000000004 10.278288138940717 C-2.250086092588246 10.225055058980114, -2.1001721851764916 10.171821979019512, -1.8000000000000007 10.065233536283772 M-2.4000000000000004 10.278288138940717 C-2.191157736756757 10.204130129918607, -1.9823154735135136 10.129972120896495, -1.8000000000000007 10.065233536283772 M-1.8000000000000007 10.065233536283772 C-1.6165919932395756 9.99677955521787, -1.4331839864791502 9.928325574151966, -1.1999999999999993 9.841293538434103 M-1.8000000000000007 10.065233536283772 C-1.6016750164299631 9.991212042293423, -1.4033500328599255 9.917190548303072, -1.1999999999999993 9.841293538434103 M-1.1999999999999993 9.841293538434103 C-0.966094343585348 9.751125353954254, -0.7321886871706965 9.660957169474406, -0.6000000000000014 9.609999812933072 M-1.1999999999999993 9.841293538434103 C-0.9749578581918292 9.754542146144864, -0.7499157163836591 9.667790753855625, -0.6000000000000014 9.609999812933072 M-0.6000000000000014 9.609999812933072 C-0.4273773313805098 9.542389321543759, -0.2547546627610182 9.474778830154445, 0 9.375 M-0.6000000000000014 9.609999812933072 C-0.4419952662005078 9.548114674790703, -0.28399053240101413 9.486229536648336, 0 9.375 M0 9.375 C0.18669955936324806 9.301876064124917, 0.3733991187264961 9.228752128249834, 0.6000000000000014 9.14000018706693 M0 9.375 C0.2029126791732982 9.295525930587544, 0.4058253583465964 9.21605186117509, 0.6000000000000014 9.14000018706693 M0.6000000000000014 9.14000018706693 C0.7658790275620437 9.076055556621407, 0.9317580551240859 9.012110926175886, 1.2000000000000028 8.908706461565897 M0.6000000000000014 9.14000018706693 C0.8088577377885646 9.059487713278871, 1.0177154755771278 8.978975239490815, 1.2000000000000028 8.908706461565897 M1.2000000000000028 8.908706461565897 C1.4131567443705997 8.829149260105908, 1.6263134887411965 8.749592058645918, 1.8000000000000007 8.68476646371623 M1.2000000000000028 8.908706461565897 C1.3859368929613127 8.83930861588268, 1.5718737859226226 8.769910770199465, 1.8000000000000007 8.68476646371623 M1.8000000000000007 8.68476646371623 C1.9847731388791783 8.619155184240263, 2.169546277758356 8.553543904764297, 2.3999999999999986 8.471711861059285 M1.8000000000000007 8.68476646371623 C2.0398345293704803 8.599603379785492, 2.27966905874096 8.514440295854753, 2.3999999999999986 8.471711861059285 M2.3999999999999986 8.471711861059285 C2.522309727254145 8.431184694156665, 2.6446194545082915 8.390657527254046, 3 8.272902651951613 M2.3999999999999986 8.471711861059285 C2.5889602539991086 8.409100129975371, 2.7779205079982185 8.34648839889146, 3 8.272902651951613 M3 8.272902651951613 C3.1655569285550915 8.222841416672521, 3.331113857110183 8.172780181393431, 3.6000000000000014 8.09147417638371 M3 8.272902651951613 C3.2386695954140667 8.200733550517642, 3.4773391908281335 8.128564449083672, 3.6000000000000014 8.09147417638371 M3.6000000000000014 8.09147417638371 C3.755124384105326 8.049800913782708, 3.910248768210651 8.008127651181706, 4.199999999999999 7.930287669795396 M3.6000000000000014 8.09147417638371 C3.748906712433661 8.051471255075823, 3.89781342486732 8.011468333767935, 4.199999999999999 7.930287669795396 M4.199999999999999 7.930287669795396 C4.420612813551094 7.879398717177852, 4.641225627102188 7.828509764560308, 4.800000000000001 7.791885139683722 M4.199999999999999 7.930287669795396 C4.363549278357289 7.892561613257751, 4.527098556714578 7.854835556720105, 4.800000000000001 7.791885139683722 M4.800000000000001 7.791885139683722 C4.934543594172077 7.766448358477441, 5.069087188344153 7.74101157727116, 5.400000000000002 7.678449276626214 M4.800000000000001 7.791885139683722 C4.989380867945914 7.756080836013681, 5.178761735891827 7.72027653234364, 5.400000000000002 7.678449276626214 M5.400000000000002 7.678449276626214 C5.615014939892845 7.647386697293403, 5.830029879785688 7.61632411796059, 6 7.591769031946587 M5.400000000000002 7.678449276626214 C5.565911691985737 7.654480499865323, 5.731823383971471 7.630511723104433, 6 7.591769031946587 M6 7.591769031946587 C6.180385548121346 7.574164115855883, 6.360771096242692 7.556559199765179, 6.599999999999998 7.533211404883709 M6 7.591769031946587 C6.174412845590132 7.574747028001516, 6.348825691180264 7.557725024056446, 6.599999999999998 7.533211404883709 M6.599999999999998 7.533211404883709 C6.781609079947696 7.524278804684089, 6.963218159895394 7.515346204484468, 7.199999999999999 7.50369988419699 M6.599999999999998 7.533211404883709 C6.806680098132337 7.523045664897767, 7.013360196264676 7.512879924911824, 7.199999999999999 7.50369988419699 M7.199999999999999 7.50369988419699 C7.375051480022575 7.50369988419699, 7.550102960045149 7.50369988419699, 7.800000000000001 7.50369988419699 M7.199999999999999 7.50369988419699 C7.383498795454516 7.50369988419699, 7.566997590909033 7.50369988419699, 7.800000000000001 7.50369988419699 M7.800000000000001 7.50369988419699 C7.932572101190603 7.510220558041604, 8.065144202381205 7.5167412318862175, 8.400000000000002 7.533211404883708 M7.800000000000001 7.50369988419699 C7.929913890159962 7.510089811625236, 8.059827780319923 7.516479739053483, 8.400000000000002 7.533211404883708 M8.400000000000002 7.533211404883708 C8.552221504255321 7.548067621678931, 8.70444300851064 7.562923838474153, 9 7.591769031946587 M8.400000000000002 7.533211404883708 C8.611241825801546 7.553827771642656, 8.822483651603088 7.574444138401603, 9 7.591769031946587 M9 7.591769031946587 C9.151115978492491 7.6136003152644705, 9.302231956984985 7.635431598582355, 9.599999999999998 7.678449276626212 M9 7.591769031946587 C9.218036603834191 7.623268142229024, 9.43607320766838 7.654767252511461, 9.599999999999998 7.678449276626212 M9.599999999999998 7.678449276626212 C9.815013923468765 7.7190997599229805, 10.030027846937534 7.759750243219748, 10.2 7.791885139683721 M9.599999999999998 7.678449276626212 C9.72945341904866 7.70292371048543, 9.858906838097322 7.7273981443446464, 10.2 7.791885139683721 M10.2 7.791885139683721 C10.34612186026536 7.825591198292638, 10.492243720530718 7.859297256901555, 10.8 7.930287669795394 M10.2 7.791885139683721 C10.432628005311651 7.845545647200328, 10.665256010623303 7.899206154716935, 10.8 7.930287669795394 M10.8 7.930287669795394 C10.983374267462153 7.97955009907942, 11.166748534924306 8.028812528363446, 11.399999999999999 8.091474176383707 M10.8 7.930287669795394 C11.00349960883146 7.984956654861446, 11.206999217662919 8.039625639927499, 11.399999999999999 8.091474176383707 M11.399999999999999 8.091474176383707 C11.601186838546022 8.152309212086593, 11.802373677092044 8.213144247789478, 12 8.272902651951613 M11.399999999999999 8.091474176383707 C11.562281681331017 8.14054503981118, 11.724563362662034 8.189615903238652, 12 8.272902651951613 M12 8.272902651951613 C12.21564340452143 8.344355809788597, 12.431286809042858 8.415808967625582, 12.600000000000001 8.471711861059283 M12 8.272902651951613 C12.142703253185532 8.320187186789791, 12.285406506371064 8.36747172162797, 12.600000000000001 8.471711861059283 M12.600000000000001 8.471711861059283 C12.797630566565438 8.541888697446726, 12.995261133130874 8.61206553383417, 13.2 8.684766463716228 M12.600000000000001 8.471711861059283 C12.769224024662067 8.531801789949926, 12.938448049324133 8.591891718840568, 13.2 8.684766463716228 M13.2 8.684766463716228 C13.386874416517745 8.75451422443813, 13.573748833035491 8.824261985160035, 13.799999999999997 8.908706461565895 M13.2 8.684766463716228 C13.425049138018087 8.768762302855961, 13.650098276036175 8.852758141995695, 13.799999999999997 8.908706461565895 M13.799999999999997 8.908706461565895 C14.02042116927001 8.993676517265488, 14.240842338540023 9.078646572965079, 14.399999999999999 9.14000018706693 M13.799999999999997 8.908706461565895 C13.955988751612846 8.968838494060547, 14.111977503225697 9.0289705265552, 14.399999999999999 9.14000018706693 M14.399999999999999 9.14000018706693 C14.606084737268645 9.220716644911084, 14.812169474537292 9.301433102755238, 15 9.375 M14.399999999999999 9.14000018706693 C14.55138000665573 9.19929064247677, 14.702760013311464 9.258581097886609, 15 9.375 M15 9.375 C15 2.4440444981598652, 15 -4.4869110036802695, 15 -9.375 M15 9.375 C15 4.898832375636946, 15 0.42266475127389214, 15 -9.375 M15 -9.375 C15 -9.375, 15 -9.375, 15 -9.375 M15 -9.375 C15 -9.375, 15 -9.375, 15 -9.375 M15 -9.375 C14.799354795672185 -9.453585975804923, 14.59870959134437 -9.532171951609847, 14.4 -9.60999981293307 M15 -9.375 C14.80379889356956 -9.451845372180692, 14.60759778713912 -9.528690744361382, 14.4 -9.60999981293307 M14.4 -9.60999981293307 C14.221136319202557 -9.67894989141385, 14.042272638405114 -9.74789996989463, 13.8 -9.841293538434103 M14.4 -9.60999981293307 C14.266694656558442 -9.661387628789392, 14.133389313116886 -9.712775444645711, 13.8 -9.841293538434103 M13.8 -9.841293538434103 C13.67724330633895 -9.88711042795825, 13.554486612677898 -9.932927317482397, 13.2 -10.065233536283772 M13.8 -9.841293538434103 C13.648818350926769 -9.897719568714718, 13.497636701853537 -9.954145598995332, 13.2 -10.065233536283772 M13.2 -10.065233536283772 C13.00901453103136 -10.133050758291045, 12.81802906206272 -10.200867980298318, 12.6 -10.278288138940717 M13.2 -10.065233536283772 C13.053991554602858 -10.11707982181485, 12.907983109205714 -10.168926107345927, 12.6 -10.278288138940717 M12.6 -10.278288138940717 C12.387559595937523 -10.348679986797675, 12.175119191875044 -10.419071834654634, 12 -10.477097348048387 M12.6 -10.278288138940717 C12.430395413879362 -10.334486394986847, 12.260790827758722 -10.390684651032977, 12 -10.477097348048387 M12 -10.477097348048387 C11.814969734699437 -10.533046946327397, 11.629939469398874 -10.588996544606406, 11.4 -10.65852582361629 M12 -10.477097348048387 C11.818314435773638 -10.532035572965526, 11.636628871547277 -10.586973797882665, 11.4 -10.65852582361629 M11.4 -10.65852582361629 C11.163263731253803 -10.722123643852877, 10.926527462507604 -10.785721464089463, 10.8 -10.819712330204604 M11.4 -10.65852582361629 C11.270443655234942 -10.693330381314675, 11.140887310469882 -10.72813493901306, 10.8 -10.819712330204604 M10.8 -10.819712330204604 C10.663882975492207 -10.851110564509856, 10.527765950984412 -10.88250879881511, 10.2 -10.958114860316279 M10.8 -10.819712330204604 C10.596117178720341 -10.866742160723623, 10.392234357440682 -10.913771991242642, 10.2 -10.958114860316279 M10.2 -10.958114860316279 C10.015857359658364 -10.992928825871015, 9.83171471931673 -11.02774279142575, 9.600000000000001 -11.071550723373786 M10.2 -10.958114860316279 C9.977100538350225 -11.000256181661772, 9.75420107670045 -11.042397503007265, 9.600000000000001 -11.071550723373786 M9.600000000000001 -11.071550723373786 C9.362597542691685 -11.105847561852169, 9.125195085383368 -11.140144400330552, 9 -11.158230968053413 M9.600000000000001 -11.071550723373786 C9.468630159130516 -11.09052933995727, 9.33726031826103 -11.109507956540755, 9 -11.158230968053413 M9 -11.158230968053413 C8.850225529767265 -11.172848364005795, 8.700451059534528 -11.187465759958176, 8.4 -11.216788595116292 M9 -11.158230968053413 C8.800212407387429 -11.177729446953409, 8.600424814774856 -11.197227925853404, 8.4 -11.216788595116292 M8.4 -11.216788595116292 C8.274724385913158 -11.222950384910733, 8.149448771826316 -11.229112174705175, 7.800000000000001 -11.24630011580301 M8.4 -11.216788595116292 C8.18242801858564 -11.227490061833558, 7.964856037171278 -11.238191528550825, 7.800000000000001 -11.24630011580301 M7.800000000000001 -11.24630011580301 C7.5695368864932355 -11.24630011580301, 7.33907377298647 -11.24630011580301, 7.199999999999999 -11.24630011580301 M7.800000000000001 -11.24630011580301 C7.6463494721941965 -11.24630011580301, 7.492698944388393 -11.24630011580301, 7.199999999999999 -11.24630011580301 M7.199999999999999 -11.24630011580301 C6.975365209150219 -11.235251258674477, 6.7507304183004395 -11.224202401545943, 6.6 -11.216788595116292 M7.199999999999999 -11.24630011580301 C7.012856190411515 -11.237095285122907, 6.825712380823032 -11.227890454442804, 6.6 -11.216788595116292 M6.6 -11.216788595116292 C6.445288784190697 -11.201689392319949, 6.290577568381395 -11.186590189523606, 6 -11.158230968053413 M6.6 -11.216788595116292 C6.412713325661249 -11.1985101564, 6.2254266513225 -11.180231717683707, 6 -11.158230968053413 M6 -11.158230968053413 C5.85890047211855 -11.13784673205184, 5.7178009442371 -11.117462496050267, 5.4 -11.071550723373786 M6 -11.158230968053413 C5.791931062355503 -11.128171857344654, 5.583862124711005 -11.098112746635897, 5.4 -11.071550723373786 M5.4 -11.071550723373786 C5.2747327462034015 -11.047867724961684, 5.149465492406803 -11.024184726549583, 4.799999999999999 -10.958114860316279 M5.4 -11.071550723373786 C5.198114111249196 -11.033382223324487, 4.996228222498392 -10.995213723275189, 4.799999999999999 -10.958114860316279 M4.799999999999999 -10.958114860316279 C4.640093094904758 -10.921228993237097, 4.480186189809518 -10.884343126157917, 4.200000000000001 -10.819712330204606 M4.799999999999999 -10.958114860316279 C4.6652201285646555 -10.92702506829165, 4.530440257129312 -10.89593527626702, 4.200000000000001 -10.819712330204606 M4.200000000000001 -10.819712330204606 C4.023388511111588 -10.772266682009132, 3.846777022223176 -10.724821033813658, 3.5999999999999996 -10.65852582361629 M4.200000000000001 -10.819712330204606 C4.014911960314077 -10.76998950599085, 3.8298239206281535 -10.720266681777094, 3.5999999999999996 -10.65852582361629 M3.5999999999999996 -10.65852582361629 C3.4156231694995727 -10.602773811470067, 3.231246338999146 -10.547021799323844, 3 -10.477097348048387 M3.5999999999999996 -10.65852582361629 C3.4075280251552034 -10.600325995306898, 3.2150560503104075 -10.542126166997507, 3 -10.477097348048387 M3 -10.477097348048387 C2.797823928173692 -10.410106573147914, 2.5956478563473837 -10.34311579824744, 2.4000000000000004 -10.278288138940717 M3 -10.477097348048387 C2.815516543075651 -10.415968997774089, 2.6310330861513016 -10.35484064749979, 2.4000000000000004 -10.278288138940717 M2.4000000000000004 -10.278288138940717 C2.243707804849194 -10.222790186380323, 2.0874156096983874 -10.167292233819927, 1.8000000000000007 -10.065233536283772 M2.4000000000000004 -10.278288138940717 C2.181262955962956 -10.200616582267939, 1.9625259119259122 -10.12294502559516, 1.8000000000000007 -10.065233536283772 M1.8000000000000007 -10.065233536283772 C1.6007667697336916 -9.99087305435474, 1.4015335394673825 -9.916512572425706, 1.1999999999999993 -9.841293538434103 M1.8000000000000007 -10.065233536283772 C1.6659125430520043 -10.015187628249436, 1.531825086104008 -9.9651417202151, 1.1999999999999993 -9.841293538434103 M1.1999999999999993 -9.841293538434103 C1.0619428993564106 -9.788073969867892, 0.9238857987128218 -9.734854401301682, 0.6000000000000014 -9.609999812933072 M1.1999999999999993 -9.841293538434103 C0.9692472446445883 -9.752340764341135, 0.7384944892891774 -9.663387990248166, 0.6000000000000014 -9.609999812933072 M0.6000000000000014 -9.609999812933072 C0.39956786497997715 -9.53149728920727, 0.19913572995995288 -9.452994765481465, 0 -9.375 M0.6000000000000014 -9.609999812933072 C0.4542455247781707 -9.552912688914258, 0.30849104955634 -9.495825564895444, 0 -9.375 M0 -9.375 C-0.2259812548986832 -9.286490745620716, -0.4519625097973664 -9.19798149124143, -0.6000000000000014 -9.14000018706693 M0 -9.375 C-0.15502890848724293 -9.314280392510467, -0.31005781697448587 -9.253560785020934, -0.6000000000000014 -9.14000018706693 M-0.6000000000000014 -9.14000018706693 C-0.7551507213303629 -9.080191206482477, -0.9103014426607243 -9.020382225898024, -1.2000000000000028 -8.908706461565897 M-0.6000000000000014 -9.14000018706693 C-0.7878583905514531 -9.067582742038141, -0.9757167811029049 -8.995165297009352, -1.2000000000000028 -8.908706461565897 M-1.2000000000000028 -8.908706461565897 C-1.3982836815106023 -8.834700382880717, -1.5965673630212018 -8.760694304195537, -1.8000000000000007 -8.68476646371623 M-1.2000000000000028 -8.908706461565897 C-1.4089659574259639 -8.830713401471524, -1.617931914851925 -8.752720341377152, -1.8000000000000007 -8.68476646371623 M-1.8000000000000007 -8.68476646371623 C-1.9527564893424605 -8.630524008482684, -2.1055129786849203 -8.576281553249137, -2.3999999999999986 -8.471711861059285 M-1.8000000000000007 -8.68476646371623 C-1.9222454566734948 -8.64135820171925, -2.044490913346989 -8.59794993972227, -2.3999999999999986 -8.471711861059285 M-2.3999999999999986 -8.471711861059285 C-2.5570004020569446 -8.419689984788405, -2.7140008041138906 -8.367668108517526, -3 -8.272902651951613 M-2.3999999999999986 -8.471711861059285 C-2.6255651693772077 -8.39697113951575, -2.8511303387544165 -8.322230417972216, -3 -8.272902651951613 M-3 -8.272902651951613 C-3.1323733754282057 -8.232875485768751, -3.264746750856412 -8.19284831958589, -3.6000000000000014 -8.09147417638371 M-3 -8.272902651951613 C-3.2292234454307223 -8.203589884836749, -3.4584468908614445 -8.134277117721885, -3.6000000000000014 -8.09147417638371 M-3.6000000000000014 -8.09147417638371 C-3.8393710280790954 -8.027168543392838, -4.078742056158189 -7.962862910401968, -4.199999999999999 -7.930287669795396 M-3.6000000000000014 -8.09147417638371 C-3.7987578203916894 -8.038079045173637, -3.9975156407833774 -7.984683913963563, -4.199999999999999 -7.930287669795396 M-4.199999999999999 -7.930287669795396 C-4.405200737430378 -7.882953834393486, -4.6104014748607565 -7.835619998991577, -4.800000000000001 -7.791885139683722 M-4.199999999999999 -7.930287669795396 C-4.384782322769855 -7.887663768143296, -4.569564645539711 -7.845039866491196, -4.800000000000001 -7.791885139683722 M-4.800000000000001 -7.791885139683722 C-4.956645786703288 -7.762269723002039, -5.113291573406577 -7.732654306320356, -5.400000000000002 -7.678449276626214 M-4.800000000000001 -7.791885139683722 C-5.028753398732593 -7.748637074329439, -5.257506797465184 -7.705389008975156, -5.400000000000002 -7.678449276626214 M-5.400000000000002 -7.678449276626214 C-5.583175077919578 -7.651986509004083, -5.766350155839155 -7.625523741381952, -6 -7.591769031946587 M-5.400000000000002 -7.678449276626214 C-5.603548466238905 -7.649043225196629, -5.8070969324778074 -7.619637173767044, -6 -7.591769031946587 M-6 -7.591769031946587 C-6.1239884265230655 -7.579668251879169, -6.247976853046131 -7.567567471811751, -6.599999999999998 -7.533211404883709 M-6 -7.591769031946587 C-6.141469065194593 -7.577962210678922, -6.2829381303891845 -7.564155389411257, -6.599999999999998 -7.533211404883709 M-6.599999999999998 -7.533211404883709 C-6.807586563543445 -7.52300107960988, -7.015173127086893 -7.512790754336051, -7.199999999999999 -7.50369988419699 M-6.599999999999998 -7.533211404883709 C-6.8281843483998035 -7.521987959686732, -7.056368696799609 -7.510764514489755, -7.199999999999999 -7.50369988419699 M-7.199999999999999 -7.50369988419699 C-7.429836649295947 -7.50369988419699, -7.659673298591894 -7.50369988419699, -7.800000000000001 -7.50369988419699 M-7.199999999999999 -7.50369988419699 C-7.362681253982245 -7.50369988419699, -7.525362507964491 -7.50369988419699, -7.800000000000001 -7.50369988419699 M-7.800000000000001 -7.50369988419699 C-7.99003604814702 -7.513046972140512, -8.180072096294039 -7.522394060084033, -8.400000000000002 -7.533211404883708 M-7.800000000000001 -7.50369988419699 C-7.972217234166122 -7.512170538311495, -8.144434468332243 -7.520641192426, -8.400000000000002 -7.533211404883708 M-8.400000000000002 -7.533211404883708 C-8.586908693424892 -7.551452954157683, -8.773817386849784 -7.569694503431657, -9 -7.591769031946587 M-8.400000000000002 -7.533211404883708 C-8.537174289562321 -7.546599073035051, -8.674348579124642 -7.559986741186394, -9 -7.591769031946587 M-9 -7.591769031946587 C-9.183694459663519 -7.618306833129796, -9.367388919327038 -7.644844634313005, -9.599999999999998 -7.678449276626212 M-9 -7.591769031946587 C-9.177686553958154 -7.617438888568874, -9.355373107916309 -7.643108745191161, -9.599999999999998 -7.678449276626212 M-9.599999999999998 -7.678449276626212 C-9.813049717825226 -7.718728407652318, -10.026099435650453 -7.759007538678423, -10.2 -7.791885139683721 M-9.599999999999998 -7.678449276626212 C-9.776332300053589 -7.711786621028703, -9.952664600107182 -7.745123965431195, -10.2 -7.791885139683721 M-10.2 -7.791885139683721 C-10.393115558398717 -7.836431276160906, -10.586231116797435 -7.880977412638091, -10.8 -7.930287669795394 M-10.2 -7.791885139683721 C-10.3454541959115 -7.825437187566239, -10.490908391823002 -7.858989235448757, -10.8 -7.930287669795394 M-10.8 -7.930287669795394 C-11.006757886570629 -7.985831972205231, -11.213515773141257 -8.041376274615068, -11.399999999999999 -8.091474176383707 M-10.8 -7.930287669795394 C-11.018346171838644 -7.988945097571398, -11.236692343677289 -8.047602525347402, -11.399999999999999 -8.091474176383707 M-11.399999999999999 -8.091474176383707 C-11.545065522823272 -8.135339204155853, -11.690131045646547 -8.179204231928, -12 -8.272902651951613 M-11.399999999999999 -8.091474176383707 C-11.527577882875047 -8.130051277727375, -11.655155765750097 -8.168628379071043, -12 -8.272902651951613 M-12 -8.272902651951613 C-12.205059180288359 -8.340848741040606, -12.410118360576716 -8.408794830129597, -12.600000000000001 -8.471711861059283 M-12 -8.272902651951613 C-12.124198287173812 -8.3140555906942, -12.248396574347625 -8.355208529436789, -12.600000000000001 -8.471711861059283 M-12.600000000000001 -8.471711861059283 C-12.757818354228757 -8.527751738979584, -12.915636708457512 -8.583791616899886, -13.2 -8.684766463716228 M-12.600000000000001 -8.471711861059283 C-12.726345276747011 -8.516575932284143, -12.852690553494021 -8.561440003509004, -13.2 -8.684766463716228 M-13.2 -8.684766463716228 C-13.37684510516203 -8.750770951165743, -13.55369021032406 -8.81677543861526, -13.799999999999997 -8.908706461565895 M-13.2 -8.684766463716228 C-13.435182117144205 -8.772544268395484, -13.67036423428841 -8.860322073074741, -13.799999999999997 -8.908706461565895 M-13.799999999999997 -8.908706461565895 C-14.014338252174367 -8.991331616337213, -14.228676504348737 -9.073956771108529, -14.399999999999999 -9.14000018706693 M-13.799999999999997 -8.908706461565895 C-14.010622073654643 -8.989899068379788, -14.221244147309289 -9.071091675193683, -14.399999999999999 -9.14000018706693 M-14.399999999999999 -9.14000018706693 C-14.597086875155005 -9.217192485055246, -14.794173750310014 -9.294384783043563, -15 -9.375 M-14.399999999999999 -9.14000018706693 C-14.595475871070859 -9.216561508957898, -14.790951742141718 -9.293122830848866, -15 -9.375 M-15 -9.375 C-15 -4.232559555007083, -15 0.9098808899858337, -15 9.375 M-15 -9.375 C-15 -3.415689265590019, -15 2.5436214688199623, -15 9.375" stroke="currentColor" stroke-width="2" fill="none" vector-effect="non-scaling-stroke"/></g></g></g></g></g><linearGradient id="s2m-shape-paperTape-gradient" gradientUnits="objectBoundingBox" x1="0%" y1="0%" x2="100%" y2="0%"><stop offset="0%" stop-color="hsl(40.5882352941, 60%, 83.3333333333%)" stop-opacity="1"/><stop offset="100%" stop-color="hsl(-79.4117647059, 60%, 83.3333333333%)" stop-opacity="1"/></linearGradient></svg>