<svg id="s2m-shape-storedData" width="100%" xmlns="http://www.w3.org/2000/svg" class="flowchart" style="max-width: 76px;" viewBox="-8 -8 76 46" role="graphics-document document" aria-roledescription="flowchart-v2"><g><marker id="s2m-shape-storedData_flowchart-v2-pointEnd" class="marker flowchart-v2" viewBox="0 0 10 10" refX="5" refY="5" markerUnits="userSpaceOnUse" markerWidth="8" markerHeight="8" orient="auto"><path d="M 0 0 L 10 5 L 0 10 z" class="arrowMarkerPath" style="stroke-width: 1; stroke-dasharray: 1,0;"/></marker><marker id="s2m-shape-storedData_flowchart-v2-pointStart" class="marker flowchart-v2" viewBox="0 0 10 10" refX="4.5" refY="5" markerUnits="userSpaceOnUse" markerWidth="8" markerHeight="8" orient="auto"><path d="M 0 5 L 10 10 L 10 0 z" class="arrowMarkerPath" style="stroke-width: 1; stroke-dasharray: 1,0;"/></marker><marker id="s2m-shape-storedData_flowchart-v2-pointEnd-margin" class="marker flowchart-v2" viewBox="0 0 11.5 14" refX="11.5" refY="7" markerUnits="userSpaceOnUse" markerWidth="10.5" markerHeight="14" orient="auto"><path d="M 0 0 L 11.5 7 L 0 14 z" class="arrowMarkerPath" style="stroke-width: 0; stroke-dasharray: 1,0;"/></marker><marker id="s2m-shape-storedData_flowchart-v2-pointStart-margin" class="marker flowchart-v2" viewBox="0 0 11.5 14" refX="1" refY="7" markerUnits="userSpaceOnUse" markerWidth="11.5" markerHeight="14" orient="auto"><polygon points="0,7 11.5,14 11.5,0" class="arrowMarkerPath" style="stroke-width: 0; stroke-dasharray: 1,0;"/></marker><marker id="s2m-shape-storedData_flowchart-v2-circleEnd" class="marker flowchart-v2" viewBox="0 0 10 10" refX="11" refY="5" markerUnits="userSpaceOnUse" markerWidth="11" markerHeight="11" orient="auto"><circle cx="5" cy="5" r="5" class="arrowMarkerPath" style="stroke-width: 1; stroke-dasharray: 1,0;"/></marker><marker id="s2m-shape-storedData_flowchart-v2-circleStart" class="marker flowchart-v2" viewBox="0 0 10 10" refX="-1" refY="5" markerUnits="userSpaceOnUse" markerWidth="11" markerHeight="11" orient="auto"><circle cx="5" cy="5" r="5" class="arrowMarkerPath" style="stroke-width: 1; stroke-dasharray: 1,0;"/></marker><marker id="s2m-shape-storedData_flowchart-v2-circleEnd-margin" class="marker flowchart-v2" viewBox="0 0 10 10" refY="5" refX="12.25" markerUnits="userSpaceOnUse" markerWidth="14" markerHeight="14" orient="auto"><circle cx="5" cy="5" r="5" class="arrowMarkerPath" style="stroke-width: 0; stroke-dasharray: 1,0;"/></marker><marker id="s2m-shape-storedData_flowchart-v2-circleStart-margin" class="marker flowchart-v2" viewBox="0 0 10 10" refX="-2" refY="5" markerUnits="userSpaceOnUse" markerWidth="14" markerHeight="14" orient="auto"><circle cx="5" cy="5" r="5" class="arrowMarkerPath" style="stroke-width: 0; stroke-dasharray: 1,0;"/></marker><marker id="s2m-shape-storedData_flowchart-v2-crossEnd" class="marker cross flowchart-v2" viewBox="0 0 11 11" refX="12" refY="5.2" markerUnits="userSpaceOnUse" markerWidth="11" markerHeight="11" orient="auto"><path d="M 1,1 l 9,9 M 10,1 l -9,9" class="arrowMarkerPath" style="stroke-width: 2; stroke-dasharray: 1,0;"/></marker><marker id="s2m-shape-storedData_flowchart-v2-crossStart" class="marker cross flowchart-v2" viewBox="0 0 11 11" refX="-1" refY="5.2" markerUnits="userSpaceOnUse" markerWidth="11" markerHeight="11" orient="auto"><path d="M 1,1 l 9,9 M 10,1 l -9,9" class="arrowMarkerPath" style="stroke-width: 2; stroke-dasharray: 1,0;"/></marker><marker id="s2m-shape-storedData_flowchart-v2-crossEnd-margin" class="marker cross flowchart-v2" viewBox="0 0 15 15" refX="17.7" refY="7.5" markerUnits="userSpaceOnUse" markerWidth="12" markerHeight="12" orient="auto"><path d="M 1,1 L 14,14 M 1,14 L 14,1" class="arrowMarkerPath" style="stroke-width: 2.5;"/></marker><marker id="s2m-shape-storedData_flowchart-v2-crossStart-margin" class="marker cross flowchart-v2" viewBox="0 0 15 15" refX="-3.5" refY="7.5" markerUnits="userSpaceOnUse" markerWidth="12" markerHeight="12" orient="auto"><path d="M 1,1 L 14,14 M 1,14 L 14,1" class="arrowMarkerPath" style="stroke-width: 2.5; stroke-dasharray: 1,0;"/></marker><g class="root"><g class="clusters"/><g class="edgePaths"/><g class="edgeLabels"/><g class="nodes"><g class="node default" data-look="classic" transform="translate(38, 23)"><g class="basic label-container outer-path" transform="translate(1.3392857142857144, 0)"><path d="M15 -7.5 C6.430386281617345 -7.5, -2.13922743676531 -7.5, -15 -7.5 M15 -7.5 C3.8339318826917754 -7.5, -7.332136234616449 -7.5, -15 -7.5 M-15 -7.5 C-15 -7.5, -15 -7.5, -15 -7.5 M-15 -7.5 C-15 -7.5, -15 -7.5, -15 -7.5 M-15 -7.5 C-15.121555618550474 -7.471797319977682, -15.24311123710095 -7.443594639955363, -15.440878366823394 -7.397709775520418 M-15 -7.5 C-15.12124430919751 -7.471869548297313, -15.24248861839502 -7.4437390965946255, -15.440878366823394 -7.397709775520418 M-15.440878366823394 -7.397709775520418 C-15.546866188310087 -7.322558443167898, -15.65285400979678 -7.247407110815378, -15.869730721083974 -7.09362931275476 M-15.440878366823394 -7.397709775520418 C-15.610292434472345 -7.277585663858428, -15.779706502121295 -7.157461552196437, -15.869730721083974 -7.09362931275476 M-15.869730721083974 -7.09362931275476 C-15.952906658240444 -6.9914731363423686, -16.036082595396916 -6.889316959929977, -16.27485908849216 -6.596053134048668 M-15.869730721083974 -7.09362931275476 C-15.953020565038106 -6.991333236711366, -16.03631040899224 -6.889037160667972, -16.27485908849216 -6.596053134048668 M-16.27485908849216 -6.596053134048668 C-16.407744633675676 -6.352961446808424, -16.540630178859193 -6.10986975956818, -16.645212623275896 -5.918553820472952 M-16.27485908849216 -6.596053134048668 C-16.402474041940692 -6.362603105243451, -16.53008899538922 -6.129153076438236, -16.645212623275896 -5.918553820472952 M-16.645212623275896 -5.918553820472952 C-16.752228714521806 -5.642711114850554, -16.859244805767716 -5.366868409228157, -16.970689046445887 -5.079611787193057 M-16.645212623275896 -5.918553820472952 C-16.737719574028127 -5.680109608137287, -16.830226524780354 -5.441665395801622, -16.970689046445887 -5.079611787193057 M-16.970689046445887 -5.079611787193057 C-17.042852930575652 -4.820006538562071, -17.115016814705413 -4.560401289931084, -17.242410209631775 -4.102111185918201 M-16.970689046445887 -5.079611787193057 C-17.051842043665896 -4.787668742905605, -17.132995040885906 -4.495725698618153, -17.242410209631775 -4.102111185918201 M-17.242410209631775 -4.102111185918201 C-17.324597183313884 -3.6768801543262857, -17.406784156995993 -3.2516491227343702, -17.452964267826047 -3.0127156848972736 M-17.242410209631775 -4.102111185918201 C-17.305340584079065 -3.776512774809986, -17.36827095852636 -3.4509143637017705, -17.452964267826047 -3.0127156848972736 M-17.452964267826047 -3.0127156848972736 C-17.4827486087607 -2.7697909855698417, -17.51253294969536 -2.52686628624241, -17.596607855194634 -1.841141153555993 M-17.452964267826047 -3.0127156848972736 C-17.494226910850866 -2.676172560701562, -17.535489553875685 -2.33962943650585, -17.596607855194634 -1.841141153555993 M-17.596607855194634 -1.841141153555993 C-17.621861477751978 -1.4173984968096152, -17.647115100309318 -0.9936558400632374, -17.669422749125008 -0.619345091042495 M-17.596607855194634 -1.841141153555993 C-17.625340174303723 -1.3590277773017694, -17.654072493412812 -0.8769144010475459, -17.669422749125008 -0.619345091042495 M-17.669422749125008 -0.619345091042495 C-17.669422749125008 -0.3266084622499865, -17.669422749125008 -0.03387183345747802, -17.669422749125008 0.6193450910424932 M-17.669422749125008 -0.619345091042495 C-17.669422749125008 -0.14070846295382916, -17.669422749125008 0.3379281651348367, -17.669422749125008 0.6193450910424932 M-17.669422749125008 0.6193450910424932 C-17.652731128385486 0.8994218088087306, -17.636039507645965 1.1794985265749678, -17.596607855194634 1.8411411535559914 M-17.669422749125008 0.6193450910424932 C-17.649780009136332 0.9489400554750385, -17.630137269147657 1.2785350199075838, -17.596607855194634 1.8411411535559914 M-17.596607855194634 1.8411411535559914 C-17.565297962242933 2.096508440277314, -17.533988069291233 2.351875726998637, -17.452964267826047 3.012715684897269 M-17.596607855194634 1.8411411535559914 C-17.557120463390564 2.1632051133485946, -17.517633071586495 2.4852690731411973, -17.452964267826047 3.012715684897269 M-17.452964267826047 3.012715684897269 C-17.39877109792059 3.2931082643012553, -17.34457792801513 3.5735008437052413, -17.242410209631775 4.1021111859182 M-17.452964267826047 3.012715684897269 C-17.39591975747969 3.307860948124288, -17.33887524713333 3.603006211351307, -17.242410209631775 4.1021111859182 M-17.242410209631775 4.1021111859182 C-17.169755296794023 4.363482880900563, -17.097100383956274 4.624854575882926, -16.97068904644589 5.079611787193056 M-17.242410209631775 4.1021111859182 C-17.13851589232036 4.475864766427773, -17.03462157500894 4.849618346937347, -16.97068904644589 5.079611787193056 M-16.97068904644589 5.079611787193056 C-16.874147825487334 5.328454660103676, -16.77760660452878 5.577297533014296, -16.645212623275896 5.918553820472951 M-16.97068904644589 5.079611787193056 C-16.84052696123077 5.415115180534982, -16.710364876015646 5.750618573876908, -16.645212623275896 5.918553820472951 M-16.645212623275896 5.918553820472951 C-16.543129422905483 6.1052978142057315, -16.44104622253507 6.292041807938511, -16.27485908849216 6.5960531340486686 M-16.645212623275896 5.918553820472951 C-16.528078967710016 6.132830082987465, -16.410945312144136 6.347106345501979, -16.27485908849216 6.5960531340486686 M-16.27485908849216 6.5960531340486686 C-16.19144420109536 6.698502787682228, -16.108029313698562 6.800952441315789, -15.869730721083974 7.09362931275476 M-16.27485908849216 6.5960531340486686 C-16.115370730576377 6.7919357580859225, -15.955882372660595 6.9878183821231765, -15.869730721083974 7.09362931275476 M-15.869730721083974 7.09362931275476 C-15.72383832491332 7.197075235112009, -15.577945928742665 7.300521157469258, -15.440878366823396 7.3977097755204175 M-15.869730721083974 7.09362931275476 C-15.702152451672069 7.212451740114638, -15.534574182260164 7.331274167474516, -15.440878366823396 7.3977097755204175 M-15.440878366823396 7.3977097755204175 C-15.32410064396427 7.424803913914056, -15.207322921105144 7.451898052307695, -15 7.5 M-15.440878366823396 7.3977097755204175 C-15.345936028380903 7.419737785608264, -15.250993689938412 7.44176579569611, -15 7.5 M-15 7.5 C-4.39328165798168 7.5, 6.21343668403664 7.5, 15 7.5 M-15 7.5 C-6.610583739350087 7.5, 1.778832521299826 7.5, 15 7.5 M15 7.5 C15 7.5, 15 7.5, 15 7.5 M15 7.5 C15 7.5, 15 7.5, 15 7.5 M15 7.5 C14.885845590390122 7.473514508619549, 14.771691180780245 7.447029017239097, 14.559121633176606 7.397709775520418 M15 7.5 C14.8553132963914 7.466430570186577, 14.710626592782797 7.432861140373154, 14.559121633176606 7.397709775520418 M14.559121633176606 7.397709775520418 C14.44400496171749 7.316085574600068, 14.328888290258371 7.234461373679719, 14.130269278916026 7.09362931275476 M14.559121633176606 7.397709775520418 C14.444255613316809 7.316263300695208, 14.32938959345701 7.234816825869998, 14.130269278916026 7.09362931275476 M14.130269278916026 7.09362931275476 C13.983397689326075 6.913242526274745, 13.836526099736124 6.732855739794731, 13.72514091150784 6.596053134048668 M14.130269278916026 7.09362931275476 C14.026230312712473 6.965849291890563, 13.92219134650892 6.838069271026366, 13.72514091150784 6.596053134048668 M13.72514091150784 6.596053134048668 C13.627484103575023 6.417406478552012, 13.529827295642207 6.238759823055357, 13.354787376724104 5.918553820472952 M13.72514091150784 6.596053134048668 C13.64660611997135 6.4523869816819746, 13.56807132843486 6.3087208293152806, 13.354787376724104 5.918553820472952 M13.354787376724104 5.918553820472952 C13.285888043549257 5.740960168366404, 13.216988710374409 5.5633665162598565, 13.029310953554111 5.079611787193057 M13.354787376724104 5.918553820472952 C13.232558797288261 5.603499685497213, 13.110330217852416 5.288445550521473, 13.029310953554111 5.079611787193057 M13.029310953554111 5.079611787193057 C12.945255875242191 4.7772286800888875, 12.861200796930271 4.474845572984717, 12.757589790368227 4.102111185918201 M13.029310953554111 5.079611787193057 C12.946219643264788 4.780695777794977, 12.863128332975464 4.481779768396895, 12.757589790368227 4.102111185918201 M12.757589790368227 4.102111185918201 C12.691056933739318 3.7578737235619695, 12.62452407711041 3.4136362612057383, 12.547035732173953 3.0127156848972736 M12.757589790368227 4.102111185918201 C12.702492219725091 3.8170392851883967, 12.647394649081955 3.531967384458593, 12.547035732173953 3.0127156848972736 M12.547035732173953 3.0127156848972736 C12.49213826929174 2.5649653152060905, 12.437240806409529 2.117214945514907, 12.403392144805364 1.841141153555993 M12.547035732173953 3.0127156848972736 C12.514150888904018 2.7445029122425137, 12.481266045634083 2.476290139587754, 12.403392144805364 1.841141153555993 M12.403392144805364 1.841141153555993 C12.381092284690768 1.4669610948901268, 12.35879242457617 1.0927810362242605, 12.330577250874992 0.619345091042495 M12.403392144805364 1.841141153555993 C12.388270331371318 1.587404986207487, 12.373148517937272 1.3336688188589814, 12.330577250874992 0.619345091042495 M12.330577250874992 0.619345091042495 C12.330577250874992 0.2682588704756798, 12.330577250874992 -0.0828273500911354, 12.330577250874992 -0.6193450910424932 M12.330577250874992 0.619345091042495 C12.330577250874992 0.3120239686851391, 12.330577250874992 0.004702846327783172, 12.330577250874992 -0.6193450910424932 M12.330577250874992 -0.6193450910424932 C12.345855659870587 -0.8757088504972302, 12.36113406886618 -1.1320726099519671, 12.403392144805364 -1.8411411535559914 M12.330577250874992 -0.6193450910424932 C12.354433674701415 -1.0196434795102371, 12.37829009852784 -1.419941867977981, 12.403392144805364 -1.8411411535559914 M12.403392144805364 -1.8411411535559914 C12.435993340183023 -2.107040459577488, 12.468594535560682 -2.3729397655989852, 12.547035732173953 -3.012715684897269 M12.403392144805364 -1.8411411535559914 C12.451093179413268 -2.230196580874501, 12.498794214021173 -2.6192520081930097, 12.547035732173953 -3.012715684897269 M12.547035732173953 -3.012715684897269 C12.613761267724238 -3.3579500577471277, 12.680486803274523 -3.7031844305969863, 12.757589790368225 -4.1021111859182 M12.547035732173953 -3.012715684897269 C12.592617073888615 -3.248551123170488, 12.638198415603277 -3.4843865614437073, 12.757589790368225 -4.1021111859182 M12.757589790368225 -4.1021111859182 C12.849301011482074 -4.432036807946802, 12.941012232595924 -4.761962429975405, 13.029310953554111 -5.079611787193056 M12.757589790368225 -4.1021111859182 C12.832918654266594 -4.3731022596007225, 12.908247518164963 -4.644093333283246, 13.029310953554111 -5.079611787193056 M13.029310953554111 -5.079611787193056 C13.119123351282754 -5.311110569287196, 13.208935749011395 -5.542609351381337, 13.354787376724103 -5.918553820472951 M13.029310953554111 -5.079611787193056 C13.10135392975168 -5.265308435650927, 13.173396905949247 -5.451005084108797, 13.354787376724103 -5.918553820472951 M13.354787376724103 -5.918553820472951 C13.463162952661094 -6.116808653786636, 13.571538528598083 -6.315063487100322, 13.72514091150784 -6.5960531340486686 M13.354787376724103 -5.918553820472951 C13.446720296189866 -6.086729587634016, 13.538653215655632 -6.25490535479508, 13.72514091150784 -6.5960531340486686 M13.72514091150784 -6.5960531340486686 C13.866543936852851 -6.769723463427903, 14.007946962197863 -6.9433937928071385, 14.130269278916026 -7.09362931275476 M13.72514091150784 -6.5960531340486686 C13.882799019386848 -6.789687856204352, 14.040457127265856 -6.983322578360034, 14.130269278916026 -7.09362931275476 M14.130269278916026 -7.09362931275476 C14.299512065299497 -7.213631976356707, 14.468754851682968 -7.333634639958654, 14.559121633176604 -7.3977097755204175 M14.130269278916026 -7.09362931275476 C14.264150772579763 -7.188558829042993, 14.398032266243499 -7.283488345331225, 14.559121633176604 -7.3977097755204175 M14.559121633176604 -7.3977097755204175 C14.706165127484635 -7.431826015220279, 14.853208621792666 -7.465942254920142, 15 -7.5 M14.559121633176604 -7.3977097755204175 C14.727411849300843 -7.43675556519955, 14.895702065425084 -7.4758013548786835, 15 -7.5 M15 -7.5 C15 -7.5, 15 -7.5, 15 -7.5 M15 -7.5 C15 -7.5, 15 -7.5, 15 -7.5" stroke="currentColor" stroke-width="2" fill="none" vector-effect="non-scaling-stroke"/></g></g></g></g></g><linearGradient id="s2m-shape-storedData-gradient" gradientUnits="objectBoundingBox" x1="0%" y1="0%" x2="100%" y2="0%"><stop offset="0%" stop-color="hsl(40.5882352941, 60%, 83.3333333333%)" stop-opacity="1"/><stop offset="100%" stop-color="hsl(-79.4117647059, 60%, 83.3333333333%)" stop-opacity="1"/></linearGradient></svg>