<svg id="s2m-shape-summary" width="100%" xmlns="http://www.w3.org/2000/svg" class="flowchart" style="max-width: 76px;" viewBox="-21.30 -16.05 102.60 62.10" role="graphics-document document" aria-roledescription="flowchart-v2"><g><marker id="s2m-shape-summary_flowchart-v2-pointEnd" class="marker flowchart-v2" viewBox="0 0 10 10" refX="5" refY="5" markerUnits="userSpaceOnUse" markerWidth="8" markerHeight="8" orient="auto"><path d="M 0 0 L 10 5 L 0 10 z" class="arrowMarkerPath" style="stroke-width: 1; stroke-dasharray: 1,0;"/></marker><marker id="s2m-shape-summary_flowchart-v2-pointStart" class="marker flowchart-v2" viewBox="0 0 10 10" refX="4.5" refY="5" markerUnits="userSpaceOnUse" markerWidth="8" markerHeight="8" orient="auto"><path d="M 0 5 L 10 10 L 10 0 z" class="arrowMarkerPath" style="stroke-width: 1; stroke-dasharray: 1,0;"/></marker><marker id="s2m-shape-summary_flowchart-v2-pointEnd-margin" class="marker flowchart-v2" viewBox="0 0 11.5 14" refX="11.5" refY="7" markerUnits="userSpaceOnUse" markerWidth="10.5" markerHeight="14" orient="auto"><path d="M 0 0 L 11.5 7 L 0 14 z" class="arrowMarkerPath" style="stroke-width: 0; stroke-dasharray: 1,0;"/></marker><marker id="s2m-shape-summary_flowchart-v2-pointStart-margin" class="marker flowchart-v2" viewBox="0 0 11.5 14" refX="1" refY="7" markerUnits="userSpaceOnUse" markerWidth="11.5" markerHeight="14" orient="auto"><polygon points="0,7 11.5,14 11.5,0" class="arrowMarkerPath" style="stroke-width: 0; stroke-dasharray: 1,0;"/></marker><marker id="s2m-shape-summary_flowchart-v2-circleEnd" class="marker flowchart-v2" viewBox="0 0 10 10" refX="11" refY="5" markerUnits="userSpaceOnUse" markerWidth="11" markerHeight="11" orient="auto"><circle cx="5" cy="5" r="5" class="arrowMarkerPath" style="stroke-width: 1; stroke-dasharray: 1,0;"/></marker><marker id="s2m-shape-summary_flowchart-v2-circleStart" class="marker flowchart-v2" viewBox="0 0 10 10" refX="-1" refY="5" markerUnits="userSpaceOnUse" markerWidth="11" markerHeight="11" orient="auto"><circle cx="5" cy="5" r="5" class="arrowMarkerPath" style="stroke-width: 1; stroke-dasharray: 1,0;"/></marker><marker id="s2m-shape-summary_flowchart-v2-circleEnd-margin" class="marker flowchart-v2" viewBox="0 0 10 10" refY="5" refX="12.25" markerUnits="userSpaceOnUse" markerWidth="14" markerHeight="14" orient="auto"><circle cx="5" cy="5" r="5" class="arrowMarkerPath" style="stroke-width: 0; stroke-dasharray: 1,0;"/></marker><marker id="s2m-shape-summary_flowchart-v2-circleStart-margin" class="marker flowchart-v2" viewBox="0 0 10 10" refX="-2" refY="5" markerUnits="userSpaceOnUse" markerWidth="14" markerHeight="14" orient="auto"><circle cx="5" cy="5" r="5" class="arrowMarkerPath" style="stroke-width: 0; stroke-dasharray: 1,0;"/></marker><marker id="s2m-shape-summary_flowchart-v2-crossEnd" class="marker cross flowchart-v2" viewBox="0 0 11 11" refX="12" refY="5.2" markerUnits="userSpaceOnUse" markerWidth="11" markerHeight="11" orient="auto"><path d="M 1,1 l 9,9 M 10,1 l -9,9" class="arrowMarkerPath" style="stroke-width: 2; stroke-dasharray: 1,0;"/></marker><marker id="s2m-shape-summary_flowchart-v2-crossStart" class="marker cross flowchart-v2" viewBox="0 0 11 11" refX="-1" refY="5.2" markerUnits="userSpaceOnUse" markerWidth="11" markerHeight="11" orient="auto"><path d="M 1,1 l 9,9 M 10,1 l -9,9" class="arrowMarkerPath" style="stroke-width: 2; stroke-dasharray: 1,0;"/></marker><marker id="s2m-shape-summary_flowchart-v2-crossEnd-margin" class="marker cross flowchart-v2" viewBox="0 0 15 15" refX="17.7" refY="7.5" markerUnits="userSpaceOnUse" markerWidth="12" markerHeight="12" orient="auto"><path d="M 1,1 L 14,14 M 1,14 L 14,1" class="arrowMarkerPath" style="stroke-width: 2.5;"/></marker><marker id="s2m-shape-summary_flowchart-v2-crossStart-margin" class="marker cross flowchart-v2" viewBox="0 0 15 15" refX="-3.5" refY="7.5" markerUnits="userSpaceOnUse" markerWidth="12" markerHeight="12" orient="auto"><path d="M 1,1 L 14,14 M 1,14 L 14,1" class="arrowMarkerPath" style="stroke-width: 2.5; stroke-dasharray: 1,0;"/></marker><g class="root"><g class="clusters"/><g class="edgePaths"/><g class="edgeLabels"/><g class="nodes"><g class="node default" data-look="classic" transform="translate(38, 23)"><g class="outer-path"><path d="M30 0 C30 1.7364817766693033, 29.8457694864367 3.4993446133795656, 29.544232590366242 5.2094453300079095 C29.242695694295783 6.9195460466362535, 28.7846903697161 8.628845188104714, 28.190778623577252 10.260604299770062 C27.596866877438405 11.89236341143541, 26.849003001867814 13.496162668195646, 25.98076211353316 14.999999999999998 C25.112521225198506 16.503837331804352, 24.097522264058835 17.953406075001286, 22.98133329356934 19.283628290596177 C21.865144323079843 20.613850506191067, 20.61385050619107 21.865144323079843, 19.28362829059618 22.98133329356934 C17.95340607500129 24.097522264058835, 16.503837331804355 25.112521225198506, 15.000000000000004 25.980762113533157 C13.496162668195652 26.849003001867807, 11.892363411435413 27.5968668774384, 10.260604299770065 28.19077862357725 C8.628845188104718 28.784690369716095, 6.919546046636256 29.242695694295783, 5.209445330007912 29.544232590366242 C3.4993446133795683 29.8457694864367, 1.7364817766693055 30, 1.83697019872103e-15 30 C-1.736481776669302 30, -3.4993446133795656 29.8457694864367, -5.2094453300079095 29.544232590366242 C-6.9195460466362535 29.242695694295783, -8.628845188104714 28.7846903697161, -10.260604299770062 28.190778623577252 C-11.89236341143541 27.596866877438405, -13.496162668195641 26.84900300186781, -14.999999999999993 25.98076211353316 C-16.503837331804345 25.11252122519851, -17.95340607500128 24.097522264058846, -19.28362829059617 22.98133329356935 C-20.61385050619106 21.865144323079853, -21.865144323079832 20.61385050619108, -22.981333293569328 19.283628290596194 C-24.097522264058824 17.953406075001308, -25.1125212251985 16.503837331804373, -25.98076211353315 15.000000000000023 C-26.8490030018678 13.496162668195673, -27.59686687743839 11.892363411435438, -28.190778623577238 10.260604299770092 C-28.784690369716085 8.628845188104746, -29.242695694295776 6.919546046636289, -29.544232590366235 5.209445330007948 C-29.845769486436694 3.4993446133796065, -29.999999999999996 1.7364817766693452, -30 4.3641969283947696e-14 C-30.000000000000004 -1.7364817766692577, -29.845769486436705 -3.4993446133795194, -29.54423259036625 -5.209445330007862 C-29.242695694295794 -6.919546046636204, -28.784690369716113 -8.628845188104663, -28.19077862357727 -10.26060429977001 C-27.596866877438426 -11.892363411435358, -26.84900300186784 -13.496162668195595, -25.980762113533192 -14.999999999999947 C-25.112521225198545 -16.5038373318043, -24.09752226405888 -17.953406075001233, -22.981333293569385 -19.283628290596127 C-21.86514432307989 -20.61385050619102, -20.613850506191113 -21.865144323079804, -19.283628290596226 -22.981333293569303 C-17.95340607500134 -24.097522264058803, -16.503837331804405 -25.11252122519847, -15.000000000000057 -25.980762113533125 C-13.496162668195709 -26.84900300186778, -11.892363411435475 -27.596866877438377, -10.260604299770131 -28.190778623577227 C-8.628845188104787 -28.784690369716078, -6.91954604663633 -29.242695694295765, -5.209445330007989 -29.544232590366228 C-3.4993446133796473 -29.84576948643669, -1.736481776669387 -29.999999999999996, -8.544696836917437e-14 -30 C1.736481776669216 -30.000000000000004, 3.4993446133794777 -29.84576948643671, 5.20944533000782 -29.544232590366256 C6.919546046636162 -29.242695694295804, 8.628845188104622 -28.784690369716127, 10.26060429976997 -28.190778623577287 C11.892363411435317 -27.596866877438448, 13.496162668195556 -26.849003001867857, 14.99999999999991 -25.98076211353321 C16.503837331804263 -25.112521225198563, 17.9534060750012 -24.0975222640589, 19.283628290596095 -22.98133329356941 C20.61385050619099 -21.86514432307992, 21.865144323079768 -20.613850506191152, 22.981333293569268 -19.28362829059627 C24.097522264058767 -17.953406075001386, 25.11252122519844 -16.503837331804455, 25.980762113533096 -15.000000000000107 C26.849003001867754 -13.496162668195758, 27.59686687743835 -11.892363411435527, 28.190778623577206 -10.260604299770183 C28.78469036971606 -8.628845188104838, 29.24269569429575 -6.919546046636383, 29.544232590366217 -5.209445330008043 C29.845769486436684 -3.4993446133797024, 29.924038765061034 -0.8682408883348144, 30 -1.405746437499029e-13 C30.075961234938966 0.8682408883345333, 30.07596123493896 -0.8682408883346749, 30 0" stroke="currentColor" stroke-width="2" fill="none" vector-effect="non-scaling-stroke"/><g><path d="M-21.213203435596427 21.213203435596423 C-8.628919301201579 8.628919301201579, 3.9553648331932685 -3.955364833193265, 21.213203435596427 -21.213203435596423 M-21.213203435596427 21.213203435596423 C-8.587310038275794 8.587310038275792, 4.038583359044839 -4.038583359044839, 21.213203435596427 -21.213203435596423 M21.213203435596427 21.213203435596423 C10.879986414886181 10.87998641488618, 0.5467693941759357 0.5467693941759357, -21.213203435596427 -21.213203435596423 M21.213203435596427 21.213203435596423 C7.866151104665402 7.8661511046654, -5.4809012262656225 -5.4809012262656225, -21.213203435596427 -21.213203435596423" stroke="currentColor" stroke-width="2" fill="none" vector-effect="non-scaling-stroke"/></g></g></g></g></g></g><linearGradient id="s2m-shape-summary-gradient" gradientUnits="objectBoundingBox" x1="0%" y1="0%" x2="100%" y2="0%"><stop offset="0%" stop-color="hsl(40.5882352941, 60%, 83.3333333333%)" stop-opacity="1"/><stop offset="100%" stop-color="hsl(-79.4117647059, 60%, 83.3333333333%)" stop-opacity="1"/></linearGradient></svg>