<svg id="s2m-shape-taggedDocument" width="100%" xmlns="http://www.w3.org/2000/svg" class="flowchart" style="max-width: 76px;" viewBox="-8 -8 76 46" role="graphics-document document" aria-roledescription="flowchart-v2"><g><marker id="s2m-shape-taggedDocument_flowchart-v2-pointEnd" class="marker flowchart-v2" viewBox="0 0 10 10" refX="5" refY="5" markerUnits="userSpaceOnUse" markerWidth="8" markerHeight="8" orient="auto"><path d="M 0 0 L 10 5 L 0 10 z" class="arrowMarkerPath" style="stroke-width: 1; stroke-dasharray: 1,0;"/></marker><marker id="s2m-shape-taggedDocument_flowchart-v2-pointStart" class="marker flowchart-v2" viewBox="0 0 10 10" refX="4.5" refY="5" markerUnits="userSpaceOnUse" markerWidth="8" markerHeight="8" orient="auto"><path d="M 0 5 L 10 10 L 10 0 z" class="arrowMarkerPath" style="stroke-width: 1; stroke-dasharray: 1,0;"/></marker><marker id="s2m-shape-taggedDocument_flowchart-v2-pointEnd-margin" class="marker flowchart-v2" viewBox="0 0 11.5 14" refX="11.5" refY="7" markerUnits="userSpaceOnUse" markerWidth="10.5" markerHeight="14" orient="auto"><path d="M 0 0 L 11.5 7 L 0 14 z" class="arrowMarkerPath" style="stroke-width: 0; stroke-dasharray: 1,0;"/></marker><marker id="s2m-shape-taggedDocument_flowchart-v2-pointStart-margin" class="marker flowchart-v2" viewBox="0 0 11.5 14" refX="1" refY="7" markerUnits="userSpaceOnUse" markerWidth="11.5" markerHeight="14" orient="auto"><polygon points="0,7 11.5,14 11.5,0" class="arrowMarkerPath" style="stroke-width: 0; stroke-dasharray: 1,0;"/></marker><marker id="s2m-shape-taggedDocument_flowchart-v2-circleEnd" class="marker flowchart-v2" viewBox="0 0 10 10" refX="11" refY="5" markerUnits="userSpaceOnUse" markerWidth="11" markerHeight="11" orient="auto"><circle cx="5" cy="5" r="5" class="arrowMarkerPath" style="stroke-width: 1; stroke-dasharray: 1,0;"/></marker><marker id="s2m-shape-taggedDocument_flowchart-v2-circleStart" class="marker flowchart-v2" viewBox="0 0 10 10" refX="-1" refY="5" markerUnits="userSpaceOnUse" markerWidth="11" markerHeight="11" orient="auto"><circle cx="5" cy="5" r="5" class="arrowMarkerPath" style="stroke-width: 1; stroke-dasharray: 1,0;"/></marker><marker id="s2m-shape-taggedDocument_flowchart-v2-circleEnd-margin" class="marker flowchart-v2" viewBox="0 0 10 10" refY="5" refX="12.25" markerUnits="userSpaceOnUse" markerWidth="14" markerHeight="14" orient="auto"><circle cx="5" cy="5" r="5" class="arrowMarkerPath" style="stroke-width: 0; stroke-dasharray: 1,0;"/></marker><marker id="s2m-shape-taggedDocument_flowchart-v2-circleStart-margin" class="marker flowchart-v2" viewBox="0 0 10 10" refX="-2" refY="5" markerUnits="userSpaceOnUse" markerWidth="14" markerHeight="14" orient="auto"><circle cx="5" cy="5" r="5" class="arrowMarkerPath" style="stroke-width: 0; stroke-dasharray: 1,0;"/></marker><marker id="s2m-shape-taggedDocument_flowchart-v2-crossEnd" class="marker cross flowchart-v2" viewBox="0 0 11 11" refX="12" refY="5.2" markerUnits="userSpaceOnUse" markerWidth="11" markerHeight="11" orient="auto"><path d="M 1,1 l 9,9 M 10,1 l -9,9" class="arrowMarkerPath" style="stroke-width: 2; stroke-dasharray: 1,0;"/></marker><marker id="s2m-shape-taggedDocument_flowchart-v2-crossStart" class="marker cross flowchart-v2" viewBox="0 0 11 11" refX="-1" refY="5.2" markerUnits="userSpaceOnUse" markerWidth="11" markerHeight="11" orient="auto"><path d="M 1,1 l 9,9 M 10,1 l -9,9" class="arrowMarkerPath" style="stroke-width: 2; stroke-dasharray: 1,0;"/></marker><marker id="s2m-shape-taggedDocument_flowchart-v2-crossEnd-margin" class="marker cross flowchart-v2" viewBox="0 0 15 15" refX="17.7" refY="7.5" markerUnits="userSpaceOnUse" markerWidth="12" markerHeight="12" orient="auto"><path d="M 1,1 L 14,14 M 1,14 L 14,1" class="arrowMarkerPath" style="stroke-width: 2.5;"/></marker><marker id="s2m-shape-taggedDocument_flowchart-v2-crossStart-margin" class="marker cross flowchart-v2" viewBox="0 0 15 15" refX="-3.5" refY="7.5" markerUnits="userSpaceOnUse" markerWidth="12" markerHeight="12" orient="auto"><path d="M 1,1 L 14,14 M 1,14 L 14,1" class="arrowMarkerPath" style="stroke-width: 2.5; stroke-dasharray: 1,0;"/></marker><g class="root"><g class="clusters"/><g class="edgePaths"/><g class="edgeLabels"/><g class="nodes"><g class="node default" data-look="classic" transform="translate(38, 23)"><g class="basic label-container outer-path" transform="translate(0,-1.875)"><g><path d="M-16.5 16.875 C-16.5 16.875, -16.5 16.875, -16.5 16.875 M-16.5 16.875 C-16.5 16.875, -16.5 16.875, -16.5 16.875 M-16.5 16.875 C-16.35630870456455 16.956938095563036, -16.212617409129106 17.038876191126068, -15.84 17.251356430692056 M-16.5 16.875 C-16.292448393978802 16.993353608525066, -16.0848967879576 17.111707217050128, -15.84 17.251356430692056 M-15.84 17.251356430692056 C-15.651247780897004 17.357903053464565, -15.462495561794007 17.464449676237074, -15.18 17.623912426929028 M-15.84 17.251356430692056 C-15.669764768931515 17.347450606609254, -15.499529537863028 17.443544782526452, -15.18 17.623912426929028 M-15.18 17.623912426929028 C-14.926139916210085 17.764302247390194, -14.67227983242017 17.904692067851357, -14.52 17.98890593091388 M-15.18 17.623912426929028 C-14.94068675059605 17.75625755033804, -14.701373501192101 17.88860267374705, -14.52 17.98890593091388 M-14.52 17.98890593091388 C-14.262382729774016 18.126983057615295, -14.004765459548032 18.265060184316713, -13.86 18.34265125063951 M-14.52 17.98890593091388 C-14.368321999122495 18.070201965634723, -14.216643998244992 18.151498000355566, -13.86 18.34265125063951 M-13.86 18.34265125063951 C-13.715669648722638 18.41676817221302, -13.57133929744528 18.490885093786527, -13.2 18.681576277881433 M-13.86 18.34265125063951 C-13.727544915822458 18.41066995217467, -13.595089831644916 18.478688653709828, -13.2 18.681576277881433 M-13.2 18.681576277881433 C-12.962598032940038 18.796925678475855, -12.725196065880077 18.91227507907028, -12.54 19.00225855922534 M-13.2 18.681576277881433 C-13.00542912896231 18.776114809407854, -12.810858257924622 18.870653340934272, -12.54 19.00225855922534 M-12.54 19.00225855922534 C-12.347027112005051 19.089739980904625, -12.154054224010105 19.177221402583907, -11.879999999999999 19.301459855885415 M-12.54 19.00225855922534 C-12.34924716548534 19.088733552298628, -12.15849433097068 19.17520854537192, -11.879999999999999 19.301459855885415 M-11.879999999999999 19.301459855885415 C-11.73947163134837 19.359949250697223, -11.598943262696737 19.41843864550903, -11.219999999999999 19.57615884332965 M-11.879999999999999 19.301459855885415 C-11.622913802316257 19.408461853142406, -11.365827604632514 19.515463850399392, -11.219999999999999 19.57615884332965 M-11.219999999999999 19.57615884332965 C-11.052365005746866 19.639002352164667, -10.884730011493732 19.701845860999686, -10.56 19.82358162051232 M-11.219999999999999 19.57615884332965 C-11.029543564440415 19.647557722448536, -10.83908712888083 19.718956601567424, -10.56 19.82358162051232 M-10.56 19.82358162051232 C-10.30462979873674 19.907795013136976, -10.049259597473478 19.992008405761627, -9.899999999999999 20.041229720632558 M-10.56 19.82358162051232 C-10.321115166117485 19.902358636030606, -10.082230332234971 19.98113565154889, -9.899999999999999 20.041229720632558 M-9.899999999999999 20.041229720632558 C-9.651963692813386 20.11100895563738, -9.40392738562677 20.180788190642204, -9.24 20.22690534056724 M-9.899999999999999 20.041229720632558 C-9.745185076465043 20.08478329169694, -9.590370152930086 20.128336862761326, -9.24 20.22690534056724 M-9.24 20.22690534056724 C-9.082193230704206 20.263207638638665, -8.924386461408414 20.299509936710095, -8.58 20.378733534212294 M-9.24 20.22690534056724 C-9.017680369372995 20.27804835258229, -8.79536073874599 20.329191364597342, -8.58 20.378733534212294 M-8.58 20.378733534212294 C-8.407492502279316 20.40917002824308, -8.234985004558633 20.439606522273863, -7.92 20.495181145624777 M-8.58 20.378733534212294 C-8.35133011485434 20.41907908258681, -8.122660229708682 20.45942463096132, -7.92 20.495181145624777 M-7.92 20.495181145624777 C-7.78149349376357 20.511946968949943, -7.64298698752714 20.52871279227511, -7.26 20.575072290779506 M-7.92 20.495181145624777 C-7.687213727857622 20.523359269651678, -7.454427455715243 20.55153739367858, -7.26 20.575072290779506 M-7.26 20.575072290779506 C-7.029531041769589 20.589922851715826, -6.7990620835391775 20.604773412652147, -6.6 20.61760023160602 M-7.26 20.575072290779506 C-7.0757363627083265 20.586945552996504, -6.891472725416653 20.5988188152135, -6.6 20.61760023160602 M-6.6 20.61760023160602 C-6.451113104558456 20.61866844788732, -6.302226209116914 20.61973666416862, -5.9399999999999995 20.62233552240221 M-6.6 20.61760023160602 C-6.430341613360598 20.61881747675261, -6.260683226721198 20.620034721899202, -5.9399999999999995 20.62233552240221 M-5.9399999999999995 20.62233552240221 C-5.771112255118401 20.613864221606356, -5.602224510236801 20.6053929208105, -5.279999999999999 20.58923034636244 M-5.9399999999999995 20.62233552240221 C-5.736847693653779 20.61214553321361, -5.533695387307557 20.601955544025007, -5.279999999999999 20.58923034636244 M-5.279999999999999 20.58923034636244 C-5.090963926252607 20.569005964581905, -4.9019278525052155 20.548781582801368, -4.620000000000001 20.51861899843003 M-5.279999999999999 20.58923034636244 C-5.094097457192479 20.56934121131441, -4.908194914384959 20.549452076266373, -4.620000000000001 20.51861899843003 M-4.620000000000001 20.51861899843003 C-4.393258838231244 20.481720485434728, -4.166517676462487 20.444821972439428, -3.959999999999999 20.411214509598242 M-4.620000000000001 20.51861899843003 C-4.485750743565046 20.496772070000567, -4.351501487130092 20.47492514157111, -3.959999999999999 20.411214509598242 M-3.959999999999999 20.411214509598242 C-3.7737036304244658 20.370818382252917, -3.5874072608489325 20.330422254907592, -3.299999999999999 20.268101446747572 M-3.959999999999999 20.411214509598242 C-3.7868495607276964 20.373668919146425, -3.6136991214553937 20.33612332869461, -3.299999999999999 20.268101446747572 M-3.299999999999999 20.268101446747572 C-3.0514708305619163 20.201308672885848, -2.8029416611238336 20.134515899024123, -2.6400000000000006 20.090724960726195 M-3.299999999999999 20.268101446747572 C-3.1310345975441947 20.22269161440394, -2.96206919508839 20.177281782060305, -2.6400000000000006 20.090724960726195 M-2.6400000000000006 20.090724960726195 C-2.389558753302106 20.011096495664376, -2.139117506604211 19.931468030602556, -1.9800000000000004 19.880876193265788 M-2.6400000000000006 20.090724960726195 C-2.4802596332008737 20.03993508332245, -2.320519266401747 19.98914520591871, -1.9800000000000004 19.880876193265788 M-1.9800000000000004 19.880876193265788 C-1.765767536967996 19.802907910288674, -1.5515350739359914 19.72493962731156, -1.3199999999999985 19.64067419009315 M-1.9800000000000004 19.880876193265788 C-1.7937968711608556 19.81310897425946, -1.6075937423217108 19.745341755253136, -1.3199999999999985 19.64067419009315 M-1.3199999999999985 19.64067419009315 C-1.0851519453756744 19.5452655000486, -0.85030389075135 19.449856810004054, -0.6600000000000001 19.372544502878444 M-1.3199999999999985 19.64067419009315 C-1.1457672831561758 19.569890911502387, -0.971534566312353 19.499107632911628, -0.6600000000000001 19.372544502878444 M-0.6600000000000001 19.372544502878444 C-0.4296899968085812 19.27017875297528, -0.19937999361716224 19.167813003072116, 0 19.079194696096774 M-0.6600000000000001 19.372544502878444 C-0.523839148458631 19.312025170316492, -0.3876782969172618 19.25150583775454, 0 19.079194696096774 M0 19.079194696096774 C0.19166442158817176 18.987542021330903, 0.3833288431763435 18.895889346565035, 0.6600000000000001 18.763587006134102 M0 19.079194696096774 C0.2343807450822411 18.96711535438899, 0.4687614901644822 18.85503601268121, 0.6600000000000001 18.763587006134102 M0.6600000000000001 18.763587006134102 C0.8708582733179491 18.656663147120423, 1.081716546635898 18.54973928810674, 1.3200000000000003 18.428908428724817 M0.6600000000000001 18.763587006134102 C0.8573854844663027 18.6634950468274, 1.0547709689326052 18.563403087520694, 1.3200000000000003 18.428908428724817 M1.3200000000000003 18.428908428724817 C1.5680602254412168 18.29722231602121, 1.8161204508824336 18.1655362033176, 1.9800000000000004 18.078538536777035 M1.3200000000000003 18.428908428724817 C1.5799240973636224 18.290924219773427, 1.8398481947272445 18.15294001082204, 1.9800000000000004 18.078538536777035 M1.9800000000000004 18.078538536777035 C2.175776381388739 17.971002965595638, 2.3715527627774784 17.86346739441424, 2.639999999999997 17.71601535356018 M1.9800000000000004 18.078538536777035 C2.14556761618752 17.987595962143814, 2.311135232375039 17.896653387510593, 2.639999999999997 17.71601535356018 M2.639999999999997 17.71601535356018 C2.8164901889043117 17.61680226891292, 2.992980377808626 17.51758918426566, 3.3000000000000007 17.34499962586614 M2.639999999999997 17.71601535356018 C2.7929947027105975 17.63001013998517, 2.945989405421198 17.54400492641016, 3.3000000000000007 17.34499962586614 M3.3000000000000007 17.34499962586614 C3.527719929431794 17.21535046937892, 3.7554398588635873 17.0857013128917, 3.960000000000001 16.969237857912514 M3.3000000000000007 17.34499962586614 C3.493285066172663 17.234955477102393, 3.686570132345326 17.124911328338644, 3.960000000000001 16.969237857912514 M3.960000000000001 16.969237857912514 C4.20481448925221 16.829503170962848, 4.449628978504419 16.689768484013182, 4.620000000000001 16.592524479270253 M3.960000000000001 16.969237857912514 C4.153556305874224 16.85876020648313, 4.347112611748446 16.748282555053745, 4.620000000000001 16.592524479270253 M4.620000000000001 16.592524479270253 C4.7836946643716445 16.499798656843133, 4.947389328743289 16.407072834416013, 5.280000000000001 16.218663528842715 M4.620000000000001 16.592524479270253 C4.851561825823744 16.461354897019948, 5.083123651647487 16.330185314769643, 5.280000000000001 16.218663528842715 M5.280000000000001 16.218663528842715 C5.452754897501364 16.122540272993593, 5.625509795002729 16.02641701714447, 5.940000000000001 15.85143024181003 M5.280000000000001 16.218663528842715 C5.5113242173674335 16.08995147927589, 5.742648434734866 15.961239429709062, 5.940000000000001 15.85143024181003 M5.940000000000001 15.85143024181003 C6.161478607756796 15.731664908021418, 6.382957215513589 15.611899574232806, 6.599999999999998 15.49453292743246 M5.940000000000001 15.85143024181003 C6.124543634538114 15.751637624306806, 6.309087269076226 15.65184500680358, 6.599999999999998 15.49453292743246 M6.599999999999998 15.49453292743246 C6.765916104361522 15.408317538704852, 6.931832208723046 15.322102149977242, 7.259999999999998 15.151575522669422 M6.599999999999998 15.49453292743246 C6.787468464307995 15.397118233502182, 6.9749369286159935 15.299703539571905, 7.259999999999998 15.151575522669422 M7.259999999999998 15.151575522669422 C7.5114464241031405 15.02754602213868, 7.762892848206282 14.903516521607937, 7.919999999999998 14.826021199746492 M7.259999999999998 15.151575522669422 C7.504740150631383 15.030853986259034, 7.749480301262767 14.910132449848646, 7.919999999999998 14.826021199746492 M7.919999999999998 14.826021199746492 C8.162059937342919 14.714210118782308, 8.40411987468584 14.602399037818124, 8.580000000000002 14.521157395159872 M7.919999999999998 14.826021199746492 C8.118440161265838 14.734358741343028, 8.316880322531675 14.642696282939566, 8.580000000000002 14.521157395159872 M8.580000000000002 14.521157395159872 C8.779003449014821 14.436401590464001, 8.978006898029642 14.351645785768131, 9.240000000000002 14.240062613254315 M8.580000000000002 14.521157395159872 C8.732058063574272 14.456395685739583, 8.884116127148541 14.391633976319294, 9.240000000000002 14.240062613254315 M9.240000000000002 14.240062613254315 C9.384783073555372 14.184236174372904, 9.529566147110742 14.128409735491491, 9.900000000000002 13.98557533959079 M9.240000000000002 14.240062613254315 C9.44523743458438 14.16092577207087, 9.650474869168756 14.081788930887424, 9.900000000000002 13.98557533959079 M9.900000000000002 13.98557533959079 C10.139151626728664 13.903934061062223, 10.378303253457325 13.822292782533657, 10.559999999999999 13.760265378015704 M9.900000000000002 13.98557533959079 C10.069644811889955 13.927662209214521, 10.239289623779905 13.869749078838252, 10.559999999999999 13.760265378015704 M10.559999999999999 13.760265378015704 C10.777647021779966 13.696337343847864, 10.995294043559932 13.632409309680023, 11.219999999999999 13.566407900868924 M10.559999999999999 13.760265378015704 C10.73295296555951 13.70946503624537, 10.90590593111902 13.658664694475036, 11.219999999999999 13.566407900868924 M11.219999999999999 13.566407900868924 C11.40983995112843 13.52025739843697, 11.599679902256861 13.474106896005017, 11.879999999999999 13.405960474370783 M11.219999999999999 13.566407900868924 C11.470521037659912 13.505505695147443, 11.721042075319826 13.444603489425964, 11.879999999999999 13.405960474370783 M11.879999999999999 13.405960474370783 C12.022702572349209 13.37884327034438, 12.165405144698418 13.351726066317976, 12.54 13.28054329118484 M11.879999999999999 13.405960474370783 C12.032939318206104 13.376898022116558, 12.185878636412209 13.347835569862333, 12.54 13.28054329118484 M12.54 13.28054329118484 C12.769217121994274 13.249591866546588, 12.998434243988546 13.218640441908336, 13.2 13.191422809767417 M12.54 13.28054329118484 C12.775941347046194 13.248683887495398, 13.011882694092387 13.216824483805954, 13.2 13.191422809767417 M13.2 13.191422809767417 C13.381637012008106 13.177132973576507, 13.563274024016213 13.162843137385597, 13.860000000000003 13.139498965713102 M13.2 13.191422809767417 C13.419054675211585 13.174189232805212, 13.638109350423171 13.156955655843008, 13.860000000000003 13.139498965713102 M13.860000000000003 13.139498965713102 C14.060042283166776 13.135194152321755, 14.260084566333548 13.130889338930409, 14.52 13.12529608423569 M13.860000000000003 13.139498965713102 C14.026911164041904 13.135907118015915, 14.193822328083803 13.132315270318726, 14.52 13.12529608423569 M14.52 13.12529608423569 C14.780285115355392 13.134627503325188, 15.040570230710783 13.143958922414686, 15.18 13.148957585549969 M14.52 13.12529608423569 C14.779822033626186 13.134610901493454, 15.039644067252372 13.143925718751218, 15.18 13.148957585549969 M15.18 13.148957585549969 C15.441350656322372 13.173226350528697, 15.702701312644745 13.197495115507424, 15.839999999999996 13.210244536619275 M15.18 13.148957585549969 C15.368243178258277 13.166437661997008, 15.556486356516555 13.183917738444046, 15.839999999999996 13.210244536619275 M15.839999999999996 13.210244536619275 C15.990870203859513 13.23271357373728, 16.14174040771903 13.255182610855288, 16.5 13.308538063893174 M15.839999999999996 13.210244536619275 C16.088891545086216 13.247311851581662, 16.337783090172433 13.284379166544047, 16.5 13.308538063893174 M16.5 13.308538063893174 C16.5 3.239435884312094, 16.5 -6.829666295268986, 16.5 -16.875 M16.5 13.308538063893174 C16.5 6.598259318385716, 16.5 -0.11201942712174251, 16.5 -16.875 M16.5 -16.875 C6.8596360991351535 -16.875, -2.780727801729693 -16.875, -16.5 -16.875 M16.5 -16.875 C6.443437069562535 -16.875, -3.6131258608749306 -16.875, -16.5 -16.875 M-16.5 -16.875 C-16.5 -9.551034475518506, -16.5 -2.2270689510370136, -16.5 16.875 M-16.5 -16.875 C-16.5 -8.97797260968707, -16.5 -1.08094521937414, -16.5 16.875" stroke="currentColor" stroke-width="2" fill="none" vector-effect="non-scaling-stroke"/></g><path d="M10.5 13.942500000000003 C12.756453171501796 10.476023815280367, 15.012906343003593 7.009547630560731, 16.5 4.725000000000001 M10.5 13.942500000000003 C12.46522452894823 10.923423817403282, 14.43044905789646 7.904347634806563, 16.5 4.725000000000001 M16.5 4.725000000000001 C16.5 5.777202494976647, 16.5 6.829404989953293, 16.5 9.652500000000002 M16.5 4.725000000000001 C16.5 6.1917361219271605, 16.5 7.65847224385432, 16.5 9.652500000000002 M16.5 9.652500000000002 C16.5 10.755054065319541, 16.5 11.857608130639079, 16.5 13.674375000000001 M16.5 9.652500000000002 C16.5 10.562178919834121, 16.5 11.47185783966824, 16.5 13.674375000000001 M16.5 13.674375000000001 C16.466224418313427 13.663771068392478, 16.432448836626854 13.653167136784955, 16.38 13.636700688282414 M16.5 13.674375000000001 C16.4529636909907 13.659607828602825, 16.4059273819814 13.644840657205648, 16.38 13.636700688282414 M16.38 13.636700688282414 C16.352473599282316 13.62809280923992, 16.324947198564633 13.619484930197428, 16.26 13.59917505986142 M16.38 13.636700688282414 C16.3406860848419 13.62440669351577, 16.3013721696838 13.612112698749124, 16.26 13.59917505986142 M16.26 13.59917505986142 C16.21276054863671 13.584519473333433, 16.165521097273416 13.569863886805448, 16.14 13.561946211248566 M16.26 13.59917505986142 C16.218068542466234 13.586166227489413, 16.176137084932467 13.573157395117404, 16.14 13.561946211248566 M16.14 13.561946211248566 C16.112066240002022 13.553383316487347, 16.084132480004047 13.544820421726126, 16.02 13.525161067701088 M16.14 13.561946211248566 C16.10538265948437 13.551334512581072, 16.07076531896874 13.540722813913577, 16.02 13.525161067701088 M16.02 13.525161067701088 C15.987364362876507 13.515316999802995, 15.954728725753014 13.505472931904903, 15.9 13.488964803375033 M16.02 13.525161067701088 C15.978085130737867 13.51251805364272, 15.936170261475736 13.499875039584351, 15.9 13.488964803375033 M15.9 13.488964803375033 C15.867622019591975 13.47939588655044, 15.83524403918395 13.469826969725846, 15.78 13.453500268389194 M15.9 13.488964803375033 C15.869455847198486 13.479937851911348, 15.838911694396973 13.470910900447665, 15.78 13.453500268389194 M15.78 13.453500268389194 C15.753959326149843 13.445993427133692, 15.727918652299687 13.438486585878191, 15.66 13.418907425060958 M15.78 13.453500268389194 C15.73440696497801 13.440356995744407, 15.688813929956021 13.42721372309962, 15.66 13.418907425060958 M15.66 13.418907425060958 C15.619473480967699 13.407565190664995, 15.578946961935397 13.396222956269032, 15.54 13.385322795538972 M15.66 13.418907425060958 C15.624298007819869 13.408915440222904, 15.58859601563974 13.39892345538485, 15.54 13.385322795538972 M15.54 13.385322795538972 C15.494884859583133 13.37312521333319, 15.449769719166268 13.360927631127405, 15.42 13.352878923012604 M15.54 13.385322795538972 C15.500929570803729 13.374759495335686, 15.461859141607459 13.3641961951324, 15.42 13.352878923012604 M15.42 13.352878923012604 C15.372459826473694 13.340528352628395, 15.324919652947388 13.328177782244186, 15.3 13.321703848624518 M15.42 13.352878923012604 C15.393775952875552 13.346066117847093, 15.367551905751107 13.339253312681581, 15.3 13.321703848624518 M15.3 13.321703848624518 C15.255908459077691 13.310760606505104, 15.211816918155382 13.299817364385692, 15.18 13.291920606150788 M15.3 13.321703848624518 C15.267242035555196 13.313573528641138, 15.234484071110389 13.30544320865776, 15.18 13.291920606150788 M15.18 13.291920606150788 C15.155253802049588 13.286090016345636, 15.130507604099174 13.280259426540482, 15.06 13.263646736442789 M15.18 13.291920606150788 C15.151595846520838 13.285228145028823, 15.123191693041678 13.278535683906858, 15.06 13.263646736442789 M15.06 13.263646736442789 C15.026243080096021 13.256149067727575, 14.992486160192042 13.248651399012362, 14.94 13.236993823547154 M15.06 13.263646736442789 C15.031828196982742 13.25738956467669, 15.003656393965482 13.25113239291059, 14.94 13.236993823547154 M14.94 13.236993823547154 C14.899182630057439 13.228515113876949, 14.858365260114878 13.220036404206743, 14.82 13.212067054334527 M14.94 13.236993823547154 C14.898828277265673 13.228441506624781, 14.857656554531347 13.219889189702407, 14.82 13.212067054334527 M14.82 13.212067054334527 C14.78922646769674 13.20614257211636, 14.758452935393478 13.200218089898193, 14.7 13.188964803375033 M14.82 13.212067054334527 C14.778230822451379 13.20402570415036, 14.736461644902755 13.195984353966194, 14.7 13.188964803375033 M14.7 13.188964803375033 C14.675638746596462 13.184663710669525, 14.651277493192925 13.18036261796402, 14.58 13.167778244698793 M14.7 13.188964803375033 C14.66305420167364 13.18244185067435, 14.626108403347281 13.175918897973666, 14.58 13.167778244698793 M14.58 13.167778244698793 C14.555384160718875 13.16384232528773, 14.53076832143775 13.159906405876667, 14.46 13.148590991973684 M14.58 13.167778244698793 C14.549931148721926 13.162970422626909, 14.519862297443852 13.158162600555023, 14.46 13.148590991973684 M14.46 13.148590991973684 C14.41636615296782 13.142368724135839, 14.37273230593564 13.136146456297991, 14.34 13.13147876852039 M14.46 13.148590991973684 C14.430525096111293 13.144387815793618, 14.401050192222584 13.140184639613551, 14.34 13.13147876852039 M14.34 13.13147876852039 C14.308032997490248 13.127490975516263, 14.276065994980495 13.123503182512136, 14.219999999999999 13.116509108467051 M14.34 13.13147876852039 C14.293518918720881 13.125680385306557, 14.247037837441765 13.119882002092723, 14.219999999999999 13.116509108467051 M14.219999999999999 13.116509108467051 C14.180726012191165 13.11233035019319, 14.14145202438233 13.108151591919327, 14.1 13.10374109022291 M14.219999999999999 13.116509108467051 C14.19383049905339 13.113724669587665, 14.167660998106783 13.110940230708279, 14.1 13.10374109022291 M14.1 13.10374109022291 C14.055212689045353 13.099816233762166, 14.010425378090705 13.095891377301424, 13.98 13.093225103322823 M14.1 13.10374109022291 C14.070271640285082 13.101135898211883, 14.040543280570164 13.098530706200856, 13.98 13.093225103322823 M13.98 13.093225103322823 C13.948530767635233 13.091068817422963, 13.917061535270465 13.088912531523105, 13.86 13.085002649562789 M13.98 13.093225103322823 C13.943900213128796 13.090751529753692, 13.907800426257593 13.088277956184564, 13.86 13.085002649562789 M13.86 13.085002649562789 C13.834949941249972 13.083771758490103, 13.809899882499945 13.08254086741742, 13.74 13.079106179211315 M13.86 13.085002649562789 C13.82392571817906 13.083230058452724, 13.78785143635812 13.081457467342657, 13.74 13.079106179211315 M13.74 13.079106179211315 C13.711150476854327 13.07825338339603, 13.682300953708653 13.077400587580742, 13.620000000000001 13.075558962943038 M13.74 13.079106179211315 C13.713749277657298 13.078330204300082, 13.687498555314598 13.077554229388848, 13.620000000000001 13.075558962943038 M13.620000000000001 13.075558962943038 C13.57371517378842 13.07510230028421, 13.52743034757684 13.074645637625382, 13.5 13.074375000000002 M13.620000000000001 13.075558962943038 C13.577798767594624 13.07514259048205, 13.535597535189247 13.074726218021064, 13.5 13.074375000000002 M13.5 13.074375000000002 C13.453594760049556 13.074832850703869, 13.407189520099115 13.075290701407736, 13.379999999999999 13.075558962943038 M13.5 13.074375000000002 C13.464148617416646 13.074728722570296, 13.42829723483329 13.075082445140591, 13.379999999999999 13.075558962943038 M13.379999999999999 13.075558962943038 C13.354002232913931 13.076327460462593, 13.328004465827863 13.077095957982149, 13.26 13.079106179211315 M13.379999999999999 13.075558962943038 C13.347875655491304 13.076508562921779, 13.315751310982607 13.077458162900522, 13.26 13.079106179211315 M13.26 13.079106179211315 C13.228500912173775 13.080653957856864, 13.19700182434755 13.082201736502412, 13.14 13.085002649562789 M13.26 13.079106179211315 C13.216091048030723 13.081263744490075, 13.172182096061444 13.083421309768834, 13.14 13.085002649562789 M13.14 13.085002649562789 C13.100998941257505 13.08767501958031, 13.061997882515007 13.09034738959783, 13.02 13.093225103322823 M13.14 13.085002649562789 C13.106746032969998 13.08728122628147, 13.073492065939995 13.089559803000153, 13.02 13.093225103322823 M13.02 13.093225103322823 C12.973943950537048 13.097261143429673, 12.927887901074097 13.101297183536525, 12.9 13.10374109022291 M13.02 13.093225103322823 C12.983546788144718 13.096419615808959, 12.947093576289436 13.099614128295093, 12.9 13.10374109022291 M12.9 13.10374109022291 C12.869985130512434 13.106934676899682, 12.83997026102487 13.110128263576456, 12.780000000000001 13.116509108467051 M12.9 13.10374109022291 C12.864064747669278 13.107564606534297, 12.828129495338557 13.111388122845684, 12.780000000000001 13.116509108467051 M12.780000000000001 13.116509108467051 C12.7472200536913 13.120598313907117, 12.7144401073826 13.124687519347184, 12.66 13.13147876852039 M12.780000000000001 13.116509108467051 C12.750229405353712 13.12022290581239, 12.720458810707425 13.12393670315773, 12.66 13.13147876852039 M12.66 13.13147876852039 C12.62905963146783 13.135890922687471, 12.598119262935661 13.140303076854552, 12.54 13.148590991973684 M12.66 13.13147876852039 C12.625066529002524 13.136460346534623, 12.590133058005048 13.141441924548856, 12.54 13.148590991973684 M12.54 13.148590991973684 C12.493232579298667 13.1560688113095, 12.446465158597332 13.163546630645317, 12.42 13.167778244698793 M12.54 13.148590991973684 C12.494853267748871 13.15580967331881, 12.449706535497743 13.163028354663938, 12.42 13.167778244698793 M12.42 13.167778244698793 C12.377505732020644 13.175280805548363, 12.33501146404129 13.182783366397935, 12.3 13.188964803375033 M12.42 13.167778244698793 C12.382279622239002 13.174437953004821, 12.344559244478003 13.181097661310849, 12.3 13.188964803375033 M12.3 13.188964803375033 C12.264518180868938 13.195795719125575, 12.229036361737874 13.20262663487612, 12.18 13.212067054334527 M12.3 13.188964803375033 C12.262807604203864 13.196125037220593, 12.225615208407728 13.203285271066152, 12.18 13.212067054334527 M12.18 13.212067054334527 C12.154058681303047 13.217455664869778, 12.128117362606094 13.22284427540503, 12.06 13.236993823547154 M12.18 13.212067054334527 C12.148973345533333 13.218512006462282, 12.117946691066669 13.224956958590036, 12.06 13.236993823547154 M12.06 13.236993823547154 C12.015465988329034 13.24688516633015, 11.970931976658067 13.256776509113145, 11.94 13.263646736442789 M12.06 13.236993823547154 C12.023407768749633 13.245121236481928, 11.986815537499266 13.253248649416703, 11.94 13.263646736442789 M11.94 13.263646736442789 C11.910820475468823 13.270521887065588, 11.881640950937646 13.277397037688386, 11.82 13.291920606150788 M11.94 13.263646736442789 C11.913984916097434 13.269776295548654, 11.88796983219487 13.27590585465452, 11.82 13.291920606150788 M11.82 13.291920606150788 C11.780556485894845 13.30171023735587, 11.741112971789688 13.31149986856095, 11.7 13.321703848624518 M11.82 13.291920606150788 C11.782435458319137 13.301243888261585, 11.744870916638275 13.310567170372382, 11.7 13.321703848624518 M11.7 13.321703848624518 C11.666491781513779 13.330409025323853, 11.632983563027558 13.339114202023188, 11.58 13.352878923012604 M11.7 13.321703848624518 C11.656777542967847 13.332932709567961, 11.613555085935694 13.344161570511405, 11.58 13.352878923012604 M11.58 13.352878923012604 C11.536668258575881 13.364594335471851, 11.49333651715176 13.3763097479311, 11.46 13.385322795538972 M11.58 13.352878923012604 C11.533299595454695 13.365505106112584, 11.48659919090939 13.378131289212565, 11.46 13.385322795538972 M11.46 13.385322795538972 C11.426547257052668 13.394685278692142, 11.393094514105336 13.404047761845312, 11.34 13.418907425060958 M11.46 13.385322795538972 C11.435261486841481 13.392246410533586, 11.410522973682962 13.3991700255282, 11.34 13.418907425060958 M11.34 13.418907425060958 C11.312559482907327 13.426817804299564, 11.285118965814656 13.434728183538168, 11.219999999999999 13.453500268389195 M11.34 13.418907425060958 C11.308936417814412 13.427862238658957, 11.277872835628822 13.436817052256956, 11.219999999999999 13.453500268389195 M11.219999999999999 13.453500268389195 C11.173188917284484 13.46733471239494, 11.126377834568968 13.481169156400684, 11.1 13.488964803375033 M11.219999999999999 13.453500268389195 C11.181844951839459 13.464776527058994, 11.143689903678917 13.476052785728793, 11.1 13.488964803375033 M11.1 13.488964803375033 C11.05988404324148 13.501065201496067, 11.01976808648296 13.5131655996171, 10.98 13.525161067701088 M11.1 13.488964803375033 C11.067025293596044 13.498911146617298, 11.03405058719209 13.50885748985956, 10.98 13.525161067701088 M10.98 13.525161067701088 C10.940880686607718 13.537152814022871, 10.901761373215434 13.549144560344653, 10.86 13.561946211248566 M10.98 13.525161067701088 C10.940694016987209 13.537210036262756, 10.901388033974415 13.549259004824426, 10.86 13.561946211248566 M10.86 13.561946211248566 C10.834619462316978 13.569820279541183, 10.809238924633954 13.5776943478338, 10.74 13.599175059861418 M10.86 13.561946211248566 C10.817551817195042 13.575115352678036, 10.775103634390083 13.588284494107507, 10.74 13.599175059861418 M10.74 13.599175059861418 C10.696397407225676 13.612810182316762, 10.652794814451351 13.626445304772107, 10.620000000000001 13.636700688282414 M10.74 13.599175059861418 C10.697962370116702 13.612320797183918, 10.655924740233406 13.625466534506417, 10.620000000000001 13.636700688282414 M10.620000000000001 13.636700688282414 C10.58750400941907 13.646902888938396, 10.555008018838139 13.657105089594376, 10.5 13.674375000000001 M10.620000000000001 13.636700688282414 C10.589672130711973 13.646222201626475, 10.559344261423945 13.655743714970537, 10.5 13.674375000000001 M10.5 13.674375000000001 C10.5 13.744875142677923, 10.5 13.815375285355847, 10.5 13.942500000000003 M10.5 13.674375000000001 C10.5 13.777796193078697, 10.5 13.881217386157392, 10.5 13.942500000000003" stroke="currentColor" stroke-width="2" fill="none" vector-effect="non-scaling-stroke"/></g></g></g></g></g><linearGradient id="s2m-shape-taggedDocument-gradient" gradientUnits="objectBoundingBox" x1="0%" y1="0%" x2="100%" y2="0%"><stop offset="0%" stop-color="hsl(40.5882352941, 60%, 83.3333333333%)" stop-opacity="1"/><stop offset="100%" stop-color="hsl(-79.4117647059, 60%, 83.3333333333%)" stop-opacity="1"/></linearGradient></svg>