<svg id="s2m-shape-taggedDocument" width="100%" xmlns="http://www.w3.org/2000/svg" class="flowchart" style="max-width: 76px;" viewBox="-21.30 -16.05 102.60 62.10" role="graphics-document document" aria-roledescription="flowchart-v2"><g><marker id="s2m-shape-taggedDocument_flowchart-v2-pointEnd" class="marker flowchart-v2" viewBox="0 0 10 10" refX="5" refY="5" markerUnits="userSpaceOnUse" markerWidth="8" markerHeight="8" orient="auto"><path d="M 0 0 L 10 5 L 0 10 z" class="arrowMarkerPath" style="stroke-width: 1; stroke-dasharray: 1,0;"/></marker><marker id="s2m-shape-taggedDocument_flowchart-v2-pointStart" class="marker flowchart-v2" viewBox="0 0 10 10" refX="4.5" refY="5" markerUnits="userSpaceOnUse" markerWidth="8" markerHeight="8" orient="auto"><path d="M 0 5 L 10 10 L 10 0 z" class="arrowMarkerPath" style="stroke-width: 1; stroke-dasharray: 1,0;"/></marker><marker id="s2m-shape-taggedDocument_flowchart-v2-pointEnd-margin" class="marker flowchart-v2" viewBox="0 0 11.5 14" refX="11.5" refY="7" markerUnits="userSpaceOnUse" markerWidth="10.5" markerHeight="14" orient="auto"><path d="M 0 0 L 11.5 7 L 0 14 z" class="arrowMarkerPath" style="stroke-width: 0; stroke-dasharray: 1,0;"/></marker><marker id="s2m-shape-taggedDocument_flowchart-v2-pointStart-margin" class="marker flowchart-v2" viewBox="0 0 11.5 14" refX="1" refY="7" markerUnits="userSpaceOnUse" markerWidth="11.5" markerHeight="14" orient="auto"><polygon points="0,7 11.5,14 11.5,0" class="arrowMarkerPath" style="stroke-width: 0; stroke-dasharray: 1,0;"/></marker><marker id="s2m-shape-taggedDocument_flowchart-v2-circleEnd" class="marker flowchart-v2" viewBox="0 0 10 10" refX="11" refY="5" markerUnits="userSpaceOnUse" markerWidth="11" markerHeight="11" orient="auto"><circle cx="5" cy="5" r="5" class="arrowMarkerPath" style="stroke-width: 1; stroke-dasharray: 1,0;"/></marker><marker id="s2m-shape-taggedDocument_flowchart-v2-circleStart" class="marker flowchart-v2" viewBox="0 0 10 10" refX="-1" refY="5" markerUnits="userSpaceOnUse" markerWidth="11" markerHeight="11" orient="auto"><circle cx="5" cy="5" r="5" class="arrowMarkerPath" style="stroke-width: 1; stroke-dasharray: 1,0;"/></marker><marker id="s2m-shape-taggedDocument_flowchart-v2-circleEnd-margin" class="marker flowchart-v2" viewBox="0 0 10 10" refY="5" refX="12.25" markerUnits="userSpaceOnUse" markerWidth="14" markerHeight="14" orient="auto"><circle cx="5" cy="5" r="5" class="arrowMarkerPath" style="stroke-width: 0; stroke-dasharray: 1,0;"/></marker><marker id="s2m-shape-taggedDocument_flowchart-v2-circleStart-margin" class="marker flowchart-v2" viewBox="0 0 10 10" refX="-2" refY="5" markerUnits="userSpaceOnUse" markerWidth="14" markerHeight="14" orient="auto"><circle cx="5" cy="5" r="5" class="arrowMarkerPath" style="stroke-width: 0; stroke-dasharray: 1,0;"/></marker><marker id="s2m-shape-taggedDocument_flowchart-v2-crossEnd" class="marker cross flowchart-v2" viewBox="0 0 11 11" refX="12" refY="5.2" markerUnits="userSpaceOnUse" markerWidth="11" markerHeight="11" orient="auto"><path d="M 1,1 l 9,9 M 10,1 l -9,9" class="arrowMarkerPath" style="stroke-width: 2; stroke-dasharray: 1,0;"/></marker><marker id="s2m-shape-taggedDocument_flowchart-v2-crossStart" class="marker cross flowchart-v2" viewBox="0 0 11 11" refX="-1" refY="5.2" markerUnits="userSpaceOnUse" markerWidth="11" markerHeight="11" orient="auto"><path d="M 1,1 l 9,9 M 10,1 l -9,9" class="arrowMarkerPath" style="stroke-width: 2; stroke-dasharray: 1,0;"/></marker><marker id="s2m-shape-taggedDocument_flowchart-v2-crossEnd-margin" class="marker cross flowchart-v2" viewBox="0 0 15 15" refX="17.7" refY="7.5" markerUnits="userSpaceOnUse" markerWidth="12" markerHeight="12" orient="auto"><path d="M 1,1 L 14,14 M 1,14 L 14,1" class="arrowMarkerPath" style="stroke-width: 2.5;"/></marker><marker id="s2m-shape-taggedDocument_flowchart-v2-crossStart-margin" class="marker cross flowchart-v2" viewBox="0 0 15 15" refX="-3.5" refY="7.5" markerUnits="userSpaceOnUse" markerWidth="12" markerHeight="12" orient="auto"><path d="M 1,1 L 14,14 M 1,14 L 14,1" class="arrowMarkerPath" style="stroke-width: 2.5; stroke-dasharray: 1,0;"/></marker><g class="root"><g class="clusters"/><g class="edgePaths"/><g class="edgeLabels"/><g class="nodes"><g class="node default" data-look="classic" transform="translate(38, 23)"><g class="basic label-container outer-path" transform="translate(0,-1.875)"><g><path d="M-16.5 16.875 C-16.5 16.875, -16.5 16.875, -16.5 16.875 M-16.5 16.875 C-16.5 16.875, -16.5 16.875, -16.5 16.875 M-16.5 16.875 C-16.359385722538285 16.955183466014898, -16.21877144507657 17.0353669320298, -15.84 17.251356430692056 M-16.5 16.875 C-16.244218617306366 17.020856012466748, -15.988437234612734 17.1667120249335, -15.84 17.251356430692056 M-15.84 17.251356430692056 C-15.707076082752339 17.32638916162224, -15.574152165504678 17.401421892552428, -15.18 17.623912426929028 M-15.84 17.251356430692056 C-15.650767920853047 17.358173924277793, -15.461535841706096 17.46499141786353, -15.18 17.623912426929028 M-15.18 17.623912426929028 C-15.027340851926994 17.708336059308586, -14.87468170385399 17.792759691688143, -14.52 17.98890593091388 M-15.18 17.623912426929028 C-14.984994452524573 17.73175448461015, -14.789988905049144 17.83959654229127, -14.52 17.98890593091388 M-14.52 17.98890593091388 C-14.30660147661581 18.103282792858604, -14.09320295323162 18.217659654803327, -13.86 18.34265125063951 M-14.52 17.98890593091388 C-14.348708890808798 18.080714155439637, -14.177417781617597 18.172522379965393, -13.86 18.34265125063951 M-13.86 18.34265125063951 C-13.645351231643046 18.45287828043167, -13.430702463286092 18.56310531022383, -13.2 18.681576277881433 M-13.86 18.34265125063951 C-13.610719697409975 18.470662361770113, -13.361439394819948 18.59867347290072, -13.2 18.681576277881433 M-13.2 18.681576277881433 C-13.060557093906587 18.74932911006819, -12.921114187813174 18.817081942254948, -12.54 19.00225855922534 M-13.2 18.681576277881433 C-13.006347348612897 18.77566866278312, -12.812694697225794 18.869761047684804, -12.54 19.00225855922534 M-12.54 19.00225855922534 C-12.386960414540773 19.071636805300674, -12.233920829081548 19.14101505137601, -11.879999999999999 19.301459855885415 M-12.54 19.00225855922534 C-12.380150740093173 19.074723871095454, -12.220301480186347 19.14718918296557, -11.879999999999999 19.301459855885415 M-11.879999999999999 19.301459855885415 C-11.679664203043595 19.38484173554111, -11.479328406087191 19.468223615196802, -11.219999999999999 19.57615884332965 M-11.879999999999999 19.301459855885415 C-11.66599570796648 19.390530707901064, -11.451991415932962 19.479601559916713, -11.219999999999999 19.57615884332965 M-11.219999999999999 19.57615884332965 C-11.084157215402119 19.62708399336819, -10.948314430804238 19.678009143406726, -10.56 19.82358162051232 M-11.219999999999999 19.57615884332965 C-11.069888898205656 19.63243294286284, -10.919777796411314 19.688707042396036, -10.56 19.82358162051232 M-10.56 19.82358162051232 C-10.296971074841379 19.91032062935693, -10.033942149682755 19.997059638201538, -9.899999999999999 20.041229720632558 M-10.56 19.82358162051232 C-10.303896577340783 19.908036807445757, -10.047793154681564 19.992491994379197, -9.899999999999999 20.041229720632558 M-9.899999999999999 20.041229720632558 C-9.738944277841483 20.086538994959543, -9.577888555682968 20.13184826928653, -9.24 20.22690534056724 M-9.899999999999999 20.041229720632558 C-9.674086553978269 20.104785204180533, -9.448173107956539 20.168340687728513, -9.24 20.22690534056724 M-9.24 20.22690534056724 C-8.981835859705566 20.286294120998804, -8.723671719411133 20.34568290143037, -8.58 20.378733534212294 M-9.24 20.22690534056724 C-9.078663536428841 20.264019619102225, -8.917327072857683 20.30113389763721, -8.58 20.378733534212294 M-8.58 20.378733534212294 C-8.419749082706707 20.40700752897815, -8.259498165413412 20.435281523744003, -7.92 20.495181145624777 M-8.58 20.378733534212294 C-8.333413326630822 20.42224024500016, -8.086826653261644 20.465746955788024, -7.92 20.495181145624777 M-7.92 20.495181145624777 C-7.679915110888076 20.524242746724017, -7.439830221776152 20.553304347823254, -7.26 20.575072290779506 M-7.92 20.495181145624777 C-7.782562593485788 20.511817557433137, -7.645125186971575 20.528453969241493, -7.26 20.575072290779506 M-7.26 20.575072290779506 C-7.125011728878796 20.5837704320015, -6.990023457757593 20.592468573223492, -6.6 20.61760023160602 M-7.26 20.575072290779506 C-7.019804971875621 20.590549563420257, -6.779609943751242 20.60602683606101, -6.6 20.61760023160602 M-6.6 20.61760023160602 C-6.443720709256135 20.618721485980405, -6.28744141851227 20.61984274035479, -5.9399999999999995 20.62233552240221 M-6.6 20.61760023160602 C-6.401487710092547 20.61902449436258, -6.202975420185094 20.62044875711914, -5.9399999999999995 20.62233552240221 M-5.9399999999999995 20.62233552240221 C-5.750627431409024 20.612836716007806, -5.561254862818047 20.6033379096134, -5.279999999999999 20.58923034636244 M-5.9399999999999995 20.62233552240221 C-5.778519201571767 20.6142357492825, -5.617038403143534 20.60613597616279, -5.279999999999999 20.58923034636244 M-5.279999999999999 20.58923034636244 C-5.026493453487268 20.562108469151905, -4.772986906974536 20.534986591941365, -4.620000000000001 20.51861899843003 M-5.279999999999999 20.58923034636244 C-5.103671660455179 20.570365525553434, -4.927343320910359 20.55150070474443, -4.620000000000001 20.51861899843003 M-4.620000000000001 20.51861899843003 C-4.392254986126826 20.481557124492095, -4.164509972253651 20.444495250554162, -3.959999999999999 20.411214509598242 M-4.620000000000001 20.51861899843003 C-4.372507209442129 20.47834348834, -4.125014418884258 20.438067978249965, -3.959999999999999 20.411214509598242 M-3.959999999999999 20.411214509598242 C-3.7840904444295815 20.373070637958268, -3.6081808888591635 20.334926766318294, -3.299999999999999 20.268101446747572 M-3.959999999999999 20.411214509598242 C-3.7122543223494238 20.357493838785228, -3.464508644698849 20.303773167972217, -3.299999999999999 20.268101446747572 M-3.299999999999999 20.268101446747572 C-3.1319986630101866 20.22295070916856, -2.963997326020374 20.177799971589554, -2.6400000000000006 20.090724960726195 M-3.299999999999999 20.268101446747572 C-3.048838583936333 20.20060125067859, -2.797677167872667 20.133101054609615, -2.6400000000000006 20.090724960726195 M-2.6400000000000006 20.090724960726195 C-2.418459306898503 20.020285504075176, -2.1969186137970054 19.949846047424153, -1.9800000000000004 19.880876193265788 M-2.6400000000000006 20.090724960726195 C-2.4609823245721523 20.03380581141989, -2.281964649144304 19.976886662113586, -1.9800000000000004 19.880876193265788 M-1.9800000000000004 19.880876193265788 C-1.770747054871999 19.804720168130153, -1.5614941097439978 19.728564142994514, -1.3199999999999985 19.64067419009315 M-1.9800000000000004 19.880876193265788 C-1.8366370543688193 19.82870033459709, -1.6932741087376382 19.776524475928397, -1.3199999999999985 19.64067419009315 M-1.3199999999999985 19.64067419009315 C-1.1265139255063128 19.562069098222857, -0.9330278510126273 19.483464006352566, -0.6600000000000001 19.372544502878444 M-1.3199999999999985 19.64067419009315 C-1.155659697827566 19.573909775216993, -0.9913193956551336 19.507145360340832, -0.6600000000000001 19.372544502878444 M-0.6600000000000001 19.372544502878444 C-0.527163923643274 19.31350293116196, -0.3943278472865479 19.25446135944547, 0 19.079194696096774 M-0.6600000000000001 19.372544502878444 C-0.42914209146895543 19.26993522581541, -0.19828418293791067 19.167325948752378, 0 19.079194696096774 M0 19.079194696096774 C0.17310579914404667 18.996416633389206, 0.34621159828809334 18.913638570681638, 0.6600000000000001 18.763587006134102 M0 19.079194696096774 C0.24239339033135382 18.963283759756322, 0.48478678066270764 18.847372823415867, 0.6600000000000001 18.763587006134102 M0.6600000000000001 18.763587006134102 C0.8017768932478966 18.691693538040596, 0.943553786495793 18.61980006994709, 1.3200000000000003 18.428908428724817 M0.6600000000000001 18.763587006134102 C0.9073708335671196 18.63814803845108, 1.154741667134239 18.512709070768064, 1.3200000000000003 18.428908428724817 M1.3200000000000003 18.428908428724817 C1.5115176555325054 18.327238701035398, 1.7030353110650105 18.22556897334598, 1.9800000000000004 18.078538536777035 M1.3200000000000003 18.428908428724817 C1.5162013845974112 18.32475228035906, 1.712402769194822 18.2205961319933, 1.9800000000000004 18.078538536777035 M1.9800000000000004 18.078538536777035 C2.1788628668631715 17.969307628415116, 2.377725733726343 17.860076720053197, 2.639999999999997 17.71601535356018 M1.9800000000000004 18.078538536777035 C2.172646324916168 17.97272223534728, 2.3652926498323352 17.866905933917526, 2.639999999999997 17.71601535356018 M2.639999999999997 17.71601535356018 C2.8626649404494704 17.59084536126804, 3.0853298808989438 17.465675368975905, 3.3000000000000007 17.34499962586614 M2.639999999999997 17.71601535356018 C2.782629561802321 17.635836852555983, 2.9252591236046457 17.555658351551784, 3.3000000000000007 17.34499962586614 M3.3000000000000007 17.34499962586614 C3.555801205366283 17.199362787725075, 3.8116024107325654 17.05372594958401, 3.960000000000001 16.969237857912514 M3.3000000000000007 17.34499962586614 C3.5538307712578767 17.200484626822366, 3.807661542515753 17.055969627778587, 3.960000000000001 16.969237857912514 M3.960000000000001 16.969237857912514 C4.1382932834315085 16.86747200156296, 4.316586566863015 16.765706145213407, 4.620000000000001 16.592524479270253 M3.960000000000001 16.969237857912514 C4.223329908842364 16.818934979643476, 4.4866598176847265 16.66863210137444, 4.620000000000001 16.592524479270253 M4.620000000000001 16.592524479270253 C4.773745084309433 16.505434656022548, 4.927490168618865 16.41834483277484, 5.280000000000001 16.218663528842715 M4.620000000000001 16.592524479270253 C4.797599099857281 16.49192240613735, 4.97519819971456 16.39132033300444, 5.280000000000001 16.218663528842715 M5.280000000000001 16.218663528842715 C5.465821458199653 16.115269854758072, 5.651642916399306 16.011876180673426, 5.940000000000001 15.85143024181003 M5.280000000000001 16.218663528842715 C5.415703046981888 16.143156443988914, 5.5514060939637755 16.06764935913511, 5.940000000000001 15.85143024181003 M5.940000000000001 15.85143024181003 C6.072658556686813 15.779694662096805, 6.205317113373625 15.707959082383582, 6.599999999999998 15.49453292743246 M5.940000000000001 15.85143024181003 C6.192383900957533 15.714952762349608, 6.444767801915065 15.578475282889187, 6.599999999999998 15.49453292743246 M6.599999999999998 15.49453292743246 C6.7854067558281 15.39818956409255, 6.970813511656201 15.301846200752642, 7.259999999999998 15.151575522669422 M6.599999999999998 15.49453292743246 C6.832329383102959 15.373807045191263, 7.06465876620592 15.25308116295007, 7.259999999999998 15.151575522669422 M7.259999999999998 15.151575522669422 C7.425466906038497 15.069956633939853, 7.5909338120769965 14.988337745210284, 7.919999999999998 14.826021199746492 M7.259999999999998 15.151575522669422 C7.414854658211957 15.075191275085094, 7.569709316423916 14.998807027500767, 7.919999999999998 14.826021199746492 M7.919999999999998 14.826021199746492 C8.104775640912269 14.740670586286726, 8.28955128182454 14.655319972826959, 8.580000000000002 14.521157395159872 M7.919999999999998 14.826021199746492 C8.097466218196992 14.74404691722356, 8.274932436393987 14.662072634700628, 8.580000000000002 14.521157395159872 M8.580000000000002 14.521157395159872 C8.827907101424431 14.415573466966329, 9.07581420284886 14.309989538772784, 9.240000000000002 14.240062613254315 M8.580000000000002 14.521157395159872 C8.836584695507812 14.411877669365824, 9.093169391015621 14.302597943571776, 9.240000000000002 14.240062613254315 M9.240000000000002 14.240062613254315 C9.489048298002771 14.144032882391791, 9.738096596005542 14.048003151529267, 9.900000000000002 13.98557533959079 M9.240000000000002 14.240062613254315 C9.44371556311107 14.161512585589216, 9.64743112622214 14.082962557924116, 9.900000000000002 13.98557533959079 M9.900000000000002 13.98557533959079 C10.155737209476866 13.898272095892983, 10.411474418953732 13.810968852195177, 10.559999999999999 13.760265378015704 M9.900000000000002 13.98557533959079 C10.050886052128817 13.93406605079176, 10.201772104257634 13.88255676199273, 10.559999999999999 13.760265378015704 M10.559999999999999 13.760265378015704 C10.71195184201521 13.715633558711348, 10.863903684030422 13.671001739406993, 11.219999999999999 13.566407900868924 M10.559999999999999 13.760265378015704 C10.783266955216272 13.694686637608932, 11.006533910432543 13.629107897202159, 11.219999999999999 13.566407900868924 M11.219999999999999 13.566407900868924 C11.394714136299484 13.523934516714231, 11.569428272598968 13.481461132559536, 11.879999999999999 13.405960474370783 M11.219999999999999 13.566407900868924 C11.381217557052382 13.527215564300178, 11.542435114104766 13.488023227731432, 11.879999999999999 13.405960474370783 M11.879999999999999 13.405960474370783 C12.084970467710113 13.367010749073044, 12.289940935420226 13.328061023775305, 12.54 13.28054329118484 M11.879999999999999 13.405960474370783 C12.134435340749686 13.357611135371114, 12.388870681499375 13.309261796371445, 12.54 13.28054329118484 M12.54 13.28054329118484 C12.784926658612205 13.247470591597748, 13.029853317224411 13.214397892010656, 13.2 13.191422809767417 M12.54 13.28054329118484 C12.773879426732655 13.248962310724165, 13.007758853465312 13.21738133026349, 13.2 13.191422809767417 M13.2 13.191422809767417 C13.40860952188232 13.175010979036413, 13.617219043764642 13.158599148305408, 13.860000000000003 13.139498965713102 M13.2 13.191422809767417 C13.415523456558038 13.174467042572923, 13.631046913116075 13.157511275378427, 13.860000000000003 13.139498965713102 M13.860000000000003 13.139498965713102 C14.054052842735517 13.135323042189272, 14.24810568547103 13.131147118665442, 14.52 13.12529608423569 M13.860000000000003 13.139498965713102 C14.091517401413766 13.134516822967287, 14.323034802827529 13.129534680221472, 14.52 13.12529608423569 M14.52 13.12529608423569 C14.771651423726894 13.134317978922438, 15.023302847453788 13.143339873609186, 15.18 13.148957585549969 M14.52 13.12529608423569 C14.674853482516191 13.130847699205503, 14.829706965032383 13.136399314175318, 15.18 13.148957585549969 M15.18 13.148957585549969 C15.34365555561467 13.16415447953357, 15.50731111122934 13.17935137351717, 15.839999999999996 13.210244536619275 M15.18 13.148957585549969 C15.433958190158709 13.17253989338922, 15.687916380317418 13.196122201228473, 15.839999999999996 13.210244536619275 M15.839999999999996 13.210244536619275 C16.043021522564864 13.24048044808203, 16.24604304512973 13.270716359544785, 16.5 13.308538063893174 M15.839999999999996 13.210244536619275 C16.072180903090427 13.244823142574422, 16.304361806180857 13.27940174852957, 16.5 13.308538063893174 M16.5 13.308538063893174 C16.5 4.774163366146173, 16.5 -3.7602113316008285, 16.5 -16.875 M16.5 13.308538063893174 C16.5 2.1703312304016524, 16.5 -8.967875603089869, 16.5 -16.875 M16.5 -16.875 C6.883152872006388 -16.875, -2.733694255987224 -16.875, -16.5 -16.875 M16.5 -16.875 C9.68876259273425 -16.875, 2.8775251854685013 -16.875, -16.5 -16.875 M-16.5 -16.875 C-16.5 -10.045266088613499, -16.5 -3.215532177226999, -16.5 16.875 M-16.5 -16.875 C-16.5 -9.242045154811864, -16.5 -1.6090903096237277, -16.5 16.875" stroke="currentColor" stroke-width="2" fill="none" vector-effect="non-scaling-stroke"/></g><path d="M10.5 13.942500000000003 C12.882349356867277 10.28261580051265, 15.264698713734552 6.622731601025297, 16.5 4.725000000000001 M10.5 13.942500000000003 C12.705285884848694 10.554629559401196, 14.910571769697388 7.16675911880239, 16.5 4.725000000000001 M16.5 4.725000000000001 C16.5 5.960018184364644, 16.5 7.195036368729287, 16.5 9.652500000000002 M16.5 4.725000000000001 C16.5 5.721408094900101, 16.5 6.7178161898002005, 16.5 9.652500000000002 M16.5 9.652500000000002 C16.5 10.695953933727365, 16.5 11.739407867454727, 16.5 13.674375000000001 M16.5 9.652500000000002 C16.5 10.692167565921926, 16.5 11.73183513184385, 16.5 13.674375000000001 M16.5 13.674375000000001 C16.46085988326971 13.662086858680336, 16.421719766539418 13.649798717360673, 16.38 13.636700688282414 M16.5 13.674375000000001 C16.456288373218932 13.660651621224728, 16.412576746437864 13.646928242449455, 16.38 13.636700688282414 M16.38 13.636700688282414 C16.334938630028773 13.622609386401738, 16.289877260057548 13.60851808452106, 16.26 13.59917505986142 M16.38 13.636700688282414 C16.34551702807706 13.62591739502215, 16.311034056154124 13.615134101761884, 16.26 13.59917505986142 M16.26 13.59917505986142 C16.212703331490964 13.584501722262958, 16.165406662981923 13.569828384664497, 16.14 13.561946211248566 M16.26 13.59917505986142 C16.218131339889567 13.586185709787467, 16.176262679779132 13.573196359713513, 16.14 13.561946211248566 M16.14 13.561946211248566 C16.092283131030833 13.54731894562634, 16.044566262061664 13.532691680004117, 16.02 13.525161067701088 M16.14 13.561946211248566 C16.1020147425511 13.550302101682352, 16.0640294851022 13.538657992116137, 16.02 13.525161067701088 M16.02 13.525161067701088 C15.984927825962629 13.51458205368487, 15.949855651925258 13.504003039668653, 15.9 13.488964803375033 M16.02 13.525161067701088 C15.988013009775976 13.515512654758224, 15.956026019551953 13.50586424181536, 15.9 13.488964803375033 M15.9 13.488964803375033 C15.875029591416533 13.481585103968207, 15.850059182833068 13.474205404561383, 15.78 13.453500268389194 M15.9 13.488964803375033 C15.873456402984527 13.481120167333323, 15.846912805969051 13.47327553129161, 15.78 13.453500268389194 M15.78 13.453500268389194 C15.733546114055962 13.440108835068779, 15.687092228111924 13.426717401748363, 15.66 13.418907425060958 M15.78 13.453500268389194 C15.747285329111298 13.444069489350962, 15.714570658222595 13.434638710312733, 15.66 13.418907425060958 M15.66 13.418907425060958 C15.61384297169261 13.405989369264796, 15.567685943385223 13.393071313468633, 15.54 13.385322795538972 M15.66 13.418907425060958 C15.624689055824406 13.409024883575885, 15.589378111648813 13.39914234209081, 15.54 13.385322795538972 M15.54 13.385322795538972 C15.51402504870517 13.378300062133238, 15.48805009741034 13.371277328727505, 15.42 13.352878923012604 M15.54 13.385322795538972 C15.49947400582672 13.374365960630954, 15.45894801165344 13.363409125722935, 15.42 13.352878923012604 M15.42 13.352878923012604 C15.373115246038113 13.340698625575696, 15.326230492076226 13.328518328138788, 15.3 13.321703848624518 M15.42 13.352878923012604 C15.375048917579448 13.34120097852689, 15.330097835158899 13.329523034041175, 15.3 13.321703848624518 M15.3 13.321703848624518 C15.2619863829002 13.312269108829627, 15.223972765800402 13.302834369034738, 15.18 13.291920606150788 M15.3 13.321703848624518 C15.271461143878522 13.314620684692944, 15.242922287757043 13.30753752076137, 15.18 13.291920606150788 M15.18 13.291920606150788 C15.13391701068787 13.281062735854402, 15.08783402137574 13.270204865558016, 15.06 13.263646736442789 M15.18 13.291920606150788 C15.136653782629049 13.281707561965113, 15.093307565258096 13.27149451777944, 15.06 13.263646736442789 M15.06 13.263646736442789 C15.02385533415692 13.255618731189811, 14.98771066831384 13.247590725936831, 14.94 13.236993823547154 M15.06 13.263646736442789 C15.01523419207558 13.25370390994852, 14.97046838415116 13.24376108345425, 14.94 13.236993823547154 M14.94 13.236993823547154 C14.9093074655658 13.230618275860555, 14.8786149311316 13.224242728173955, 14.82 13.212067054334527 M14.94 13.236993823547154 C14.911497966170165 13.231073293385764, 14.88299593234033 13.225152763224374, 14.82 13.212067054334527 M14.82 13.212067054334527 C14.784476079362687 13.20522803325429, 14.748952158725373 13.198389012174054, 14.7 13.188964803375033 M14.82 13.212067054334527 C14.778008397961619 13.203982883263844, 14.736016795923238 13.195898712193163, 14.7 13.188964803375033 M14.7 13.188964803375033 C14.671076065543962 13.183858148087529, 14.642152131087927 13.178751492800023, 14.58 13.167778244698793 M14.7 13.188964803375033 C14.66547520922573 13.182869290829, 14.63095041845146 13.176773778282966, 14.58 13.167778244698793 M14.58 13.167778244698793 C14.545442774324883 13.162252759511233, 14.510885548649767 13.156727274323675, 14.46 13.148590991973684 M14.58 13.167778244698793 C14.535550245416443 13.160671005742428, 14.491100490832888 13.153563766786064, 14.46 13.148590991973684 M14.46 13.148590991973684 C14.429600354284773 13.144255945887185, 14.399200708569543 13.139920899800686, 14.34 13.13147876852039 M14.46 13.148590991973684 C14.412667053395781 13.141841225648733, 14.365334106791563 13.13509145932378, 14.34 13.13147876852039 M14.34 13.13147876852039 C14.300852964947786 13.126595286796825, 14.261705929895573 13.12171180507326, 14.219999999999999 13.116509108467051 M14.34 13.13147876852039 C14.315443526674992 13.128415418038854, 14.290887053349984 13.12535206755732, 14.219999999999999 13.116509108467051 M14.219999999999999 13.116509108467051 C14.192940153891563 13.113629936727083, 14.165880307783128 13.110750764987115, 14.1 13.10374109022291 M14.219999999999999 13.116509108467051 C14.18763207441957 13.113065156264252, 14.15526414883914 13.109621204061453, 14.1 13.10374109022291 M14.1 13.10374109022291 C14.064588752343104 13.100637888418946, 14.029177504686208 13.097534686614981, 13.98 13.093225103322823 M14.1 13.10374109022291 C14.069634059275202 13.101080024932319, 14.039268118550405 13.09841895964173, 13.98 13.093225103322823 M13.98 13.093225103322823 C13.95138261138277 13.091264227034172, 13.922765222765541 13.08930335074552, 13.86 13.085002649562789 M13.98 13.093225103322823 C13.938776048301001 13.090400419684066, 13.897552096602004 13.087575736045308, 13.86 13.085002649562789 M13.86 13.085002649562789 C13.816129425138735 13.082846970029692, 13.772258850277472 13.080691290496597, 13.74 13.079106179211315 M13.86 13.085002649562789 C13.821923485577331 13.08313167424295, 13.783846971154663 13.08126069892311, 13.74 13.079106179211315 M13.74 13.079106179211315 C13.694234091768275 13.077753332759547, 13.648468183536549 13.076400486307781, 13.620000000000001 13.075558962943038 M13.74 13.079106179211315 C13.70676913665621 13.078123870385799, 13.673538273312417 13.077141561560282, 13.620000000000001 13.075558962943038 M13.620000000000001 13.075558962943038 C13.58497160447999 13.075213360257624, 13.549943208959979 13.074867757572209, 13.5 13.074375000000002 M13.620000000000001 13.075558962943038 C13.586085826724297 13.07522435357302, 13.552171653448594 13.074889744203002, 13.5 13.074375000000002 M13.5 13.074375000000002 C13.470211434460428 13.07466890464771, 13.440422868920857 13.07496280929542, 13.379999999999999 13.075558962943038 M13.5 13.074375000000002 C13.465058989724334 13.074719740511323, 13.430117979448667 13.075064481022645, 13.379999999999999 13.075558962943038 M13.379999999999999 13.075558962943038 C13.348522910295815 13.076489429982011, 13.317045820591632 13.077419897020983, 13.26 13.079106179211315 M13.379999999999999 13.075558962943038 C13.34859364184664 13.076487339147778, 13.317187283693281 13.07741571535252, 13.26 13.079106179211315 M13.26 13.079106179211315 C13.218868148322649 13.081127285410622, 13.177736296645298 13.083148391609926, 13.14 13.085002649562789 M13.26 13.079106179211315 C13.224893575354699 13.080831212478543, 13.189787150709396 13.082556245745769, 13.14 13.085002649562789 M13.14 13.085002649562789 C13.098296823734454 13.08786016988354, 13.05659364746891 13.090717690204288, 13.02 13.093225103322823 M13.14 13.085002649562789 C13.11523785669605 13.086699362715423, 13.090475713392097 13.088396075868056, 13.02 13.093225103322823 M13.02 13.093225103322823 C12.986103367622306 13.096195574506497, 12.952206735244612 13.09916604569017, 12.9 13.10374109022291 M13.02 13.093225103322823 C12.984275871516397 13.09635572388241, 12.948551743032793 13.099486344441999, 12.9 13.10374109022291 M12.9 13.10374109022291 C12.873076995765734 13.10660570196666, 12.846153991531466 13.109470313710414, 12.780000000000001 13.116509108467051 M12.9 13.10374109022291 C12.856066242822903 13.108415648666, 12.812132485645806 13.11309020710909, 12.780000000000001 13.116509108467051 M12.780000000000001 13.116509108467051 C12.736101653025798 13.121985302892945, 12.692203306051596 13.12746149731884, 12.66 13.13147876852039 M12.780000000000001 13.116509108467051 C12.746666611617343 13.120667354238003, 12.713333223234686 13.124825600008956, 12.66 13.13147876852039 M12.66 13.13147876852039 C12.612235645589758 13.13829005440181, 12.564471291179517 13.14510134028323, 12.54 13.148590991973684 M12.66 13.13147876852039 C12.613103808719089 13.138166252722952, 12.566207617438177 13.144853736925512, 12.54 13.148590991973684 M12.54 13.148590991973684 C12.513943020901628 13.152757340667128, 12.487886041803257 13.156923689360573, 12.42 13.167778244698793 M12.54 13.148590991973684 C12.50193364899118 13.15467756444976, 12.46386729798236 13.160764136925833, 12.42 13.167778244698793 M12.42 13.167778244698793 C12.39026298484939 13.173028453168332, 12.360525969698779 13.17827866163787, 12.3 13.188964803375033 M12.42 13.167778244698793 C12.383714761629275 13.174184572463982, 12.347429523258551 13.180590900229172, 12.3 13.188964803375033 M12.3 13.188964803375033 C12.263732448979395 13.195946987253068, 12.22746489795879 13.202929171131105, 12.18 13.212067054334527 M12.3 13.188964803375033 C12.261212514826472 13.19643212184642, 12.22242502965294 13.203899440317809, 12.18 13.212067054334527 M12.18 13.212067054334527 C12.153347879253278 13.217603314858533, 12.126695758506557 13.223139575382538, 12.06 13.236993823547154 M12.18 13.212067054334527 C12.152324090776581 13.217815979350876, 12.12464818155316 13.223564904367224, 12.06 13.236993823547154 M12.06 13.236993823547154 C12.032642586535223 13.24307011319821, 12.005285173070446 13.249146402849263, 11.94 13.263646736442789 M12.06 13.236993823547154 C12.026970634234788 13.244329896953307, 11.993941268469573 13.25166597035946, 11.94 13.263646736442789 M11.94 13.263646736442789 C11.907692327018978 13.271258927579739, 11.875384654037955 13.27887111871669, 11.82 13.291920606150788 M11.94 13.263646736442789 C11.906906578873384 13.271444062085504, 11.87381315774677 13.27924138772822, 11.82 13.291920606150788 M11.82 13.291920606150788 C11.786273837183765 13.300291226857992, 11.752547674367532 13.308661847565194, 11.7 13.321703848624518 M11.82 13.291920606150788 C11.787429327305611 13.300004441504033, 11.754858654611223 13.308088276857278, 11.7 13.321703848624518 M11.7 13.321703848624518 C11.663467913002396 13.331194603038703, 11.626935826004791 13.34068535745289, 11.58 13.352878923012604 M11.7 13.321703848624518 C11.67557180365365 13.328050105610053, 11.651143607307299 13.334396362595589, 11.58 13.352878923012604 M11.58 13.352878923012604 C11.550283644698354 13.360913203373894, 11.520567289396705 13.368947483735186, 11.46 13.385322795538972 M11.58 13.352878923012604 C11.533273387852853 13.365512191746696, 11.486546775705706 13.37814546048079, 11.46 13.385322795538972 M11.46 13.385322795538972 C11.434617504205349 13.392426643185695, 11.409235008410699 13.399530490832417, 11.34 13.418907425060958 M11.46 13.385322795538972 C11.434667178812456 13.392412740658392, 11.40933435762491 13.399502685777813, 11.34 13.418907425060958 M11.34 13.418907425060958 C11.299305945939954 13.430638450365041, 11.258611891879909 13.442369475669125, 11.219999999999999 13.453500268389195 M11.34 13.418907425060958 C11.293059442245111 13.43243915306225, 11.246118884490222 13.44597088106354, 11.219999999999999 13.453500268389195 M11.219999999999999 13.453500268389195 C11.193478470642399 13.461338382604033, 11.1669569412848 13.469176496818871, 11.1 13.488964803375033 M11.219999999999999 13.453500268389195 C11.182750255637869 13.46450897557373, 11.145500511275738 13.475517682758268, 11.1 13.488964803375033 M11.1 13.488964803375033 C11.066106265853472 13.499188358043073, 11.032212531706943 13.509411912711112, 10.98 13.525161067701088 M11.1 13.488964803375033 C11.052758672887762 13.503214466402268, 11.005517345775525 13.517464129429502, 10.98 13.525161067701088 M10.98 13.525161067701088 C10.942368796541288 13.53669664454353, 10.904737593082574 13.548232221385973, 10.86 13.561946211248566 M10.98 13.525161067701088 C10.952991766002144 13.533440249072546, 10.925983532004288 13.541719430444005, 10.86 13.561946211248566 M10.86 13.561946211248566 C10.82059393495304 13.574171564832412, 10.781187869906079 13.586396918416257, 10.74 13.599175059861418 M10.86 13.561946211248566 C10.827933058534432 13.57189467215939, 10.795866117068865 13.581843133070214, 10.74 13.599175059861418 M10.74 13.599175059861418 C10.71425709389461 13.607225215936314, 10.688514187789218 13.61527537201121, 10.620000000000001 13.636700688282414 M10.74 13.599175059861418 C10.715779304835554 13.606749199918411, 10.691558609671109 13.614323339975405, 10.620000000000001 13.636700688282414 M10.620000000000001 13.636700688282414 C10.586732744022418 13.64714502971315, 10.553465488044838 13.657589371143883, 10.5 13.674375000000001 M10.620000000000001 13.636700688282414 C10.57871173557545 13.64966324615082, 10.5374234711509 13.662625804019225, 10.5 13.674375000000001 M10.5 13.674375000000001 C10.5 13.77058168509105, 10.5 13.8667883701821, 10.5 13.942500000000003 M10.5 13.674375000000001 C10.5 13.734876036295914, 10.5 13.795377072591824, 10.5 13.942500000000003" stroke="currentColor" stroke-width="2" fill="none" vector-effect="non-scaling-stroke"/></g></g></g></g></g><linearGradient id="s2m-shape-taggedDocument-gradient" gradientUnits="objectBoundingBox" x1="0%" y1="0%" x2="100%" y2="0%"><stop offset="0%" stop-color="hsl(40.5882352941, 60%, 83.3333333333%)" stop-opacity="1"/><stop offset="100%" stop-color="hsl(-79.4117647059, 60%, 83.3333333333%)" stop-opacity="1"/></linearGradient></svg>